<svg width="475" height="384" viewBox="0 0 475 384" fill="none" xmlns="http://www.w3.org/2000/svg">
<g clip-path="url(#clip0_215_1450)">
<g opacity="0.5">
<path d="M66.2631 298.35C66.0435 298.133 65.9192 297.868 65.8031 297.596C66.1678 297.184 66.4587 296.721 66.6322 296.218C66.8045 295.722 66.7887 295.269 66.6423 294.863C67.0108 294.267 67.3654 293.663 67.7516 293.078C68.199 292.398 67.1988 291.62 66.6429 292.2C66.4694 292.38 66.2782 292.541 66.0851 292.698C65.7955 292.544 65.3955 292.656 65.1147 292.813C64.9588 292.901 64.861 293.018 64.8086 293.146C64.3631 292.945 63.8861 292.803 63.4299 292.724C63.5416 292.536 63.5624 292.296 63.4135 292.048C63.0008 291.356 62.3389 290.686 61.5634 290.431C61.2245 290.319 60.7456 290.557 60.6882 290.93C60.6876 290.937 60.6863 290.944 60.6863 290.95C60.4465 291.057 60.256 291.289 60.2358 291.595C60.196 292.212 60.1386 292.899 60.3809 293.483C60.4068 293.546 60.4396 293.6 60.4743 293.649C60.1929 294.01 60.0004 294.452 59.8856 294.929C59.7411 294.93 59.5966 294.921 59.4546 294.887C58.9965 294.783 58.5781 295.126 58.5548 295.545C57.7301 295.505 57.3811 296.666 58.2588 296.927C58.2727 296.931 58.2872 296.936 58.3018 296.94C58.3737 296.96 58.4412 296.965 58.5062 296.965C58.9473 297.035 59.3707 297.105 59.7997 296.979C59.8471 297.353 59.9241 297.72 60.0263 298.065C59.8445 298.238 59.7682 298.504 59.8206 298.769C59.9114 299.235 60.0301 299.728 59.9171 300.2C59.7038 301.102 60.993 301.446 61.2895 300.58C61.2384 300.727 61.3444 300.489 61.3495 300.481C61.4138 300.371 61.487 300.268 61.5571 300.162C61.6858 299.97 61.7912 299.774 61.8675 299.552C61.8757 299.53 61.8801 299.503 61.8871 299.478C62.0228 299.478 62.1654 299.47 62.3162 299.451C62.8614 299.379 63.4242 299.207 63.9593 298.955C63.9991 299.304 64.1057 299.651 64.2142 299.982C64.4975 300.853 65.8763 300.493 65.5898 299.614C65.581 299.589 65.574 299.562 65.5658 299.537C66.2385 299.721 66.7748 298.851 66.2631 298.35ZM62.3786 297.999C61.8347 298.131 61.552 298.022 61.4265 297.785C61.4006 297.71 61.3754 297.63 61.3533 297.547C61.3022 297.181 61.4435 296.673 61.6013 296.22C61.6366 296.119 61.6467 296.025 61.641 295.94C61.8865 295.621 61.7539 295.089 61.388 294.873C61.6145 294.413 62.0146 294.097 62.6594 294.072C63.2696 294.048 64.3852 294.337 64.943 294.887C64.6849 295.292 64.9064 295.681 65.2453 295.845C65.2232 295.925 65.191 296.009 65.1456 296.093C64.6225 297.077 63.4236 297.746 62.3786 297.999Z" fill="#C7F4FF"/>
<path d="M83.209 296.327C83.1522 296.219 83.1049 296.123 83.0891 296.009C83.1049 296.004 83.1245 295.999 83.1516 295.992C83.2778 295.963 83.38 295.901 83.4602 295.824C84.1278 295.739 84.3316 294.641 83.5498 294.424C83.2002 294.329 82.8506 294.231 82.5004 294.135C83.2336 292.526 83.3504 290.667 82.7055 288.853C83.0841 288.931 83.3642 288.72 83.4867 288.435C83.5939 288.352 83.6943 288.268 83.7807 288.196C84.1599 287.876 84.0041 287.233 83.5883 287.037C83.6009 286.61 83.2216 286.17 82.7017 286.292C82.3098 286.383 81.9843 286.565 81.7413 286.813C81.7085 286.831 81.6763 286.85 81.6448 286.867C80.9122 285.906 79.9947 285.278 78.9876 284.939C78.9043 284.894 78.821 284.846 78.734 284.805C78.6866 284.673 78.5989 284.55 78.4582 284.453C78.4904 284.475 78.6292 284.602 78.5169 284.489C78.5169 284.487 78.5156 284.487 78.515 284.487C78.4885 284.444 78.4645 284.4 78.4437 284.354C78.4513 284.355 78.4021 284.22 78.3995 284.214C78.3749 284.125 78.3711 284.049 78.3667 283.943C78.3573 283.743 78.3863 283.546 78.4267 283.352C78.6791 283.244 78.8614 283.025 78.8614 282.71C78.8621 282.353 78.5352 281.953 78.1497 281.995C78.1339 281.995 78.1269 281.996 78.115 281.997C78.0897 281.977 78.0651 281.958 78.0613 281.955C77.9578 281.848 77.8474 281.746 77.7181 281.67C77.2814 281.417 76.692 281.617 76.4409 282.042C76.2541 282.355 76.1544 282.771 76.0005 283.105C75.8989 283.326 75.7954 283.546 75.6989 283.772C75.6761 283.824 75.6553 283.878 75.6339 283.931C75.6187 283.969 75.6029 284.007 75.5884 284.046C75.5512 284.143 75.5165 284.244 75.4849 284.347C75.4774 284.376 75.4749 284.403 75.4704 284.43C74.3517 284.679 73.3181 285.289 72.489 286.119C72.4164 286.168 72.3451 286.219 72.2757 286.269C72.2826 286.169 72.2687 286.064 72.2296 285.963C72.477 285.766 72.6152 285.421 72.4643 285.128C72.9054 284.747 72.7628 283.839 72.0258 283.865C71.9779 283.865 71.7703 283.847 71.7488 283.851C71.68 283.837 71.61 283.821 71.5425 283.801C71.2989 283.736 71.0383 283.696 70.8105 283.84C70.6584 283.936 70.5625 284.042 70.507 284.156C70.1599 284.315 69.9618 284.782 70.136 285.14C69.4419 285.195 69.2185 286.322 70.0123 286.542C70.4704 286.667 70.9272 286.794 71.3853 286.92C71.4144 286.928 71.4428 286.933 71.4718 286.937C70.6666 287.714 70.1473 288.636 69.8924 289.61C69.8791 289.595 69.8684 289.578 69.8526 289.562C69.5946 289.295 69.1081 289.263 68.8462 289.551C68.7591 289.646 68.667 289.74 68.5711 289.828C68.566 289.832 68.5553 289.841 68.5427 289.851C68.366 289.853 68.19 289.861 68.019 289.87C67.6505 289.889 67.3419 290.153 67.3122 290.53C67.121 290.963 67.3684 291.608 67.9445 291.575C68.479 291.544 69.0652 291.488 69.5453 291.234C69.6066 291.2 69.6577 291.161 69.7031 291.113C69.7056 292.601 70.2489 294.107 71.2522 295.337C70.9203 295.441 70.6079 295.719 70.5171 296.016C70.466 296.185 70.3568 296.353 70.2432 296.524C70.0792 296.771 69.9517 297.033 69.8646 297.317C69.6861 297.905 70.3776 298.453 70.9033 298.128C70.9455 298.101 70.984 298.073 71.0238 298.044C71.0932 298.095 71.1727 298.133 71.2623 298.147C71.6346 298.202 71.9331 298.131 72.2069 297.858C72.3123 297.753 72.3962 297.625 72.4839 297.506C72.4088 297.606 72.6795 297.338 72.5779 297.405C72.783 297.272 72.9143 297.06 72.9345 296.833C73.8929 297.433 74.9353 297.723 75.9872 297.754C75.9891 297.803 75.9948 297.852 76.0074 297.904C76.1443 298.516 76.6012 299.026 76.7274 299.585C76.8132 299.964 77.2347 300.189 77.5988 300.091C77.9843 299.988 78.1894 299.597 78.1036 299.217C78.091 299.163 78.0739 299.109 78.0569 299.058C78.1818 298.95 78.2752 298.811 78.2961 298.663C78.3377 298.381 78.2771 298.142 78.1307 297.929C78.286 297.978 78.4633 297.976 78.6456 297.894C79.9417 297.308 80.9936 296.443 81.7527 295.412C81.7546 295.411 81.7546 295.413 81.7571 295.412C81.7647 295.415 81.7678 295.416 81.7735 295.419C81.7609 295.448 81.7457 295.477 81.7356 295.508C81.5564 296.028 81.7243 296.567 81.9723 297.033C82.4026 297.848 83.6387 297.139 83.209 296.327ZM78.4929 284.459C78.45 284.401 78.4689 284.428 78.4929 284.459V284.459ZM74.9145 296.148C74.8659 296.134 74.818 296.12 74.7694 296.105C74.8489 296.096 74.9202 296.072 74.9846 296.039C74.9568 296.072 74.9341 296.109 74.9145 296.148ZM79.3587 295.282C79.2337 294.997 78.9485 294.801 78.5636 294.929C77.5092 295.279 76.4535 295.601 75.3644 295.824C75.2893 295.839 75.2256 295.865 75.1669 295.898C75.4755 295.548 75.4509 294.876 74.8659 294.695C71.114 293.538 71.4712 289.179 73.6405 286.993C75.2534 285.952 77.2145 285.715 78.8349 286.468C81.4378 288.253 81.6738 293.188 79.3587 295.282Z" fill="#C7F4FF"/>
</g>
<g opacity="0.5">
<path d="M459.144 275.825C456.616 277.929 454.297 280.267 451.769 282.372C451.114 282.917 451.429 284.032 452.29 284.113C455.62 284.422 458.962 284.515 462.307 284.545C462.87 284.55 463.566 284.07 463.378 283.411C462.571 280.583 461.784 277.757 461.46 274.823C461.321 273.558 459.378 273.878 459.517 275.134C459.84 278.067 460.628 280.893 461.436 283.719C461.792 283.341 462.149 282.963 462.508 282.586C459.16 282.555 455.821 282.464 452.489 282.153C452.662 282.733 452.838 283.314 453.01 283.894C455.538 281.79 457.859 279.453 460.386 277.349C461.362 276.535 460.122 275.013 459.144 275.825Z" fill="#C7F4FF"/>
</g>
<g opacity="0.5">
<path d="M410.53 244.014C412.141 243.698 413.372 242.699 414.624 241.695C414.937 241.444 414.995 240.9 414.711 240.605C411.339 237.114 409.297 232.759 407.086 228.497C406.627 227.612 405.239 228.282 405.697 229.166C407.968 233.542 410.078 238.026 413.539 241.61C413.567 241.246 413.596 240.884 413.625 240.52C412.588 241.35 411.574 242.235 410.237 242.497C409.262 242.688 409.556 244.206 410.53 244.014Z" fill="#C7F4FF"/>
<path d="M406.636 244.497C408.609 241.738 408.984 238.253 410.029 235.105C410.343 234.16 408.883 233.664 408.569 234.61C407.572 237.614 407.238 241.004 405.361 243.631C404.781 244.442 406.058 245.304 406.636 244.497Z" fill="#C7F4FF"/>
<path d="M406.235 244.38C409.124 246.011 412.525 246.003 415.533 247.318C415.827 247.447 416.258 247.295 416.416 247.018C417.896 244.417 418.179 241.509 419 238.68C419.091 238.367 419.005 237.968 418.701 237.792C416.067 236.272 413.025 234.931 409.933 234.958C408.948 234.968 408.836 236.511 409.833 236.501C412.652 236.475 415.438 237.687 417.839 239.073C417.74 238.778 417.641 238.481 417.54 238.186C416.764 240.86 416.54 243.695 415.14 246.152C415.436 246.053 415.73 245.954 416.023 245.853C413.158 244.598 409.842 244.649 407.096 243.1C406.238 242.615 405.368 243.893 406.235 244.38Z" fill="#C7F4FF"/>
</g>
<g opacity="0.5">
<path d="M49.681 183.508C50.9708 184.632 52.5117 185.034 54.139 185.435C54.546 185.535 55.1165 185.309 55.1859 184.839C55.9103 179.905 58.1339 175.517 60.2036 171.044C60.6623 170.052 59.1959 169.185 58.7346 170.182C56.6075 174.78 54.2899 179.31 53.5453 184.385C53.8936 184.187 54.2425 183.988 54.5915 183.789C53.2897 183.468 51.9255 183.209 50.8837 182.302C50.0603 181.583 48.8513 182.786 49.681 183.508Z" fill="#C7F4FF"/>
<path d="M46.8799 180.686C50.3649 180.56 53.412 178.71 56.6333 177.582C57.6624 177.222 57.2195 175.572 56.1802 175.936C53.1344 177.002 50.1718 178.86 46.8799 178.978C45.7858 179.018 45.7826 180.725 46.8799 180.686Z" fill="#C7F4FF"/>
<path d="M46.7412 180.4C47.2227 183.698 49.3403 186.419 50.1436 189.619C50.2666 190.113 50.7393 190.279 51.1898 190.215C54.1473 189.8 56.6208 188.22 59.3556 187.142C59.8326 186.954 60.0168 186.594 59.9493 186.093C59.5253 182.953 58.64 179.709 56.6681 177.18C55.993 176.314 54.7985 177.531 55.4654 178.387C57.2329 180.654 57.9314 183.75 58.3094 186.545C58.5075 186.196 58.7056 185.846 58.9031 185.496C56.1772 186.57 53.6822 188.156 50.7374 188.57C51.0863 188.768 51.4352 188.966 51.7836 189.166C50.9803 185.964 48.8627 183.237 48.3806 179.946C48.2216 178.861 46.5829 179.324 46.7412 180.4Z" fill="#C7F4FF"/>
</g>
<g opacity="0.5">
<path d="M128.753 203.591C128.496 203.304 128.049 203.177 128.118 202.776C127.99 202.967 127.862 203.157 127.734 203.348C127.475 203.483 127.493 203.328 127.662 203.469C127.562 203.319 127.463 203.171 127.365 203.022C127.369 203.035 127.373 203.047 127.376 203.061C127.501 202.808 127.625 202.554 127.75 202.301C127.733 202.309 127.717 202.317 127.701 202.326C127.005 202.688 127.366 203.792 128.149 203.641C128.172 203.635 128.195 203.631 128.219 203.627C128.554 203.56 128.717 203.306 128.782 202.994V202.993C128.877 202.53 128.351 202.185 127.95 202.252C127.764 202.283 127.576 202.313 127.389 202.342C127.247 202.363 127.103 202.381 126.959 202.396C126.764 202.417 126.785 202.328 127.017 202.488C127.116 202.637 127.214 202.786 127.313 202.936C127.313 202.928 127.311 202.921 127.311 202.913C127.275 203.089 127.241 203.264 127.206 203.439C127.037 203.58 127.027 203.607 127.176 203.519C126.942 203.504 126.708 203.488 126.473 203.472C127.212 204.015 127.899 204.793 128.47 205.509C128.842 205.975 129.677 205.699 129.69 205.102C129.708 204.313 129.991 203.682 129.849 202.882C129.492 203.121 129.132 203.358 128.775 203.596C129.439 204.138 130.095 204.707 130.798 205.202C130.695 204.99 130.594 204.778 130.49 204.567C130.511 205.01 129.923 205.329 129.883 205.826C129.813 206.727 131.207 206.833 131.277 205.936C131.269 206.035 131.549 205.664 131.584 205.614C131.718 205.44 131.807 205.226 131.855 205.014C131.974 204.482 131.762 204.186 131.36 203.882C130.745 203.417 130.151 202.923 129.553 202.437C129.056 202.031 128.38 202.593 128.478 203.149C128.586 203.762 128.311 204.362 128.295 204.992C128.702 204.857 129.11 204.721 129.516 204.585C128.871 203.776 128.087 202.928 127.251 202.312C127.053 202.167 126.766 202.158 126.55 202.265C125.854 202.611 125.651 203.698 126.638 203.793C127.156 203.842 127.709 203.713 128.219 203.628C127.94 203.38 127.663 203.133 127.386 202.886C127.574 202.675 127.761 202.463 127.949 202.252C127.926 202.257 127.901 202.263 127.878 202.266C128.027 202.705 128.176 203.143 128.326 203.581C128.342 203.572 128.358 203.564 128.373 203.556C128.635 203.42 128.831 203.096 128.748 202.796C128.565 202.13 127.516 201.705 126.961 202.196C126.614 202.502 126.658 203.124 126.791 203.518C126.959 204.009 127.386 204.159 127.705 204.515C128.307 205.186 129.357 204.267 128.753 203.591Z" fill="#C7F4FF"/>
<path d="M112.171 213.951C113.755 211.65 115.727 209.705 117.993 208.081C118.724 207.558 117.795 206.509 117.068 207.028C114.71 208.719 112.66 210.774 111.012 213.166C110.5 213.909 111.66 214.693 112.171 213.951Z" fill="#C7F4FF"/>
<path d="M134.835 193.859C134.79 193.83 134.758 193.792 134.736 193.744C134.765 193.789 134.783 193.842 134.802 193.891C134.844 193.998 134.876 194.109 134.923 194.214C135.079 194.566 135.401 194.814 135.758 194.933C136.031 195.023 136.425 194.943 136.567 194.665C136.888 194.04 137.31 193.206 136.608 192.666C136.411 192.514 136.134 192.491 135.897 192.479C135.798 192.473 135.701 192.466 135.603 192.45C135.797 192.481 135.655 192.46 135.608 192.446C135.427 192.389 135.659 192.486 135.558 192.425C134.797 191.941 134.016 193.1 134.781 193.585C135.129 193.805 135.503 193.855 135.905 193.882C135.929 193.883 135.951 193.885 135.975 193.889C136.105 193.901 135.802 193.841 135.919 193.874C135.987 193.893 135.752 193.76 135.732 193.74C135.635 193.644 135.608 193.516 135.606 193.384C135.605 193.411 135.602 193.438 135.598 193.464C135.623 193.274 135.591 193.453 135.577 193.494C135.532 193.627 135.471 193.756 135.408 193.881C135.678 193.79 135.948 193.702 136.218 193.612C136.131 193.579 136.115 193.576 136.17 193.601C136.278 193.663 136.121 193.515 136.201 193.643C136.151 193.562 136.121 193.466 136.09 193.375C135.995 193.097 135.849 192.881 135.614 192.698C135.312 192.465 134.846 192.586 134.644 192.887C134.421 193.219 134.534 193.625 134.835 193.859Z" fill="#C7F4FF"/>
<path d="M131.218 195.844C132.021 193.883 132.702 191.835 132.644 189.689C132.62 188.795 131.226 188.679 131.251 189.581C131.305 191.618 130.66 193.521 129.899 195.379C129.555 196.217 130.878 196.674 131.218 195.844Z" fill="#C7F4FF"/>
<path d="M119.772 219.324C120.783 217.568 122.366 216.412 123.944 215.203C124.658 214.654 123.731 213.604 123.018 214.149C121.348 215.431 119.682 216.684 118.612 218.541C118.164 219.317 119.322 220.107 119.772 219.324Z" fill="#C7F4FF"/>
<path d="M123.378 206.04C124.862 208.907 128.188 209.724 131.08 208.648C134.328 207.44 135.078 203.741 133.376 200.928C130.139 195.573 120.795 202.143 124.243 207.183C124.753 207.928 125.796 206.999 125.291 206.261C122.96 202.852 129.948 197.946 132.258 201.769C135.343 206.87 127.059 210.113 124.629 205.418C124.214 204.617 122.961 205.236 123.378 206.04Z" fill="#C7F4FF"/>
<path d="M129.048 185.392C132.963 186.334 136.944 186.796 140.949 187.15C141.848 187.229 141.949 185.833 141.053 185.753C137.172 185.41 133.303 184.984 129.508 184.071C128.637 183.863 128.172 185.182 129.048 185.392Z" fill="#C7F4FF"/>
<path d="M107.81 214.367C108.778 210.8 110.731 208.162 113.915 206.301C116.85 204.584 120.207 203.673 123.018 201.741C128.682 197.847 130.389 191.533 130.577 184.955C130.603 184.054 129.208 183.944 129.184 184.846C129.09 188.148 128.702 191.436 127.389 194.49C125.981 197.768 123.307 200.164 120.195 201.786C117.383 203.251 114.384 204.218 111.749 206.029C109.013 207.909 107.35 210.737 106.491 213.904C106.255 214.77 107.574 215.237 107.81 214.367Z" fill="#C7F4FF"/>
<path d="M106.793 213.993C111.17 218.583 116.536 222.025 121.167 226.328C121.646 226.771 122.535 226.468 122.377 225.732C121.742 222.787 125.388 219.575 127.186 217.755C130.064 214.841 133.237 212.218 135.983 209.173C138.409 206.482 139.649 203.16 140.609 199.696C141.764 195.529 142.677 190.402 140.805 186.3C140.429 185.479 139.179 186.101 139.554 186.923C141.515 191.215 140.095 196.837 138.736 201.09C138.187 202.806 137.544 204.588 136.596 206.129C135.699 207.588 134.436 208.828 133.23 210.029C130.35 212.898 127.235 215.53 124.508 218.554C122.788 220.462 120.402 223.19 121.006 225.998C121.41 225.801 121.813 225.602 122.216 225.404C117.585 221.102 112.215 217.658 107.841 213.07C107.22 212.419 106.167 213.338 106.793 213.993Z" fill="#C7F4FF"/>
</g>
<g opacity="0.5">
<path d="M217.396 165.938C217.455 165.558 217.27 165.129 217.626 164.932C217.396 164.953 217.167 164.973 216.938 164.994C216.67 164.877 216.802 164.794 216.799 165.013C216.852 164.843 216.905 164.672 216.957 164.502C216.949 164.513 216.942 164.524 216.934 164.535C217.208 164.472 217.484 164.41 217.758 164.347C217.742 164.34 217.725 164.332 217.708 164.325C216.987 164.01 216.361 164.987 216.974 165.5C216.992 165.515 217.011 165.531 217.029 165.546C217.293 165.765 217.593 165.73 217.875 165.584C218.295 165.368 218.228 164.74 217.923 164.471C217.78 164.346 217.638 164.22 217.499 164.092C217.392 163.994 217.288 163.893 217.184 163.792C217.045 163.653 217.127 163.612 217.149 163.895C217.097 164.065 217.043 164.236 216.991 164.407C216.996 164.401 217.001 164.396 217.007 164.391C216.85 164.473 216.692 164.556 216.533 164.639C216.318 164.597 216.29 164.605 216.452 164.667C216.316 164.475 216.179 164.284 216.044 164.091C216.091 165.007 215.925 166.03 215.732 166.923C215.608 167.505 216.349 167.981 216.821 167.615C217.442 167.134 218.11 166.956 218.64 166.344C218.228 166.215 217.817 166.086 217.407 165.957C217.408 166.815 217.383 167.683 217.446 168.539C217.544 168.326 217.643 168.114 217.742 167.901C217.412 168.197 216.793 167.938 216.383 168.222C215.641 168.734 216.442 169.883 217.182 169.373C217.099 169.43 217.563 169.411 217.625 169.411C217.844 169.405 218.066 169.339 218.26 169.243C218.748 169.001 218.843 168.65 218.824 168.147C218.795 167.376 218.799 166.605 218.798 165.833C218.797 165.192 217.934 165.021 217.566 165.447C217.159 165.917 216.52 166.08 216.023 166.464C216.385 166.695 216.749 166.926 217.113 167.157C217.329 166.146 217.489 165.004 217.436 163.968C217.423 163.722 217.248 163.492 217.029 163.392C216.32 163.07 215.35 163.594 215.902 164.423C216.191 164.855 216.643 165.204 217.031 165.545C217.046 165.175 217.062 164.804 217.078 164.432C217.36 164.445 217.642 164.459 217.923 164.471C217.905 164.456 217.887 164.44 217.868 164.424C217.624 164.816 217.378 165.208 217.134 165.599C217.151 165.607 217.166 165.614 217.183 165.621C217.453 165.739 217.828 165.687 218.009 165.433C218.408 164.872 218.073 163.79 217.341 163.667C216.884 163.591 216.431 164.016 216.21 164.368C215.937 164.806 216.091 165.233 216.018 165.705C215.879 166.595 217.257 166.831 217.396 165.938Z" fill="#C7F4FF"/>
<path d="M198.873 159.572C201.656 159.356 204.413 159.664 207.103 160.403C207.972 160.642 208.194 159.259 207.332 159.022C204.531 158.252 201.64 157.952 198.746 158.178C197.845 158.248 197.975 159.642 198.873 159.572Z" fill="#C7F4FF"/>
<path d="M228.782 164.541C228.776 164.489 228.785 164.439 228.81 164.392C228.793 164.443 228.764 164.49 228.737 164.536C228.681 164.636 228.615 164.73 228.564 164.834C228.391 165.177 228.402 165.582 228.537 165.934C228.64 166.203 228.952 166.458 229.258 166.394C229.944 166.251 230.857 166.054 230.831 165.17C230.823 164.921 230.666 164.691 230.525 164.499C230.467 164.418 230.411 164.339 230.361 164.253C230.46 164.423 230.387 164.298 230.368 164.254C230.297 164.078 230.368 164.32 230.353 164.202C230.245 163.307 228.853 163.429 228.962 164.327C229.012 164.737 229.212 165.06 229.445 165.389C229.459 165.408 229.472 165.427 229.484 165.447C229.556 165.556 229.41 165.283 229.459 165.394C229.487 165.46 229.441 165.193 229.444 165.165C229.458 165.028 229.54 164.927 229.64 164.842C229.618 164.859 229.595 164.873 229.573 164.886C229.737 164.787 229.578 164.874 229.537 164.889C229.407 164.937 229.267 164.972 229.131 165.001C229.371 165.154 229.611 165.308 229.852 165.461C229.823 165.373 229.815 165.359 229.831 165.418C229.85 165.54 229.865 165.325 229.816 165.469C229.848 165.378 229.904 165.295 229.954 165.214C230.109 164.965 230.183 164.715 230.175 164.419C230.166 164.036 229.776 163.751 229.416 163.783C229.015 163.816 228.773 164.159 228.782 164.541Z" fill="#C7F4FF"/>
<path d="M224.955 162.979C226.98 162.369 228.997 161.61 230.621 160.215C231.299 159.635 230.505 158.478 229.823 159.064C228.281 160.387 226.398 161.083 224.478 161.661C223.613 161.922 224.097 163.237 224.955 162.979Z" fill="#C7F4FF"/>
<path d="M199.529 168.859C201.529 168.539 203.428 169.041 205.362 169.506C206.239 169.716 206.465 168.336 205.591 168.125C203.542 167.633 201.516 167.126 199.401 167.463C198.516 167.605 198.638 169.001 199.529 168.859Z" fill="#C7F4FF"/>
<path d="M212.096 163.302C210.816 166.26 212.291 169.358 214.956 170.927C217.949 172.691 221.287 170.946 222.387 167.854C224.48 161.97 213.476 158.844 211.758 164.695C211.505 165.559 212.886 165.784 213.136 164.928C214.298 160.971 222.522 163.315 221.028 167.515C219.034 173.118 211.274 168.725 213.369 163.884C213.726 163.057 212.455 162.474 212.096 163.302Z" fill="#C7F4FF"/>
<path d="M231.67 154.718C233.422 158.352 235.586 161.736 237.849 165.07C238.357 165.819 239.502 165.018 238.995 164.272C236.801 161.041 234.681 157.766 232.983 154.243C232.594 153.436 231.277 153.904 231.67 154.718Z" fill="#C7F4FF"/>
<path d="M195.787 156.446C199.162 154.953 202.44 154.812 205.898 156.114C209.087 157.315 211.92 159.349 215.196 160.318C221.798 162.269 227.766 159.624 232.977 155.63C233.69 155.083 232.892 153.932 232.178 154.479C229.563 156.483 226.771 158.25 223.576 159.152C220.146 160.12 216.599 159.55 213.372 158.152C210.456 156.889 207.808 155.168 204.737 154.259C201.547 153.316 198.306 153.804 195.311 155.129C194.49 155.491 194.964 156.81 195.787 156.446Z" fill="#C7F4FF"/>
<path d="M195.432 155.421C194.653 161.708 195.388 168.043 194.993 174.349C194.952 175.001 195.75 175.501 196.219 174.914C198.097 172.568 202.893 173.38 205.44 173.631C209.519 174.035 213.56 174.849 217.656 175.066C221.276 175.259 224.635 174.133 227.922 172.699C231.88 170.974 236.425 168.459 238.414 164.422C238.813 163.614 237.539 163.033 237.14 163.842C235.061 168.066 229.809 170.5 225.657 172.12C223.981 172.774 222.193 173.396 220.401 173.628C218.702 173.849 216.943 173.648 215.249 173.468C211.202 173.034 207.192 172.27 203.124 172.055C200.558 171.918 196.935 171.78 195.144 174.018C195.552 174.206 195.961 174.394 196.37 174.583C196.766 168.279 196.031 161.938 196.809 155.654C196.921 154.761 195.544 154.522 195.432 155.421Z" fill="#C7F4FF"/>
</g>
<g opacity="0.5">
<path d="M368.453 268.757C369.243 267.228 370.425 266.044 371.786 265.012C372.827 264.221 371.809 262.429 370.753 263.232C369.112 264.477 367.639 265.861 366.682 267.714C366.071 268.892 367.841 269.936 368.453 268.757Z" fill="#C7F4FF"/>
<path d="M364.624 269.771C364.962 269.773 364.938 269.753 364.552 269.709C364.633 270.337 364.712 270.965 364.794 271.592C365.032 271.502 365.271 271.411 365.508 271.321C366.316 271.293 366.747 270.481 366.397 269.773C364.668 266.282 362.967 262.719 362.862 258.75C362.824 257.424 360.772 257.418 360.807 258.747C360.925 263.09 362.729 266.985 364.623 270.81C364.919 270.293 365.216 269.776 365.511 269.261C364.815 269.286 364.335 269.407 363.762 269.81C363.116 270.264 363.039 271.531 364.002 271.693C365.147 271.888 365.685 271.759 366.396 270.812C367.193 269.751 365.411 268.723 364.624 269.771Z" fill="#C7F4FF"/>
<path d="M357.869 256.925C352.432 258.894 350.883 264.241 352.1 269.539C353.386 275.142 357.529 280.303 362.889 282.405C369.24 284.893 375.984 280.997 379.544 275.726C382.748 270.979 381.724 265.339 378.367 261.026C371.983 252.825 354.832 248.806 352.626 262.58C352.418 263.879 354.395 264.439 354.605 263.131C356.793 249.469 375.014 256.561 378.743 265.573C381.39 271.969 376.233 278.531 370.279 280.587C363.993 282.756 358.211 277.992 355.446 272.688C353.03 268.048 352.551 261.035 358.412 258.912C359.646 258.465 359.118 256.473 357.869 256.925Z" fill="#C7F4FF"/>
</g>
<path opacity="0.5" d="M329.122 178.973L329.597 178.593L321.428 167.4L320.542 168.063L320.941 168.571L312.945 178.928L312.273 177.991L307.249 182.585L310.935 187.213L312.602 186.06C313.575 187.307 314.556 191.251 316.28 190.189C318.214 188.999 315.215 187.7 314.072 185.042L316.25 183.536L315.674 182.733L328.814 178.58L329.122 178.973Z" fill="#C7F4FF"/>
<g opacity="0.5">
<path d="M449.737 313.394L437.091 332.19L463.417 347.504L473.581 329.169L449.737 313.394ZM462.558 345.712L439.091 332.061L450.364 315.306L471.975 329.295L462.558 345.712Z" fill="#C7F4FF"/>
<path d="M453.316 322.313C452.971 322.46 446.397 333.416 446.656 333.304C446.916 333.191 456.759 330.59 456.759 330.59L453.316 322.313Z" fill="#C7F4FF"/>
<path d="M458.038 324.49C457.693 324.638 451.118 335.593 451.377 335.48C451.637 335.368 461.945 333.852 461.945 333.852L458.038 324.49Z" fill="#C7F4FF"/>
</g>
<path opacity="0.5" d="M194.97 136.991C194.983 136.977 194.992 136.961 195.004 136.947C195.119 136.804 195.221 136.657 195.312 136.505C195.324 136.486 195.338 136.467 195.348 136.449C195.439 136.291 195.516 136.13 195.583 135.965C195.596 135.934 195.609 135.902 195.62 135.871C195.682 135.705 195.735 135.535 195.775 135.361C195.782 135.334 195.787 135.308 195.793 135.282C195.831 135.103 195.86 134.92 195.877 134.732C195.878 134.727 195.879 134.721 195.879 134.716C195.895 134.525 195.899 134.33 195.895 134.132C195.893 134.1 195.894 134.068 195.892 134.036C195.885 133.844 195.868 133.648 195.842 133.449C195.838 133.416 195.833 133.382 195.828 133.349C195.798 133.143 195.762 132.936 195.714 132.724C195.712 132.716 195.709 132.707 195.707 132.698C195.659 132.487 195.6 132.272 195.534 132.056C195.527 132.032 195.521 132.006 195.513 131.982C195.446 131.768 195.37 131.55 195.288 131.331C195.274 131.296 195.262 131.261 195.248 131.226C195.163 131.006 195.072 130.784 194.973 130.561C194.963 130.539 194.953 130.517 194.943 130.494C194.84 130.266 194.731 130.036 194.616 129.806C194.612 129.798 194.608 129.791 194.605 129.783C194.487 129.55 194.363 129.317 194.232 129.082C194.216 129.051 194.198 129.02 194.182 128.99C194.052 128.76 193.918 128.528 193.778 128.297C193.763 128.271 193.747 128.246 193.73 128.22C193.438 127.737 193.123 127.254 192.791 126.773C192.778 126.755 192.766 126.736 192.753 126.718C192.588 126.481 192.42 126.245 192.249 126.009C192.233 125.987 192.216 125.964 192.2 125.942C191.659 125.204 191.088 124.475 190.503 123.769C190.493 123.757 190.483 123.745 190.474 123.733C190.279 123.497 190.083 123.264 189.885 123.035L189.884 123.034C188.065 120.915 186.19 119.046 184.822 117.783L198.282 111.365C198.287 111.371 198.293 111.378 198.299 111.385C198.432 111.539 198.566 111.694 198.698 111.851C198.717 111.871 198.734 111.893 198.751 111.913C198.874 112.057 198.997 112.202 199.12 112.348C199.134 112.365 199.149 112.383 199.164 112.401C199.439 112.729 199.714 113.058 199.984 113.388C199.996 113.403 200.008 113.417 200.02 113.431C200.294 113.765 200.564 114.1 200.829 114.432C200.835 114.44 200.841 114.447 200.847 114.455C201.117 114.793 201.38 115.129 201.636 115.461C201.637 115.463 201.638 115.465 201.64 115.467C202.027 115.969 202.397 116.462 202.743 116.938C202.746 116.942 202.749 116.944 202.751 116.948C202.978 117.26 203.195 117.567 203.4 117.864C203.407 117.874 203.415 117.885 203.423 117.895C203.624 118.187 203.814 118.47 203.99 118.743C203.998 118.757 204.008 118.77 204.016 118.784C204.19 119.054 204.351 119.314 204.497 119.56C204.505 119.574 204.514 119.588 204.522 119.602C204.589 119.716 204.652 119.827 204.713 119.935C204.719 119.945 204.724 119.954 204.729 119.963C204.792 120.079 204.852 120.191 204.909 120.3C204.915 120.312 204.921 120.324 204.927 120.337C204.975 120.432 205.021 120.524 205.063 120.614C205.071 120.63 205.078 120.646 205.086 120.663C205.131 120.762 205.174 120.858 205.211 120.95C205.213 120.956 205.215 120.962 205.218 120.968C205.252 121.051 205.281 121.131 205.307 121.207C205.313 121.224 205.319 121.241 205.324 121.259C205.376 121.42 205.41 121.566 205.427 121.695C205.429 121.71 205.43 121.724 205.432 121.738C205.437 121.794 205.439 121.848 205.436 121.897C205.436 121.902 205.437 121.908 205.436 121.915C205.432 121.968 205.422 122.016 205.409 122.06C205.406 122.071 205.401 122.079 205.398 122.09C205.384 122.125 205.367 122.156 205.347 122.185C205.342 122.192 205.338 122.2 205.332 122.207C205.305 122.239 205.274 122.266 205.237 122.289C205.23 122.294 205.22 122.297 205.212 122.302C205.179 122.319 205.143 122.332 205.105 122.342C205.092 122.345 205.081 122.349 205.069 122.351C205.018 122.361 204.963 122.367 204.902 122.367C204.892 122.367 204.883 122.365 204.871 122.365C204.817 122.363 204.757 122.356 204.694 122.347C204.675 122.344 204.656 122.341 204.634 122.336C204.557 122.322 204.477 122.304 204.388 122.279C199.971 121.001 195.904 131.504 204.902 127.106C205.086 127.016 205.254 126.921 205.417 126.823C205.459 126.797 205.5 126.771 205.541 126.745C205.682 126.655 205.817 126.562 205.941 126.466C205.956 126.455 205.972 126.443 205.988 126.431C206.123 126.324 206.246 126.212 206.362 126.097C206.392 126.067 206.42 126.036 206.449 126.006C206.544 125.906 206.633 125.805 206.715 125.699C206.732 125.679 206.749 125.658 206.766 125.637C206.858 125.513 206.94 125.386 207.014 125.255C207.033 125.224 207.05 125.192 207.066 125.159C207.125 125.049 207.178 124.937 207.225 124.822C207.238 124.793 207.25 124.765 207.263 124.736C207.315 124.598 207.359 124.457 207.397 124.313C207.405 124.282 207.41 124.251 207.418 124.22C207.446 124.098 207.469 123.974 207.486 123.849C207.491 123.814 207.496 123.779 207.5 123.745C207.518 123.594 207.527 123.44 207.53 123.284C207.53 123.257 207.529 123.23 207.53 123.203C207.53 123.068 207.524 122.931 207.514 122.792C207.51 122.753 207.508 122.714 207.504 122.675C207.489 122.512 207.468 122.348 207.44 122.182C207.437 122.165 207.433 122.149 207.431 122.133C207.402 121.979 207.369 121.824 207.33 121.667C207.32 121.626 207.31 121.585 207.299 121.545C207.21 121.2 207.094 120.848 206.958 120.491C206.943 120.45 206.927 120.409 206.91 120.367C206.843 120.196 206.771 120.025 206.695 119.852C206.691 119.843 206.688 119.836 206.684 119.826C206.601 119.643 206.513 119.458 206.42 119.273C206.401 119.234 206.382 119.196 206.362 119.157C206.276 118.99 206.188 118.822 206.096 118.654C206.085 118.635 206.075 118.615 206.066 118.597C205.961 118.41 205.853 118.221 205.74 118.032C205.72 117.999 205.699 117.965 205.68 117.931C205.577 117.763 205.473 117.594 205.365 117.425C205.35 117.401 205.335 117.376 205.319 117.352C205.196 117.161 205.069 116.971 204.94 116.78C204.923 116.754 204.905 116.729 204.888 116.704C204.771 116.532 204.65 116.36 204.527 116.188C204.507 116.162 204.488 116.134 204.47 116.108C204.331 115.915 204.19 115.723 204.045 115.532C204.035 115.519 204.026 115.506 204.016 115.493C203.881 115.314 203.742 115.136 203.603 114.957C203.582 114.931 203.561 114.904 203.541 114.877C203.24 114.497 202.933 114.122 202.621 113.751C202.598 113.725 202.577 113.699 202.555 113.674C202.239 113.303 201.92 112.939 201.598 112.582C201.578 112.559 201.558 112.536 201.538 112.514C201.215 112.157 200.891 111.807 200.568 111.467C200.548 111.446 200.528 111.426 200.508 111.405C200.186 111.067 199.865 110.738 199.551 110.422C199.531 110.402 199.51 110.382 199.491 110.362C199.346 110.216 199.2 110.073 199.058 109.933C199.049 109.925 199.04 109.916 199.033 109.907L194.848 104.336L178.647 114.486L183.492 118.417L183.651 118.341C183.68 118.374 183.711 118.408 183.74 118.441C183.851 118.563 183.962 118.688 184.074 118.815C184.109 118.854 184.143 118.892 184.178 118.931C184.313 119.085 184.451 119.241 184.588 119.399C184.627 119.443 184.666 119.487 184.705 119.533C184.847 119.695 184.989 119.86 185.132 120.027C185.166 120.067 185.201 120.107 185.235 120.147C185.384 120.321 185.535 120.498 185.685 120.675C185.705 120.699 185.726 120.723 185.746 120.747C185.897 120.927 186.048 121.107 186.2 121.289C186.215 121.308 186.231 121.326 186.246 121.345C186.403 121.534 186.56 121.723 186.716 121.914C186.745 121.948 186.772 121.982 186.801 122.016C186.955 122.205 187.11 122.395 187.264 122.585C187.289 122.616 187.314 122.647 187.339 122.678C187.498 122.876 187.659 123.075 187.817 123.274C187.826 123.285 187.834 123.297 187.844 123.309C188.007 123.514 188.169 123.719 188.33 123.924C188.338 123.934 188.345 123.943 188.353 123.953C188.511 124.155 188.668 124.357 188.824 124.559C188.845 124.586 188.865 124.614 188.886 124.641C189.038 124.838 189.187 125.034 189.335 125.229C189.356 125.255 189.375 125.282 189.395 125.308C189.546 125.51 189.697 125.71 189.845 125.908C189.85 125.916 189.855 125.922 189.861 125.93C190.009 126.131 190.156 126.33 190.3 126.529C190.31 126.542 190.32 126.556 190.33 126.57C190.469 126.76 190.604 126.949 190.738 127.136C190.76 127.167 190.78 127.197 190.802 127.228C190.931 127.409 191.057 127.59 191.181 127.769C191.2 127.797 191.22 127.826 191.24 127.855C191.366 128.037 191.488 128.217 191.607 128.394C191.615 128.405 191.622 128.416 191.629 128.427C191.745 128.6 191.856 128.768 191.964 128.935C191.977 128.956 191.992 128.979 192.006 129C192.113 129.164 192.213 129.325 192.312 129.482C192.331 129.513 192.35 129.545 192.369 129.576C192.465 129.73 192.556 129.881 192.643 130.028C192.66 130.056 192.676 130.084 192.692 130.111C192.781 130.262 192.865 130.41 192.944 130.552C192.95 130.563 192.956 130.573 192.962 130.584C193.037 130.722 193.107 130.854 193.173 130.983C193.184 131.004 193.195 131.024 193.205 131.045C193.27 131.174 193.329 131.298 193.385 131.416C193.395 131.441 193.407 131.466 193.418 131.49C193.47 131.606 193.518 131.718 193.561 131.826C193.568 131.845 193.575 131.864 193.582 131.885C193.624 131.994 193.661 132.1 193.69 132.198C193.693 132.204 193.693 132.209 193.694 132.215C193.723 132.31 193.743 132.398 193.759 132.482C193.761 132.495 193.764 132.509 193.767 132.521C193.78 132.603 193.787 132.677 193.788 132.748C193.788 132.762 193.788 132.775 193.788 132.789C193.787 132.855 193.778 132.917 193.763 132.971C193.761 132.98 193.757 132.988 193.754 132.997C193.735 133.051 193.712 133.1 193.679 133.141C193.677 133.141 193.676 133.143 193.675 133.143C193.641 133.181 193.598 133.212 193.55 133.236C193.542 133.239 193.536 133.243 193.528 133.246C193.478 133.267 193.419 133.28 193.353 133.286C193.341 133.286 193.327 133.288 193.313 133.289C193.245 133.292 193.169 133.287 193.085 133.274C193.071 133.271 193.056 133.268 193.043 133.266C192.95 133.25 192.852 133.226 192.742 133.192C188.301 131.794 184.33 142.769 193.308 138.265C193.525 138.156 193.723 138.038 193.911 137.916C193.942 137.895 193.974 137.876 194.003 137.856C194.178 137.737 194.339 137.612 194.488 137.483C194.517 137.458 194.544 137.432 194.572 137.406C194.714 137.275 194.85 137.136 194.97 136.991Z" fill="#C7F4FF"/>
<g opacity="0.5">
<path d="M179.589 49.52L154.533 59.2948L161.121 79.8225L187.244 67.8443L179.589 49.52ZM156.502 59.9568L178.504 51.3726L185.227 67.4638L162.288 77.9825L156.502 59.9568Z" fill="#C7F4FF"/>
<path d="M174.38 58.6696C172.376 58.5113 164.571 61.7666 163.434 63.7454C162.297 65.7242 165.045 71.0915 165.874 71.4461C168.141 72.4204 176.753 68.5542 177.256 66.7931C177.759 65.0314 176.384 58.8293 174.38 58.6696ZM170.129 69.5847L167.059 62.1628L173.534 62.5427L170.129 69.5847Z" fill="#C7F4FF"/>
</g>
<g opacity="0.5">
<path d="M384.219 184.967L361.143 169.064L349.336 187.686L374.778 203.148L384.219 184.967ZM351.247 187.574L361.774 170.974L382.684 185.078L373.927 201.356L351.247 187.574Z" fill="#C7F4FF"/>
<path d="M352.781 187.805L374.394 197.491L373.151 200.311L352.781 187.805Z" fill="#C7F4FF"/>
<path d="M362.548 181.952C362.548 181.952 361.081 180.598 359.903 181.146L359.699 180.138C359.699 180.138 362.592 179.811 362.548 181.952Z" fill="#C7F4FF"/>
<path d="M361.26 183.985C361.26 183.985 360.96 181.983 359.704 181.593L360.172 180.702C360.172 180.702 362.624 182.418 361.26 183.985Z" fill="#C7F4FF"/>
<path d="M357.155 181.256C357.155 181.256 358.913 180.451 359.938 181.445L360.375 180.51C360.375 180.51 357.616 179.089 357.155 181.256Z" fill="#C7F4FF"/>
<path d="M369.717 192.994L366.157 191.173L366.856 192.64L369.717 192.994Z" fill="#C7F4FF"/>
<path d="M370.148 187.469L368.23 191.568L366.527 189.462L370.148 187.469Z" fill="#C7F4FF"/>
<path d="M354.871 185.665C355.238 186.032 355.714 186.273 356.25 186.455L354.871 185.665Z" fill="#C7F4FF"/>
<path d="M360.758 187.615C359.336 186.975 357.595 186.91 356.25 186.455L365.438 191.723C365.232 191.582 362.751 188.509 360.758 187.615Z" fill="#C7F4FF"/>
</g>
<g opacity="0.5">
<path d="M88.0078 146.628L110.569 155.607L115.11 142.681L94.3449 133.26L88.0078 146.628Z" fill="#C7F4FF"/>
<path d="M98.0367 125.245L96.02 127.537L115.108 142.661L116.371 140.254L98.0367 125.245Z" fill="#C7F4FF"/>
</g>
<g opacity="0.5">
<path d="M461.457 204.28L449.792 221.558L463.318 230.977L474.672 211.883L461.457 204.28ZM454.756 217.384L462.507 206.125L472.196 211.816L464.741 223.747L454.756 217.384Z" fill="#C7F4FF"/>
<path d="M460.944 213.039L458.77 216.848C458.185 216.384 457.701 216.04 457.424 215.915C456.012 215.288 458.535 217.893 459.475 218.822C459.475 218.822 462.427 221.028 464.006 221.943C464.556 222.261 464.098 221.707 463.208 220.821C464.025 220.187 466.747 217.675 466.747 217.675L460.944 213.039Z" fill="#C7F4FF"/>
<path d="M466.864 211.763C467.998 213.406 466.853 213.532 466.355 213.22C465.858 212.907 463.297 212.946 463.889 214.488C464.289 215.532 464.816 215.266 465.233 214.222C465.648 213.179 467.771 214.125 467.97 213.985C469.447 212.943 465.73 210.118 466.864 211.763Z" fill="#C7F4FF"/>
</g>
<path d="M325.559 306.357L327.072 307.213C326.243 307.529 323.163 308.67 318.023 310.183L316.792 309.27C321.793 307.778 324.762 306.666 325.559 306.357ZM307.998 311.679L309.036 312.608C306.14 313.325 303.181 313.995 300.251 314.603L299.376 313.667C302.256 313.062 305.158 312.392 307.998 311.679ZM290.999 315.276L291.716 316.208C288.955 316.673 286.182 317.09 283.472 317.448L282.894 316.525C285.557 316.165 288.284 315.745 290.999 315.276ZM275.087 317.439L275.539 318.346C272.974 318.589 270.414 318.783 267.927 318.926L267.596 318.036C270.044 317.887 272.563 317.687 275.087 317.439ZM188.082 298.788L188.2 298.874L187.739 299.33L187.62 299.242L188.082 298.788ZM260.431 318.337L260.653 319.204C258.314 319.248 255.983 319.247 253.724 319.201L253.601 318.358C255.828 318.395 258.126 318.388 260.431 318.337ZM190.836 300.723C191.753 301.342 192.7 301.957 193.65 302.548L193.2 303.038C192.247 302.441 191.298 301.82 190.378 301.194L190.836 300.723ZM196.659 304.339C197.711 304.94 198.793 305.529 199.878 306.092L199.451 306.625C198.362 306.054 197.274 305.457 196.219 304.85L196.659 304.339ZM247.11 318.121L247.142 318.937C245.037 318.811 242.941 318.639 240.912 318.434L240.96 317.645C242.964 317.842 245.033 318.002 247.11 318.121ZM203.323 307.791C204.527 308.354 205.768 308.905 207.013 309.426L206.625 310.008C205.373 309.477 204.124 308.919 202.914 308.347L203.323 307.791ZM235.151 316.954L235.029 317.711C233.158 317.442 231.296 317.132 229.493 316.793L229.678 316.066C231.461 316.394 233.303 316.692 235.151 316.954ZM210.962 310.981C212.34 311.491 213.762 311.982 215.189 312.443L214.861 313.079C213.422 312.61 211.989 312.11 210.601 311.59L210.962 310.981ZM224.535 315.004L224.294 315.7C222.646 315.317 221.006 314.898 219.421 314.455L219.709 313.788C221.279 314.221 222.903 314.63 224.535 315.004Z" fill="#C7F4FF"/>
<path d="M388.283 312.975L389.062 312.798C388.979 312.422 388.653 311.029 387.916 308.888L387.161 309.153C387.883 311.254 388.201 312.609 388.283 312.975ZM385.732 305.42L386.466 305.104C385.951 303.877 385.384 302.641 384.785 301.426L384.067 301.788C384.662 302.987 385.221 304.209 385.732 305.42ZM382.194 298.263L382.886 297.857C382.219 296.693 381.512 295.534 380.781 294.413L380.112 294.856C380.836 295.965 381.536 297.111 382.194 298.263ZM377.837 291.584L378.477 291.102C377.677 290.021 376.837 288.956 375.978 287.934L375.37 288.456C376.216 289.465 377.046 290.518 377.837 291.584ZM314.417 265.232L314.6 265.222L314.562 264.418L314.375 264.427L314.417 265.232ZM372.713 285.49L373.29 284.932C372.366 283.961 371.402 283.01 370.422 282.104L369.88 282.698C370.848 283.593 371.799 284.532 372.713 285.49ZM318.578 265.085C319.913 265.063 321.25 265.067 322.557 265.098L322.58 264.292C321.262 264.263 319.912 264.257 318.57 264.279L318.578 265.085ZM326.531 265.269C327.865 265.354 329.198 265.468 330.493 265.609L330.581 264.808C329.275 264.666 327.928 264.55 326.585 264.464L326.531 265.269ZM366.877 280.093L367.382 279.465C366.345 278.624 365.266 277.804 364.181 277.027L363.717 277.688C364.79 278.452 365.856 279.261 366.877 280.093ZM334.432 266.129C335.75 266.335 337.066 266.574 338.344 266.839L338.507 266.05C337.216 265.782 335.888 265.542 334.558 265.333L334.432 266.129ZM360.412 275.488L360.83 274.802C359.7 274.101 358.53 273.425 357.349 272.792L356.971 273.506C358.139 274.129 359.295 274.796 360.412 275.488ZM342.211 267.748C343.495 268.087 344.776 268.461 346.022 268.864L346.268 268.098C345.011 267.69 343.713 267.311 342.415 266.968L342.211 267.748ZM353.418 271.739L353.752 271.006C352.547 270.453 351.301 269.926 350.053 269.441L349.763 270.193C350.998 270.672 352.226 271.192 353.418 271.739Z" fill="#C7F4FF"/>
<path d="M114.8 288.379C112.214 288.379 110.118 290.483 110.118 293.077C110.118 295.671 112.214 297.774 114.8 297.774C117.385 297.774 119.482 295.671 119.482 293.077C119.481 290.483 117.385 288.379 114.8 288.379ZM114.8 296.399C112.972 296.399 111.489 294.912 111.489 293.077C111.489 291.242 112.972 289.755 114.8 289.755C116.628 289.755 118.11 291.242 118.11 293.077C118.11 294.912 116.628 296.399 114.8 296.399Z" fill="#C7F4FF"/>
<path d="M466.579 382.291C466.579 381.472 474.63 380.807 246.504 380.807C18.3798 380.807 26.4295 381.472 26.4295 382.291C26.4295 383.11 18.3798 383.775 246.504 383.775C474.63 383.775 466.579 383.11 466.579 382.291Z" fill="#755645"/>
<path d="M200.889 182.914C202.05 182.721 202.853 181.151 202.68 179.41C202.509 177.671 201.428 176.416 200.269 176.603C199.104 176.79 198.299 178.356 198.47 180.099C198.639 181.848 199.724 183.107 200.889 182.914Z" fill="#FFEEB8"/>
<path d="M275.988 191.388C278.484 191.358 281.08 189.024 281.784 186.185C282.487 183.357 281.05 181.093 278.571 181.121C276.091 181.147 273.496 183.457 272.775 186.29C272.052 189.131 273.489 191.42 275.988 191.388Z" fill="#FFEEB8"/>
<path d="M291.668 195.38C292.637 195.811 294.152 194.893 295.05 193.33C295.944 191.77 295.886 190.163 294.922 189.737C293.956 189.31 292.445 190.222 291.546 191.779C290.645 193.338 290.7 194.954 291.668 195.38Z" fill="#FFEEB8"/>
<path d="M287.306 208.408C288.365 208.881 290.069 207.782 291.109 205.964C292.148 204.151 292.132 202.304 291.077 201.836C290.025 201.369 288.327 202.454 287.285 204.265C286.24 206.081 286.249 207.937 287.306 208.408Z" fill="#FFEEB8"/>
<path d="M320.376 236.626C322.172 235.175 322.834 233.086 321.86 231.956C320.89 230.828 318.648 231.077 316.848 232.52C315.042 233.97 314.363 236.068 315.34 237.206C316.319 238.344 318.575 238.085 320.376 236.626Z" fill="#FFEEB8"/>
<path d="M436.456 376.069C426.39 375.702 434.267 362.448 432.955 356.927C431.642 351.405 418.512 344.042 410.634 348.46C410.634 348.46 397.009 338.123 383.954 338.693C383.117 334.107 380.619 327.01 375.579 325.64C375.486 323.49 375.881 321.234 375.149 319.203C374.255 316.713 371.184 316.33 369.067 314.532C366.451 312.31 368.718 308.064 368.581 305.106C368.426 301.788 368.331 298.075 366.485 295.213C363.987 291.338 352.905 289.355 344.013 292.123C342.031 292.74 340.137 293.768 338.397 294.948C337.88 294.514 337.356 294.07 336.838 293.609C341.653 291.19 348.047 287.487 344.516 282.627C342.606 280.004 335.225 279.63 339.4 275.89C333.974 275.134 339.128 273.693 340.955 272.523C344.909 269.995 343.744 271.031 344.997 267.691C345.834 265.455 346.124 259.204 351.663 260.079C348.919 257.87 344.766 259.212 344.35 261.423C343.095 252.104 326.763 251.902 326.195 257.926C323.866 257.479 321.444 257.543 319.201 258.006C319.707 254.865 319.495 251.868 318.719 249.15C319.625 247.527 319.728 245.855 318.812 244.79C318.221 244.102 317.3 243.778 316.239 243.788C313.77 240.107 310.088 237.465 305.878 236.498C307.629 235.033 309.27 232.822 310.405 230.159C312.744 224.675 312.055 219.399 308.886 218.343C305.718 217.29 301.243 220.831 298.872 226.289C298.868 226.302 298.864 226.313 298.858 226.323C298.409 226.133 297.92 226.051 297.415 226.063C299.074 221.582 298.626 218.967 297.047 217.667C297.647 215.993 297.242 214.367 295.967 213.802C294.77 213.269 293.181 213.845 292.025 215.097C291.377 213.952 290.591 213.217 290.007 212.996C288.648 212.482 287.148 213.125 285.594 214.124C286.703 210.573 286.277 207.484 284.214 206.343C283.228 205.799 281.993 205.776 280.656 206.172C281.814 205.259 283.102 203.725 284.187 201.853C286.15 198.463 286.691 195.265 285.402 194.694C284.309 194.21 282.239 195.781 280.431 198.343C280.427 194.168 277.247 193.679 273.63 194.987C271.753 193.116 268.979 192.329 265.671 193.118C265.364 192.906 264.811 192.693 263.884 192.358C262.797 191.97 262.242 191.519 261.983 190.984C264.371 186.478 264.493 182.988 262.195 181.053C262.871 179.983 263.412 178.914 263.741 177.901C265.519 172.443 261.121 150.436 257.613 150.199C248.143 150.291 244.028 158.01 241.792 164.487C240.133 161.186 238.244 159.501 236.497 162.622C234.59 166.024 235.673 168.522 231.602 168.736C227.58 168.951 229.6 169.004 228.088 173.497C227.166 172.854 225.768 172.404 224.576 172.612C224.674 172.864 224.747 173.154 224.842 173.449C222.109 167.903 215.795 163.328 212.498 170.196C210.741 173.858 208.705 181.245 210.458 185.375C210.843 186.285 211.811 187.414 212.765 187.914C212.092 188.159 211.394 188.445 210.693 188.728C210.127 185.646 208.765 183.48 207.416 183.706C206.013 183.94 205.108 186.685 205.25 190.033C201.007 189.387 200.111 180.971 195.681 181.307C193.067 181.504 183.85 187.928 188.474 200.587C187.783 199.33 185.914 201.322 185.861 203.399C185.36 203.523 184.882 203.717 184.43 203.987C183.024 203.58 181.408 203.284 180.478 204.583C179.99 205.262 179.879 206.317 179.992 207.453C170.96 192.552 145.383 202.045 140.679 220.531C139.19 226.385 138.459 235.016 139.595 242.703C138.015 241.236 136.022 240.648 133.468 241.939C130.416 243.482 128.917 250.357 125.618 246.094C124.032 251.086 123.273 246.137 122.313 244.311C120.229 240.344 121.152 241.545 117.82 240.039C115.586 239.032 109.057 238.158 110.739 232.987C108.036 235.381 108.88 239.44 111.142 240.046C101.208 240.33 98.892 255.508 105.055 256.611C101.95 265.089 107.263 275.589 115.813 271.194C114.666 274.253 115.451 277.243 118.507 277.235C118.068 278.706 118.076 280.284 118.604 281.438C118.407 281.55 118.21 281.67 118.007 281.811C118.079 276.865 109.981 277.678 112.932 283.303C108.659 277.827 97.6925 274.941 91.2455 280.159C88.4647 282.409 85.829 289.235 88.1984 291.097C84.8415 292.168 80.9545 296.444 85.1721 298.457C83.647 299.29 74.5518 301.949 76.2624 304.426C75.7097 304.562 75.1594 304.716 74.6136 304.883C65.9159 304.634 52.5999 311.226 57.4965 323.174C58.3994 325.377 59.9555 327.143 61.8434 328.426C60.0306 330.305 59.0532 332.797 59.4412 336.112C59.7687 338.902 60.5695 341.591 61.7431 344.131C57.6984 342.161 52.9066 341.976 47.8258 346.249C33.8214 358.029 43.4498 369.073 43.4498 369.073C43.4498 369.073 37.7834 362.809 29.8827 365.023C25.944 366.128 22.8811 376.435 14.5651 368.336C7.34523 361.305 -7.31732 360.974 -17.8203 367.601C-17.8203 367.601 -0.751762 359.133 9.75123 375.332C16.2032 385.281 22.0053 382.326 42.5746 382.326C58.1161 382.326 425.077 382.326 425.077 382.326C425.077 382.326 450.461 385.27 452.211 363.92C452.212 363.921 446.521 376.437 436.456 376.069ZM292.219 235.841C292.259 235.884 292.302 235.925 292.344 235.964C292.267 235.981 292.189 235.993 292.11 236.013C292.148 235.954 292.182 235.899 292.219 235.841ZM278.591 207.063C278.594 207.063 278.598 207.063 278.605 207.066C278.598 207.069 278.591 207.072 278.585 207.077C278.586 207.072 278.588 207.069 278.591 207.063Z" fill="#FFEEB8"/>
<path d="M139.441 255.201C135.356 263.054 131.272 276.797 153.445 271.397C175.62 265.999 172.118 288.577 172.118 288.577C182.621 293.975 175.036 349.441 196.043 356.312C217.05 363.183 246.774 357.391 267.233 334.224C282.404 317.045 295.824 315.082 301.078 319.01C306.329 322.936 315.665 320.482 324.418 308.702C330.399 300.651 336.751 295.521 343.09 292.459C341.445 293.081 339.865 293.953 338.397 294.946C337.879 294.512 337.356 294.068 336.837 293.607C341.652 291.188 348.046 287.485 344.515 282.625C342.606 280.002 335.224 279.628 339.399 275.888C333.973 275.132 339.127 273.691 340.954 272.521C344.909 269.993 343.743 271.029 344.996 267.689C345.834 265.453 346.123 259.202 351.662 260.077C348.918 257.868 344.765 259.21 344.35 261.421C343.094 252.102 326.762 251.9 326.195 257.924C323.865 257.477 321.443 257.541 319.201 258.004C319.706 254.863 319.495 251.866 318.718 249.148C319.624 247.525 319.727 245.853 318.811 244.788C318.22 244.1 317.299 243.776 316.239 243.786C313.769 240.105 310.087 237.463 305.877 236.496C307.629 235.031 309.269 232.82 310.404 230.157C312.743 224.673 312.054 219.397 308.885 218.341C305.717 217.288 301.242 220.829 298.872 226.287C298.867 226.3 298.863 226.311 298.858 226.321C298.408 226.131 297.919 226.049 297.414 226.061C299.073 221.58 298.625 218.965 297.046 217.665C297.646 215.991 297.241 214.365 295.966 213.8C294.769 213.267 293.181 213.843 292.025 215.095C291.377 213.95 290.59 213.215 290.006 212.994C288.647 212.48 287.148 213.123 285.593 214.122C286.703 210.571 286.276 207.482 284.213 206.341C283.227 205.797 281.992 205.774 280.655 206.17C281.813 205.257 283.102 203.723 284.186 201.851C286.149 198.461 286.69 195.263 285.401 194.692C284.309 194.208 282.238 195.779 280.43 198.341C280.426 194.166 277.246 193.677 273.63 194.985C271.752 193.114 268.978 192.327 265.67 193.116C265.363 192.904 264.81 192.691 263.883 192.357C262.796 191.968 262.241 191.517 261.982 190.982C264.37 186.476 264.492 182.986 262.194 181.051C262.87 179.981 263.411 178.912 263.741 177.899C265.518 172.441 261.12 150.434 257.612 150.198C248.142 150.289 244.028 158.008 241.791 164.485C240.132 161.184 238.243 159.499 236.496 162.62C234.589 166.022 235.673 168.52 231.601 168.734C227.579 168.949 229.599 169.002 228.087 173.495C227.165 172.852 225.768 172.402 224.575 172.61C224.673 172.862 224.747 173.152 224.841 173.447C222.109 167.901 215.795 163.326 212.497 170.194C210.74 173.856 208.704 181.243 210.458 185.373C210.842 186.283 211.81 187.412 212.765 187.912C212.091 188.157 211.394 188.443 210.692 188.726C210.126 185.644 208.764 183.478 207.416 183.704C206.012 183.938 205.107 186.683 205.249 190.031C201.007 189.385 200.111 180.969 195.68 181.305C193.067 181.502 183.849 187.926 188.473 200.585C187.782 199.328 185.914 201.32 185.86 203.397C185.36 203.521 184.881 203.715 184.429 203.985C183.023 203.578 181.407 203.282 180.478 204.581C179.989 205.26 179.878 206.315 179.991 207.451C170.96 192.55 145.382 202.043 140.679 220.529C139.242 226.171 138.517 234.391 139.483 241.858C142.846 246.068 141.86 250.548 139.441 255.201ZM292.219 235.84C292.259 235.883 292.302 235.924 292.344 235.963C292.267 235.981 292.189 235.992 292.11 236.012C292.148 235.954 292.182 235.899 292.219 235.84ZM278.591 207.063C278.594 207.063 278.598 207.063 278.604 207.065C278.598 207.068 278.591 207.071 278.585 207.076C278.586 207.071 278.587 207.068 278.591 207.063Z" fill="#FFE5AB"/>
<path d="M267.051 135.365C265.199 137.678 263.364 150.555 268.149 166.127C268.149 166.127 270.48 131.081 267.051 135.365Z" fill="#FFF4DC"/>
<path d="M264.16 127.005C265.23 126.082 266.952 128.135 269.258 132.271C269.258 132.271 262.959 128.037 264.16 127.005Z" fill="#FFF4DC"/>
<path d="M334.956 81.3541C332.396 82.3145 327.77 86.416 325.333 87.9941L326.592 89.5281C329.971 87.9499 334.865 86.4229 335.703 85.4461C335.991 85.1111 335.835 81.0247 334.956 81.3541Z" fill="#FFC197"/>
<path d="M309.495 57.8526C309.495 57.8526 324.426 64.6793 333.423 82.837L334.421 82.1454C334.421 82.1454 328.622 63.3271 313.39 56.5388L309.495 57.8526Z" fill="#F4C85B"/>
<path d="M327.381 85.6884L330.348 83.1814L333.207 88.8074L329.9 92.2198L327.381 85.6884Z" fill="#E5DCC1"/>
<path d="M256.073 239.698C251.054 238.742 250.357 257.618 252.862 261.395C255.726 257.403 260.779 240.595 256.073 239.698Z" fill="#728387"/>
<path d="M236.149 238.903C230.749 238.105 228.145 254.872 231.399 259.633C234.279 257.009 240.79 239.596 236.149 238.903Z" fill="#728387"/>
<path d="M234.792 239.853L238.807 231.972L241.715 232.832L237.48 240.783C237.48 240.783 235.399 242.773 234.792 239.853Z" fill="#ACBABC"/>
<path d="M255.221 240.521L259.236 232.644L262.143 233.501L257.907 241.451C257.907 241.451 255.828 243.44 255.221 240.521Z" fill="#ACBABC"/>
<path d="M263.775 132.158C263.601 126.455 252.498 123.529 249.392 128.18C241.695 139.713 237.427 165.603 240.415 186.129C240.415 186.129 264.474 155.18 263.775 132.158Z" fill="#FFF4DC"/>
<path d="M248.539 130.306C251.644 125.652 262.768 128.283 262.941 133.988C263.127 140.133 262.011 147.033 259.134 153.381C262.321 146.347 264.517 138.666 264.308 131.773C264.135 126.069 252.349 122.826 249.244 127.478C247.598 129.945 246.127 133.317 245.147 137.056C246.214 134.459 247.268 132.211 248.539 130.306Z" fill="#FFEBC2"/>
<path d="M250.68 131.467C252.623 128.914 260.198 130.917 260.503 134.168C261.08 140.397 257.965 147.468 254.527 153.184C258.335 147.313 261.98 139.747 261.226 133.073C260.851 129.791 252.78 127.652 250.759 130.195C247.555 134.233 245.62 141.705 245.427 149.682C245.869 142.216 247.758 135.315 250.68 131.467Z" fill="#FFEBC2"/>
<path d="M261.832 130.699C261.544 127.102 253.47 124.968 251.364 127.822C246.148 134.896 243.801 151.11 246.53 164.13C246.53 164.13 262.981 145.236 261.832 130.699Z" fill="#FFCA6C"/>
<path d="M260.409 128.762C259.965 127.765 254.85 126.472 253.898 126.994C251.538 128.288 250.983 138.222 251.853 144.5C255.064 140.795 261.735 131.743 260.409 128.762Z" fill="#FFA65C"/>
<path d="M277.053 91.5377C280.365 80.3607 263.917 77.3174 261.04 87.0386C258.162 96.7604 253.66 122.343 253.66 122.343L264.002 125.248C264.002 125.248 273.744 102.716 277.053 91.5377Z" fill="#B7AC92"/>
<path d="M261.041 87.0386C258.473 95.7123 254.615 116.994 253.812 121.489C255.003 121.254 256.296 121.21 257.63 121.411C260.419 121.832 262.748 123.199 264.116 124.982C265.215 122.428 273.954 102.008 277.053 91.5382C280.366 80.3607 263.917 77.3174 261.041 87.0386Z" fill="#96886E"/>
<path d="M291.902 69.0685C297.132 51.3538 274.052 47.4302 269.503 62.8342C264.953 78.2375 257.322 118.623 257.322 118.623L271.785 122.649C271.785 122.649 286.67 86.7838 291.902 69.0685Z" fill="#EAA04E"/>
<path d="M284.529 67.0166C289.762 49.3012 266.679 45.3771 262.13 60.7817C257.582 76.1875 249.951 116.573 249.951 116.573L264.411 120.597C264.411 120.597 279.299 84.7338 284.529 67.0166Z" fill="#F4C85B"/>
<path d="M283.514 55.8457C281.714 60.0141 277.592 63.3729 272.322 64.3775C268.404 65.1258 264.597 64.4317 261.581 62.7091C256.995 79.2949 249.95 116.572 249.95 116.572L264.41 120.596C264.41 120.596 279.299 84.7335 284.529 67.0157C285.935 62.2586 285.286 58.5079 283.514 55.8457Z" fill="#EFB054"/>
<path d="M256.721 118.67L276.382 51.4061L275.27 51.1348L255.658 118.373L256.721 118.67Z" fill="#EAA04E"/>
<path d="M273.623 94.9823L255.247 89.4907L254.779 92.6735L272.714 98.0648L273.623 94.9823Z" fill="#EAA04E"/>
<path d="M281.704 73.7845L259.994 67.7212L259.524 70.9039L280.795 76.8675L281.704 73.7845Z" fill="#EAA04E"/>
<path d="M273.489 117.657L250.852 111.244L250.384 114.427L272.353 120.557L273.489 117.657Z" fill="#EAA04E"/>
<path d="M291.044 75.0826L260.865 66.6808C260.148 66.4814 259.403 66.8935 259.193 67.6084C259.053 68.0816 259.109 68.5908 259.348 69.0218C259.587 69.4534 259.989 69.7708 260.465 69.9027L290.136 78.1637L291.044 75.0826Z" fill="#F4E5C9"/>
<path d="M283.668 96.1586L255.769 88.3929C254.967 88.1695 254.134 88.6314 253.898 89.4296L253.898 89.4309C253.77 89.8631 253.821 90.3288 254.04 90.7232C254.259 91.1175 254.626 91.4078 255.061 91.5283L282.76 99.2391L283.668 96.1586Z" fill="#F4E5C9"/>
<path d="M274.92 116.439L257.599 111.42L255.938 114.104L274.009 119.519L274.92 116.439Z" fill="#E2C9A1"/>
<path d="M255.917 118.444L275.908 50.7524C275.945 50.6274 275.93 50.493 275.867 50.3788C275.804 50.2652 275.697 50.1813 275.572 50.146C275.246 50.0557 274.908 50.2425 274.812 50.5669L254.854 118.148L255.917 118.444Z" fill="#F4E5C9"/>
<path d="M266.135 113.873L251.953 110.037C251.243 109.844 250.509 110.255 250.302 110.961L250.301 110.962C250.161 111.439 250.219 111.952 250.461 112.385C250.704 112.819 251.111 113.136 251.59 113.265L265.227 116.956L266.135 113.873Z" fill="#F4E5C9"/>
<path d="M273.988 93.4634C273.707 94.5209 273.353 95.5368 272.933 96.5061L282.76 99.2414L283.668 96.159L273.988 93.4634Z" fill="#E2C9A1"/>
<path d="M297.428 0.499596C285.773 2.78508 276.925 12.7391 278.22 26.1674C279.514 39.5945 291.573 48.0139 303.277 46.0143C337.127 40.2267 324.502 -4.81027 297.428 0.499596Z" fill="#E25969"/>
<path d="M297.519 1.28082C295.282 1.72 293.151 2.44312 291.171 3.41865C292.957 2.60466 294.858 1.98754 296.843 1.59948C321.326 -3.2018 333.989 33.1602 311.163 44.4475C334.905 33.5464 322.239 -3.56652 297.519 1.28082Z" fill="#F7697D"/>
<path d="M316.476 10.3135C325.142 21.9718 324.688 33.3999 318.974 38.446C314.343 42.5355 303.817 13.2489 303.817 13.2489L316.476 10.3135Z" fill="#D6475C"/>
<path d="M314.316 11.2397C322.983 22.8981 324.216 33.7488 318.501 38.7949C313.872 42.8844 303.345 13.5984 303.345 13.5984L314.316 11.2397Z" fill="#B53951"/>
<path d="M299.844 55.0375L298.703 38.3147L310.225 40.7756L314.091 58.0593L299.844 55.0375Z" fill="#FFC197"/>
<path d="M316.69 61.287L314.526 54.0936C313.752 56.3059 305.266 53.898 298.106 51.4971L298.372 54.2028L312.551 61.9067L316.69 61.287Z" fill="#E5DCC1"/>
<path d="M301.626 109.328C305.203 115.263 333.168 92.129 333.168 92.129L328.014 83.4167C328.014 83.4167 309.081 92.4691 302.833 102.245C300.896 105.272 300.228 107.009 301.626 109.328Z" fill="#66545A"/>
<path d="M255.347 237.386C256.857 230.633 268.417 210.909 275.525 188.488C283.313 163.926 286.674 136.746 287.698 134.807C289.656 131.095 307.249 117.937 307.249 117.937L305.591 136.756C305.591 136.756 297.321 165.094 286.069 192.037C276.514 214.915 262.329 235.974 259.698 239.311C258.453 239.495 255.742 239.582 255.347 237.386Z" fill="#494042"/>
<path d="M277.284 190.708C285.071 166.147 288.433 138.966 289.457 137.028C290.995 134.111 302.191 125.36 306.912 121.748L307.248 117.936C307.248 117.936 289.654 131.095 287.697 134.807C286.673 136.744 283.312 163.925 275.524 188.487C268.416 210.908 256.856 230.632 255.346 237.385C255.544 238.483 256.317 239.009 257.199 239.238C259.016 232.173 270.297 212.748 277.284 190.708Z" fill="#3D3235"/>
<path d="M234.726 237.658C236.215 231.692 248.053 209.449 256.618 186.058C264.731 163.903 269.56 140.513 272.032 136.067C274.053 132.432 300.334 124.154 300.334 124.154C292.855 139.55 279.769 166.258 267.218 190.795C254.26 216.127 240.728 237.962 240.042 239.073C238.045 239.996 235.499 239.428 234.726 237.658Z" fill="#494042"/>
<path d="M259.122 187.973C267.236 165.816 272.065 142.425 274.536 137.981C276.055 135.248 291.289 129.891 298.755 127.401C299.305 126.269 299.833 125.185 300.333 124.153C300.333 124.153 274.052 132.431 272.031 136.067C269.559 140.512 264.731 163.902 256.617 186.057C248.053 209.448 236.214 231.691 234.725 237.657C235.155 238.642 236.141 239.238 237.269 239.43C238.897 233.27 250.621 211.191 259.122 187.973Z" fill="#3D3235"/>
<path d="M272.158 136.786C270.419 140.638 304.442 137.736 306.359 129.629C315.309 91.7996 329.006 72.0732 319.168 62.3603C303.461 46.8604 289.972 54.6236 284.797 67.306C280.845 76.9906 282.006 114.961 272.158 136.786Z" fill="#E5DCC1"/>
<path d="M299.218 129.947L297.852 126.494L303.188 118.186L302.728 126.809L299.218 129.947Z" fill="#563E35"/>
<path d="M310.549 86.7201C312.115 79.5551 314.382 65.4428 313.829 61.239L314.878 60.7683C314.878 60.7683 316.1 77.2223 313.874 85.9641L311.581 89.5993L310.549 86.7201Z" fill="#563E35"/>
<path opacity="0.4" d="M299.243 128.379C299.243 128.379 298.786 145.686 301.541 149.749C304.105 141.847 305.591 136.755 305.591 136.755L306.171 130.183C306.248 130 306.316 129.816 306.359 129.628C307.302 125.648 308.296 121.879 309.311 118.291L301.681 114.292L276.63 123.098C275.598 127.413 274.357 131.525 272.823 135.226C272.454 135.525 272.175 135.809 272.031 136.067C270.931 138.045 269.364 143.779 267.249 151.483C274.183 152.161 287.475 147.806 299.243 128.379Z" fill="#AF5652"/>
<path d="M266.539 149.021C276.819 155.794 297.543 131.363 304.98 117.652C313.065 102.744 317.093 64.0103 304.556 55.4129C298.245 51.0836 283.245 52.2226 279.009 62.4587C274.404 73.5857 281.477 78.2103 277.586 101.784C273.416 127.035 264.189 147.473 266.539 149.021Z" fill="#726065"/>
<path d="M293.369 101.099C300.175 81.1287 294.201 56.1859 279.009 62.4586C274.405 73.5857 281.477 78.2103 277.586 101.784C273.416 127.035 264.249 147.386 266.539 149.02C267.978 150.047 269.793 150.364 271.845 150.139C272.596 145.337 285.983 122.766 293.369 101.099Z" fill="#634E55"/>
<path d="M306.587 111.688L335.636 85.4361L333.975 85.3496C333.975 85.3496 305.989 106.852 306.118 107.153C306.244 107.454 306.587 111.688 306.587 111.688Z" fill="#E5B548"/>
<path d="M302.708 148.687C301.083 143.362 299.988 123.955 303.989 109.405C307.128 97.9733 323.67 66.3166 316.138 59.8899C316.138 59.8899 325.175 61.4825 322.481 76.578C317.923 102.12 302.708 148.687 302.708 148.687Z" fill="#726065"/>
<path d="M295.878 65.3096C295.878 65.3096 296.421 72.4424 291.387 78.2324L289.665 76.5704L295.878 65.3096Z" fill="#634E55"/>
<path d="M261.945 96.0153C266.658 81.9894 280.33 54.0677 289.412 53.9611C294.738 53.8986 300.476 58.6803 293.791 71.417C288.887 80.759 276.66 89.8883 274.682 99.5401C273.618 104.732 259.389 103.612 261.945 96.0153Z" fill="#726065"/>
<path d="M288.569 54.0639C288.569 54.0639 300.173 63.4898 304.383 89.8769L305.661 89.6334C305.661 89.6334 304.59 64.0463 291.997 53.2007L288.569 54.0639Z" fill="#634E55"/>
<path d="M312.399 60.5348C312.43 60.3303 313.429 56.0105 313.429 56.0105L315.533 60.5884L314.358 62.3653L312.399 60.5348Z" fill="#70584D"/>
<path d="M305.868 114.273C306.139 113.197 305.85 112.202 305.221 112.042C304.591 111.883 303.863 112.624 303.591 113.696C303.321 114.769 303.612 115.766 304.24 115.925C304.869 116.084 305.597 115.343 305.868 114.273Z" fill="#9B838A"/>
<path d="M309.747 101.275C310.02 100.201 309.728 99.2037 309.1 99.0447C308.47 98.8857 307.742 99.6258 307.471 100.698C307.2 101.771 307.491 102.768 308.118 102.928C308.748 103.086 309.475 102.346 309.747 101.275Z" fill="#9B838A"/>
<path d="M311.561 90.4328C312.012 81.1798 308.304 58.52 294.624 52.6877C294.624 52.6877 300.041 51.3121 304.782 55.4767C317.454 66.6018 311.561 90.4328 311.561 90.4328Z" fill="#A5848E"/>
<path d="M315.873 58.8015L315.801 59.2817C320.239 66.5262 311.561 90.4329 311.561 90.4329C320.306 73.4792 323.317 63.233 315.873 58.8015Z" fill="#A5848E"/>
<path d="M308.283 88.5424C308.299 87.7429 310.881 88.4446 310.468 87.7196C309.301 85.6802 305.981 86.9586 304.904 88.2376C303.848 89.4927 308.283 88.5424 308.283 88.5424Z" fill="#FFDEB3"/>
<path d="M289.715 53.6663C289.715 53.6663 301.972 62.7457 308.371 87.9636L309.615 87.7396C309.615 87.7396 306.379 63.3073 293.026 52.8674L289.715 53.6663Z" fill="#F4C85B"/>
<path d="M274.848 110.25L309.261 92.1297L308.023 91.3145C308.023 91.3145 275.368 105.404 275.425 105.726C275.482 106.05 274.848 110.25 274.848 110.25Z" fill="#E5B548"/>
<path d="M310.027 87.9741C307.325 87.5627 301.285 88.8809 298.387 89.0676L298.736 91.0231C302.455 91.2957 307.519 92.5432 308.726 92.1009C309.142 91.9482 310.954 88.1174 310.027 87.9741Z" fill="#FFDEB3"/>
<path d="M308.079 92.0502C309.363 92.1606 309.817 92.2615 310.037 91.7416C310.379 90.9276 309.682 91.0923 309.102 90.9453C307.155 90.4417 308.079 92.0502 308.079 92.0502Z" fill="#FFDEB3"/>
<path d="M309.18 89.1425C310.463 89.1621 310.954 89.2308 311.126 88.6913C311.422 87.7543 310.576 87.8187 309.263 87.8748C307.253 87.9606 309.18 89.1425 309.18 89.1425Z" fill="#FFDEB3"/>
<path d="M308.93 90.6922C310.201 90.8789 310.415 90.8411 310.668 90.3337C311.068 89.5336 310.822 89.7065 309.522 89.4415C307.553 89.0364 308.93 90.6922 308.93 90.6922Z" fill="#FFDEB3"/>
<path d="M299.899 87.3636L303.149 86.9434L302.642 93.2149L298.561 94.1948L299.899 87.3636Z" fill="#E5DCC1"/>
<path d="M260.752 101.189C261.527 106.981 299.518 96.7643 299.518 96.7643L300.833 84.7185C300.833 84.7185 275.315 86.8443 264.934 93.4894C261.967 95.39 260.432 98.8094 260.752 101.189Z" fill="#726065"/>
<path d="M261.598 99.7445C261.449 98.632 261.72 97.2912 262.34 95.985C261.12 97.6975 260.547 99.6561 260.752 101.189C261.527 106.981 299.518 96.7643 299.518 96.7643L299.655 95.5073C294.458 96.869 262.312 105.07 261.598 99.7445Z" fill="#634E55"/>
<path d="M262.965 97.741C266.089 86.6178 274.549 66.5898 282.425 58.0745C274.236 66.4251 265.035 85.504 261.419 96.267C260.425 99.227 261.583 101.145 263.574 102.153C262.742 101.116 262.425 99.6618 262.965 97.741Z" fill="#634E55"/>
<path d="M296.689 92.9227C296.641 92.1617 295.843 91.5964 294.912 91.6582C293.978 91.7219 293.265 92.3876 293.316 93.1499C293.366 93.9121 294.163 94.4775 295.095 94.4157C296.027 94.3519 296.741 93.6837 296.689 92.9227Z" fill="#9B838A"/>
<path d="M297.706 62.908C298.453 62.1098 299.247 61.4113 300.078 60.8201C298.119 57.7969 295.791 55.03 293.026 52.8669L289.715 53.6664C289.715 53.6664 293.357 56.3734 297.706 62.908Z" fill="#E5B548"/>
<path d="M281.835 87.1585L284.232 84.1165L277.302 89.0944L285.068 86.9137L281.835 87.1585Z" fill="#59424B"/>
<path d="M295.541 137.667L291.157 138.264L290.817 140.516L295.2 139.92L295.541 137.667Z" fill="#706165"/>
<path d="M282.902 152.032C285.967 153.472 290.137 152.215 292.258 150.648C292.258 150.648 290.188 154.565 286.008 154.593C283.351 154.613 282.902 152.032 282.902 152.032Z" fill="#3D3235"/>
<path d="M333.282 84.8384C333.649 84.3601 333.327 82.9706 333.662 82.3118C334.208 81.2417 334.859 82.6917 335.075 82.2102C335.447 81.3767 334.521 80.4245 333.272 80.716C332.413 80.918 332.052 82.6179 331.211 83.5732C330.756 84.0913 332.414 85.9634 333.282 84.8384Z" fill="#FFDEB3"/>
<path d="M334.927 82.6507C335.995 82.1863 336.426 82.0601 336.366 81.5528C336.264 80.6694 335.59 81.0385 334.525 81.573C332.898 82.3945 333.858 83.1113 334.927 82.6507Z" fill="#FFDEB3"/>
<path d="M335.309 83.8989C336.328 83.5083 336.571 83.3941 336.548 82.9126C336.511 82.1504 336.302 82.3807 335.226 82.7239C333.598 83.2414 334.29 84.2888 335.309 83.8989Z" fill="#FFDEB3"/>
<path d="M334.929 85.4814C336.104 84.9514 336.55 84.8176 336.487 84.256C336.388 83.3802 335.851 83.8351 335.282 84.0162C333.686 84.5235 333.756 86.0133 334.929 85.4814Z" fill="#FFDEB3"/>
<path opacity="0.4" d="M315.596 57.6498L314.527 54.0935C314.385 54.4973 313.983 54.7478 313.379 54.8709L310.225 40.7756L298.702 38.3147L299.636 52.0023C299.122 51.8358 298.61 51.6654 298.106 51.4969L298.208 52.5557C296.114 52.316 294.623 52.687 294.623 52.687C294.874 52.7949 295.113 52.9205 295.357 53.0372C294.694 53.0391 294.024 53.0719 293.35 53.1344C293.24 53.0467 293.135 52.952 293.024 52.8662L290.467 53.4839C301.466 58.0126 303.834 74.2741 313.837 73.9119C320.753 73.6627 324.076 64.5977 319.107 59.9233C318.104 58.9806 316.836 58.3351 315.596 57.6498Z" fill="#AF5652"/>
<path d="M318.049 37.4183C306.345 39.4185 310.933 17.4389 299.521 11.8445C293.824 9.05228 290.534 3.36823 297.135 1.3667C285.671 3.79479 277.032 13.6712 278.311 26.95C279.606 40.3764 291.258 47.7761 302.962 45.7752C311.152 44.3763 317.021 41.6964 320.222 36.969C319.518 37.1343 318.8 37.2889 318.049 37.4183Z" fill="#D6475C"/>
<path d="M298.876 41.5449C298.876 41.5449 306.713 48.8241 316.146 48.2487C316.146 48.2487 308.425 52.4227 297.909 43.6474L298.876 41.5449Z" fill="#7F414A"/>
<path d="M294.425 25.6847C297.806 31.9272 298.661 43.0927 303.338 45.8357C308.017 48.5761 316.802 48.6424 321.683 47.9874C321.683 47.9874 322.15 32.1789 317.451 20.5162C317.494 7.25569 303.588 5.57597 297.732 10.5861C291.878 15.5962 290.142 17.7839 294.425 25.6847Z" fill="#FFDEB3"/>
<path opacity="0.4" d="M300.072 21.3889L316.738 15.7478C316.071 13.4383 315.083 12.3113 313.969 11.1938L298.848 15.6184L300.072 21.3889Z" fill="#C95D5D"/>
<path d="M317.923 24.7421C317.7 23.6908 316.997 22.9519 316.354 23.092C315.71 23.2308 315.371 24.1931 315.595 25.2437C315.819 26.2956 316.52 27.0345 317.164 26.8925C317.807 26.7556 318.147 25.792 317.923 24.7421Z" fill="#684A41"/>
<path d="M310.237 4.4939L295.89 9.51603L296.312 15.98L315.702 11.0942L310.237 4.4939Z" fill="#E25969"/>
<path d="M303.242 24.9402C298.521 7.73472 294.733 7.70191 289.903 8.65282C278.219 10.9541 276.201 23.1791 279.35 32.8618C282.225 41.6869 294.173 47.8663 299.386 46.0812C303.085 45.2231 305.939 34.7674 303.242 24.9402Z" fill="#D6475C"/>
<path d="M303.242 24.9402C301.572 18.8549 300.019 14.9263 298.496 12.4199C299.571 14.583 300.666 17.579 301.803 21.719C304.498 31.5462 301.422 44.4489 297.723 45.307C295.749 45.9834 292.843 45.5727 289.839 44.3258C293.406 46.1582 297.051 46.882 299.387 46.0812C303.085 45.2231 305.939 34.7674 303.242 24.9402Z" fill="#E25969"/>
<path d="M292.057 30.4627C287.794 24.9478 282.435 20.5939 279.749 22.7961C277.066 24.9983 278.072 32.923 282.335 38.4386C286.596 43.9529 293.208 46.7028 295.891 44.5006C298.578 42.2978 296.319 35.9751 292.057 30.4627Z" fill="#E25969"/>
<path d="M283.872 17.6778C284.356 15.417 283.829 13.4135 282.695 13.2047C281.563 12.9945 280.252 14.6585 279.767 16.9187C279.284 19.179 279.81 21.1811 280.944 21.39C282.076 21.6001 283.386 19.9374 283.872 17.6778Z" fill="#E25969"/>
<path d="M305.726 12.3612L312.719 9.74755C312.719 9.74755 308.459 4.04268 302.875 0.878846C301.163 0.797447 299.376 0.917338 297.519 1.28016C296.132 1.55212 294.787 1.93577 293.492 2.41849C297.876 3.67354 303.097 6.83359 305.726 12.3612Z" fill="#FFB6C1"/>
<path d="M296.806 16.7908L324.398 9.85922L316.682 7.60718L296.292 14.2144L296.806 16.7908Z" fill="#FF8092"/>
<path d="M313.249 21.874C314.427 23.9721 321.156 35.0973 321.099 35.3105C321.043 35.5244 314.33 36.5965 314.33 36.5965L313.249 21.874Z" fill="#FFDEB3"/>
<path d="M313.772 22.4331L313.645 23.2105C316.061 27.3461 320.476 34.8272 320.433 34.9976C320.391 35.1566 316.627 35.9346 314.539 36.1851L314.331 36.5959C314.331 36.5959 321.65 35.7541 321.707 35.5396C321.764 35.327 314.948 24.5318 313.772 22.4331Z" fill="#F9AD8F"/>
<path d="M316.677 44.1944C313.644 44.5194 311.219 41.1896 310.883 38.4757L319.091 38.1936C319.091 38.1936 320.012 43.8347 316.677 44.1944Z" fill="#603333"/>
<path d="M318.422 40.5183C318.494 39.445 318.342 38.5105 318.342 38.5105L311.302 38.7528C311.382 39.4015 311.606 40.0905 311.938 40.7423L318.422 40.5183Z" fill="#FFF6E1"/>
<path d="M311.213 21.8286C311.919 20.9212 311.691 18.654 310.998 18.3915C310.305 18.1303 304.948 20.3091 304.769 20.8051C304.588 21.3017 304.158 23.1221 304.807 23.3247C305.458 23.526 310.628 22.5782 311.213 21.8286Z" fill="#824631"/>
<path d="M314.101 21.2703C313.506 20.5086 313.42 18.1336 313.877 17.7013C314.336 17.2691 318.328 18.2332 318.509 18.6983C318.69 19.1646 319.19 20.9257 318.756 21.2873C318.323 21.6489 314.593 21.8994 314.101 21.2703Z" fill="#824631"/>
<path d="M311.946 25.8305C311.722 24.7805 311.018 24.0423 310.377 24.1823C309.732 24.3193 309.394 25.2841 309.617 26.3347C309.841 27.3847 310.543 28.1229 311.187 27.9835C311.828 27.8453 312.169 26.8818 311.946 25.8305Z" fill="#684A41"/>
<path d="M249.918 123.483C250.111 125.097 247.053 125.416 241.632 124.953C241.632 124.953 249.703 121.678 249.918 123.483Z" fill="#FFF4DC"/>
<path d="M235.971 218.235C236.265 214.018 241.529 190.694 248.736 180.094C256.817 168.214 261.745 158.051 261.745 158.051C261.745 158.051 260.583 169.144 251.991 182.174C244.634 193.327 235.971 218.235 235.971 218.235Z" fill="#FFF4DC"/>
<path d="M218.593 253.454C221.538 247.074 234.217 208.099 235.198 185.52C236.298 160.21 239.208 140.563 239.208 140.563C239.208 140.563 231.845 157.742 230.372 185.23C229.112 208.76 218.593 253.454 218.593 253.454Z" fill="#FFF4DC"/>
<path d="M244.606 130.255C244.076 133.172 235.526 143.017 220.555 149.642C220.555 149.642 245.587 124.856 244.606 130.255Z" fill="#FFF4DC"/>
<path d="M305.254 308.722C307.852 304.834 307.588 300.503 304.925 298.593C302.23 296.661 297.586 297.567 294.194 301.031C290.282 305.024 289.58 310.705 293.153 313.096C296.676 315.451 302.265 313.19 305.254 308.722Z" fill="#FFEEB8"/>
<path d="M322.944 256.567C321.077 254.696 318.644 254.362 317.289 255.627C315.919 256.906 315.907 259.582 317.453 261.847C319.234 264.457 322.31 265.479 324.032 263.762C325.728 262.069 325.091 258.721 322.944 256.567Z" fill="#FFEEB8"/>
<path d="M185.268 207.903C183.444 203.417 179.575 201.124 176.392 202.298C173.17 203.486 171.25 207.993 172.25 212.914C173.402 218.587 177.868 222.495 181.993 220.82C186.059 219.169 187.365 213.063 185.268 207.903Z" fill="#FFEEB8"/>
<path d="M177.675 242.615C177.5 239.661 175.71 237.573 173.636 237.629C171.538 237.683 169.542 239.917 169.155 242.963C168.708 246.476 170.527 249.614 173.245 249.453C175.922 249.295 177.876 246.015 177.675 242.615Z" fill="#FFEEB8"/>
<path d="M169.493 266.936C173.932 263.496 175.283 258.457 172.976 255.27C170.642 252.042 165.009 251.309 159.826 253.965C153.849 257.028 150.881 263.237 154.043 267.321C157.156 271.342 164.384 270.891 169.493 266.936Z" fill="#FFEEB8"/>
<path d="M177.806 360.73C177.522 348.784 162.462 339.029 144.675 349.685C126.888 360.341 88.0143 360.073 88.4749 344.531C88.4749 344.531 79.0251 337.086 71.5408 349.931C67.5769 356.734 67.8873 368.103 77.7991 381.957H216.582C188.236 381.957 178.052 371.036 177.806 360.73Z" fill="#FFE5AB"/>
<path d="M316.22 364.84C316.22 359.656 309.546 355.453 301.312 355.453C293.078 355.453 286.402 359.656 286.402 364.84C286.402 370.025 293.078 374.227 301.312 374.227C309.546 374.227 316.22 370.025 316.22 364.84Z" fill="#FFEEB8"/>
<path d="M179.258 362.85C182.252 358.29 179.301 351.064 172.667 346.706C166.034 342.351 158.229 342.515 155.235 347.073C152.241 351.632 155.192 358.86 161.826 363.217C168.459 367.572 176.264 367.41 179.258 362.85Z" fill="#FFEEB8"/>
<path d="M129.449 347.495C120.436 348.377 112.44 346.442 108.727 342.927C107.607 344.699 107.18 346.495 107.622 348.164C109.066 353.618 119.205 355.666 130.272 352.742C139.445 350.317 146.368 345.231 147.646 340.455C144.13 343.952 137.386 346.719 129.449 347.495Z" fill="#FFE5AB"/>
<path d="M317.693 275.938C317.693 268.415 312.913 262.317 307.018 262.317C301.121 262.317 296.342 268.415 296.342 275.938C296.342 283.46 301.121 289.559 307.018 289.559C312.913 289.559 317.693 283.46 317.693 275.938Z" fill="#FFEEB8"/>
<path d="M366.564 303.649C366.031 299.421 362.408 296.278 358.466 296.63C354.529 296.981 351.765 300.693 352.297 304.92C352.83 309.148 356.457 312.291 360.396 311.94C364.333 311.589 367.095 307.877 366.564 303.649Z" fill="#FFF6D2"/>
<path d="M395.492 363.979C397.455 358.68 395.68 353.135 391.525 351.594C387.372 350.054 382.41 353.1 380.447 358.4C378.481 363.701 380.257 369.245 384.412 370.787C388.566 372.326 393.526 369.279 395.492 363.979Z" fill="#FFF6D2"/>
<path d="M358.374 353.379C364.985 354.006 370.604 351.78 370.924 348.404C371.247 345.029 366.151 341.782 359.538 341.154C352.927 340.524 347.309 342.753 346.986 346.128C346.666 349.503 351.765 352.75 358.374 353.379Z" fill="#FFF6D2"/>
<path d="M352.632 334.112C354.21 333.189 354.573 330.87 353.441 328.931C352.308 326.991 350.111 326.164 348.532 327.087C346.955 328.008 346.592 330.33 347.724 332.269C348.855 334.207 351.053 335.033 352.632 334.112Z" fill="#FFF6D2"/>
<path d="M299.162 257.847C300.989 257.903 302.529 256.13 302.598 253.886C302.667 251.641 301.243 249.776 299.414 249.718C297.587 249.662 296.049 251.436 295.98 253.68C295.911 255.925 297.336 257.79 299.162 257.847Z" fill="#FFEEB8"/>
<path d="M353.595 322.937C336.673 327.845 323.253 323.919 317.707 313.366L309.539 318.764C309.539 318.764 325.294 342.57 353.595 322.937Z" fill="#FFE5AB"/>
<path d="M173.635 310.665C150.32 317.045 142.466 292.505 142.466 292.505C142.466 312.875 163.081 316.555 175.353 316.555C187.623 316.555 194.003 329.072 194.495 340.362L200.385 322.445C200.385 322.445 196.949 304.285 173.635 310.665Z" fill="#FFE5AB"/>
<path d="M208.728 306.248C205.133 300.99 195.157 293.157 190.323 294.467C185.488 295.779 187.628 305.736 191.223 310.995C194.818 316.253 201.652 319.454 206.486 318.143C211.32 316.833 212.323 311.506 208.728 306.248Z" fill="#FFEEB8"/>
<path d="M367.251 372.39C367.251 372.39 365.04 378.36 359.524 378.185C354.006 378.009 357.358 371.685 356.246 369.052C355.136 366.416 347.448 362.904 343.465 365.011C343.465 365.011 335.293 360.079 328.211 360.351C327.428 358.164 325.559 354.778 322.711 354.123C322.506 353.097 322.56 352.02 322.017 351.053C321.35 349.863 319.649 349.68 318.366 348.823C316.779 347.762 317.713 345.737 317.428 344.326C317.106 342.743 316.787 340.971 315.578 339.605C313.938 337.757 307.75 336.809 303.097 338.129C302.721 338.237 302.358 338.378 302.004 338.529C301.99 338.534 301.977 338.54 301.963 338.547C301.776 338.629 301.59 338.711 301.411 338.803C301.359 338.83 301.307 338.858 301.257 338.884C301.11 338.962 300.965 339.037 300.824 339.118C300.624 339.234 300.426 339.355 300.234 339.478C299.922 339.271 299.604 339.059 299.289 338.839C301.743 337.685 304.966 335.919 302.693 333.599C301.464 332.349 297.41 332.17 299.42 330.385C296.406 330.024 299.116 329.334 300.029 328.778C302.005 327.57 301.443 328.066 301.889 326.473C302.187 325.405 301.897 322.423 304.982 322.842C303.326 321.787 301.158 322.428 301.088 323.481C299.737 319.037 290.813 318.939 290.933 321.813C289.63 321.6 288.314 321.63 287.124 321.852C287.175 320.352 286.847 318.923 286.228 317.626C286.607 316.851 286.544 316.054 285.968 315.546C285.596 315.216 285.071 315.063 284.492 315.067C282.882 313.312 280.685 312.05 278.32 311.589C279.171 310.892 279.908 309.836 280.337 308.564C281.221 305.949 280.469 303.431 278.664 302.928C276.861 302.424 274.673 304.115 273.768 306.718C273.767 306.724 273.765 306.73 273.763 306.735C273.504 306.643 273.232 306.605 272.957 306.61C273.543 304.472 273.112 303.226 272.157 302.603C272.332 301.934 272.117 301.282 271.61 300.931C272.859 307.321 273.518 313.942 273.518 320.724C273.518 343.586 266.061 364.595 253.595 381.169C304.357 381.169 353.76 381.169 353.76 381.169C353.76 381.169 367.82 382.575 367.251 372.39Z" fill="#FFE5AB"/>
<path d="M327.164 370.493C319.433 362.394 306.916 347.301 291.455 355.4C275.994 363.497 253.88 356.934 250.948 345.124C250.948 345.124 226.297 347.301 229.242 382.272H368.024C339.68 382.272 334.893 378.591 327.164 370.493Z" fill="#FFE5AB"/>
<path d="M253.184 373.997C254.954 370.92 252.429 366.147 247.543 363.335C242.657 360.523 237.261 360.736 235.491 363.813C233.719 366.89 236.245 371.663 241.131 374.476C246.017 377.287 251.413 377.073 253.184 373.997Z" fill="#FFEEB8"/>
<path d="M226.119 348.539C229.52 349.556 232.579 344.305 234.801 336.861C237.023 329.422 237.565 322.61 234.164 321.595C230.763 320.58 221.996 324.307 219.772 331.748C217.552 339.19 222.717 347.525 226.119 348.539Z" fill="#FFEEB8"/>
<path d="M283.789 336.551C286.396 325.456 282.084 315.793 274.37 313.714C266.565 311.607 256.74 317.645 251.962 328.449C246.448 340.908 249.705 354.484 259.912 356.884C269.969 359.248 280.793 349.305 283.789 336.551Z" fill="#FFEEB8"/>
<path d="M325.734 307.371C338.638 290.596 352.11 290.618 365.956 292.64C379.801 294.66 398.217 295.202 406.516 289.944C415.92 283.982 430.383 281.69 443.233 287.578C425.271 278.781 417.009 281.697 404.678 288.979C402.184 290.452 383.855 294.719 365.747 291.144C335.619 285.195 325.734 307.371 325.734 307.371Z" fill="#FFE5AB"/>
</g>
<defs>
<clipPath id="clip0_215_1450">
<rect width="493" height="384" fill="white" transform="translate(-18)"/>
</clipPath>
</defs>
</svg>
