<svg width="411" height="396" viewBox="0 0 411 396" fill="none" xmlns="http://www.w3.org/2000/svg">
<g clip-path="url(#clip0_209_658)">
<path d="M385.715 281.417C394.092 216.093 353.526 129.263 311.459 93.418C235.534 28.683 172.456 41.202 123.4 64.3889C74.3435 87.5758 67.3211 164.969 33.4523 199.99C-0.416464 235.011 -19.7029 282.112 31.7051 329.011C83.1131 375.909 124.564 352.069 178.302 349.105C232.04 346.141 303.283 369.542 341.822 349.18C368.758 334.97 382.019 310.296 385.715 281.417Z" fill="#FF9933"/>
<path opacity="0.7" d="M385.715 281.417C394.092 216.093 353.526 129.263 311.459 93.418C235.534 28.683 172.456 41.202 123.4 64.3889C74.3435 87.5758 67.3211 164.969 33.4523 199.99C-0.416464 235.011 -19.7029 282.112 31.7051 329.011C83.1131 375.909 124.564 352.069 178.302 349.105C232.04 346.141 303.283 369.542 341.822 349.18C368.758 334.97 382.019 310.296 385.715 281.417Z" fill="white"/>
<path d="M173.083 279.117V38.4308" stroke="#263238" stroke-linecap="round" stroke-linejoin="round"/>
<path d="M9.31641 281.503H168.233L409.672 355.953" stroke="#263238" stroke-linecap="round" stroke-linejoin="round"/>
<path d="M81.6795 275.853H70.7035V102.449H93.3611L83.5835 68.7332H54.2395L44.4619 102.449H67.1195V275.853H56.1099C53.2948 275.855 50.593 276.912 48.5847 278.797C46.5764 280.682 45.4219 283.244 45.3691 285.932C45.3691 285.932 45.3691 285.986 45.3691 286.007C45.3691 286.007 45.3691 286.072 45.3691 286.093C45.6939 288.511 56.0875 290.459 68.8891 290.459C81.6907 290.459 92.0843 288.511 92.4091 286.093C92.4002 283.378 91.2666 280.777 89.256 278.858C87.2454 276.939 84.5214 275.859 81.6795 275.853Z" fill="#263238"/>
<path d="M227.94 26.5002V230.678L388.851 255.972V1.20544L227.94 26.5002ZM384.673 84.965L302.913 89.3948V18.4538L384.673 6.02044V84.965ZM302.913 96.8527L384.673 93.2682V164.594L302.913 160.946V96.8527ZM296.283 160.646L230.64 157.725V100.02L296.227 97.1523L296.283 160.646ZM296.283 19.4596V89.78L230.64 93.3003V29.432L296.283 19.4596ZM230.64 164.445L296.227 168.051V237.718L230.64 227.746V164.445ZM302.857 238.724V168.414L384.617 172.908V251.157L302.857 238.724Z" fill="#263238" stroke="#263238" stroke-linecap="round" stroke-linejoin="round"/>
<path d="M172.445 380.766C243.549 380.766 301.189 363.612 301.189 342.45C301.189 321.288 243.549 304.133 172.445 304.133C101.342 304.133 43.7012 321.288 43.7012 342.45C43.7012 363.612 101.342 380.766 172.445 380.766Z" fill="#FF9933"/>
<path opacity="0.5" d="M172.445 380.766C243.549 380.766 301.189 363.612 301.189 342.45C301.189 321.288 243.549 304.133 172.445 304.133C101.342 304.133 43.7012 321.288 43.7012 342.45C43.7012 363.612 101.342 380.766 172.445 380.766Z" fill="white"/>
<path d="M161.57 173.497C161.57 173.497 132.394 170.191 113.197 184.496C94.0007 198.802 77.4919 258.583 77.8727 287.216C78.2535 315.85 89.3975 330.134 117.42 341.861C145.442 353.589 197.645 349.202 226.821 340.395C255.997 331.589 265.596 300.805 265.215 284.285C264.834 267.764 245.637 248.707 239.108 244.695C232.578 240.682 214.154 232.229 204.948 219.015C195.741 205.8 182.29 177.167 161.57 173.497Z" fill="#FF9933"/>
<mask id="mask0_209_658" style="mask-type:luminance" maskUnits="userSpaceOnUse" x="77" y="173" width="189" height="176">
<path d="M161.57 173.497C161.57 173.497 132.394 170.191 113.197 184.496C94.0007 198.802 77.4919 258.583 77.8727 287.216C78.2535 315.85 89.3975 330.134 117.42 341.861C145.442 353.589 197.645 349.202 226.821 340.395C255.997 331.589 265.596 300.805 265.215 284.285C264.834 267.764 245.637 248.707 239.108 244.695C232.578 240.682 214.154 232.229 204.948 219.015C195.741 205.8 182.29 177.167 161.57 173.497Z" fill="white"/>
</mask>
<g mask="url(#mask0_209_658)">
<path opacity="0.13" d="M232.175 338.416C221.143 336.993 208.061 334.136 198.161 328.39C177.25 316.267 172.031 293.433 164.561 284.873C157.09 276.313 143.65 277.03 137.681 267.753C131.711 258.476 141.41 190.007 124.241 185.727C120.756 184.765 117.149 184.272 113.522 184.261C113.421 184.347 113.298 184.411 113.197 184.496C94.0007 198.802 77.4919 258.583 77.8727 287.216C78.2535 315.85 89.3975 330.134 117.42 341.861C145.442 353.588 197.645 349.201 226.821 340.395C228.647 339.843 230.435 339.181 232.175 338.416Z" fill="black"/>
</g>
<path d="M161.57 173.497C161.57 173.497 132.394 170.191 113.197 184.496C94.0007 198.802 77.4919 258.583 77.8727 287.216C78.2535 315.85 89.3975 330.134 117.42 341.861C145.442 353.589 197.645 349.202 226.821 340.395C255.997 331.589 265.596 300.805 265.215 284.285C264.834 267.764 245.637 248.707 239.108 244.695C232.578 240.682 214.154 232.229 204.948 219.015C195.741 205.8 182.29 177.167 161.57 173.497Z" stroke="#263238" stroke-linecap="round" stroke-linejoin="round"/>
<path d="M150.078 186.422C150.078 186.422 131.038 189.9 127.678 193.11C124.318 196.32 110.318 246.61 110.318 246.61C114.211 245.704 118.294 245.89 122.078 247.145C127.678 249.285 128.238 254.902 128.798 257.577C129.248 260.772 129.528 263.986 129.638 267.207C129.638 267.207 186.232 262.382 198.272 259.717C210.312 257.053 228.635 255.812 228.635 255.812C228.635 255.812 197.678 189.108 192.918 186.701C188.158 184.293 168.278 184.026 165.478 184.561C162.678 185.096 150.078 186.422 150.078 186.422Z" fill="#263238" stroke="#263238" stroke-linecap="round" stroke-linejoin="round"/>
<path d="M131.318 248.215L136.078 211.032" stroke="white" stroke-linecap="round" stroke-linejoin="round"/>
<path d="M134.959 220.93L141.399 212.905" stroke="white" stroke-linecap="round" stroke-linejoin="round"/>
<path d="M154.278 225.745C154.278 225.745 172.478 220.127 184.518 220.127" stroke="white" stroke-linecap="round" stroke-linejoin="round"/>
<path d="M171.459 210.412L170.238 219.325C170.238 219.325 173.318 219.325 173.598 220.662C173.618 221.158 173.528 221.653 173.335 222.113C173.142 222.574 172.85 222.991 172.478 223.337C172.478 223.337 181.158 227.885 182.278 233.235" stroke="white" stroke-linecap="round" stroke-linejoin="round"/>
<path d="M160.529 176.45C160.529 176.45 150.079 179.66 148.578 182.153C147.077 184.646 148.209 202.13 148.209 204.27C148.209 206.41 149.519 203.018 150.639 200.525C151.759 198.032 155.679 194.276 156.978 194.64C158.277 195.004 159.039 196.416 159.039 198.738C159.039 201.06 162.018 204.27 164.639 206.046C167.26 207.822 169.679 209.62 169.679 209.62C169.679 209.62 175.089 202.13 176.399 200.161C177.709 198.192 177.519 194.105 177.698 192.671C177.877 191.237 181.249 196.598 181.999 195.175C182.749 193.752 180.319 192.5 177.698 188.573C175.077 184.646 175.839 180.548 171.919 177.691C167.999 174.834 163.519 175.722 160.529 176.45Z" fill="white"/>
<mask id="mask1_209_658" style="mask-type:luminance" maskUnits="userSpaceOnUse" x="147" y="175" width="36" height="35">
<path d="M160.529 176.45C160.529 176.45 150.079 179.66 148.578 182.153C147.077 184.646 148.209 202.13 148.209 204.27C148.209 206.41 149.519 203.018 150.639 200.525C151.759 198.032 155.679 194.276 156.978 194.64C158.277 195.004 159.039 196.416 159.039 198.738C159.039 201.06 162.018 204.27 164.639 206.046C167.26 207.822 169.679 209.62 169.679 209.62C169.679 209.62 175.089 202.13 176.399 200.161C177.709 198.192 177.519 194.105 177.698 192.671C177.877 191.237 181.249 196.598 181.999 195.175C182.749 193.752 180.319 192.5 177.698 188.573C175.077 184.646 175.839 180.548 171.919 177.691C167.999 174.834 163.519 175.722 160.529 176.45Z" fill="white"/>
</mask>
<g mask="url(#mask1_209_658)">
<path d="M148.578 182.142C147.593 183.812 147.749 192.136 147.973 198.192C150.359 195.261 155.276 189.718 158.121 190.767C161.749 192.104 163.138 201.959 163.138 201.959L160.685 176.45H160.529C160.529 176.45 150.079 179.66 148.578 182.142Z" fill="#FF9933"/>
<path opacity="0.5" d="M148.578 182.142C147.593 183.812 147.749 192.136 147.973 198.192C150.359 195.261 155.276 189.718 158.121 190.767C161.749 192.104 163.138 201.959 163.138 201.959L160.685 176.45H160.529C160.529 176.45 150.079 179.66 148.578 182.142Z" fill="white"/>
</g>
<path d="M160.529 176.45C160.529 176.45 150.079 179.66 148.578 182.153C147.077 184.646 148.209 202.13 148.209 204.27C148.209 206.41 149.519 203.018 150.639 200.525C151.759 198.032 155.679 194.276 156.978 194.64C158.277 195.004 159.039 196.416 159.039 198.738C159.039 201.06 162.018 204.27 164.639 206.046C167.26 207.822 169.679 209.62 169.679 209.62C169.679 209.62 175.089 202.13 176.399 200.161C177.709 198.192 177.519 194.105 177.698 192.671C177.877 191.237 181.249 196.598 181.999 195.175C182.749 193.752 180.319 192.5 177.698 188.573C175.077 184.646 175.839 180.548 171.919 177.691C167.999 174.834 163.519 175.722 160.529 176.45Z" stroke="#263238" stroke-linecap="round" stroke-linejoin="round"/>
<path d="M135.799 248.75C135.799 248.75 129.359 239.922 121.519 239.12C113.679 238.317 104.159 244.47 103.879 246.61C103.599 248.75 101.639 260.252 103.039 261.857C104.439 263.462 109.759 264.8 120.119 261.59C130.479 258.38 134.679 254.367 135.799 248.75Z" fill="white"/>
<mask id="mask2_209_658" style="mask-type:luminance" maskUnits="userSpaceOnUse" x="102" y="239" width="34" height="25">
<path d="M135.799 248.75C135.799 248.75 129.359 239.922 121.519 239.12C113.679 238.317 104.159 244.47 103.879 246.61C103.599 248.75 101.639 260.252 103.039 261.857C104.439 263.462 109.759 264.8 120.119 261.59C130.479 258.38 134.679 254.367 135.799 248.75Z" fill="white"/>
</mask>
<g mask="url(#mask2_209_658)">
<path d="M109.602 261.579C109.602 261.579 107.362 255.459 108.482 253.329C109.602 251.2 114.082 247.979 116.849 244.769C119.615 241.559 110.319 246.578 109.871 244.769C109.524 243.314 114.788 240.404 116.86 239.323C110.342 240.521 104.103 244.855 103.879 246.578C103.599 248.718 101.639 260.22 103.039 261.825C103.756 262.649 105.537 263.409 108.505 263.505C109.177 262.403 109.602 261.579 109.602 261.579Z" fill="#FF9933"/>
<path opacity="0.5" d="M109.602 261.579C109.602 261.579 107.362 255.459 108.482 253.329C109.602 251.2 114.082 247.979 116.849 244.769C119.615 241.559 110.319 246.578 109.871 244.769C109.524 243.314 114.788 240.404 116.86 239.323C110.342 240.521 104.103 244.855 103.879 246.578C103.599 248.718 101.639 260.22 103.039 261.825C103.756 262.649 105.537 263.409 108.505 263.505C109.177 262.403 109.602 261.579 109.602 261.579Z" fill="white"/>
</g>
<path d="M135.799 248.75C135.799 248.75 129.359 239.922 121.519 239.12C113.679 238.317 104.159 244.47 103.879 246.61C103.599 248.75 101.639 260.252 103.039 261.857C104.439 263.462 109.759 264.8 120.119 261.59C130.479 258.38 134.679 254.367 135.799 248.75Z" stroke="#263238" stroke-linecap="round" stroke-linejoin="round"/>
<path d="M113.959 251.157C113.959 251.157 103.453 255.138 103.039 262.927C102.803 267.207 110.319 269.08 118.159 269.08C125.999 269.08 137.199 259.717 144.479 255.705C151.759 251.692 168.559 242.33 170.519 241.527C172.479 240.725 179.199 242.865 181.999 243.667C184.667 244.214 187.39 244.483 190.119 244.47C190.119 244.47 194.039 250.355 195.999 250.355C197.959 250.355 191.799 241.527 190.959 239.655C190.119 237.782 176.399 233.502 174.719 233.502C173.039 233.502 133.839 242.865 127.959 245.005C122.079 247.145 113.959 251.157 113.959 251.157Z" fill="white"/>
<mask id="mask3_209_658" style="mask-type:luminance" maskUnits="userSpaceOnUse" x="103" y="233" width="94" height="37">
<path d="M113.959 251.157C113.959 251.157 103.453 255.138 103.039 262.927C102.803 267.207 110.319 269.08 118.159 269.08C125.999 269.08 137.199 259.717 144.479 255.705C151.759 251.692 168.559 242.33 170.519 241.527C172.479 240.725 179.199 242.865 181.999 243.667C184.667 244.214 187.39 244.483 190.119 244.47C190.119 244.47 194.039 250.355 195.999 250.355C197.959 250.355 191.799 241.527 190.959 239.655C190.119 237.782 176.399 233.502 174.719 233.502C173.039 233.502 133.839 242.865 127.959 245.005C122.079 247.145 113.959 251.157 113.959 251.157Z" fill="white"/>
</mask>
<g mask="url(#mask3_209_658)">
<path d="M135.922 250.045C151.927 242.394 174.719 233.502 174.719 233.502C173.039 233.502 133.839 242.865 127.959 245.005C122.079 247.145 113.959 251.157 113.959 251.157C113.959 251.157 103.453 255.138 103.039 262.927C102.803 267.207 110.319 269.08 118.159 269.08C125.999 269.08 137.199 259.717 144.479 255.705L148.891 253.265C138.195 254.56 123.893 255.78 135.922 250.045Z" fill="#FF9933"/>
<path opacity="0.5" d="M135.922 250.045C151.927 242.394 174.719 233.502 174.719 233.502C173.039 233.502 133.839 242.865 127.959 245.005C122.079 247.145 113.959 251.157 113.959 251.157C113.959 251.157 103.453 255.138 103.039 262.927C102.803 267.207 110.319 269.08 118.159 269.08C125.999 269.08 137.199 259.717 144.479 255.705L148.891 253.265C138.195 254.56 123.893 255.78 135.922 250.045Z" fill="white"/>
</g>
<path d="M113.959 251.157C113.959 251.157 103.453 255.138 103.039 262.927C102.803 267.207 110.319 269.08 118.159 269.08C125.999 269.08 137.199 259.717 144.479 255.705C151.759 251.692 168.559 242.33 170.519 241.527C172.479 240.725 179.199 242.865 181.999 243.667C184.667 244.214 187.39 244.483 190.119 244.47C190.119 244.47 194.039 250.355 195.999 250.355C197.959 250.355 191.799 241.527 190.959 239.655C190.119 237.782 176.399 233.502 174.719 233.502C173.039 233.502 133.839 242.865 127.959 245.005C122.079 247.145 113.959 251.157 113.959 251.157Z" stroke="#263238" stroke-linecap="round" stroke-linejoin="round"/>
<path d="M195.853 191.665L187.318 237.515L248.918 237.782L258.08 194.298C258.156 193.914 258.144 193.519 258.046 193.14C257.947 192.761 257.764 192.407 257.509 192.102C257.253 191.797 256.932 191.548 256.567 191.373C256.201 191.198 255.8 191.101 255.392 191.088L198.72 189.461C198.045 189.44 197.385 189.651 196.859 190.055C196.333 190.46 195.976 191.031 195.853 191.665Z" fill="white" stroke="#263238" stroke-linecap="round" stroke-linejoin="round"/>
<path d="M187.319 237.515L157.325 257.781L225.925 255.908L248.919 237.782L187.319 237.515Z" fill="white"/>
<mask id="mask4_209_658" style="mask-type:luminance" maskUnits="userSpaceOnUse" x="157" y="237" width="92" height="21">
<path d="M187.319 237.515L157.325 257.781L225.925 255.908L248.919 237.782L187.319 237.515Z" fill="white"/>
</mask>
<g mask="url(#mask4_209_658)">
<path d="M187.319 237.515L157.325 257.781L225.925 255.908L248.919 237.782L187.319 237.515Z" fill="#FF9933"/>
<path opacity="0.5" d="M187.319 237.515L157.325 257.781L225.925 255.908L248.919 237.782L187.319 237.515Z" fill="white"/>
</g>
<path d="M187.319 237.515L157.325 257.781L225.925 255.908L248.919 237.782L187.319 237.515Z" stroke="#263238" stroke-linecap="round" stroke-linejoin="round"/>
<path d="M209.999 257.577C209.999 257.577 234.639 236.98 258.999 230.025C283.359 223.07 288.399 224.14 287.839 234.572C287.279 245.005 275.519 299.575 267.679 313.485C259.839 327.395 250.039 352.807 250.319 357.622C250.599 362.437 260.119 376.615 268.519 381.697C276.919 386.78 276.079 392.932 270.759 394.002C265.439 395.072 259.279 396.945 241.079 385.71C222.879 374.475 215.319 358.425 216.439 354.412C217.559 350.4 229.319 345.05 234.079 337.025C238.839 329 246.679 299.04 247.239 285.397C247.694 276.784 249.584 268.296 252.839 260.252C252.839 260.252 222.039 265.602 213.079 270.952L209.999 257.577Z" fill="white"/>
<mask id="mask5_209_658" style="mask-type:luminance" maskUnits="userSpaceOnUse" x="209" y="225" width="79" height="170">
<path d="M209.999 257.577C209.999 257.577 234.639 236.98 258.999 230.025C283.359 223.07 288.399 224.14 287.839 234.572C287.279 245.005 275.519 299.575 267.679 313.485C259.839 327.395 250.039 352.807 250.319 357.622C250.599 362.437 260.119 376.615 268.519 381.697C276.919 386.78 276.079 392.932 270.759 394.002C265.439 395.072 259.279 396.945 241.079 385.71C222.879 374.475 215.319 358.425 216.439 354.412C217.559 350.4 229.319 345.05 234.079 337.025C238.839 329 246.679 299.04 247.239 285.397C247.694 276.784 249.584 268.296 252.839 260.252C252.839 260.252 222.039 265.602 213.079 270.952L209.999 257.577Z" fill="white"/>
</mask>
<g mask="url(#mask5_209_658)">
<path d="M209.999 257.577C209.999 257.577 234.639 236.98 258.999 230.025C283.359 223.07 288.399 224.14 287.839 234.572C287.279 245.005 275.519 299.575 267.679 313.485C259.839 327.395 250.039 352.807 250.319 357.622C250.599 362.437 260.119 376.615 268.519 381.697C276.919 386.78 276.079 392.932 270.759 394.002C265.439 395.072 259.279 396.945 241.079 385.71C222.879 374.475 215.319 358.425 216.439 354.412C217.559 350.4 229.319 345.05 234.079 337.025C238.839 329 246.679 299.04 247.239 285.397C247.694 276.784 249.584 268.296 252.839 260.252C252.839 260.252 222.039 265.602 213.079 270.952L209.999 257.577Z" fill="#FF9933"/>
<path opacity="0.5" d="M209.999 257.577C209.999 257.577 234.639 236.98 258.999 230.025C283.359 223.07 288.399 224.14 287.839 234.572C287.279 245.005 275.519 299.575 267.679 313.485C259.839 327.395 250.039 352.807 250.319 357.622C250.599 362.437 260.119 376.615 268.519 381.697C276.919 386.78 276.079 392.932 270.759 394.002C265.439 395.072 259.279 396.945 241.079 385.71C222.879 374.475 215.319 358.425 216.439 354.412C217.559 350.4 229.319 345.05 234.079 337.025C238.839 329 246.679 299.04 247.239 285.397C247.694 276.784 249.584 268.296 252.839 260.252C252.839 260.252 222.039 265.602 213.079 270.952L209.999 257.577Z" fill="white"/>
</g>
<path d="M209.999 257.577C209.999 257.577 234.639 236.98 258.999 230.025C283.359 223.07 288.399 224.14 287.839 234.572C287.279 245.005 275.519 299.575 267.679 313.485C259.839 327.395 250.039 352.807 250.319 357.622C250.599 362.437 260.119 376.615 268.519 381.697C276.919 386.78 276.079 392.932 270.759 394.002C265.439 395.072 259.279 396.945 241.079 385.71C222.879 374.475 215.319 358.425 216.439 354.412C217.559 350.4 229.319 345.05 234.079 337.025C238.839 329 246.679 299.04 247.239 285.397C247.694 276.784 249.584 268.296 252.839 260.252C252.839 260.252 222.039 265.602 213.079 270.952L209.999 257.577Z" stroke="#263238" stroke-linecap="round" stroke-linejoin="round"/>
<path d="M234.079 337.025C233.721 337.624 233.317 338.202 232.892 338.78C238.684 339.301 244.174 341.487 248.639 345.05C249.982 346.164 251.26 347.346 252.469 348.592C256.535 336.515 261.621 324.774 267.679 313.485C275.519 299.575 287.279 245.005 287.839 234.572C288.399 224.14 283.359 223.07 258.999 230.025C234.639 236.98 209.999 257.577 209.999 257.577L213.079 270.952C222.039 265.602 252.839 260.252 252.839 260.252C249.584 268.296 247.694 276.784 247.239 285.397C246.679 299.04 238.839 329 234.079 337.025Z" fill="white" stroke="#263238" stroke-linecap="round" stroke-linejoin="round"/>
<path d="M234.079 337.025C233.721 337.624 233.317 338.202 232.892 338.78C238.684 339.301 244.174 341.487 248.639 345.05C249.982 346.164 251.26 347.346 252.469 348.592C257.834 341.701 263.871 319.969 270.681 311.024C288.276 287.923 287.279 245.005 287.839 234.572C288.399 224.14 283.359 223.07 258.999 230.025C234.639 236.98 209.999 257.577 209.999 257.577L213.079 270.952C222.039 265.602 252.839 260.252 252.839 260.252C249.584 268.296 247.694 276.784 247.239 285.397C246.679 299.04 238.839 329 234.079 337.025Z" fill="#263238"/>
<mask id="mask6_209_658" style="mask-type:luminance" maskUnits="userSpaceOnUse" x="209" y="225" width="79" height="124">
<path d="M234.079 337.025C233.721 337.624 233.317 338.202 232.892 338.78C238.684 339.301 244.174 341.487 248.639 345.05C249.982 346.164 251.26 347.346 252.469 348.592C257.834 341.701 263.871 319.969 270.681 311.024C288.276 287.923 287.279 245.005 287.839 234.572C288.399 224.14 283.359 223.07 258.999 230.025C234.639 236.98 209.999 257.577 209.999 257.577L213.079 270.952C222.039 265.602 252.839 260.252 252.839 260.252C249.584 268.296 247.694 276.784 247.239 285.397C246.679 299.04 238.839 329 234.079 337.025Z" fill="white"/>
</mask>
<g mask="url(#mask6_209_658)">
<path opacity="0.53" d="M234.079 337.025C233.721 337.624 233.317 338.202 232.892 338.78C238.684 339.301 244.174 341.487 248.639 345.05C249.982 346.164 251.26 347.346 252.469 348.592C257.834 341.701 263.871 319.969 270.681 311.024C288.276 287.923 287.279 245.005 287.839 234.572C288.399 224.14 283.359 223.07 258.999 230.025C234.639 236.98 209.999 257.577 209.999 257.577L213.079 270.952C222.039 265.602 252.839 260.252 252.839 260.252C249.584 268.296 247.694 276.784 247.239 285.397C246.679 299.04 238.839 329 234.079 337.025Z" fill="white"/>
<path opacity="0.14" d="M276.001 233.16C275.564 229.362 232.253 246.877 213.986 254.432C211.455 256.358 209.999 257.577 209.999 257.577L213.079 270.952C222.039 265.602 252.839 260.252 252.839 260.252C249.584 268.296 247.694 276.785 247.239 285.397C246.679 299.04 238.839 329 234.079 337.025C233.721 337.624 233.317 338.202 232.892 338.78C235.976 339.096 238.995 339.842 241.852 340.995C248.561 327.32 255.785 311.409 259.201 298.965C265.361 276.495 276.561 237.975 276.001 233.16Z" fill="black"/>
<path d="M252.839 260.252C252.839 260.252 261.239 243.935 268.519 237.247" stroke="#263238" stroke-linecap="round" stroke-linejoin="round"/>
</g>
<path d="M234.079 337.025C233.721 337.624 233.317 338.202 232.892 338.78C238.684 339.301 244.174 341.487 248.639 345.05C249.982 346.164 251.26 347.346 252.469 348.592C257.834 341.701 263.871 319.969 270.681 311.024C288.276 287.923 287.279 245.005 287.839 234.572C288.399 224.14 283.359 223.07 258.999 230.025C234.639 236.98 209.999 257.577 209.999 257.577L213.079 270.952C222.039 265.602 252.839 260.252 252.839 260.252C249.584 268.296 247.694 276.784 247.239 285.397C246.679 299.04 238.839 329 234.079 337.025Z" stroke="#263238" stroke-linecap="round" stroke-linejoin="round"/>
<path d="M173.084 279.17C182.103 278.777 191.02 277.174 199.572 274.409C212.239 270 189.201 261.932 180.375 266.341C177.909 267.483 175.88 269.335 174.572 271.636C173.264 273.937 172.744 276.572 173.084 279.17Z" fill="#263238" stroke="#263238" stroke-linecap="round" stroke-linejoin="round"/>
<path d="M136.639 261.857C136.639 261.857 127.679 266.672 124.599 272.022C121.519 277.372 134.769 286.285 148.769 285.75C162.769 285.215 188.439 270.685 188.439 270.685C188.439 270.685 188.719 294.225 193.479 302.785C198.239 311.345 220.079 332.21 228.759 337.56C237.439 342.91 266.559 362.972 271.039 366.182C275.519 369.392 283.919 375.277 285.879 375.545C287.839 375.812 308.279 352.005 313.039 343.98C317.799 335.955 321.999 319.102 320.319 315.357C318.639 311.612 315.279 314.822 311.919 317.497C308.559 320.172 277.759 339.7 274.959 341.037C273.43 341.788 271.838 342.414 270.199 342.91C270.199 342.91 244.999 319.905 231.559 302.25C218.119 284.595 216.999 261.857 211.959 253.297C206.919 244.737 199.639 240.992 188.719 242.062C177.799 243.132 155.119 248.75 136.639 261.857Z" fill="white"/>
<mask id="mask7_209_658" style="mask-type:luminance" maskUnits="userSpaceOnUse" x="124" y="241" width="197" height="135">
<path d="M136.639 261.857C136.639 261.857 127.679 266.672 124.599 272.022C121.519 277.372 134.769 286.285 148.769 285.75C162.769 285.215 188.439 270.685 188.439 270.685C188.439 270.685 188.719 294.225 193.479 302.785C198.239 311.345 220.079 332.21 228.759 337.56C237.439 342.91 266.559 362.972 271.039 366.182C275.519 369.392 283.919 375.277 285.879 375.545C287.839 375.812 308.279 352.005 313.039 343.98C317.799 335.955 321.999 319.102 320.319 315.357C318.639 311.612 315.279 314.822 311.919 317.497C308.559 320.172 277.759 339.7 274.959 341.037C273.43 341.788 271.838 342.414 270.199 342.91C270.199 342.91 244.999 319.905 231.559 302.25C218.119 284.595 216.999 261.857 211.959 253.297C206.919 244.737 199.639 240.992 188.719 242.062C177.799 243.132 155.119 248.75 136.639 261.857Z" fill="white"/>
</mask>
<g mask="url(#mask7_209_658)">
<path d="M255.112 355.14C262.594 360.255 269.101 364.77 271.039 366.161C275.519 369.371 283.919 375.256 285.879 375.523C286.573 375.62 289.597 372.677 293.416 368.494L261.351 348.784L255.112 355.14Z" fill="#FF9933"/>
<path opacity="0.5" d="M255.112 355.14C262.594 360.255 269.101 364.77 271.039 366.161C275.519 369.371 283.919 375.256 285.879 375.523C286.573 375.62 289.597 372.677 293.416 368.494L261.351 348.784L255.112 355.14Z" fill="white"/>
</g>
<path d="M136.639 261.857C136.639 261.857 127.679 266.672 124.599 272.022C121.519 277.372 134.769 286.285 148.769 285.75C162.769 285.215 188.439 270.685 188.439 270.685C188.439 270.685 188.719 294.225 193.479 302.785C198.239 311.345 220.079 332.21 228.759 337.56C237.439 342.91 266.559 362.972 271.039 366.182C275.519 369.392 283.919 375.277 285.879 375.545C287.839 375.812 308.279 352.005 313.039 343.98C317.799 335.955 321.999 319.102 320.319 315.357C318.639 311.612 315.279 314.822 311.919 317.497C308.559 320.172 277.759 339.7 274.959 341.037C273.43 341.788 271.838 342.414 270.199 342.91C270.199 342.91 244.999 319.905 231.559 302.25C218.119 284.595 216.999 261.857 211.959 253.297C206.919 244.737 199.639 240.992 188.719 242.062C177.799 243.132 155.119 248.75 136.639 261.857Z" stroke="#263238" stroke-linecap="round" stroke-linejoin="round"/>
<path d="M268.463 341.305C262.538 335.784 240.329 307.311 231.559 290.94C218.713 266.951 217.324 258.776 212.284 250.216C207.244 241.656 199.639 240.992 188.764 242.062C177.889 243.132 158.3 245.069 134.332 258.059C134.332 258.059 124.252 263.281 121.183 268.631C118.114 273.981 129.325 287.452 148.813 285.751C162.769 284.531 188.484 270.685 188.484 270.685C188.484 270.685 188.764 294.225 193.524 302.785C198.284 311.345 220.124 332.21 228.804 337.56C234.303 340.952 248.023 350.261 258.473 357.43C261.049 348.474 265.674 343.573 268.463 341.305Z" fill="#263238"/>
<mask id="mask8_209_658" style="mask-type:luminance" maskUnits="userSpaceOnUse" x="120" y="241" width="149" height="117">
<path d="M268.463 341.305C262.538 335.784 240.329 307.311 231.559 290.94C218.713 266.951 217.324 258.776 212.284 250.216C207.244 241.656 199.639 240.992 188.764 242.062C177.889 243.132 158.3 245.069 134.332 258.059C134.332 258.059 124.252 263.281 121.183 268.631C118.114 273.981 129.325 287.452 148.813 285.751C162.769 284.531 188.484 270.685 188.484 270.685C188.484 270.685 188.764 294.225 193.524 302.785C198.284 311.345 220.124 332.21 228.804 337.56C234.303 340.952 248.023 350.261 258.473 357.43C261.049 348.474 265.674 343.573 268.463 341.305Z" fill="white"/>
</mask>
<g mask="url(#mask8_209_658)">
<path opacity="0.53" d="M268.463 341.305C262.538 335.784 240.329 307.311 231.559 290.94C218.713 266.951 217.324 258.776 212.284 250.216C207.244 241.656 199.639 240.992 188.764 242.062C177.889 243.132 158.3 245.069 134.332 258.059C134.332 258.059 124.252 263.281 121.183 268.631C118.114 273.981 129.325 287.452 148.813 285.751C162.769 284.531 188.484 270.685 188.484 270.685C188.484 270.685 188.764 294.225 193.524 302.785C198.284 311.345 220.124 332.21 228.804 337.56C234.303 340.952 248.023 350.261 258.473 357.43C261.049 348.474 265.674 343.573 268.463 341.305Z" fill="white"/>
<path opacity="0.14" d="M212.161 303.245C203.761 282.915 208.801 242.255 185.281 247.605C168.145 251.5 136.729 265.346 120.948 272.568C122.819 278.71 133.123 287.12 148.769 285.751C162.724 284.531 188.439 270.685 188.439 270.685C188.439 270.685 188.719 294.225 193.479 302.785C198.239 311.345 220.079 332.21 228.759 337.56C234.259 340.952 247.979 350.261 258.428 357.43C259.328 354.298 260.641 351.289 262.337 348.474C241.483 333.74 216.854 314.598 212.161 303.245Z" fill="black"/>
<path d="M188.439 270.685L187.599 256.775" stroke="#263238" stroke-linecap="round" stroke-linejoin="round"/>
</g>
<path d="M268.463 341.305C262.538 335.784 240.329 307.311 231.559 290.94C218.713 266.951 217.324 258.776 212.284 250.216C207.244 241.656 199.639 240.992 188.764 242.062C177.889 243.132 158.3 245.069 134.332 258.059C134.332 258.059 124.252 263.281 121.183 268.631C118.114 273.981 129.325 287.452 148.813 285.751C162.769 284.531 188.484 270.685 188.484 270.685C188.484 270.685 188.764 294.225 193.524 302.785C198.284 311.345 220.124 332.21 228.804 337.56C234.303 340.952 248.023 350.261 258.473 357.43C261.049 348.474 265.674 343.573 268.463 341.305Z" stroke="#263238" stroke-linecap="round" stroke-linejoin="round"/>
<path d="M271.039 366.183C275.519 369.393 283.919 375.278 285.879 375.545C287.839 375.813 308.279 352.005 313.039 343.98C317.799 335.955 321.999 319.102 320.319 315.357C318.639 311.612 315.279 314.822 311.919 317.497C308.559 320.172 277.759 339.7 274.959 341.037C274.219 341.391 273.547 341.679 272.954 341.926C272.147 343.391 271.162 345.66 271.834 347.19C272.954 349.597 277.714 352.808 277.714 352.808L269.235 364.941L271.039 366.183Z" fill="#263238" stroke="#263238" stroke-linecap="round" stroke-linejoin="round"/>
<path d="M313.039 343.98C317.799 335.955 321.999 319.102 320.319 315.357C319.345 313.217 317.81 313.357 316.03 314.405C317.206 319.402 316.03 329.043 310.239 339.432C305.076 348.699 289.127 365.112 281.119 373.052C282.578 374.1 284.189 374.94 285.902 375.545C287.839 375.812 308.279 352.005 313.039 343.98Z" fill="white"/>
<mask id="mask9_209_658" style="mask-type:luminance" maskUnits="userSpaceOnUse" x="281" y="313" width="40" height="63">
<path d="M313.039 343.98C317.799 335.955 321.999 319.102 320.319 315.357C319.345 313.217 317.81 313.357 316.03 314.405C317.206 319.402 316.03 329.043 310.239 339.432C305.076 348.699 289.127 365.112 281.119 373.052C282.578 374.1 284.189 374.94 285.902 375.545C287.839 375.812 308.279 352.005 313.039 343.98Z" fill="white"/>
</mask>
<g mask="url(#mask9_209_658)">
<path d="M286.159 375.47L286.405 375.352L286.473 375.299C286.608 375.225 286.735 375.139 286.853 375.042L286.988 374.935L287.313 374.678L287.492 374.518L287.929 374.132L288.197 373.886L288.567 373.544L288.881 373.244L289.194 372.945L289.989 372.142L290.124 372.014L290.617 371.5L290.818 371.297C291.401 370.687 292.028 370.024 292.677 369.317V369.264L293.372 368.515L288.477 365.508C285.7 368.397 283.113 371.008 281.052 373.052L281.802 373.523L281.914 373.587L282.609 374.004L283.729 374.614L284.042 374.785L284.356 374.946L284.714 375.117L284.949 375.224C285.062 375.277 285.178 375.324 285.297 375.363L285.465 375.427C285.594 375.479 285.729 375.515 285.868 375.534C285.938 375.551 286.011 375.551 286.081 375.534L286.159 375.47Z" fill="#FF9933"/>
<path opacity="0.5" d="M286.159 375.47L286.405 375.352L286.473 375.299C286.608 375.225 286.735 375.139 286.853 375.042L286.988 374.935L287.313 374.678L287.492 374.518L287.929 374.132L288.197 373.886L288.567 373.544L288.881 373.244L289.194 372.945L289.989 372.142L290.124 372.014L290.617 371.5L290.818 371.297C291.401 370.687 292.028 370.024 292.677 369.317V369.264L293.372 368.515L288.477 365.508C285.7 368.397 283.113 371.008 281.052 373.052L281.802 373.523L281.914 373.587L282.609 374.004L283.729 374.614L284.042 374.785L284.356 374.946L284.714 375.117L284.949 375.224C285.062 375.277 285.178 375.324 285.297 375.363L285.465 375.427C285.594 375.479 285.729 375.515 285.868 375.534C285.938 375.551 286.011 375.551 286.081 375.534L286.159 375.47Z" fill="white"/>
</g>
<path d="M313.039 343.98C317.799 335.955 321.999 319.102 320.319 315.357C319.345 313.217 317.81 313.357 316.03 314.405C317.206 319.402 316.03 329.043 310.239 339.432C305.076 348.699 289.127 365.112 281.119 373.052C282.578 374.1 284.189 374.94 285.902 375.545C287.839 375.812 308.279 352.005 313.039 343.98Z" stroke="#263238" stroke-linecap="round" stroke-linejoin="round"/>
<path d="M268.518 381.697C260.118 376.615 250.598 362.437 250.318 357.622C250.306 357.095 250.351 356.568 250.453 356.05C248.78 356.1 247.167 356.65 245.838 357.622C242.391 354.634 238.743 351.864 234.918 349.33C231.838 347.635 228.387 346.65 224.838 346.452C220.773 349.662 216.998 352.23 216.405 354.412C215.285 358.425 222.845 374.475 241.045 385.71C259.245 396.945 265.405 395.072 270.725 394.002C276.045 392.932 276.918 386.78 268.518 381.697Z" fill="#263238" stroke="#263238" stroke-linecap="round" stroke-linejoin="round"/>
<path d="M268.519 381.697C265.736 379.895 263.226 377.735 261.06 375.277C255.281 372.923 247.564 369.927 240.799 365.904C233.519 361.624 235.199 358.949 230.999 354.937C227.773 351.855 221.434 351.459 218.679 351.438C217.684 352.231 216.914 353.25 216.439 354.402C215.319 358.414 222.879 374.464 241.079 385.699C259.279 396.934 265.439 395.062 270.759 393.992C276.079 392.922 276.919 386.78 268.519 381.697Z" fill="white"/>
<mask id="mask10_209_658" style="mask-type:luminance" maskUnits="userSpaceOnUse" x="216" y="351" width="59" height="44">
<path d="M268.519 381.697C265.736 379.895 263.226 377.735 261.06 375.277C255.281 372.923 247.564 369.927 240.799 365.904C233.519 361.624 235.199 358.949 230.999 354.937C227.773 351.855 221.434 351.459 218.679 351.438C217.684 352.231 216.914 353.25 216.439 354.402C215.319 358.414 222.879 374.464 241.079 385.699C259.279 396.934 265.439 395.062 270.759 393.992C276.079 392.922 276.919 386.78 268.519 381.697Z" fill="white"/>
</mask>
<g mask="url(#mask10_209_658)">
<path d="M268.519 381.697C265.736 379.895 263.226 377.735 261.06 375.277C255.281 372.923 247.564 369.927 240.799 365.904C233.519 361.624 235.199 358.949 230.999 354.937C227.773 351.855 221.434 351.459 218.679 351.438C217.684 352.231 216.914 353.25 216.439 354.402C215.319 358.414 222.879 374.464 241.079 385.699C259.279 396.934 265.439 395.062 270.759 393.992C276.079 392.922 276.919 386.78 268.519 381.697Z" fill="#FF9933"/>
<path opacity="0.5" d="M268.519 381.697C265.736 379.895 263.226 377.735 261.06 375.277C255.281 372.923 247.564 369.927 240.799 365.904C233.519 361.624 235.199 358.949 230.999 354.937C227.773 351.855 221.434 351.459 218.679 351.438C217.684 352.231 216.914 353.25 216.439 354.402C215.319 358.414 222.879 374.464 241.079 385.699C259.279 396.934 265.439 395.062 270.759 393.992C276.079 392.922 276.919 386.78 268.519 381.697Z" fill="white"/>
</g>
<path d="M268.519 381.697C265.736 379.895 263.226 377.735 261.06 375.277C255.281 372.923 247.564 369.927 240.799 365.904C233.519 361.624 235.199 358.949 230.999 354.937C227.773 351.855 221.434 351.459 218.679 351.438C217.684 352.231 216.914 353.25 216.439 354.402C215.319 358.414 222.879 374.464 241.079 385.699C259.279 396.934 265.439 395.062 270.759 393.992C276.079 392.922 276.919 386.78 268.519 381.697Z" stroke="#263238" stroke-linecap="round" stroke-linejoin="round"/>
<path d="M269.918 383.57C262.638 379.557 247.798 376.882 238.278 370.73C228.758 364.577 231.278 359.227 224.278 354.947C223.16 354.148 221.82 353.682 220.426 353.606C219.032 353.53 217.645 353.847 216.438 354.519C215.464 358.692 223.046 374.56 241.078 385.71C259.11 396.859 265.438 395.072 270.758 394.002C274.298 393.285 275.832 390.332 274.006 386.94C272.864 385.594 271.48 384.452 269.918 383.57Z" fill="#263238"/>
<mask id="mask11_209_658" style="mask-type:luminance" maskUnits="userSpaceOnUse" x="216" y="353" width="59" height="42">
<path d="M269.918 383.57C262.638 379.557 247.798 376.882 238.278 370.73C228.758 364.577 231.278 359.227 224.278 354.947C223.16 354.148 221.82 353.682 220.426 353.606C219.032 353.53 217.645 353.847 216.438 354.519C215.464 358.692 223.046 374.56 241.078 385.71C259.11 396.859 265.438 395.072 270.758 394.002C274.298 393.285 275.832 390.332 274.006 386.94C272.864 385.594 271.48 384.452 269.918 383.57Z" fill="white"/>
</mask>
<g mask="url(#mask11_209_658)">
<path opacity="0.53" d="M269.918 383.57C262.638 379.557 247.798 376.882 238.278 370.73C228.758 364.577 231.278 359.227 224.278 354.947C223.16 354.148 221.82 353.682 220.426 353.606C219.032 353.53 217.645 353.847 216.438 354.519C215.464 358.692 223.046 374.56 241.078 385.71C259.11 396.859 265.438 395.072 270.758 394.002C274.298 393.285 275.832 390.332 274.006 386.94C272.864 385.594 271.48 384.452 269.918 383.57Z" fill="white"/>
</g>
<path d="M269.918 383.57C262.638 379.557 247.798 376.882 238.278 370.73C228.758 364.577 231.278 359.227 224.278 354.947C223.16 354.148 221.82 353.682 220.426 353.606C219.032 353.53 217.645 353.847 216.438 354.519C215.464 358.692 223.046 374.56 241.078 385.71C259.11 396.859 265.438 395.072 270.758 394.002C274.298 393.285 275.832 390.332 274.006 386.94C272.864 385.594 271.48 384.452 269.918 383.57Z" stroke="#263238" stroke-linecap="round" stroke-linejoin="round"/>
<path d="M130.389 332.402C130.389 332.402 135.765 326.164 136.527 330.937C137.289 335.709 136.146 344.504 132.305 347.8C128.463 351.095 126.548 345.97 126.548 345.97L128.855 343.038C128.855 343.038 130.77 346.708 132.305 340.834C133.839 334.96 129.236 335.698 129.236 335.698L130.389 332.402Z" fill="white" stroke="#263238" stroke-linecap="round" stroke-linejoin="round"/>
<path d="M126.278 355.878C123.098 358.125 112.726 358.125 109.557 355.878C102.837 351.117 103.957 328.112 103.957 328.112H131.8C131.8 328.112 133.01 351.117 126.278 355.878Z" fill="white" stroke="#263238" stroke-linecap="round" stroke-linejoin="round"/>
<path d="M107.004 323.596C107.004 320.707 109.815 320.707 109.815 317.808C109.815 314.908 107.004 314.908 107.004 312.019C107.004 309.13 109.815 309.119 109.815 306.22C109.815 303.32 107.004 303.32 107.004 300.42C107.004 297.521 109.815 297.521 109.815 294.621" stroke="#263238" stroke-linecap="round" stroke-linejoin="round"/>
<path d="M116.624 323.596C116.624 321.456 119.435 321.456 119.435 319.199C119.435 316.941 116.624 317.005 116.624 314.801C116.624 312.597 119.435 312.607 119.435 310.403C119.435 308.199 116.624 308.199 116.624 305.995C116.624 303.791 119.435 303.801 119.435 301.597" stroke="#263238" stroke-linecap="round" stroke-linejoin="round"/>
<path d="M127.208 323.596C127.208 320.707 130.008 320.707 130.008 317.808C130.008 314.908 127.208 314.908 127.208 312.019C127.208 309.13 130.008 309.119 130.008 306.22C130.008 303.32 127.208 303.32 127.208 300.42C127.208 297.521 130.008 297.521 130.008 294.621" stroke="#263238" stroke-linecap="round" stroke-linejoin="round"/>
<path d="M131.823 328.112C131.823 328.786 125.595 329.321 117.901 329.321C110.207 329.321 103.979 328.786 103.979 328.112C103.979 327.438 110.207 326.903 117.901 326.903C125.595 326.903 131.823 327.438 131.823 328.112Z" fill="white" stroke="#263238" stroke-linecap="round" stroke-linejoin="round"/>
<path d="M157.526 162.54C157.526 162.54 158.837 176.054 159.386 180.323C159.934 184.593 161.178 196.855 162.466 200.91C163.754 204.966 170.776 212.017 171.426 210.39C172.075 208.764 175.57 197.732 174.181 191.13C172.792 184.529 172.366 178.89 173.229 177.22C174.091 175.551 177.194 173.679 177.194 173.679C173.58 171.911 170.069 169.957 166.677 167.826C161.726 164.68 158.221 161.117 157.526 162.54Z" fill="white"/>
<mask id="mask12_209_658" style="mask-type:luminance" maskUnits="userSpaceOnUse" x="157" y="162" width="21" height="49">
<path d="M157.526 162.54C157.526 162.54 158.837 176.054 159.386 180.323C159.934 184.593 161.178 196.855 162.466 200.91C163.754 204.966 170.776 212.017 171.426 210.39C172.075 208.764 175.57 197.732 174.181 191.13C172.792 184.529 172.366 178.89 173.229 177.22C174.091 175.551 177.194 173.679 177.194 173.679C173.58 171.911 170.069 169.957 166.677 167.826C161.726 164.68 158.221 161.117 157.526 162.54Z" fill="white"/>
</mask>
<g mask="url(#mask12_209_658)">
<path d="M175.502 174.406L174.382 172.331C172.322 171.261 169.454 169.677 166.733 167.933C161.749 164.723 158.243 161.117 157.549 162.583C157.549 162.583 158.859 176.097 159.408 180.366C159.957 184.636 161.2 196.898 162.488 200.953C162.927 202.139 163.534 203.262 164.291 204.292C162.936 196.224 164.403 181.65 164.403 181.65L175.502 174.406Z" fill="#FF9933"/>
<path opacity="0.5" d="M175.502 174.406L174.382 172.331C172.322 171.261 169.454 169.677 166.733 167.933C161.749 164.723 158.243 161.117 157.549 162.583C157.549 162.583 158.859 176.097 159.408 180.366C159.957 184.636 161.2 196.898 162.488 200.953C162.927 202.139 163.534 203.262 164.291 204.292C162.936 196.224 164.403 181.65 164.403 181.65L175.502 174.406Z" fill="white"/>
</g>
<path d="M157.526 162.54C157.526 162.54 158.837 176.054 159.386 180.323C159.934 184.593 161.178 196.855 162.466 200.91C163.754 204.966 170.776 212.017 171.426 210.39C172.075 208.764 175.57 197.732 174.181 191.13C172.792 184.529 172.366 178.89 173.229 177.22C174.091 175.551 177.194 173.679 177.194 173.679C173.58 171.911 170.069 169.957 166.677 167.826C161.726 164.68 158.221 161.117 157.526 162.54Z" stroke="#263238" stroke-linecap="round" stroke-linejoin="round"/>
<path d="M157.011 164.498C157.011 164.498 165.075 170.918 171.258 173.272C177.44 175.626 186.938 175.476 188.293 172.405C189.648 169.334 185.941 145.013 182.749 138.615C179.557 132.216 176.152 132.109 170.518 131.617C164.885 131.125 153.618 135.512 151.635 140.712C149.653 145.912 151.915 153.274 153.55 157.639C154.415 160.049 155.577 162.351 157.011 164.498Z" fill="white"/>
<mask id="mask13_209_658" style="mask-type:luminance" maskUnits="userSpaceOnUse" x="150" y="131" width="39" height="44">
<path d="M157.011 164.498C157.011 164.498 165.075 170.918 171.258 173.272C177.44 175.626 186.938 175.476 188.293 172.405C189.648 169.334 185.941 145.013 182.749 138.615C179.557 132.216 176.152 132.109 170.518 131.617C164.885 131.125 153.618 135.512 151.635 140.712C149.653 145.912 151.915 153.274 153.55 157.639C154.415 160.049 155.577 162.351 157.011 164.498Z" fill="white"/>
</mask>
<g mask="url(#mask13_209_658)">
<path d="M171.493 164.209C168.637 156.12 167.92 143.387 167.92 139.995C167.92 137.374 175.066 134.495 178.325 133.318C176.186 132.056 173.7 131.895 170.485 131.617C164.885 131.135 153.584 135.512 151.602 140.712C149.62 145.912 151.882 153.274 153.517 157.639C154.382 160.049 155.544 162.351 156.978 164.498C156.978 164.498 165.042 170.918 171.224 173.272C175.509 174.821 180.15 175.246 184.664 174.503C180.24 172.908 173.397 169.613 171.493 164.209Z" fill="#FF9933"/>
<path opacity="0.5" d="M171.493 164.209C168.637 156.12 167.92 143.387 167.92 139.995C167.92 137.374 175.066 134.495 178.325 133.318C176.186 132.056 173.7 131.895 170.485 131.617C164.885 131.135 153.584 135.512 151.602 140.712C149.62 145.912 151.882 153.274 153.517 157.639C154.382 160.049 155.544 162.351 156.978 164.498C156.978 164.498 165.042 170.918 171.224 173.272C175.509 174.821 180.15 175.246 184.664 174.503C180.24 172.908 173.397 169.613 171.493 164.209Z" fill="white"/>
</g>
<path d="M157.011 164.498C157.011 164.498 165.075 170.918 171.258 173.272C177.44 175.626 186.938 175.476 188.293 172.405C189.648 169.334 185.941 145.013 182.749 138.615C179.557 132.216 176.152 132.109 170.518 131.617C164.885 131.125 153.618 135.512 151.635 140.712C149.653 145.912 151.915 153.274 153.55 157.639C154.415 160.049 155.577 162.351 157.011 164.498Z" stroke="#263238" stroke-linecap="round" stroke-linejoin="round"/>
<path d="M183.354 148.63C183.488 151.712 181.461 154.29 178.874 154.387C176.286 154.483 174.024 152.075 173.901 149.037C173.778 145.998 175.794 143.376 178.381 143.269C180.968 143.162 183.23 145.516 183.354 148.63Z" stroke="#263238" stroke-linecap="round" stroke-linejoin="round"/>
<path d="M189.693 147.432C189.828 150.513 188.786 153.049 187.375 153.103C185.964 153.156 184.709 150.706 184.586 147.624C184.463 144.543 185.504 141.996 186.916 141.943C188.327 141.889 189.57 144.35 189.693 147.432Z" stroke="#263238" stroke-linecap="round" stroke-linejoin="round"/>
<path d="M183.69 147.496C183.69 147.496 192.942 149.176 192.046 151.305C191.15 153.434 184.9 155.735 184.9 155.735" fill="white"/>
<path d="M183.69 147.496C183.69 147.496 192.942 149.176 192.046 151.305C191.15 153.434 184.9 155.735 184.9 155.735" stroke="#263238" stroke-linecap="round" stroke-linejoin="round"/>
<path d="M183.119 146.49C183.119 146.49 183.254 145.42 184.676 146.094" stroke="#263238" stroke-linecap="round" stroke-linejoin="round"/>
<path d="M173.61 149.465L156.787 155.788" stroke="#263238" stroke-linecap="round" stroke-linejoin="round"/>
<path d="M173.834 144.264C174.188 143.5 174.78 142.857 175.529 142.425C176.279 141.992 177.149 141.79 178.023 141.846" stroke="#263238" stroke-width="2" stroke-linecap="round" stroke-linejoin="round"/>
<path d="M185.033 141.921L182.446 142.852" stroke="#263238" stroke-width="2" stroke-linecap="round" stroke-linejoin="round"/>
<path d="M177.037 159.865C177.037 159.865 180.397 159.03 182.301 160.935" stroke="#263238" stroke-linecap="round" stroke-linejoin="round"/>
<path d="M179.199 149.186C179.356 150.256 179.199 151.177 178.74 151.23C178.281 151.284 177.877 150.46 177.721 149.379C177.564 148.298 177.777 147.399 178.191 147.346C178.605 147.292 179.053 148.116 179.199 149.186Z" fill="#263238"/>
<path d="M158.355 155.831C158.355 155.831 157.235 157.971 160.394 158.078C163.552 158.185 165.703 156.719 164.168 154.868C162.634 153.017 160.36 151.284 162.701 148.865C165.042 146.447 169.589 144.414 167.035 141.718C164.482 139.021 155.085 141.472 157.437 139.289C159.789 137.106 170.653 134.827 175.536 135.116C180.419 135.405 189.536 131.788 191.541 127.059C193.546 122.329 190.746 113.588 184.183 114.058C177.619 114.529 172.725 120.082 169.813 120.478C166.901 120.874 160.931 117.782 155.925 120.478C150.919 123.175 150.751 130.922 150.325 131.874C149.899 132.826 143.112 134.238 141.914 140.798C141.464 143.442 141.656 146.15 142.476 148.712C143.295 151.274 144.72 153.622 146.64 155.574C149.451 158.495 150.717 159.608 150.717 159.608L158.355 155.831Z" fill="#263238" stroke="#263238" stroke-linecap="round" stroke-linejoin="round"/>
<path d="M144.109 143.975C144.051 144.971 144.3 145.961 144.826 146.822" stroke="white" stroke-width="0.75" stroke-linecap="round" stroke-linejoin="round"/>
<path d="M172.658 127.037C172.658 127.037 170.217 121.933 176.444 121.933C182.671 121.933 183.567 129.423 177.116 132.141C170.665 134.859 156.631 135.544 149.06 138.743C147.574 139.299 146.252 140.191 145.207 141.343" stroke="white" stroke-width="0.75" stroke-linecap="round" stroke-linejoin="round"/>
<path d="M161.38 145.163C159.14 145.934 156.239 147.004 153.294 148.309C147.055 151.08 148.388 153.841 148.388 153.841" stroke="white" stroke-width="0.75" stroke-linecap="round" stroke-linejoin="round"/>
<path d="M165.535 143.847C165.535 143.847 164.986 143.997 164.057 144.286" stroke="white" stroke-width="0.75" stroke-linecap="round" stroke-linejoin="round"/>
<path d="M159.419 158.121C159.419 158.121 155.802 153.135 151.994 155.135C148.186 157.136 151.143 164.252 153.439 166.724C155.735 169.195 160.159 164.584 160.618 163.428" fill="white"/>
<mask id="mask14_209_658" style="mask-type:luminance" maskUnits="userSpaceOnUse" x="150" y="154" width="11" height="14">
<path d="M159.419 158.121C159.419 158.121 155.802 153.135 151.994 155.135C148.186 157.136 151.143 164.252 153.439 166.724C155.735 169.195 160.159 164.584 160.618 163.428" fill="white"/>
</mask>
<g mask="url(#mask14_209_658)">
<path d="M159.419 158.121C159.419 158.121 155.802 153.135 151.994 155.135C148.186 157.136 151.143 164.252 153.439 166.724C155.735 169.195 160.159 164.584 160.618 163.428" fill="#FF9933"/>
<path opacity="0.5" d="M159.419 158.121C159.419 158.121 155.802 153.135 151.994 155.135C148.186 157.136 151.143 164.252 153.439 166.724C155.735 169.195 160.159 164.584 160.618 163.428" fill="white"/>
</g>
<path d="M159.419 158.121C159.419 158.121 155.802 153.135 151.994 155.135C148.186 157.136 151.143 164.252 153.439 166.724C155.735 169.195 160.159 164.584 160.618 163.428" stroke="#263238" stroke-linecap="round" stroke-linejoin="round"/>
<path d="M113.735 153.573H33.4532C30.2861 153.573 27.7188 156.026 27.7188 159.052V215.12C27.7188 218.146 30.2861 220.598 33.4532 220.598H113.735C116.902 220.598 119.469 218.146 119.469 215.12V159.052C119.469 156.026 116.902 153.573 113.735 153.573Z" fill="white" stroke="#263238" stroke-linecap="round" stroke-linejoin="round"/>
<path d="M117.722 201.788L171.482 215.163L117.722 190.018" fill="white"/>
<path d="M117.722 201.788L171.482 215.163L117.722 190.018" stroke="#263238" stroke-linecap="round" stroke-linejoin="round"/>
<path d="M56.7152 160.015H35.1328V214.157H56.7152V160.015Z" fill="#FF9933" stroke="#263238" stroke-linecap="round" stroke-linejoin="round"/>
<path d="M114.709 160.015H112.01V214.157H114.709V160.015Z" fill="#FF9933" stroke="#263238" stroke-linecap="round" stroke-linejoin="round"/>
<path d="M114.709 184.764H112.01V189.386H114.709V184.764Z" fill="#263238" stroke="#263238" stroke-linecap="round" stroke-linejoin="round"/>
<path d="M63.4688 161.299H105.973" stroke="#263238" stroke-linecap="round" stroke-linejoin="round"/>
<path d="M63.4688 167.098H105.973" stroke="#263238" stroke-linecap="round" stroke-linejoin="round"/>
<path d="M63.4688 172.908H105.973" stroke="#263238" stroke-linecap="round" stroke-linejoin="round"/>
<path d="M63.4688 178.708H105.973" stroke="#263238" stroke-linecap="round" stroke-linejoin="round"/>
<path d="M63.4688 192.885H105.973" stroke="#263238" stroke-linecap="round" stroke-linejoin="round"/>
<path d="M63.4688 198.042H105.973" stroke="#263238" stroke-linecap="round" stroke-linejoin="round"/>
<path d="M63.4688 203.2H105.973" stroke="#263238" stroke-linecap="round" stroke-linejoin="round"/>
<path d="M63.4688 213.9H105.973" stroke="#263238" stroke-linecap="round" stroke-linejoin="round"/>
<path d="M35.1328 214.146L56.7264 160.015" stroke="#263238" stroke-linecap="round" stroke-linejoin="round"/>
<path d="M360.414 363.978C370.763 363.978 379.152 360.385 379.152 355.953C379.152 351.521 370.763 347.928 360.414 347.928C350.066 347.928 341.677 351.521 341.677 355.953C341.677 360.385 350.066 363.978 360.414 363.978Z" fill="#FF9933"/>
<path opacity="0.5" d="M360.414 363.978C370.763 363.978 379.152 360.385 379.152 355.953C379.152 351.521 370.763 347.928 360.414 347.928C350.066 347.928 341.677 351.521 341.677 355.953C341.677 360.385 350.066 363.978 360.414 363.978Z" fill="white"/>
<path d="M338.496 237.205C340.501 238.039 345.406 237.932 345.406 237.932C345.406 237.932 344.353 234.861 344.286 234.722C343.166 232.582 339.806 229.019 337.04 229.372C336.585 229.451 336.153 229.618 335.769 229.864C335.386 230.109 335.059 230.428 334.81 230.799C334.561 231.171 334.395 231.587 334.322 232.023C334.249 232.459 334.27 232.904 334.385 233.331C334.8 235.129 336.782 236.488 338.496 237.205Z" fill="#263238"/>
<path d="M402.739 221.251C399.961 220.973 396.657 224.6 395.638 226.783C395.548 226.975 394.518 230.068 394.585 230.068H394.641C394.115 230.635 393.521 231.255 392.972 231.94C391.852 233.214 390.665 234.658 389.456 236.327C388.128 238.104 386.913 239.955 385.816 241.87C384.571 244.01 383.529 246.251 382.702 248.568C382.696 248.596 382.696 248.625 382.702 248.654C382.702 247.873 382.702 245.679 382.702 245.508C382.377 243.154 380.305 238.756 377.55 238.275C377.093 238.215 376.627 238.246 376.183 238.366C375.739 238.485 375.325 238.691 374.968 238.97C374.611 239.249 374.318 239.596 374.107 239.988C373.896 240.38 373.772 240.809 373.742 241.249C373.585 243.122 375.008 245.005 376.396 246.193C377.964 247.53 382.31 248.825 382.657 248.921C381.882 251.299 381.269 253.722 380.82 256.176C380.552 257.61 380.339 259.054 380.126 260.509C380.126 259.824 380.126 259.225 380.126 259.14C379.801 256.775 377.729 252.388 374.985 251.906C374.528 251.845 374.062 251.875 373.618 251.993C373.173 252.111 372.758 252.316 372.4 252.594C372.042 252.872 371.747 253.218 371.535 253.609C371.322 254.001 371.197 254.43 371.166 254.87C371.009 256.754 372.432 258.626 373.82 259.814C375.209 261.001 378.916 262.2 379.902 262.499C379.835 263.056 379.756 263.569 379.678 264.169C379.342 266.844 379.028 269.519 378.625 272.14C378.48 273.06 378.312 273.959 378.144 274.858C378.144 274.259 378.144 273.788 378.144 273.681C377.819 271.316 375.747 266.929 372.992 266.437C372.534 266.377 372.069 266.408 371.625 266.528C371.181 266.648 370.767 266.853 370.41 267.132C370.052 267.412 369.759 267.758 369.548 268.15C369.337 268.542 369.213 268.972 369.184 269.412C369.027 271.295 370.449 273.167 371.838 274.355C373.227 275.543 376.576 276.623 377.74 276.977C377.539 277.897 377.326 278.817 377.091 279.705C376.912 280.304 376.777 280.893 376.564 281.481C376.352 282.07 376.172 282.658 375.971 283.236C375.556 284.306 375.131 285.483 374.694 286.542C374.392 287.291 374.089 287.998 373.798 288.682C373.944 287.762 374.201 285.965 374.201 285.815C374.174 283.717 373.584 281.662 372.488 279.844C372.504 279.613 372.504 279.38 372.488 279.149C372.421 278.712 372.262 278.294 372.019 277.919C371.776 277.544 371.455 277.222 371.075 276.971C370.696 276.72 370.267 276.546 369.814 276.46C369.361 276.375 368.895 276.379 368.444 276.474C365.745 277.158 364.032 281.685 363.897 284.06C363.897 284.21 363.987 285.74 364.065 286.703C363.931 286.146 363.808 285.633 363.662 285.023C363.371 283.878 363.057 282.744 362.721 281.535C362.531 280.946 362.352 280.358 362.161 279.769C361.971 279.181 361.724 278.571 361.512 277.961C360.974 276.57 360.392 275.179 359.708 273.788C360.761 273.553 364.457 272.654 365.947 271.562C367.436 270.471 368.993 268.705 368.971 266.822C368.982 266.381 368.895 265.943 368.718 265.536C368.54 265.129 368.274 264.762 367.938 264.459C367.603 264.157 367.204 263.925 366.768 263.779C366.332 263.633 365.869 263.576 365.409 263.612C362.62 263.901 360.212 268.128 359.708 270.46C359.708 270.61 359.518 272.322 359.44 273.264C359.048 272.429 358.656 271.605 358.23 270.771C356.987 268.384 355.654 266.009 354.332 263.623C353.918 262.895 353.526 262.168 353.134 261.429C353.504 261.355 357.928 260.359 359.585 259.15C361.064 258.08 362.632 256.293 362.62 254.41C362.621 253.971 362.528 253.536 362.346 253.133C362.164 252.73 361.897 252.366 361.562 252.065C361.227 251.765 360.831 251.533 360.399 251.384C359.966 251.235 359.506 251.172 359.048 251.2C356.27 251.489 353.862 255.716 353.358 258.048C353.358 258.219 353.089 260.691 353.056 261.322C352.182 259.707 351.331 258.112 350.547 256.475C349.489 254.294 348.58 252.049 347.825 249.756C347.993 249.756 352.619 248.686 354.321 247.466C355.8 246.396 357.368 244.609 357.356 242.726C357.357 242.287 357.264 241.852 357.082 241.449C356.9 241.045 356.633 240.682 356.298 240.381C355.963 240.08 355.567 239.848 355.135 239.699C354.702 239.55 354.242 239.488 353.784 239.516C351.006 239.805 348.598 244.031 348.094 246.364C348.094 246.556 347.803 249.21 347.792 249.692C347.792 249.552 347.691 249.424 347.646 249.285C346.954 246.962 346.482 244.584 346.235 242.18C346.078 240.864 346.011 239.58 345.966 238.339C346.851 238.243 350.86 237.729 352.529 236.766C354.198 235.803 355.889 234.251 356.091 232.368C356.145 231.93 356.104 231.487 355.971 231.064C355.838 230.642 355.615 230.251 355.317 229.915C355.019 229.578 354.651 229.304 354.237 229.11C353.823 228.915 353.371 228.804 352.91 228.784C350.11 228.784 347.232 232.732 346.459 234.99C346.459 235.118 346.145 236.413 345.955 237.365C345.955 236.798 345.955 236.22 345.955 235.685C345.955 233.674 346.089 231.823 346.224 230.185C346.313 229.255 346.403 228.42 346.504 227.628C347.31 227.104 350.536 224.921 351.532 223.348C352.529 221.775 353.302 219.635 352.574 217.891C352.42 217.473 352.175 217.09 351.856 216.768C351.536 216.446 351.149 216.193 350.72 216.024C350.29 215.855 349.828 215.775 349.364 215.789C348.9 215.803 348.444 215.91 348.027 216.104C345.54 217.324 344.891 222.096 345.294 224.45C345.294 224.654 346.268 227.767 346.313 227.746C346.212 228.495 346.1 229.308 346 230.185C345.832 231.823 345.652 233.674 345.608 235.707C345.529 237.887 345.581 240.07 345.764 242.244C345.966 244.683 346.393 247.1 347.041 249.467C347.035 249.495 347.035 249.524 347.041 249.552C346.604 248.9 345.305 247.091 345.193 246.963C343.558 245.155 339.302 242.597 336.726 243.635C336.31 243.826 335.94 244.096 335.638 244.429C335.336 244.763 335.109 245.151 334.971 245.572C334.834 245.993 334.788 246.436 334.838 246.874C334.887 247.312 335.03 247.736 335.259 248.119C336.211 249.777 338.484 250.59 340.332 250.847C342.404 251.136 346.784 249.927 347.131 249.831C347.854 252.22 348.741 254.561 349.785 256.839C350.39 258.177 351.04 259.503 351.712 260.82C351.308 260.263 350.95 259.75 350.894 259.75C349.259 257.952 344.992 255.384 342.427 256.422C342.009 256.612 341.637 256.883 341.335 257.217C341.032 257.551 340.804 257.941 340.667 258.363C340.529 258.785 340.484 259.229 340.534 259.669C340.585 260.108 340.729 260.533 340.96 260.916C341.912 262.564 344.185 263.388 346.022 263.644C347.859 263.901 351.622 262.938 352.641 262.671C352.899 263.174 353.156 263.676 353.425 264.179C354.691 266.598 355.968 268.994 357.144 271.38C357.558 272.226 357.928 273.071 358.264 273.916C357.916 273.413 357.614 273.007 357.558 272.943C355.923 271.145 351.656 268.577 349.091 269.615C348.673 269.805 348.301 270.076 347.999 270.41C347.696 270.744 347.468 271.134 347.331 271.556C347.193 271.978 347.148 272.422 347.198 272.862C347.249 273.301 347.393 273.726 347.624 274.109C348.576 275.757 350.849 276.57 352.686 276.827C354.523 277.084 357.95 276.217 359.126 275.907C359.484 276.784 359.854 277.661 360.156 278.528C360.358 279.117 360.593 279.673 360.75 280.283C360.907 280.893 361.097 281.471 361.276 282.059C361.556 283.204 361.859 284.381 362.116 285.494C362.296 286.275 362.452 287.013 362.609 287.762C362.206 286.917 361.377 285.29 361.299 285.162C359.966 283.14 356.158 279.983 353.459 280.647C353.011 280.766 352.594 280.975 352.236 281.259C351.879 281.543 351.588 281.897 351.384 282.296C351.18 282.695 351.067 283.131 351.052 283.576C351.037 284.02 351.12 284.462 351.297 284.873C351.969 286.639 354.086 287.773 355.867 288.297C357.838 288.864 362.184 288.297 362.721 288.297C362.979 289.538 363.225 290.747 363.427 291.892C364.166 295.851 364.614 299.179 364.894 301.522C364.894 301.94 364.984 302.303 365.028 302.657H356.617L359.316 353.054C359.417 354.899 360.255 356.637 361.657 357.909C363.06 359.181 364.92 359.891 366.854 359.891C368.787 359.89 370.646 359.181 372.046 357.908C373.447 356.636 374.283 354.898 374.38 353.054L377.091 302.657H369.251C369.307 302.539 369.363 302.432 369.43 302.314C370.55 300.174 371.995 297.093 373.608 293.337C374.112 292.149 374.638 290.865 375.153 289.549C375.68 289.656 379.98 290.491 381.985 290.052C383.811 289.667 386.006 288.682 386.824 286.97C387.023 286.571 387.133 286.137 387.148 285.695C387.164 285.252 387.083 284.812 386.912 284.401C386.74 283.99 386.482 283.618 386.152 283.307C385.823 282.996 385.43 282.753 384.998 282.594C382.344 281.749 378.278 284.627 376.822 286.542C376.732 286.649 375.937 287.987 375.444 288.832C375.646 288.286 375.859 287.762 376.072 287.206C376.497 286.136 376.878 285.002 377.304 283.803C377.483 283.225 377.673 282.637 377.852 282.038C378.032 281.438 378.188 280.807 378.356 280.187C378.715 278.742 379.006 277.265 379.264 275.767C380.272 276.121 383.878 277.319 385.748 277.191C387.619 277.062 389.937 276.409 391.012 274.837C391.27 274.47 391.447 274.057 391.53 273.623C391.613 273.189 391.602 272.743 391.497 272.314C391.392 271.884 391.195 271.479 390.919 271.126C390.643 270.772 390.293 270.476 389.892 270.257C387.406 269.026 382.96 271.327 381.19 272.964C381.078 273.071 379.947 274.419 379.342 275.168C379.499 274.259 379.644 273.36 379.768 272.45C380.115 269.797 380.372 267.1 380.641 264.425L380.91 261.975C381.268 262.104 385.524 263.612 387.63 263.473C389.489 263.345 391.819 262.692 392.894 261.119C393.152 260.753 393.328 260.34 393.412 259.906C393.495 259.472 393.484 259.026 393.379 258.596C393.273 258.166 393.077 257.762 392.801 257.408C392.525 257.054 392.175 256.759 391.774 256.54C389.288 255.309 384.83 257.61 383.072 259.247C382.937 259.375 381.313 261.312 380.932 261.825C381.123 260.017 381.347 258.219 381.638 256.475C382.014 254.095 382.549 251.739 383.24 249.424C383.408 249.488 387.843 251.083 389.96 250.933C391.819 250.815 394.148 250.162 395.224 248.579C395.482 248.213 395.658 247.8 395.741 247.366C395.824 246.931 395.813 246.486 395.708 246.056C395.603 245.626 395.406 245.222 395.13 244.868C394.854 244.514 394.505 244.218 394.104 243.999C391.617 242.779 387.171 245.069 385.401 246.717C385.267 246.845 383.52 248.932 383.24 249.328C383.24 249.199 383.307 249.05 383.352 248.921C384.115 246.617 385.093 244.382 386.275 242.244C386.902 241.057 387.585 239.955 388.268 238.906C389.064 239.28 392.748 240.971 394.652 241.046C396.556 241.121 398.897 240.714 400.152 239.259C400.452 238.923 400.677 238.531 400.811 238.109C400.946 237.686 400.988 237.241 400.934 236.802C400.88 236.363 400.733 235.939 400.5 235.558C400.267 235.176 399.954 234.844 399.58 234.583C397.251 233.107 392.569 234.883 390.62 236.37C390.52 236.456 389.5 237.44 388.828 238.082L389.769 236.659C390.945 234.979 392.121 233.513 393.129 232.218C393.734 231.48 394.305 230.838 394.832 230.228C395.817 230.228 399.771 230.1 401.496 229.329C403.22 228.559 405.113 227.189 405.528 225.317C405.66 224.873 405.692 224.408 405.619 223.952C405.547 223.496 405.372 223.06 405.108 222.674C404.843 222.288 404.495 221.961 404.086 221.716C403.677 221.47 403.217 221.312 402.739 221.251ZM371.972 292.556C370.292 296.247 368.747 299.265 367.638 301.351L367.033 302.496H366.843C366.787 302.089 366.731 301.64 366.652 301.137C366.316 298.783 365.79 295.434 364.961 291.507C364.692 290.245 364.39 288.896 364.065 287.527C365.373 287.022 366.652 286.45 367.896 285.815C369.584 287.202 371.47 288.355 373.496 289.239C372.958 290.362 372.465 291.496 371.972 292.556Z" fill="#263238"/>
<path d="M388.101 238.232C388.101 238.232 388.986 235.118 389.019 234.915C389.366 232.55 388.571 227.799 386.062 226.633C385.639 226.462 385.183 226.376 384.724 226.381C384.264 226.385 383.81 226.479 383.39 226.658C382.97 226.836 382.593 227.095 382.282 227.419C381.971 227.742 381.733 228.123 381.582 228.538C380.91 230.314 381.762 232.486 382.781 233.984C383.946 235.739 388.09 238.232 388.101 238.232Z" fill="#263238"/>
</g>
<defs>
<clipPath id="clip0_209_658">
<rect width="411" height="396" fill="white"/>
</clipPath>
</defs>
</svg>
