<svg xmlns="http://www.w3.org/2000/svg" version="1.1" xmlns:xlink="http://www.w3.org/1999/xlink" xmlns:svgjs="http://svgjs.dev/svgjs" width="1440" height="560" preserveAspectRatio="none" viewBox="0 0 1440 560"><g mask="url(&quot;#SvgjsMask1000&quot;)" fill="none"><rect width="1440" height="560" x="0" y="0" fill="#1e3266"></rect><path d="M1464 560L0 560 L0 355.55Q24.47 308.02, 72 332.49Q129.56 318.05, 144 375.61Q172.48 284.09, 264 312.57Q312.1 240.67, 384 288.78Q472.52 257.3, 504 345.82Q569.94 291.76, 624 357.7Q635 296.69, 696 307.69Q742.93 234.63, 816 281.56Q909.66 255.23, 936 348.89Q1006.25 299.14, 1056 369.39Q1063.68 305.07, 1128 312.75Q1154.28 267.03, 1200 293.32Q1292.63 265.95, 1320 358.59Q1343.11 309.7, 1392 332.81Q1422.9 291.71, 1464 322.61z" fill="#182f5d"></path><path d="M1488 560L0 560 L0 364.33Q35.1 327.43, 72 362.53Q174.17 344.7, 192 446.87Q217.89 352.76, 312 378.65Q342.03 336.68, 384 366.71Q461.92 324.63, 504 402.55Q576.44 354.99, 624 427.43Q628.79 360.22, 696 365.01Q770.13 367.13, 768 441.26Q784.05 385.31, 840 401.35Q864.32 353.67, 912 377.98Q966.81 312.79, 1032 367.6Q1097.39 361, 1104 426.39Q1133.33 383.72, 1176 413.04Q1206.47 323.51, 1296 353.98Q1372.73 310.71, 1416 387.44Q1466.72 366.16, 1488 416.88z" fill="#25467d"></path><path d="M1560 560L0 560 L0 428.51Q93.98 402.49, 120 496.47Q165.79 470.26, 192 516.05Q217.16 421.2, 312 446.36Q362.44 376.8, 432 427.23Q516.76 392, 552 476.76Q617.35 422.11, 672 487.45Q689.54 432.99, 744 450.53Q772.76 407.29, 816 436.06Q907.02 407.09, 936 498.11Q1004.75 446.86, 1056 515.6Q1094.16 433.76, 1176 471.93Q1246.04 421.97, 1296 492Q1307.18 431.18, 1368 442.36Q1398.17 400.53, 1440 430.71Q1532.48 403.19, 1560 495.67z" fill="#356cb1"></path><path d="M1488 560L0 560 L0 490.11Q74.56 444.68, 120 519.24Q179.99 507.23, 192 567.21Q217.3 472.51, 312 497.81Q385.32 451.13, 432 524.45Q501.29 473.74, 552 543.03Q596.72 515.75, 624 560.47Q665.12 481.59, 744 522.7Q789.91 496.61, 816 542.52Q859.18 465.7, 936 508.88Q1032.1 484.98, 1056 581.07Q1086.57 539.63, 1128 570.2Q1173.14 495.34, 1248 540.48Q1294.11 466.59, 1368 512.7Q1463.22 487.92, 1488 583.15z" fill="white"></path></g><defs><mask id="SvgjsMask1000"><rect width="1440" height="560" fill="#ffffff"></rect></mask></defs></svg>