<svg width="406" height="439" viewBox="0 0 406 439" fill="none" xmlns="http://www.w3.org/2000/svg">
<g clip-path="url(#clip0_209_302)">
<path d="M368.33 234.88C368.28 158.39 379.78 138.14 338.33 73.52C296.88 8.89995 195.27 -5.41005 118.43 42.52C41.59 90.45 20.93 152.09 20.93 152.09C20.93 152.09 -6.95001 224.09 32.23 296.59C68.06 362.91 138.62 400.59 199.82 431.59H356.31C365.822 423.573 373.91 414.005 380.23 403.29C412.1 349.66 368.39 311.37 368.33 234.88Z" fill="#FF9933"/>
<path opacity="0.7" d="M368.33 234.88C368.28 158.39 379.78 138.14 338.33 73.52C296.88 8.89995 195.27 -5.41005 118.43 42.52C41.59 90.45 20.93 152.09 20.93 152.09C20.93 152.09 -6.95001 224.09 32.23 296.59C68.06 362.91 138.62 400.59 199.82 431.59H356.31C365.822 423.573 373.91 414.005 380.23 403.29C412.1 349.66 368.39 311.37 368.33 234.88Z" fill="white"/>
<path d="M182.79 25.7201C184.14 31.0701 183.48 21.2201 186.13 9.16006C188.78 -2.89994 193.31 2.00006 193.31 2.00006" stroke="#263238" stroke-linecap="round" stroke-linejoin="round"/>
<path d="M181.96 13.4L190.27 10" stroke="#263238" stroke-linecap="round" stroke-linejoin="round"/>
<path d="M197.14 5.92004C197.14 5.92004 192.14 16.18 199.65 20.55" stroke="#263238" stroke-linecap="round" stroke-linejoin="round"/>
<path d="M204.18 3C204.18 3 212.37 7.55 207.24 17.41" stroke="#263238" stroke-linecap="round" stroke-linejoin="round"/>
<path d="M198.56 9.39001L204.43 13.68" stroke="#263238" stroke-linecap="round" stroke-linejoin="round"/>
<path d="M203.17 7.51001L198.57 14.82" stroke="#263238" stroke-linecap="round" stroke-linejoin="round"/>
<path d="M24.3101 267.42C24.3101 267.42 10.3801 267.22 10.3101 279.24" stroke="#263238" stroke-linecap="round" stroke-linejoin="round"/>
<path d="M23.1502 275C22.8602 273.23 16.8002 271 15.7502 275.62C14.7002 280.24 22.2302 277.47 24.5602 275.31C24.5602 275.31 20.2402 279.51 21.5602 280.69" stroke="#263238" stroke-linecap="round" stroke-linejoin="round"/>
<path d="M23.9999 282C23.9999 282 22.1699 284.29 20.1899 283.2" stroke="#263238" stroke-linecap="round" stroke-linejoin="round"/>
<path d="M36.1898 274L25.7397 284.61C25.7397 284.61 30.9998 279.28 34.0498 281C37.8498 283.08 32.9197 288.78 28.8597 284.7" stroke="#263238" stroke-linecap="round" stroke-linejoin="round"/>
<path d="M41.4699 276.86C41.4699 276.86 44.2399 289.55 29.9399 290" stroke="#263238" stroke-linecap="round" stroke-linejoin="round"/>
<path d="M228.03 61.13L233.07 61.96L233.14 73.41L244.18 53.28L261.6 56.14" stroke="#263238" stroke-linecap="round" stroke-linejoin="round"/>
<path d="M246.09 62.1001L253.75 75.6201" stroke="#263238" stroke-linecap="round" stroke-linejoin="round"/>
<path d="M255.72 63.6801L242.01 73.6901" stroke="#263238" stroke-linecap="round" stroke-linejoin="round"/>
<path d="M159.16 81.51C157.87 79.87 150.44 81.04 151.95 86.3C153.46 91.56 159.6 84.55 160.77 81.04C160.77 81.04 158.72 87.75 160.77 88.2" stroke="#263238" stroke-linecap="round" stroke-linejoin="round"/>
<path d="M164.85 76.1001L163.19 82.0001C163.19 82.0001 164.02 79.0001 165.48 79.0001C167.27 79.0001 166.62 82.0001 164.33 81.3801" stroke="#263238" stroke-linecap="round" stroke-linejoin="round"/>
<path d="M304.93 148.82L301.43 161.47L309.08 169.85" stroke="#263238" stroke-linecap="round" stroke-linejoin="round"/>
<path d="M309.31 153.96L318.07 161.29" stroke="#263238" stroke-linecap="round" stroke-linejoin="round"/>
<path d="M315.34 152.16L311.55 161.47" stroke="#263238" stroke-linecap="round" stroke-linejoin="round"/>
<path d="M321.5 160.27C321.5 160.27 321.58 162.91 320.44 163.27" stroke="#263238" stroke-linecap="round" stroke-linejoin="round"/>
<path d="M322.61 151.05L327.9 154.98" stroke="#263238" stroke-linecap="round" stroke-linejoin="round"/>
<path d="M329.86 147.82L324.64 166.62" stroke="#263238" stroke-linecap="round" stroke-linejoin="round"/>
<path d="M330.12 141.29L338.6 150.89L334.99 161.39" stroke="#263238" stroke-linecap="round" stroke-linejoin="round"/>
<path d="M96.5801 389.01L108.85 352.49L123.73 369.1L96.5801 389.01Z" stroke="#263238" stroke-linecap="round" stroke-linejoin="round"/>
<path d="M120.08 371.77L116.94 368.18L120.29 365.28" stroke="#263238" stroke-linecap="round" stroke-linejoin="round"/>
<path d="M24.0542 183.827C30.4272 181.187 33.4535 173.881 30.8138 167.508C28.174 161.135 20.8678 158.109 14.4948 160.749C8.12186 163.388 5.09551 170.695 7.73528 177.068C10.375 183.441 17.6813 186.467 24.0542 183.827Z" stroke="#263238" stroke-linecap="round" stroke-linejoin="round"/>
<path d="M33.13 175.21C40.7847 175.21 46.99 169.005 46.99 161.35C46.99 153.695 40.7847 147.49 33.13 147.49C25.4754 147.49 19.27 153.695 19.27 161.35C19.27 169.005 25.4754 175.21 33.13 175.21Z" stroke="#263238" stroke-linecap="round" stroke-linejoin="round"/>
<path d="M21.73 160.04L20.04 165.91" stroke="#263238" stroke-linecap="round" stroke-linejoin="round"/>
<path d="M24.12 160.77L21.73 169.23" stroke="#263238" stroke-linecap="round" stroke-linejoin="round"/>
<path d="M26.6301 162.19L24.1201 171.76" stroke="#263238" stroke-linecap="round" stroke-linejoin="round"/>
<path d="M29.4199 165L27.6299 174.08" stroke="#263238" stroke-linecap="round" stroke-linejoin="round"/>
<path d="M30.9899 167.96L29.4199 174.71" stroke="#263238" stroke-linecap="round" stroke-linejoin="round"/>
<path d="M7.32989 156.28C6.23989 155.95 3.24988 158.79 5.56988 160.7C7.88988 162.61 8.47988 157.52 7.90988 155.57C7.90988 155.57 9.07988 159.24 10.1399 158.8" stroke="#263238" stroke-linecap="round" stroke-linejoin="round"/>
<path d="M23.4502 140.25L27.4502 147.53C27.4502 147.53 25.4502 143.89 26.8602 142.53C28.5802 140.85 30.8602 144.4 27.9802 145.89" stroke="#263238" stroke-linecap="round" stroke-linejoin="round"/>
<path d="M96.54 139.38L102.19 144.73" stroke="#263238" stroke-linecap="round" stroke-linejoin="round"/>
<path d="M102.19 137.99L97.46 145.05" stroke="#263238" stroke-linecap="round" stroke-linejoin="round"/>
<path d="M107.75 140.02L113.4 137.91" stroke="#263238" stroke-linecap="round" stroke-linejoin="round"/>
<path d="M116.11 132.02L119.55 135.06" stroke="#263238" stroke-linecap="round" stroke-linejoin="round"/>
<path d="M122.18 128.36L117.83 143.3" stroke="#263238" stroke-linecap="round" stroke-linejoin="round"/>
<path d="M369.14 125.36L368.9 113.94H377.53C377.53 113.94 372.75 116.58 374.95 122.72C377.15 128.86 380.69 125.36 380.69 125.36" stroke="#263238" stroke-linecap="round" stroke-linejoin="round"/>
<path d="M354.52 320.17L364.34 313.41L377.34 314.32L378.15 330.8L368.61 337.63L356.83 336.77L354.52 320.17Z" stroke="#263238" stroke-linecap="round" stroke-linejoin="round"/>
<path d="M356.83 336.77L366.33 329.93L378.15 330.8" stroke="#263238" stroke-linecap="round" stroke-linejoin="round"/>
<path d="M366.34 329.93L364.34 313.41" stroke="#263238" stroke-linecap="round" stroke-linejoin="round"/>
<path d="M354.52 320.17L367.49 321.67L377.34 314.32" stroke="#263238" stroke-linecap="round" stroke-linejoin="round"/>
<path d="M367.49 321.67L368.61 337.63" stroke="#263238" stroke-linecap="round" stroke-linejoin="round"/>
<path d="M356.31 196.39L355.89 218.36L375.14 209.62L356.31 196.39Z" stroke="#263238" stroke-linecap="round" stroke-linejoin="round"/>
<path d="M356.31 196.39L365.48 213.88" stroke="#263238" stroke-linecap="round" stroke-linejoin="round"/>
<path d="M364.01 211.07L366.24 209.99L367.74 212.98" stroke="#263238" stroke-linecap="round" stroke-linejoin="round"/>
<path d="M188.47 194.31L196.43 202.84" stroke="#263238" stroke-linecap="round" stroke-linejoin="round"/>
<path d="M196.49 193.16L189.8 202.32" stroke="#263238" stroke-linecap="round" stroke-linejoin="round"/>
<path d="M199.75 188.69C200.132 188.513 200.569 188.494 200.964 188.639C201.36 188.783 201.682 189.078 201.86 189.46C201.923 189.597 201.967 189.741 201.99 189.89C202.38 191.81 199.23 194.31 199.23 194.31H203.72" stroke="#263238" stroke-linecap="round" stroke-linejoin="round"/>
<path d="M64.54 66.5001C64.9211 61.6548 66.5172 56.9836 69.1809 52.9182C71.8446 48.8528 75.4899 45.5242 79.78 43.2401" stroke="#263238" stroke-linecap="round" stroke-linejoin="round"/>
<path d="M86.65 97C79.3567 95.2508 73.0282 90.7366 69 84.41" stroke="#263238" stroke-linecap="round" stroke-linejoin="round"/>
<path d="M122.3 71.1101C121.683 78.7685 118.051 85.869 112.204 90.8525C106.356 95.836 98.7693 98.2952 91.1099 97.6901" stroke="#263238" stroke-linecap="round" stroke-linejoin="round"/>
<path d="M95.7197 39.9301C102.304 40.4579 108.511 43.2177 113.313 47.7528C118.116 52.288 121.226 58.3268 122.13 64.8701" stroke="#263238" stroke-linecap="round" stroke-linejoin="round"/>
<path d="M105.92 91.11C101.878 93.378 97.295 94.5045 92.6619 94.3692C88.0289 94.2339 83.5198 92.8418 79.6167 90.3418C75.7137 87.8418 72.5637 84.328 70.5034 80.1761C68.4431 76.0241 67.5501 71.3903 67.9199 66.77" stroke="#263238" stroke-linecap="round" stroke-linejoin="round"/>
<path d="M69.5601 59.61C70.9056 56.1119 73.0037 52.9524 75.7058 50.3551C78.408 47.7579 81.648 45.7864 85.1966 44.5802C88.7452 43.3741 92.5155 42.9628 96.2407 43.3754C99.9658 43.7881 103.555 45.0146 106.753 46.9682C109.952 48.9217 112.682 51.5545 114.75 54.6802C116.818 57.8059 118.174 61.348 118.721 65.0558C119.269 68.7636 118.994 72.5464 117.917 76.1363C116.841 79.7262 114.988 83.0356 112.49 85.83" stroke="#263238" stroke-linecap="round" stroke-linejoin="round"/>
<path d="M90.9102 50.41L93.4202 68.81L107.56 64.41" stroke="#263238" stroke-linecap="round" stroke-linejoin="round"/>
<path d="M313.9 104.57C309.835 104.609 305.854 103.413 302.485 101.139C299.115 98.8647 296.516 95.6207 295.032 91.8364C293.547 88.0521 293.248 83.906 294.172 79.9476C295.097 75.9891 297.203 72.405 300.21 69.67" stroke="#263238" stroke-linecap="round" stroke-linejoin="round"/>
<path d="M332.69 91C331.716 93.8739 330.1 96.4884 327.965 98.6454C325.831 100.802 323.234 102.445 320.37 103.45" stroke="#263238" stroke-linecap="round" stroke-linejoin="round"/>
<path d="M307.05 65.5901C312.068 63.8243 317.582 64.1239 322.379 66.423C327.176 68.7221 330.863 72.8325 332.63 77.8501" stroke="#263238" stroke-linecap="round" stroke-linejoin="round"/>
<path d="M323.61 69.8401C325.683 71.2409 327.435 73.0653 328.751 75.1928C330.067 77.3203 330.918 79.7027 331.246 82.1828C331.574 84.663 331.373 87.1845 330.655 89.5812C329.938 91.9779 328.721 94.1952 327.084 96.0871C325.447 97.9789 323.427 99.5022 321.158 100.557C318.89 101.611 316.423 102.172 313.922 102.204C311.42 102.235 308.94 101.736 306.646 100.739C304.351 99.7422 302.294 98.2701 300.61 96.4201" stroke="#263238" stroke-linecap="round" stroke-linejoin="round"/>
<path d="M297 90.38C295.936 87.3516 295.715 84.0908 296.361 80.9466C297.008 77.8024 298.497 74.8932 300.67 72.5303C302.843 70.1675 305.617 68.44 308.696 67.5328C311.775 66.6256 315.043 66.5728 318.15 67.38" stroke="#263238" stroke-linecap="round" stroke-linejoin="round"/>
<path d="M306.95 73.5801L313.71 84.5101L307.55 92.5001" stroke="#263238" stroke-linecap="round" stroke-linejoin="round"/>
<path d="M172 383.43C171.99 380.807 172.623 378.222 173.844 375.9C175.064 373.578 176.834 371.59 179 370.11" stroke="#263238" stroke-linecap="round" stroke-linejoin="round"/>
<path d="M199.71 394.51C197.802 396.516 195.41 397.996 192.763 398.806C190.117 399.617 187.306 399.731 184.602 399.138C181.898 398.545 179.394 397.264 177.33 395.42C175.266 393.576 173.712 391.23 172.82 388.61" stroke="#263238" stroke-linecap="round" stroke-linejoin="round"/>
<path d="M188.05 367.34C192.317 367.34 196.41 369.035 199.427 372.053C202.445 375.07 204.14 379.163 204.14 383.43" stroke="#263238" stroke-linecap="round" stroke-linejoin="round"/>
<path d="M188.05 397.62C184.286 397.62 180.677 396.125 178.016 393.464C175.355 390.803 173.86 387.193 173.86 383.43" stroke="#263238" stroke-linecap="round" stroke-linejoin="round"/>
<path d="M177 374.52C178.315 372.895 179.974 371.581 181.856 370.67C183.738 369.76 185.798 369.277 187.889 369.255C189.979 369.233 192.049 369.673 193.95 370.544C195.851 371.415 197.536 372.694 198.885 374.291C200.234 375.889 201.214 377.764 201.755 379.784C202.295 381.803 202.383 383.918 202.012 385.975C201.641 388.033 200.82 389.983 199.608 391.686C198.395 393.39 196.822 394.805 195 395.83" stroke="#263238" stroke-linecap="round" stroke-linejoin="round"/>
<path d="M185.85 393.07L188.05 383.43L184.98 375.55" stroke="#263238" stroke-linecap="round" stroke-linejoin="round"/>
<path d="M0.709961 431.95H405.29" stroke="#263238" stroke-linecap="round" stroke-linejoin="round"/>
<path d="M205.99 221.08L199.4 346.55L115.91 342.17L116.61 328.87L122.5 216.69L175.07 219.45L205.99 221.08Z" fill="white"/>
<mask id="mask0_209_302" style="mask-type:luminance" maskUnits="userSpaceOnUse" x="115" y="216" width="91" height="131">
<path d="M205.99 221.08L199.4 346.55L115.91 342.17L116.61 328.87L122.5 216.69L175.07 219.45L205.99 221.08Z" fill="white"/>
</mask>
<g mask="url(#mask0_209_302)">
<path opacity="0.2" d="M179.93 294.59L161.12 296.14L166.61 319.83L116.61 328.87L122.5 216.69L175.07 219.45L179.93 294.59Z" fill="black" fill-opacity="0.7"/>
</g>
<path d="M205.99 221.08L199.4 346.55L115.91 342.17L116.61 328.87L122.5 216.69L175.07 219.45L205.99 221.08Z" stroke="#263238" stroke-linecap="round" stroke-linejoin="round"/>
<path d="M128.39 225.27L150.12 226.41" stroke="#263238" stroke-width="2" stroke-linecap="round" stroke-linejoin="round"/>
<path d="M128.17 229.44L142.95 230.22" stroke="#263238" stroke-width="2" stroke-linecap="round" stroke-linejoin="round"/>
<path d="M132.95 239.57L195.45 242.85" stroke="#263238" stroke-width="2" stroke-linecap="round" stroke-linejoin="round"/>
<path d="M132.73 243.74L195.23 247.02" stroke="#263238" stroke-width="2" stroke-linecap="round" stroke-linejoin="round"/>
<path d="M132.48 248.61L185.78 251.4" stroke="#263238" stroke-width="2" stroke-linecap="round" stroke-linejoin="round"/>
<path d="M132.502 253.052L132.234 258.135L137.317 258.403L137.585 253.32L132.502 253.052Z" stroke="#263238" stroke-linecap="round" stroke-linejoin="round"/>
<path d="M141.715 253.54L141.448 258.623L146.531 258.89L146.798 253.807L141.715 253.54Z" stroke="#263238" stroke-linecap="round" stroke-linejoin="round"/>
<path d="M150.918 254.029L150.65 259.112L155.733 259.379L156.001 254.296L150.918 254.029Z" stroke="#263238" stroke-linecap="round" stroke-linejoin="round"/>
<path d="M160.131 254.517L159.863 259.599L164.946 259.867L165.214 254.784L160.131 254.517Z" stroke="#263238" stroke-linecap="round" stroke-linejoin="round"/>
<path d="M129.62 239.39C129.613 239.555 129.574 239.718 129.505 239.868C129.436 240.019 129.337 240.154 129.216 240.266C129.094 240.379 128.951 240.466 128.796 240.523C128.64 240.581 128.475 240.607 128.31 240.6C127.973 240.583 127.657 240.432 127.431 240.182C127.205 239.932 127.087 239.602 127.105 239.265C127.122 238.928 127.272 238.612 127.523 238.386C127.773 238.16 128.103 238.043 128.44 238.06C128.605 238.068 128.768 238.108 128.918 238.178C129.067 238.249 129.202 238.348 129.314 238.471C129.425 238.594 129.511 238.737 129.567 238.893C129.623 239.049 129.648 239.214 129.64 239.38L129.62 239.39Z" fill="#263238"/>
<path d="M131.67 263.9L194.17 267.18" stroke="#263238" stroke-width="2" stroke-linecap="round" stroke-linejoin="round"/>
<path d="M131.45 268.07L193.95 271.35" stroke="#263238" stroke-width="2" stroke-linecap="round" stroke-linejoin="round"/>
<path d="M131.2 272.94L184.5 275.73" stroke="#263238" stroke-width="2" stroke-linecap="round" stroke-linejoin="round"/>
<path d="M131.211 277.398L130.943 282.481L136.026 282.748L136.294 277.665L131.211 277.398Z" stroke="#263238" stroke-linecap="round" stroke-linejoin="round"/>
<path d="M140.434 277.876L140.167 282.959L145.249 283.226L145.517 278.143L140.434 277.876Z" stroke="#263238" stroke-linecap="round" stroke-linejoin="round"/>
<path d="M149.636 278.354L149.369 283.437L154.452 283.705L154.719 278.622L149.636 278.354Z" stroke="#263238" stroke-linecap="round" stroke-linejoin="round"/>
<path d="M158.84 278.842L158.572 283.925L163.655 284.193L163.923 279.11L158.84 278.842Z" stroke="#263238" stroke-linecap="round" stroke-linejoin="round"/>
<path d="M128.35 263.72C128.342 263.887 128.302 264.051 128.231 264.202C128.16 264.353 128.059 264.488 127.936 264.601C127.812 264.713 127.668 264.8 127.511 264.857C127.354 264.913 127.187 264.938 127.02 264.93C126.767 264.918 126.524 264.831 126.32 264.681C126.117 264.53 125.962 264.323 125.877 264.085C125.791 263.847 125.778 263.588 125.839 263.343C125.9 263.097 126.032 262.875 126.22 262.705C126.407 262.535 126.64 262.424 126.89 262.386C127.14 262.348 127.396 262.385 127.625 262.493C127.854 262.6 128.046 262.773 128.177 262.99C128.308 263.207 128.372 263.457 128.36 263.71L128.35 263.72Z" fill="#263238"/>
<path d="M130.4 288.23L192.89 291.51" stroke="#263238" stroke-width="2" stroke-linecap="round" stroke-linejoin="round"/>
<path d="M130.18 292.4L192.67 295.68" stroke="#263238" stroke-width="2" stroke-linecap="round" stroke-linejoin="round"/>
<path d="M129.92 297.26L183.22 300.06" stroke="#263238" stroke-width="2" stroke-linecap="round" stroke-linejoin="round"/>
<path d="M129.941 301.713L129.673 306.796L134.756 307.064L135.024 301.981L129.941 301.713Z" stroke="#263238" stroke-linecap="round" stroke-linejoin="round"/>
<path d="M140.232 302.171L139.978 307.264L145.071 307.519L145.326 302.425L140.232 302.171Z" stroke="#263238" stroke-width="1.00125" stroke-linecap="round" stroke-linejoin="round"/>
<path d="M148.356 302.69L148.088 307.773L153.171 308.04L153.439 302.957L148.356 302.69Z" stroke="#263238" stroke-linecap="round" stroke-linejoin="round"/>
<path d="M157.579 303.168L157.312 308.251L162.395 308.518L162.662 303.435L157.579 303.168Z" stroke="#263238" stroke-linecap="round" stroke-linejoin="round"/>
<path d="M127.07 288.05C127.062 288.217 127.022 288.38 126.951 288.532C126.88 288.683 126.779 288.818 126.656 288.931C126.532 289.043 126.388 289.13 126.231 289.187C126.074 289.243 125.907 289.268 125.74 289.26C125.4 289.26 125.075 289.125 124.835 288.885C124.595 288.645 124.46 288.319 124.46 287.98C124.46 287.64 124.595 287.315 124.835 287.075C125.075 286.835 125.4 286.7 125.74 286.7H125.92C126.087 286.708 126.25 286.748 126.402 286.819C126.553 286.89 126.688 286.99 126.801 287.114C126.913 287.237 127 287.382 127.057 287.539C127.113 287.696 127.138 287.863 127.13 288.03L127.07 288.05Z" fill="#263238"/>
<path d="M129.08 313.25L191.57 316.54" stroke="#263238" stroke-width="2" stroke-linecap="round" stroke-linejoin="round"/>
<path d="M128.86 317.42L191.36 320.71" stroke="#263238" stroke-width="2" stroke-linecap="round" stroke-linejoin="round"/>
<path d="M128.61 322.29L181.91 325.09" stroke="#263238" stroke-width="2" stroke-linecap="round" stroke-linejoin="round"/>
<path d="M128.615 326.746L128.348 331.829L133.431 332.096L133.698 327.013L128.615 326.746Z" stroke="#263238" stroke-linecap="round" stroke-linejoin="round"/>
<path d="M137.84 327.224L137.573 332.307L142.656 332.574L142.923 327.491L137.84 327.224Z" stroke="#263238" stroke-linecap="round" stroke-linejoin="round"/>
<path d="M147.063 327.702L146.796 332.785L151.879 333.052L152.146 327.969L147.063 327.702Z" stroke="#263238" stroke-linecap="round" stroke-linejoin="round"/>
<path d="M156.266 328.201L155.999 333.284L161.082 333.551L161.349 328.468L156.266 328.201Z" stroke="#263238" stroke-linecap="round" stroke-linejoin="round"/>
<path d="M125.75 313.08C125.736 313.331 125.648 313.571 125.497 313.772C125.346 313.972 125.139 314.124 124.902 314.207C124.665 314.29 124.409 314.301 124.165 314.238C123.922 314.176 123.703 314.042 123.536 313.855C123.368 313.668 123.26 313.436 123.225 313.187C123.189 312.939 123.228 312.686 123.337 312.459C123.445 312.233 123.618 312.044 123.834 311.916C124.05 311.788 124.299 311.727 124.55 311.74C124.717 311.749 124.88 311.791 125.031 311.863C125.182 311.935 125.317 312.036 125.428 312.161C125.539 312.285 125.625 312.431 125.681 312.588C125.736 312.746 125.759 312.913 125.75 313.08Z" fill="#263238"/>
<path d="M134.23 255.17L134.89 256.31L137.6 253.32" stroke="#263238" stroke-width="2" stroke-linecap="round" stroke-linejoin="round"/>
<path d="M151.39 280.16L152.05 281.3L154.76 278.31" stroke="#263238" stroke-width="2" stroke-linecap="round" stroke-linejoin="round"/>
<path d="M160 305.84L160.66 306.98L163.37 303.98" stroke="#263238" stroke-width="2" stroke-linecap="round" stroke-linejoin="round"/>
<path d="M139.6 328.76L140.26 329.89L142.97 326.9" stroke="#263238" stroke-width="2" stroke-linecap="round" stroke-linejoin="round"/>
<path d="M150.51 311.04L69.9598 333.43L36.3198 212.36L69.6698 203.09L116.87 189.98L147.39 299.82L150.51 311.04Z" fill="white"/>
<mask id="mask1_209_302" style="mask-type:luminance" maskUnits="userSpaceOnUse" x="36" y="189" width="115" height="145">
<path d="M150.51 311.04L69.9598 333.43L36.3198 212.36L69.6698 203.09L116.87 189.98L147.39 299.82L150.51 311.04Z" fill="white"/>
</mask>
<g mask="url(#mask1_209_302)">
<path opacity="0.2" d="M147.39 299.82L85.1099 303.85L69.6699 203.09L116.87 189.98L147.39 299.82Z" fill="black" fill-opacity="0.7"/>
</g>
<path d="M150.51 311.04L69.9598 333.43L36.3198 212.36L69.6698 203.09L116.87 189.98L147.39 299.82L150.51 311.04Z" stroke="#263238" stroke-linecap="round" stroke-linejoin="round"/>
<path d="M44.6396 218.62L65.5996 212.8" stroke="#263238" stroke-width="2" stroke-linecap="round" stroke-linejoin="round"/>
<path d="M45.75 222.65L60.01 218.69" stroke="#263238" stroke-width="2" stroke-linecap="round" stroke-linejoin="round"/>
<path d="M53.5 230.73L113.8 213.98" stroke="#263238" stroke-width="2" stroke-linecap="round" stroke-linejoin="round"/>
<path d="M54.6196 234.75L114.92 218" stroke="#263238" stroke-width="2" stroke-linecap="round" stroke-linejoin="round"/>
<path d="M55.9199 239.45L107.35 225.16" stroke="#263238" stroke-width="2" stroke-linecap="round" stroke-linejoin="round"/>
<path d="M62.2748 242.295L57.3706 243.657L58.7334 248.562L63.6376 247.199L62.2748 242.295Z" stroke="#263238" stroke-linecap="round" stroke-linejoin="round"/>
<path d="M71.1664 239.815L66.2622 241.178L67.625 246.082L72.5292 244.719L71.1664 239.815Z" stroke="#263238" stroke-linecap="round" stroke-linejoin="round"/>
<path d="M80.0599 237.342L75.1558 238.705L76.5186 243.609L81.4227 242.246L80.0599 237.342Z" stroke="#263238" stroke-linecap="round" stroke-linejoin="round"/>
<path d="M88.9374 234.877L84.0332 236.24L85.396 241.144L90.3002 239.781L88.9374 234.877Z" stroke="#263238" stroke-linecap="round" stroke-linejoin="round"/>
<path d="M50.2898 231.62C50.3799 231.945 50.3374 232.292 50.1714 232.586C50.0054 232.879 49.7297 233.095 49.4048 233.185C49.0799 233.275 48.7325 233.232 48.439 233.067C48.1455 232.901 47.9299 232.625 47.8398 232.3C47.7496 231.975 47.7922 231.628 47.9582 231.334C48.1241 231.041 48.3999 230.825 48.7248 230.735C49.0497 230.645 49.3971 230.687 49.6906 230.853C49.9841 231.019 50.1996 231.295 50.2898 231.62Z" fill="#263238"/>
<path d="M60.02 254.2L120.32 237.45" stroke="#263238" stroke-width="2" stroke-linecap="round" stroke-linejoin="round"/>
<path d="M61.1396 258.23L121.44 241.47" stroke="#263238" stroke-width="2" stroke-linecap="round" stroke-linejoin="round"/>
<path d="M62.4497 262.92L113.87 248.63" stroke="#263238" stroke-width="2" stroke-linecap="round" stroke-linejoin="round"/>
<path d="M68.8007 265.759L63.8965 267.122L65.2593 272.026L70.1635 270.664L68.8007 265.759Z" stroke="#263238" stroke-linecap="round" stroke-linejoin="round"/>
<path d="M77.6849 263.292L72.7808 264.655L74.1436 269.559L79.0477 268.196L77.6849 263.292Z" stroke="#263238" stroke-linecap="round" stroke-linejoin="round"/>
<path d="M86.579 260.822L81.6748 262.185L83.0376 267.089L87.9418 265.726L86.579 260.822Z" stroke="#263238" stroke-linecap="round" stroke-linejoin="round"/>
<path d="M95.4798 258.34L90.5757 259.702L91.9385 264.607L96.8427 263.244L95.4798 258.34Z" stroke="#263238" stroke-linecap="round" stroke-linejoin="round"/>
<path d="M56.8201 255.1C56.8877 255.344 56.8816 255.602 56.8025 255.842C56.7234 256.083 56.5749 256.294 56.3757 256.45C56.1765 256.606 55.9356 256.699 55.6833 256.718C55.4311 256.738 55.1788 256.681 54.9584 256.557C54.738 256.433 54.5594 256.247 54.445 256.021C54.3306 255.795 54.2856 255.541 54.3158 255.29C54.3459 255.038 54.4498 254.802 54.6143 254.61C54.7788 254.418 54.9965 254.278 55.2401 254.21C55.4009 254.164 55.5692 254.151 55.7353 254.17C55.9014 254.19 56.062 254.242 56.2079 254.324C56.3537 254.406 56.482 254.515 56.5854 254.647C56.6887 254.778 56.7651 254.929 56.8101 255.09L56.8201 255.1Z" fill="#263238"/>
<path d="M66.5498 277.68L126.84 260.92" stroke="#263238" stroke-width="2" stroke-linecap="round" stroke-linejoin="round"/>
<path d="M67.6699 281.7L127.96 264.95" stroke="#263238" stroke-width="2" stroke-linecap="round" stroke-linejoin="round"/>
<path d="M68.9697 286.4L120.4 272.11" stroke="#263238" stroke-width="2" stroke-linecap="round" stroke-linejoin="round"/>
<path d="M75.3168 289.229L70.4126 290.592L71.7754 295.496L76.6796 294.134L75.3168 289.229Z" stroke="#263238" stroke-linecap="round" stroke-linejoin="round"/>
<path d="M84.2206 286.757L79.3164 288.12L80.6792 293.024L85.5834 291.661L84.2206 286.757Z" stroke="#263238" stroke-linecap="round" stroke-linejoin="round"/>
<path d="M93.0951 284.289L88.1909 285.652L89.5537 290.556L94.4579 289.194L93.0951 284.289Z" stroke="#263238" stroke-linecap="round" stroke-linejoin="round"/>
<path d="M101.989 281.819L97.085 283.182L98.4478 288.086L103.352 286.723L101.989 281.819Z" stroke="#263238" stroke-linecap="round" stroke-linejoin="round"/>
<path d="M63.3396 278.57C63.4072 278.814 63.4011 279.072 63.322 279.312C63.2429 279.553 63.0944 279.764 62.8952 279.92C62.696 280.076 62.4551 280.169 62.2029 280.189C61.9506 280.208 61.6984 280.152 61.478 280.027C61.2576 279.903 61.0789 279.717 60.9645 279.491C60.8501 279.265 60.8052 279.011 60.8353 278.76C60.8654 278.509 60.9693 278.272 61.1338 278.08C61.2983 277.888 61.5161 277.748 61.7596 277.68C61.9205 277.634 62.0888 277.621 62.2548 277.64C62.4209 277.66 62.5815 277.712 62.7274 277.794C62.8732 277.876 63.0015 277.985 63.1049 278.117C63.2082 278.248 63.2846 278.399 63.3296 278.56L63.3396 278.57Z" fill="#263238"/>
<path d="M73.2598 301.82L133.55 285.07" stroke="#263238" stroke-width="2" stroke-linecap="round" stroke-linejoin="round"/>
<path d="M74.3696 305.85L134.67 289.09" stroke="#263238" stroke-width="2" stroke-linecap="round" stroke-linejoin="round"/>
<path d="M75.6797 310.54L127.11 296.25" stroke="#263238" stroke-width="2" stroke-linecap="round" stroke-linejoin="round"/>
<path d="M82.0277 313.381L77.1235 314.744L78.4863 319.648L83.3905 318.285L82.0277 313.381Z" stroke="#263238" stroke-linecap="round" stroke-linejoin="round"/>
<path d="M90.9213 310.909L86.0171 312.271L87.3799 317.176L92.2841 315.813L90.9213 310.909Z" stroke="#263238" stroke-linecap="round" stroke-linejoin="round"/>
<path d="M99.8153 308.438L94.9111 309.801L96.2739 314.705L101.178 313.343L99.8153 308.438Z" stroke="#263238" stroke-linecap="round" stroke-linejoin="round"/>
<path d="M108.7 305.971L103.796 307.334L105.159 312.238L110.063 310.875L108.7 305.971Z" stroke="#263238" stroke-linecap="round" stroke-linejoin="round"/>
<path d="M70.0499 302.71C70.144 303.036 70.1047 303.386 69.9406 303.684C69.7765 303.981 69.5011 304.201 69.1749 304.295C68.8486 304.389 68.4984 304.35 68.2011 304.186C67.9039 304.022 67.684 303.746 67.5899 303.42C67.4971 303.092 67.5375 302.741 67.7024 302.444C67.8672 302.146 68.1431 301.925 68.4699 301.83C68.7934 301.74 69.1392 301.781 69.4329 301.944C69.7266 302.106 69.9446 302.378 70.0399 302.7L70.0499 302.71Z" fill="#263238"/>
<path d="M68.04 242.78L69.03 243.65L70.65 239.95" stroke="#263238" stroke-width="2" stroke-linecap="round" stroke-linejoin="round"/>
<path d="M65.6299 268.97L66.6199 269.84L68.2299 266.14" stroke="#263238" stroke-width="2" stroke-linecap="round" stroke-linejoin="round"/>
<path d="M72.1499 292.2L73.1399 293.07L74.7499 289.37" stroke="#263238" stroke-width="2" stroke-linecap="round" stroke-linejoin="round"/>
<path d="M96.6196 311.23L97.6096 312.1L99.2296 308.4" stroke="#263238" stroke-width="2" stroke-linecap="round" stroke-linejoin="round"/>
<path d="M158.376 162.013L75.1592 170.011L87.1804 295.085L170.397 287.086L158.376 162.013Z" fill="white" stroke="#263238" stroke-linecap="round" stroke-linejoin="round"/>
<path d="M82.25 177.64L103.91 175.56" stroke="#263238" stroke-width="2" stroke-linecap="round" stroke-linejoin="round"/>
<path d="M82.6499 181.8L97.3799 180.38" stroke="#263238" stroke-width="2" stroke-linecap="round" stroke-linejoin="round"/>
<path d="M88.8696 191.11L151.16 185.12" stroke="#263238" stroke-width="2" stroke-linecap="round" stroke-linejoin="round"/>
<path d="M89.27 195.26L151.56 189.28" stroke="#263238" stroke-width="2" stroke-linecap="round" stroke-linejoin="round"/>
<path d="M89.7397 200.11L142.87 195.01" stroke="#263238" stroke-width="2" stroke-linecap="round" stroke-linejoin="round"/>
<path d="M95.5066 204.01L90.4399 204.497L90.9269 209.564L95.9936 209.077L95.5066 204.01Z" stroke="#263238" stroke-linecap="round" stroke-linejoin="round"/>
<path d="M104.691 203.125L99.624 203.612L100.111 208.679L105.178 208.192L104.691 203.125Z" stroke="#263238" stroke-linecap="round" stroke-linejoin="round"/>
<path d="M113.874 202.251L108.808 202.738L109.295 207.804L114.361 207.317L113.874 202.251Z" stroke="#263238" stroke-linecap="round" stroke-linejoin="round"/>
<path d="M123.057 201.357L117.99 201.844L118.477 206.91L123.544 206.423L123.057 201.357Z" stroke="#263238" stroke-linecap="round" stroke-linejoin="round"/>
<path d="M85.5599 191.43C85.5843 191.682 85.5336 191.935 85.4141 192.158C85.2945 192.381 85.1115 192.564 84.8883 192.683C84.665 192.802 84.4114 192.852 84.1595 192.827C83.9077 192.803 83.6689 192.703 83.4734 192.543C83.2778 192.382 83.1343 192.167 83.0609 191.925C82.9875 191.683 82.9875 191.424 83.061 191.182C83.1344 190.94 83.278 190.725 83.4736 190.564C83.6692 190.404 83.908 190.305 84.1599 190.28C84.326 190.263 84.4938 190.28 84.6536 190.328C84.8134 190.376 84.9621 190.456 85.0913 190.562C85.2204 190.668 85.3273 190.798 85.406 190.945C85.4847 191.092 85.5336 191.254 85.5499 191.42L85.5599 191.43Z" fill="#263238"/>
<path d="M91.1997 215.36L153.49 209.38" stroke="#263238" stroke-width="2" stroke-linecap="round" stroke-linejoin="round"/>
<path d="M91.5996 219.52L153.89 213.53" stroke="#263238" stroke-width="2" stroke-linecap="round" stroke-linejoin="round"/>
<path d="M92.0698 224.37L145.2 219.26" stroke="#263238" stroke-width="2" stroke-linecap="round" stroke-linejoin="round"/>
<path d="M97.8362 228.256L92.7695 228.743L93.2565 233.81L98.3231 233.323L97.8362 228.256Z" stroke="#263238" stroke-linecap="round" stroke-linejoin="round"/>
<path d="M107.02 227.381L101.953 227.868L102.44 232.935L107.507 232.448L107.02 227.381Z" stroke="#263238" stroke-linecap="round" stroke-linejoin="round"/>
<path d="M116.203 226.497L111.137 226.984L111.624 232.05L116.69 231.563L116.203 226.497Z" stroke="#263238" stroke-linecap="round" stroke-linejoin="round"/>
<path d="M125.388 225.632L120.322 226.119L120.809 231.186L125.875 230.699L125.388 225.632Z" stroke="#263238" stroke-linecap="round" stroke-linejoin="round"/>
<path d="M87.8899 215.68C87.9144 215.932 87.8637 216.185 87.7441 216.408C87.6246 216.631 87.4416 216.814 87.2183 216.933C86.995 217.052 86.7415 217.102 86.4896 217.077C86.2378 217.052 85.999 216.953 85.8035 216.793C85.6079 216.632 85.4644 216.417 85.391 216.175C85.3176 215.933 85.3176 215.674 85.3911 215.432C85.4645 215.19 85.6081 214.975 85.8037 214.814C85.9993 214.654 86.2381 214.555 86.4899 214.53C86.6574 214.513 86.8265 214.53 86.9875 214.579C87.1486 214.628 87.2984 214.708 87.4284 214.815C87.5584 214.921 87.6661 215.053 87.7453 215.201C87.8245 215.35 87.8737 215.512 87.8899 215.68Z" fill="#263238"/>
<path d="M93.5298 239.61L155.82 233.63" stroke="#263238" stroke-width="2" stroke-linecap="round" stroke-linejoin="round"/>
<path d="M93.9297 243.77L156.22 237.78" stroke="#263238" stroke-width="2" stroke-linecap="round" stroke-linejoin="round"/>
<path d="M94.3999 248.62L147.53 243.51" stroke="#263238" stroke-width="2" stroke-linecap="round" stroke-linejoin="round"/>
<path d="M100.166 252.512L95.0991 252.999L95.5861 258.066L100.653 257.579L100.166 252.512Z" stroke="#263238" stroke-linecap="round" stroke-linejoin="round"/>
<path d="M109.349 251.628L104.283 252.115L104.77 257.181L109.836 256.694L109.349 251.628Z" stroke="#263238" stroke-linecap="round" stroke-linejoin="round"/>
<path d="M118.533 250.753L113.466 251.24L113.953 256.306L119.02 255.819L118.533 250.753Z" stroke="#263238" stroke-linecap="round" stroke-linejoin="round"/>
<path d="M127.717 249.868L122.65 250.355L123.137 255.422L128.204 254.935L127.717 249.868Z" stroke="#263238" stroke-linecap="round" stroke-linejoin="round"/>
<path d="M90.2096 239.93C90.2323 240.18 90.1803 240.431 90.0602 240.652C89.9401 240.872 89.7574 241.052 89.535 241.169C89.3126 241.286 89.0605 241.334 88.8108 241.308C88.561 241.281 88.3247 241.181 88.1318 241.02C87.9388 240.86 87.7979 240.645 87.7268 240.404C87.6557 240.163 87.6576 239.907 87.7323 239.667C87.807 239.427 87.9511 239.215 88.1464 239.057C88.3417 238.899 88.5795 238.803 88.8296 238.78C88.9957 238.765 89.1632 238.783 89.3225 238.832C89.4818 238.882 89.6297 238.962 89.7578 239.069C89.886 239.176 89.9918 239.307 90.0694 239.455C90.1469 239.602 90.1945 239.764 90.2096 239.93Z" fill="#263238"/>
<path d="M95.9297 264.56L158.22 258.57" stroke="#263238" stroke-width="2" stroke-linecap="round" stroke-linejoin="round"/>
<path d="M96.3296 268.71L158.62 262.73" stroke="#263238" stroke-width="2" stroke-linecap="round" stroke-linejoin="round"/>
<path d="M96.79 273.56L149.92 268.46" stroke="#263238" stroke-width="2" stroke-linecap="round" stroke-linejoin="round"/>
<path d="M102.562 277.458L97.4951 277.945L97.9821 283.011L103.049 282.525L102.562 277.458Z" stroke="#263238" stroke-linecap="round" stroke-linejoin="round"/>
<path d="M111.755 276.583L106.688 277.07L107.175 282.136L112.242 281.649L111.755 276.583Z" stroke="#263238" stroke-linecap="round" stroke-linejoin="round"/>
<path d="M120.928 275.69L115.861 276.177L116.348 281.243L121.415 280.756L120.928 275.69Z" stroke="#263238" stroke-linecap="round" stroke-linejoin="round"/>
<path d="M130.112 274.804L125.045 275.291L125.532 280.358L130.599 279.871L130.112 274.804Z" stroke="#263238" stroke-linecap="round" stroke-linejoin="round"/>
<path d="M92.61 264.87C92.6367 265.123 92.5877 265.377 92.4693 265.602C92.3508 265.826 92.1682 266.011 91.9448 266.131C91.7213 266.252 91.467 266.303 91.2143 266.279C90.9615 266.254 90.7217 266.155 90.5254 265.994C90.3291 265.833 90.1851 265.618 90.1117 265.374C90.0384 265.131 90.039 264.872 90.1134 264.629C90.1879 264.387 90.3329 264.171 90.5299 264.011C90.727 263.851 90.9672 263.753 91.22 263.73C91.3862 263.713 91.554 263.73 91.7138 263.778C91.8736 263.826 92.0223 263.906 92.1514 264.012C92.2805 264.118 92.3875 264.248 92.4662 264.395C92.5449 264.542 92.5938 264.704 92.61 264.87Z" fill="#263238"/>
<path d="M92.4399 206.35L93.2599 207.38L95.4999 204.02" stroke="#263238" stroke-width="2" stroke-linecap="round" stroke-linejoin="round"/>
<path d="M113.11 228.53L113.93 229.56L116.16 226.2" stroke="#263238" stroke-width="2" stroke-linecap="round" stroke-linejoin="round"/>
<path d="M106.3 254.17L107.12 255.2L109.36 251.84" stroke="#263238" stroke-width="2" stroke-linecap="round" stroke-linejoin="round"/>
<path d="M126.93 277.16L127.75 278.19L129.99 274.83" stroke="#263238" stroke-width="2" stroke-linecap="round" stroke-linejoin="round"/>
<path d="M260.15 112.71H208.48C206.655 112.71 204.905 113.435 203.615 114.725C202.325 116.015 201.6 117.765 201.6 119.59V164C201.6 165.825 202.325 167.575 203.615 168.865C204.905 170.155 206.655 170.88 208.48 170.88H231.38L244.5 186.69L241.21 170.88H260.15C261.97 170.872 263.712 170.144 264.996 168.854C266.279 167.565 267 165.819 267 164V119.59C267 117.77 266.279 116.025 264.996 114.736C263.712 113.446 261.97 112.718 260.15 112.71Z" fill="white" stroke="#263238" stroke-linecap="round" stroke-linejoin="round"/>
<path d="M238.45 137.07V132.37L234.93 132.07C234.72 131.336 234.428 130.629 234.06 129.96L236.33 127.26L233 123.94L230.3 126.21C229.634 125.836 228.926 125.544 228.19 125.34L227.89 121.82H223.19L222.89 125.34C222.154 125.544 221.446 125.836 220.78 126.21L218.08 123.94L214.75 127.26L217 130C216.627 130.667 216.332 131.375 216.12 132.11L212.6 132.41V137.11L216.12 137.42C216.332 138.155 216.627 138.863 217 139.53L214.72 142.23L218.05 145.55L220.75 143.28C221.416 143.654 222.124 143.946 222.86 144.15L223.16 147.67H227.86L228.16 144.15C228.896 143.946 229.604 143.654 230.27 143.28L232.97 145.55L236.3 142.23L234.03 139.53C234.398 138.861 234.69 138.154 234.9 137.42L238.45 137.07ZM225.54 140.19C224.458 140.192 223.4 139.873 222.499 139.274C221.599 138.674 220.896 137.821 220.48 136.822C220.064 135.824 219.954 134.724 220.163 133.663C220.372 132.601 220.892 131.626 221.655 130.859C222.419 130.093 223.392 129.57 224.453 129.357C225.514 129.144 226.614 129.25 227.614 129.663C228.614 130.075 229.47 130.774 230.073 131.673C230.675 132.571 230.998 133.628 231 134.71C231.003 135.427 230.864 136.138 230.591 136.802C230.318 137.465 229.917 138.068 229.411 138.577C228.905 139.085 228.303 139.488 227.64 139.763C226.978 140.038 226.267 140.18 225.55 140.18L225.54 140.19Z" fill="#FF9933"/>
<path d="M254 147.56V144.22L251.49 144C251.344 143.477 251.136 142.973 250.87 142.5L252.49 140.58L250.13 138.22L248.2 139.83C247.725 139.568 247.221 139.36 246.7 139.21L246.49 136.71H243.14L242.93 139.21C242.405 139.36 241.899 139.568 241.42 139.83L239.5 138.22L237.14 140.58L238.75 142.5C238.487 142.974 238.282 143.477 238.14 144L235.63 144.22V147.56L238.14 147.78C238.282 148.303 238.487 148.806 238.75 149.28L237.14 151.2L239.5 153.57L241.42 151.95C241.895 152.22 242.402 152.429 242.93 152.57L243.14 155.08H246.49L246.7 152.57C247.224 152.429 247.729 152.22 248.2 151.95L250.13 153.57L252.49 151.2L250.87 149.28C251.14 148.809 251.348 148.304 251.49 147.78L254 147.56ZM244.81 149.78C244.041 149.78 243.288 149.552 242.649 149.124C242.009 148.697 241.51 148.089 241.216 147.379C240.922 146.668 240.845 145.886 240.995 145.131C241.145 144.376 241.515 143.683 242.059 143.139C242.603 142.595 243.296 142.225 244.051 142.075C244.806 141.925 245.588 142.002 246.299 142.296C247.009 142.59 247.617 143.089 248.044 143.729C248.472 144.368 248.7 145.121 248.7 145.89C248.7 146.922 248.29 147.911 247.561 148.641C246.831 149.37 245.842 149.78 244.81 149.78Z" fill="#FF9933"/>
<path d="M237.64 155.35V153L235.85 152.84C235.748 152.467 235.6 152.107 235.41 151.77L236.56 150.41L234.88 148.72L233.51 149.87C233.172 149.688 232.817 149.541 232.45 149.43L232.29 147.65H229.91L229.76 149.43C229.389 149.537 229.03 149.684 228.69 149.87L227.32 148.72L225.64 150.41L226.79 151.77C226.605 152.109 226.457 152.468 226.35 152.84L224.57 153V155.37L226.35 155.53C226.457 155.902 226.605 156.261 226.79 156.6L225.64 158L227.32 159.69L228.69 158.54C229.032 158.721 229.39 158.869 229.76 158.98L229.91 160.76H232.29L232.45 158.98C232.817 158.869 233.172 158.721 233.51 158.54L234.88 159.69L236.56 158L235.41 156.64C235.6 156.303 235.748 155.943 235.85 155.57L237.64 155.35ZM231.1 156.93C230.552 156.93 230.017 156.767 229.561 156.463C229.106 156.159 228.751 155.726 228.541 155.22C228.332 154.714 228.277 154.157 228.384 153.62C228.49 153.082 228.754 152.589 229.142 152.201C229.529 151.814 230.023 151.55 230.56 151.443C231.097 151.336 231.654 151.391 232.16 151.601C232.666 151.81 233.099 152.165 233.403 152.621C233.708 153.076 233.87 153.612 233.87 154.16C233.868 154.893 233.575 155.595 233.055 156.112C232.536 156.629 231.833 156.92 231.1 156.92V156.93Z" fill="#FF9933"/>
<path d="M232.93 283.37L273.21 431.95H279.23L238.96 283.37H232.93Z" fill="#757575" stroke="#263238" stroke-linecap="round" stroke-linejoin="round"/>
<path d="M323.65 389.83H247.3V396.05H323.65V389.83Z" fill="#999999" stroke="#263238" stroke-linecap="round" stroke-linejoin="round"/>
<path d="M364.38 250L315.05 432H309.05L358.37 250C360.19 243.29 356.02 237.83 349.07 237.83H306.57C299.63 237.83 292.49 243.29 290.67 250L241.33 432H235.33L284.66 250C287.35 240.07 297.87 232 308.15 232H350.66C360.91 232 367.07 240.06 364.38 250Z" fill="#757575" stroke="#263238" stroke-linecap="round" stroke-linejoin="round"/>
<path d="M365.16 250.05L352.92 295.23C352.33 297.132 351.166 298.804 349.586 300.016C348.007 301.229 346.09 301.922 344.1 302H274.26C273.418 302.066 272.573 301.92 271.802 301.576C271.03 301.232 270.357 300.7 269.844 300.029C269.331 299.357 268.994 298.569 268.864 297.734C268.734 296.899 268.816 296.045 269.1 295.25L281.35 250.07C281.945 248.173 283.112 246.506 284.691 245.297C286.269 244.089 288.184 243.398 290.17 243.32H360C360.666 243.272 361.335 243.356 361.968 243.567C362.602 243.778 363.187 244.112 363.692 244.549C364.196 244.987 364.609 245.519 364.907 246.117C365.206 246.714 365.383 247.364 365.43 248.03C365.476 248.715 365.384 249.401 365.16 250.05Z" fill="#FF9933"/>
<mask id="mask2_209_302" style="mask-type:luminance" maskUnits="userSpaceOnUse" x="268" y="243" width="98" height="60">
<path d="M365.16 250.05L352.92 295.23C352.33 297.132 351.166 298.804 349.586 300.016C348.007 301.229 346.09 301.922 344.1 302H274.26C273.418 302.066 272.573 301.92 271.802 301.576C271.03 301.232 270.357 300.7 269.844 300.029C269.331 299.357 268.994 298.569 268.864 297.734C268.734 296.899 268.816 296.045 269.1 295.25L281.35 250.07C281.945 248.173 283.112 246.506 284.691 245.297C286.269 244.089 288.184 243.398 290.17 243.32H360C360.666 243.272 361.335 243.356 361.968 243.567C362.602 243.778 363.187 244.112 363.692 244.549C364.196 244.987 364.609 245.519 364.907 246.117C365.206 246.714 365.383 247.364 365.43 248.03C365.476 248.715 365.384 249.401 365.16 250.05Z" fill="white"/>
</mask>
<g mask="url(#mask2_209_302)">
<path opacity="0.2" d="M365.16 250.05L352.92 295.23C352.33 297.132 351.166 298.804 349.586 300.017C348.007 301.229 346.09 301.922 344.1 302H274.26C273.418 302.066 272.573 301.92 271.802 301.576C271.03 301.232 270.357 300.7 269.844 300.029C269.331 299.357 268.994 298.569 268.864 297.734C268.734 296.899 268.816 296.045 269.1 295.25L281.35 250.07C281.945 248.173 283.112 246.506 284.691 245.297C286.269 244.089 288.184 243.398 290.17 243.32H326.28C341.89 259.32 339.9 288.81 338.88 297.71C340.509 297.317 342.01 296.511 343.236 295.369C344.462 294.226 345.373 292.787 345.88 291.19L358.1 246C358.35 245.126 358.401 244.207 358.25 243.31H360C360.84 243.25 361.681 243.399 362.449 243.745C363.216 244.09 363.886 244.621 364.397 245.289C364.909 245.957 365.247 246.742 365.38 247.573C365.513 248.404 365.437 249.255 365.16 250.05Z" fill="black" fill-opacity="0.7"/>
</g>
<path d="M365.16 250.05L352.92 295.23C352.33 297.132 351.166 298.804 349.586 300.016C348.007 301.229 346.09 301.922 344.1 302H274.26C273.418 302.066 272.573 301.92 271.802 301.576C271.03 301.232 270.357 300.7 269.844 300.029C269.331 299.357 268.994 298.569 268.864 297.734C268.734 296.899 268.816 296.045 269.1 295.25L281.35 250.07C281.945 248.173 283.112 246.506 284.691 245.297C286.269 244.089 288.184 243.398 290.17 243.32H360C360.666 243.272 361.335 243.356 361.968 243.567C362.602 243.778 363.187 244.112 363.692 244.549C364.196 244.987 364.609 245.519 364.907 246.117C365.206 246.714 365.383 247.364 365.43 248.03C365.476 248.715 365.384 249.401 365.16 250.05Z" stroke="#263238" stroke-linecap="round" stroke-linejoin="round"/>
<path d="M324.1 347.71L346.94 431.95H352.96L330.13 347.71H324.1Z" fill="#757575" stroke="#263238" stroke-linecap="round" stroke-linejoin="round"/>
<path d="M330.15 338V346.24H240.23V338C240.23 336.393 240.868 334.851 242.005 333.715C243.141 332.578 244.683 331.94 246.29 331.94H324.08C324.877 331.937 325.667 332.092 326.404 332.396C327.141 332.699 327.81 333.145 328.374 333.708C328.938 334.272 329.386 334.941 329.69 335.677C329.995 336.414 330.151 337.203 330.15 338Z" fill="#FF9933"/>
<mask id="mask3_209_302" style="mask-type:luminance" maskUnits="userSpaceOnUse" x="240" y="331" width="91" height="16">
<path d="M330.15 338V346.24H240.23V338C240.23 336.393 240.868 334.851 242.005 333.715C243.141 332.578 244.683 331.94 246.29 331.94H324.08C324.877 331.937 325.667 332.092 326.404 332.396C327.141 332.699 327.81 333.145 328.374 333.708C328.938 334.272 329.386 334.941 329.69 335.677C329.995 336.414 330.151 337.203 330.15 338Z" fill="white"/>
</mask>
<g mask="url(#mask3_209_302)">
<path opacity="0.2" d="M329.94 336.45C327.03 339.87 321.81 343.35 312.83 346.28H240.23V338C240.23 336.393 240.868 334.851 242.005 333.715C243.141 332.578 244.683 331.94 246.29 331.94H324.08C325.417 331.941 326.716 332.384 327.776 333.2C328.836 334.015 329.596 335.158 329.94 336.45Z" fill="black" fill-opacity="0.7"/>
</g>
<path d="M330.15 338V346.24H240.23V338C240.23 336.393 240.868 334.851 242.005 333.715C243.141 332.578 244.683 331.94 246.29 331.94H324.08C324.877 331.937 325.667 332.092 326.404 332.396C327.141 332.699 327.81 333.145 328.374 333.708C328.938 334.272 329.386 334.941 329.69 335.677C329.995 336.414 330.151 337.203 330.15 338Z" stroke="#263238" stroke-linecap="round" stroke-linejoin="round"/>
<path d="M333.2 343.75H237.96C237.016 343.75 236.25 344.516 236.25 345.46V349.77C236.25 350.714 237.016 351.48 237.96 351.48H333.2C334.144 351.48 334.91 350.714 334.91 349.77V345.46C334.91 344.516 334.144 343.75 333.2 343.75Z" fill="#999999" stroke="#263238" stroke-linecap="round" stroke-linejoin="round"/>
<path d="M237.31 344C233 348.39 253.89 417.37 253.89 417.37C251.61 419.37 248.25 420.29 245.07 420.71C242.147 421.073 239.193 421.117 236.26 420.84C236.26 420.84 206.32 348.22 214.56 330.2C222.8 312.18 273.93 304 273.93 304L276.11 298.6L302.56 294.88L306.93 327.27C306.93 327.27 302.59 327.69 296.06 328.53C278.55 330.75 245.23 336 237.31 344Z" fill="#263238"/>
<mask id="mask4_209_302" style="mask-type:luminance" maskUnits="userSpaceOnUse" x="213" y="294" width="94" height="128">
<path d="M237.31 344C233 348.39 253.89 417.37 253.89 417.37C251.61 419.37 248.25 420.29 245.07 420.71C242.147 421.073 239.193 421.117 236.26 420.84C236.26 420.84 206.32 348.22 214.56 330.2C222.8 312.18 273.93 304 273.93 304L276.11 298.6L302.56 294.88L306.93 327.27C306.93 327.27 302.59 327.69 296.06 328.53C278.55 330.75 245.23 336 237.31 344Z" fill="white"/>
</mask>
<g mask="url(#mask4_209_302)">
<path opacity="0.3" d="M253.89 417.41C251.61 419.41 248.25 420.33 245.07 420.75C239.26 399.15 224.47 341.51 230.07 334.46C236.98 325.76 271.18 317.85 271.18 317.85C271.32 313.41 283.31 309.41 283.31 309.41L296.05 328.5C278.54 330.75 245.22 336 237.3 344C233 348.43 253.89 417.41 253.89 417.41Z" fill="black"/>
</g>
<path d="M237.31 344C233 348.39 253.89 417.37 253.89 417.37C251.61 419.37 248.25 420.29 245.07 420.71C242.147 421.073 239.193 421.117 236.26 420.84C236.26 420.84 206.32 348.22 214.56 330.2C222.8 312.18 273.93 304 273.93 304L276.11 298.6L302.56 294.88L306.93 327.27C306.93 327.27 302.59 327.69 296.06 328.53C278.55 330.75 245.23 336 237.31 344Z" stroke="#263238" stroke-linecap="round" stroke-linejoin="round"/>
<path d="M222.51 278.71C218.12 277.96 249.37 250.56 249.37 250.56L264.44 260.7C264.44 260.7 238.8 278.76 234.77 279.25C230.74 279.74 222.51 278.71 222.51 278.71Z" fill="white"/>
<mask id="mask5_209_302" style="mask-type:luminance" maskUnits="userSpaceOnUse" x="222" y="250" width="43" height="30">
<path d="M222.51 278.71C218.12 277.96 249.37 250.56 249.37 250.56L264.44 260.7C264.44 260.7 238.8 278.76 234.77 279.25C230.74 279.74 222.51 278.71 222.51 278.71Z" fill="white"/>
</mask>
<g mask="url(#mask5_209_302)">
<path opacity="0.2" d="M222.51 278.71C218.12 277.96 249.37 250.56 249.37 250.56L264.44 260.7C264.44 260.7 238.8 278.76 234.77 279.25C230.74 279.74 222.51 278.71 222.51 278.71Z" fill="black" fill-opacity="0.7"/>
</g>
<path d="M222.51 278.71C218.12 277.96 249.37 250.56 249.37 250.56L264.44 260.7C264.44 260.7 238.8 278.76 234.77 279.25C230.74 279.74 222.51 278.71 222.51 278.71Z" stroke="#263238" stroke-linecap="round" stroke-linejoin="round"/>
<path d="M228 267.19C228 267.19 234.55 268.82 236.56 270.19C238.57 271.56 237.99 276.51 237.99 276.51C237.99 276.51 229.26 274.05 228 267.19Z" fill="white" stroke="#263238" stroke-linecap="round" stroke-linejoin="round"/>
<path d="M223.82 254.64L236 278H237.44L225.87 253.49L223.82 254.64Z" fill="#263238"/>
<path d="M234.8 271.53C234.8 271.53 227.12 266.07 225.24 266.07C223.36 266.07 217.73 272.72 217.73 276.07C217.73 279.42 230.01 281.25 232.41 278.42C233.61 277.01 231.23 273.61 231.23 273.61C232.66 275.131 234.193 276.551 235.82 277.86C236.82 278.42 238.73 277.69 238.73 277.69C238.73 277.69 236.17 273.59 234.8 271.53Z" fill="white" stroke="#263238" stroke-linecap="round" stroke-linejoin="round"/>
<path d="M231.23 279.19C229.46 276.942 227.286 275.043 224.82 273.59" stroke="#263238" stroke-linecap="round" stroke-linejoin="round"/>
<path d="M231.23 273.59C231.23 273.59 228.57 271.27 226.78 270.76" stroke="#263238" stroke-linecap="round" stroke-linejoin="round"/>
<path d="M222.86 276.54C224.72 277.493 226.514 278.569 228.23 279.76" stroke="#263238" stroke-linecap="round" stroke-linejoin="round"/>
<path d="M259.16 238.58C255.23 241.32 237.58 259.47 237.58 259.47C237.58 259.47 245.85 268.88 253.1 270.24L272.75 260.7L259.16 238.58Z" fill="#FF9933" stroke="#263238" stroke-linecap="round" stroke-linejoin="round"/>
<path opacity="0.4" d="M259.16 238.58C255.23 241.32 237.58 259.47 237.58 259.47C237.58 259.47 245.85 268.88 253.1 270.24L272.75 260.7L259.16 238.58Z" fill="white" stroke="#263238" stroke-linecap="round" stroke-linejoin="round"/>
<path d="M249.67 410.09L258 432C258 432 259.38 437.63 234.26 435.85L220.42 434.67L249.67 410.09Z" fill="#FF9933"/>
<mask id="mask6_209_302" style="mask-type:luminance" maskUnits="userSpaceOnUse" x="220" y="410" width="39" height="27">
<path d="M249.67 410.09L258 432C258 432 259.38 437.63 234.26 435.85L220.42 434.67L249.67 410.09Z" fill="white"/>
</mask>
<g mask="url(#mask6_209_302)">
<path opacity="0.3" d="M249.67 410.09L258 432C258 432 259.38 437.63 234.26 435.85L220.42 434.67L249.67 410.09Z" fill="black"/>
</g>
<path d="M249.67 410.09L258 432C258 432 259.38 437.63 234.26 435.85L220.42 434.67L249.67 410.09Z" stroke="#263238" stroke-linecap="round" stroke-linejoin="round"/>
<path d="M246.51 420.57C246.51 420.57 248.29 429.08 246.51 435.41C246.51 435.41 220 439.56 214.07 437.98C208.14 436.4 204.54 433.44 204.36 431.98C204.36 431.98 204.57 427.92 210.51 426.73C216.45 425.54 228.26 424.73 232.93 418.03C237.6 411.33 246.51 420.57 246.51 420.57Z" fill="#FF9933" stroke="#263238" stroke-linecap="round" stroke-linejoin="round"/>
<path d="M281.49 297.72C289.96 285.64 328.9 300.18 328.9 300.18C328.9 300.18 332.61 329.26 317.1 337.02C301.59 344.78 279.23 344.36 273.19 350.65L248.61 423.23C248.61 423.23 239.78 426.92 226.94 421.11C226.94 421.11 242.55 366.3 247.13 346.84C251.66 327.58 280.99 314.51 280.99 314.51C279.478 312.724 278.333 310.658 277.62 308.43" fill="#263238"/>
<path d="M281.49 297.72C289.96 285.64 328.9 300.18 328.9 300.18C328.9 300.18 332.61 329.26 317.1 337.02C301.59 344.78 279.23 344.36 273.19 350.65L248.61 423.23C248.61 423.23 239.78 426.92 226.94 421.11C226.94 421.11 242.55 366.3 247.13 346.84C251.66 327.58 280.99 314.51 280.99 314.51C279.478 312.724 278.333 310.658 277.62 308.43" stroke="#263238" stroke-linecap="round" stroke-linejoin="round"/>
<path d="M320.91 325.52C319.667 326.621 318.362 327.65 317 328.6" stroke="white" stroke-linecap="round" stroke-linejoin="round"/>
<path d="M324.1 300.89C327.28 307.79 327.53 316.55 323.1 322.94" stroke="white" stroke-linecap="round" stroke-linejoin="round"/>
<path d="M315.23 302C315.23 302 314.42 307.32 316.79 309.43C319.16 311.54 326.43 312.61 326.43 312.61" stroke="white" stroke-linecap="round" stroke-linejoin="round"/>
<path d="M283.31 302.24C283.31 302.24 283.64 307.54 281.49 307.29C279.34 307.04 279.23 309.41 279.23 309.41" stroke="white" stroke-linecap="round" stroke-linejoin="round"/>
<path d="M259.68 242.66C259.352 241.324 259.178 239.955 259.16 238.58C259.16 238.58 271.16 228.46 286.61 228.52C305.01 228.58 316.26 234.37 320.76 242.41C327.9 255.13 328.9 300.18 328.9 300.18C328.9 300.18 282.73 307.3 276.11 298.57C274.96 297.05 275.84 286.32 275.84 286.32C275.84 286.32 270.67 272.76 269.58 262.24C268.061 260.146 266.649 257.977 265.35 255.74C263.706 252.986 262.282 250.107 261.09 247.13" fill="#FF9933"/>
<path d="M259.68 242.66C259.352 241.324 259.178 239.955 259.16 238.58C259.16 238.58 271.16 228.46 286.61 228.52C305.01 228.58 316.26 234.37 320.76 242.41C327.9 255.13 328.9 300.18 328.9 300.18C328.9 300.18 282.73 307.3 276.11 298.57C274.96 297.05 275.84 286.32 275.84 286.32C275.84 286.32 270.67 272.76 269.58 262.24C268.061 260.146 266.649 257.977 265.35 255.74C263.706 252.986 262.282 250.107 261.09 247.13" stroke="#263238" stroke-linecap="round" stroke-linejoin="round"/>
<g opacity="0.6">
<path d="M259.68 242.66C259.352 241.324 259.178 239.955 259.16 238.58C259.16 238.58 271.16 228.46 286.61 228.52C305.01 228.58 316.26 234.37 320.76 242.41C327.9 255.13 328.9 300.18 328.9 300.18C328.9 300.18 282.73 307.3 276.11 298.57C274.96 297.05 275.84 286.32 275.84 286.32C275.84 286.32 270.67 272.76 269.58 262.24C268.061 260.146 266.649 257.977 265.35 255.74C263.706 252.986 262.282 250.107 261.09 247.13" fill="white"/>
<path d="M259.68 242.66C259.352 241.324 259.178 239.955 259.16 238.58C259.16 238.58 271.16 228.46 286.61 228.52C305.01 228.58 316.26 234.37 320.76 242.41C327.9 255.13 328.9 300.18 328.9 300.18C328.9 300.18 282.73 307.3 276.11 298.57C274.96 297.05 275.84 286.32 275.84 286.32C275.84 286.32 270.67 272.76 269.58 262.24C268.061 260.146 266.649 257.977 265.35 255.74C263.706 252.986 262.282 250.107 261.09 247.13" stroke="#263238" stroke-linecap="round" stroke-linejoin="round"/>
</g>
<path d="M277.36 253.49C277.36 253.49 284.41 280.84 283.36 286.86C283.11 288.937 283.457 291.043 284.36 292.93C283.439 293.899 282.847 295.133 282.667 296.458C282.488 297.783 282.73 299.131 283.36 300.31" stroke="#263238" stroke-linecap="round" stroke-linejoin="round"/>
<path d="M296.06 276.12C294.801 276.072 293.578 275.685 292.52 275L290.43 265.84C294.577 266.217 298.757 265.923 302.81 264.97L305.05 274.97C303.791 275.321 302.512 275.598 301.22 275.8" stroke="#263238" stroke-linecap="round" stroke-linejoin="round"/>
<path d="M272.35 257.05C272.35 257.05 266.35 231.49 281.49 228.52C296.63 225.55 299.74 232.62 298.85 237.41C297.66 243.8 285.11 259.47 285.11 259.47L277.36 253.47L272.35 257.05Z" fill="#FF9933" stroke="#263238" stroke-linecap="round" stroke-linejoin="round"/>
<path opacity="0.4" d="M272.35 257.05C272.35 257.05 266.35 231.49 281.49 228.52C296.63 225.55 299.74 232.62 298.85 237.41C297.66 243.8 285.11 259.47 285.11 259.47L277.36 253.47L272.35 257.05Z" fill="white" stroke="#263238" stroke-linecap="round" stroke-linejoin="round"/>
<path d="M252.49 336C252.49 336 262.27 324.71 284.35 316.18C284.35 316.18 278.63 314.43 277.35 312.05" stroke="white" stroke-linecap="round" stroke-linejoin="round"/>
<path d="M240.99 370.55L232.05 403.01" stroke="white" stroke-linecap="round" stroke-linejoin="round"/>
<path d="M310.07 277C310.07 277 314.07 283.75 330.54 283.13C327.475 279.848 323.598 277.433 319.3 276.13C312.57 274.33 310.07 277 310.07 277Z" fill="#FF9933" stroke="#263238" stroke-linecap="round" stroke-linejoin="round"/>
<path d="M246.17 279.71C246.17 279.71 249.99 273.79 253.49 272.6C256.99 271.41 267.27 271.31 268.86 271.27C270.45 271.23 298.7 278.41 311.96 282.83L310.8 260.7L328.62 262.11C328.62 262.11 327.9 289.11 325.13 296.26C322.36 303.41 318.39 301.67 311.62 298.75C284.99 287.28 269.39 279.29 267.94 279.75C266.49 280.21 246.17 279.71 246.17 279.71Z" fill="white" stroke="#263238" stroke-linecap="round" stroke-linejoin="round"/>
<path d="M306.35 247.84C305.884 249.675 305.736 251.575 305.91 253.46C306.7 260.38 310.07 277 310.07 277C310.07 277 326.68 279.37 330.54 283.13C330.54 283.13 333.28 261.13 327.7 249.96C322.12 238.79 316.35 237.56 316.35 237.56C312.7 236.66 309.35 240.06 307.5 244.43" fill="#FF9933"/>
<path d="M306.35 247.84C305.884 249.675 305.736 251.575 305.91 253.46C306.7 260.38 310.07 277 310.07 277C310.07 277 326.68 279.37 330.54 283.13C330.54 283.13 333.28 261.13 327.7 249.96C322.12 238.79 316.35 237.56 316.35 237.56C312.7 236.66 309.35 240.06 307.5 244.43" stroke="#263238" stroke-linecap="round" stroke-linejoin="round"/>
<g opacity="0.4">
<path d="M306.35 247.84C305.884 249.675 305.736 251.575 305.91 253.46C306.7 260.38 310.07 277 310.07 277C310.07 277 326.68 279.37 330.54 283.13C330.54 283.13 333.28 261.13 327.7 249.96C322.12 238.79 316.35 237.56 316.35 237.56C312.7 236.66 309.35 240.06 307.5 244.43" fill="white"/>
<path d="M306.35 247.84C305.884 249.675 305.736 251.575 305.91 253.46C306.7 260.38 310.07 277 310.07 277C310.07 277 326.68 279.37 330.54 283.13C330.54 283.13 333.28 261.13 327.7 249.96C322.12 238.79 316.35 237.56 316.35 237.56C312.7 236.66 309.35 240.06 307.5 244.43" stroke="#263238" stroke-linecap="round" stroke-linejoin="round"/>
</g>
<path d="M257.55 256.4C260.037 258.435 262.938 259.902 266.05 260.7" stroke="#263238" stroke-linecap="round" stroke-linejoin="round"/>
<path d="M310.07 256.4C310.07 256.4 316.07 267.74 323.65 270.24" stroke="#263238" stroke-linecap="round" stroke-linejoin="round"/>
<path d="M271.19 343.75C271.19 343.75 272.3 344.59 272.75 347.62" stroke="white" stroke-linecap="round" stroke-linejoin="round"/>
<path d="M267.08 347.62C268.046 347.725 268.98 348.03 269.822 348.515C270.664 349.001 271.395 349.656 271.97 350.44" stroke="white" stroke-linecap="round" stroke-linejoin="round"/>
<path d="M234 336C234 336 237.2 337.62 236.51 342.21" stroke="white" stroke-linecap="round" stroke-linejoin="round"/>
<path d="M230.63 339.9C230.63 339.9 235 342.49 235.31 344.81" stroke="white" stroke-linecap="round" stroke-linejoin="round"/>
<path d="M281.28 311.92C281.28 311.92 291.01 313.28 293.19 311.92" stroke="white" stroke-linecap="round" stroke-linejoin="round"/>
<path d="M277.36 252.39C276.52 250.008 276.18 247.479 276.36 244.96C276.4 244.105 276.49 243.254 276.63 242.41L274.94 239.73L272.77 236.28L275.28 226.28C275.28 226.28 291.28 229.36 292.48 233.82C293.68 238.28 277.36 252.39 277.36 252.39Z" fill="white"/>
<mask id="mask7_209_302" style="mask-type:luminance" maskUnits="userSpaceOnUse" x="272" y="226" width="21" height="27">
<path d="M277.36 252.39C276.52 250.008 276.18 247.479 276.36 244.96C276.4 244.105 276.49 243.254 276.63 242.41L274.94 239.73L272.77 236.28L275.28 226.28C275.28 226.28 291.28 229.36 292.48 233.82C293.68 238.28 277.36 252.39 277.36 252.39Z" fill="white"/>
</mask>
<g mask="url(#mask7_209_302)">
<path opacity="0.2" d="M276.34 245C276.38 244.145 276.47 243.294 276.61 242.45L274.92 239.77C277.966 239.299 280.739 237.743 282.73 235.39C282.814 237.461 282.241 239.505 281.094 241.231C279.946 242.957 278.282 244.276 276.34 245Z" fill="black" fill-opacity="0.7"/>
</g>
<path d="M277.36 252.39C276.52 250.008 276.18 247.479 276.36 244.96C276.4 244.105 276.49 243.254 276.63 242.41L274.94 239.73L272.77 236.28L275.28 226.28C275.28 226.28 291.28 229.36 292.48 233.82C293.68 238.28 277.36 252.39 277.36 252.39Z" stroke="#263238" stroke-linecap="round" stroke-linejoin="round"/>
<path d="M287.4 227.12C292.4 214.12 289.08 191.99 265.08 196.23C251 198.73 249.3 215.75 254 223.31C258.7 230.87 253.71 231.11 260.78 236.71C263.65 238.98 265.96 242.83 269.38 243.08C273.45 243.36 278.66 239.51 282.55 235.35" fill="white"/>
<path d="M287.4 227.12C292.4 214.12 289.08 191.99 265.08 196.23C251 198.73 249.3 215.75 254 223.31C258.7 230.87 253.71 231.11 260.78 236.71C263.65 238.98 265.96 242.83 269.38 243.08C273.45 243.36 278.66 239.51 282.55 235.35" stroke="#263238" stroke-linecap="round" stroke-linejoin="round"/>
<path d="M263.75 223.31C263.75 223.31 267.29 220.09 271.5 221.42" stroke="#263238" stroke-linecap="round" stroke-linejoin="round"/>
<path d="M257.12 223.31C256.645 222.475 255.984 221.76 255.188 221.223C254.392 220.685 253.482 220.338 252.53 220.21" stroke="#263238" stroke-linecap="round" stroke-linejoin="round"/>
<path d="M259.46 228C259.46 228 258.95 230.59 258.28 233.21C257.61 235.83 262.48 234.4 262.28 234" fill="white"/>
<path d="M259.46 228C259.46 228 258.95 230.59 258.28 233.21C257.61 235.83 262.48 234.4 262.28 234" stroke="#263238" stroke-linecap="round" stroke-linejoin="round"/>
<path d="M264.79 237.27C266.855 236.679 268.692 235.476 270.06 233.82" stroke="#263238" stroke-linecap="round" stroke-linejoin="round"/>
<path d="M268.68 226.6C268.751 226.726 268.797 226.865 268.814 227.008C268.831 227.152 268.82 227.298 268.781 227.437C268.742 227.576 268.676 227.707 268.587 227.82C268.497 227.934 268.386 228.029 268.26 228.1C268.004 228.24 267.703 228.273 267.422 228.193C267.141 228.113 266.903 227.925 266.76 227.67C266.668 227.516 266.62 227.339 266.62 227.16C266.549 227.034 266.503 226.895 266.486 226.751C266.469 226.608 266.48 226.462 266.519 226.323C266.558 226.183 266.624 226.053 266.713 225.939C266.803 225.826 266.914 225.731 267.04 225.66C267.296 225.52 267.598 225.486 267.878 225.567C268.159 225.647 268.397 225.835 268.54 226.09C268.632 226.244 268.68 226.42 268.68 226.6Z" fill="#263238"/>
<path d="M258 226.38C258.2 227.1 258.06 227.78 257.68 227.88C257.3 227.98 256.83 227.48 256.68 226.75C256.53 226.02 256.63 225.35 257.01 225.25C257.39 225.15 257.78 225.65 258 226.38Z" fill="#263238"/>
<path d="M272.6 209.92C272.6 209.92 268.88 219.65 259.68 219.43C259.68 219.43 262.87 217 263.75 214.68C263.75 214.68 256.67 221.68 249.6 218.12C242.53 214.56 246 198 256.85 191.46C267.7 184.92 278.8 186.67 282.56 192.92C282.56 192.92 290.16 192.22 293.51 203.39C296.51 213.39 291.71 228.55 287.02 228.72C279.75 228.99 278.29 221.1 278.29 221.1C275.289 218.047 273.302 214.143 272.6 209.92Z" fill="#263238" stroke="#263238" stroke-linecap="round" stroke-linejoin="round"/>
<path d="M280.57 227.17C280.57 227.17 280.34 217.99 285.57 219.1C290.8 220.21 287.01 230.82 283.08 230.71" fill="white"/>
<path d="M280.57 227.17C280.57 227.17 280.34 217.99 285.57 219.1C290.8 220.21 287.01 230.82 283.08 230.71" stroke="#263238" stroke-linecap="round" stroke-linejoin="round"/>
<path d="M264.42 278.71H183.79C182.89 278.71 182.16 279.44 182.16 280.34V283.15C182.16 284.05 182.89 284.78 183.79 284.78H264.42C265.32 284.78 266.05 284.05 266.05 283.15V280.34C266.05 279.44 265.32 278.71 264.42 278.71Z" fill="#FF9933" stroke="#263238" stroke-linecap="round" stroke-linejoin="round"/>
<path d="M64.7898 400.86H30.7798L34.3398 431.95H61.2298L64.7898 400.86Z" fill="#263238" stroke="#263238" stroke-linecap="round" stroke-linejoin="round"/>
<path d="M68.8201 379.22C68.8201 379.22 53.9701 380.39 53.3501 391.35C53.3501 391.35 68.3901 398.27 68.8201 379.22Z" fill="#FF9933" stroke="#263238" stroke-linecap="round" stroke-linejoin="round"/>
<path d="M39.44 381.94C39.44 381.94 31.14 370.72 17.73 376.47C17.73 376.47 25.92 390 39.44 381.94Z" fill="#FF9933" stroke="#263238" stroke-linecap="round" stroke-linejoin="round"/>
<path d="M18.8698 346.52C18.8698 346.52 16.4798 368.1 36.1298 362.16C36.1298 362.16 29.8898 346.29 18.8698 346.52Z" fill="#FF9933" stroke="#263238" stroke-linecap="round" stroke-linejoin="round"/>
<path d="M43.0001 334.5C43.0001 334.5 27.4601 342.88 38.8901 355.6C38.8801 355.6 49.7701 346.51 43.0001 334.5Z" fill="#FF9933" stroke="#263238" stroke-linecap="round" stroke-linejoin="round"/>
<path d="M62.11 353.79C62.11 353.79 45.21 352.08 45.21 367.72C45.21 367.72 62.11 368.39 62.11 353.79Z" fill="#FF9933" stroke="#263238" stroke-linecap="round" stroke-linejoin="round"/>
<path d="M46.1798 413.67C46.1798 413.67 53.8798 397.51 46.4898 381.05C39.0998 364.59 36.5898 350.72 40.4898 340.95" stroke="#263238" stroke-linecap="round" stroke-linejoin="round"/>
<path d="M56.56 358C56.56 358 46.43 362 43 372.45" stroke="#263238" stroke-linecap="round" stroke-linejoin="round"/>
<path d="M24.21 355.15C24.21 355.15 30.06 363.15 39.97 362.26" stroke="#263238" stroke-linecap="round" stroke-linejoin="round"/>
<path d="M24.21 378.77C24.21 378.77 40.41 383.43 46.85 381.91" stroke="#263238" stroke-linecap="round" stroke-linejoin="round"/>
<path d="M64.0002 384.15C64.0002 384.15 56.7502 392.15 49.4702 391.98" stroke="#263238" stroke-linecap="round" stroke-linejoin="round"/>
<path d="M66.2498 400.17H29.3198V404.56H66.2498V400.17Z" fill="#263238" stroke="#263238" stroke-linecap="round" stroke-linejoin="round"/>
<path d="M334.24 372C325.607 377.64 318.362 385.161 313.05 394C304.24 408.7 297.26 429.38 308.1 432L318.41 431.61L338.25 424.8L336.17 420.8C336.17 420.8 318.8 430 315.83 430C312.86 430 308.99 430.74 307.36 429.55C305.73 428.36 313.07 401.63 328.78 392.72C344.49 383.81 334.24 372 334.24 372Z" fill="#FF9933"/>
<mask id="mask8_209_302" style="mask-type:luminance" maskUnits="userSpaceOnUse" x="302" y="372" width="37" height="60">
<path d="M334.24 372C325.607 377.64 318.362 385.161 313.05 394C304.24 408.7 297.26 429.38 308.1 432L318.41 431.61L338.25 424.8L336.17 420.8C336.17 420.8 318.8 430 315.83 430C312.86 430 308.99 430.74 307.36 429.55C305.73 428.36 313.07 401.63 328.78 392.72C344.49 383.81 334.24 372 334.24 372Z" fill="white"/>
</mask>
<g mask="url(#mask8_209_302)">
<path opacity="0.5" d="M334.24 372C325.607 377.64 318.362 385.161 313.05 394C304.24 408.7 297.26 429.38 308.1 432L318.41 431.61L338.25 424.8L336.17 420.8C336.17 420.8 318.8 430 315.83 430C312.86 430 308.99 430.74 307.36 429.55C305.73 428.36 313.07 401.63 328.78 392.72C344.49 383.81 334.24 372 334.24 372Z" fill="black" fill-opacity="0.7"/>
</g>
<path d="M334.24 372C325.607 377.64 318.362 385.161 313.05 394C304.24 408.7 297.26 429.38 308.1 432L318.41 431.61L338.25 424.8L336.17 420.8C336.17 420.8 318.8 430 315.83 430C312.86 430 308.99 430.74 307.36 429.55C305.73 428.36 313.07 401.63 328.78 392.72C344.49 383.81 334.24 372 334.24 372Z" stroke="#263238" stroke-linecap="round" stroke-linejoin="round"/>
<path d="M345.53 362.36C345.53 362.36 345.53 358.05 352.06 357.46C358.59 356.87 359.52 363.16 359.52 363.16H357.27C357.27 363.16 357.32 359.39 352.52 359.1C347.72 358.81 347.9 363.16 347.9 363.16L345.53 362.36Z" fill="#FF9933" stroke="#263238" stroke-linecap="round" stroke-linejoin="round"/>
<path d="M335.87 432C322.06 432 324.68 370.07 326.27 367C327.86 363.93 367.93 362.4 371.88 363.7C375.83 365 391.67 426.7 382.93 431.63L335.87 432Z" fill="#FF9933"/>
<mask id="mask9_209_302" style="mask-type:luminance" maskUnits="userSpaceOnUse" x="324" y="363" width="62" height="69">
<path d="M335.87 432C322.06 432 324.68 370.07 326.27 367C327.86 363.93 367.93 362.4 371.88 363.7C375.83 365 391.67 426.7 382.93 431.63L335.87 432Z" fill="white"/>
</mask>
<g mask="url(#mask9_209_302)">
<path opacity="0.2" d="M335.87 432C322.06 432 324.68 370.07 326.27 367C327.86 363.93 367.93 362.4 371.88 363.7C375.83 365 391.67 426.7 382.93 431.63L335.87 432Z" fill="black" fill-opacity="0.7"/>
</g>
<path d="M335.87 432C322.06 432 324.68 370.07 326.27 367C327.86 363.93 367.93 362.4 371.88 363.7C375.83 365 391.67 426.7 382.93 431.63L335.87 432Z" stroke="#263238" stroke-linecap="round" stroke-linejoin="round"/>
<path d="M326.27 366.93C331.27 368 334.15 388.27 340.88 393.43C347.61 398.59 379.34 397.48 382.93 393.43C386.52 389.38 379.5 366.64 374.4 363.16C369.3 359.68 365.67 363.06 351.32 361.47C330.05 359.1 326.27 366.93 326.27 366.93Z" fill="#FF9933" stroke="#263238" stroke-linecap="round" stroke-linejoin="round"/>
<path d="M362.69 378.58L368.57 383.38C368.65 383.448 368.716 383.531 368.764 383.625C368.812 383.719 368.841 383.821 368.85 383.926C368.858 384.031 368.846 384.137 368.813 384.237C368.781 384.337 368.729 384.43 368.66 384.51L364.08 389.45C363.934 389.595 363.736 389.677 363.53 389.677C363.324 389.677 363.126 389.595 362.98 389.45L357.13 384C356.987 383.852 356.907 383.655 356.907 383.45C356.907 383.245 356.987 383.047 357.13 382.9L361.66 378.69C361.789 378.549 361.964 378.459 362.154 378.439C362.344 378.419 362.535 378.469 362.69 378.58Z" fill="#FF9933"/>
<mask id="mask10_209_302" style="mask-type:luminance" maskUnits="userSpaceOnUse" x="356" y="378" width="13" height="12">
<path d="M362.69 378.58L368.57 383.38C368.65 383.448 368.716 383.531 368.764 383.625C368.812 383.719 368.841 383.821 368.85 383.926C368.858 384.031 368.846 384.137 368.813 384.237C368.781 384.337 368.729 384.43 368.66 384.51L364.08 389.45C363.934 389.595 363.736 389.677 363.53 389.677C363.324 389.677 363.126 389.595 362.98 389.45L357.13 384C356.987 383.852 356.907 383.655 356.907 383.45C356.907 383.245 356.987 383.047 357.13 382.9L361.66 378.69C361.789 378.549 361.964 378.459 362.154 378.439C362.344 378.419 362.535 378.469 362.69 378.58Z" fill="white"/>
</mask>
<g mask="url(#mask10_209_302)">
<path opacity="0.2" d="M362.69 378.58L368.57 383.38C368.65 383.448 368.716 383.531 368.764 383.625C368.812 383.719 368.841 383.821 368.85 383.926C368.858 384.031 368.846 384.137 368.813 384.237C368.781 384.337 368.729 384.43 368.66 384.51L364.08 389.45C363.934 389.595 363.736 389.677 363.53 389.677C363.324 389.677 363.126 389.595 362.98 389.45L357.13 384C356.987 383.852 356.907 383.655 356.907 383.45C356.907 383.245 356.987 383.047 357.13 382.9L361.66 378.69C361.789 378.549 361.964 378.459 362.154 378.439C362.344 378.419 362.535 378.469 362.69 378.58Z" fill="black" fill-opacity="0.7"/>
</g>
<path d="M362.69 378.58L368.57 383.38C368.65 383.448 368.716 383.531 368.764 383.625C368.812 383.719 368.841 383.821 368.85 383.926C368.858 384.031 368.846 384.137 368.813 384.237C368.781 384.337 368.729 384.43 368.66 384.51L364.08 389.45C363.934 389.595 363.736 389.677 363.53 389.677C363.324 389.677 363.126 389.595 362.98 389.45L357.13 384C356.987 383.852 356.907 383.655 356.907 383.45C356.907 383.245 356.987 383.047 357.13 382.9L361.66 378.69C361.789 378.549 361.964 378.459 362.154 378.439C362.344 378.419 362.535 378.469 362.69 378.58Z" stroke="#263238" stroke-linecap="round" stroke-linejoin="round"/>
<path d="M343.3 403.79C343.3 403.79 369.88 405.98 382.93 402.6C384.676 403.974 385.974 405.836 386.66 407.95C387.85 411.51 390.33 423.69 382.93 426.81C375.53 429.93 348.93 429.33 345.38 425.81C341.83 422.29 343.3 403.79 343.3 403.79Z" fill="#FF9933"/>
<mask id="mask11_209_302" style="mask-type:luminance" maskUnits="userSpaceOnUse" x="342" y="402" width="47" height="27">
<path d="M343.3 403.79C343.3 403.79 369.88 405.98 382.93 402.6C384.676 403.974 385.974 405.836 386.66 407.95C387.85 411.51 390.33 423.69 382.93 426.81C375.53 429.93 348.93 429.33 345.38 425.81C341.83 422.29 343.3 403.79 343.3 403.79Z" fill="white"/>
</mask>
<g mask="url(#mask11_209_302)">
<path opacity="0.4" d="M343.3 403.79C343.3 403.79 369.88 405.98 382.93 402.6C384.676 403.974 385.974 405.836 386.66 407.95C387.85 411.51 390.33 423.69 382.93 426.81C375.53 429.93 348.93 429.33 345.38 425.81C341.83 422.29 343.3 403.79 343.3 403.79Z" fill="black" fill-opacity="0.7"/>
</g>
<path d="M343.3 403.79C343.3 403.79 369.88 405.98 382.93 402.6C384.676 403.974 385.974 405.836 386.66 407.95C387.85 411.51 390.33 423.69 382.93 426.81C375.53 429.93 348.93 429.33 345.38 425.81C341.83 422.29 343.3 403.79 343.3 403.79Z" stroke="#263238" stroke-linecap="round" stroke-linejoin="round"/>
<path d="M343.3 403.79C343.3 403.79 346.42 412.2 348.05 413.49C349.68 414.78 384.21 414.78 388.05 411.66C391.89 408.54 386.63 402.9 382.94 402.6C382.93 402.6 358.74 405.42 343.3 403.79Z" fill="#FF9933" stroke="#263238" stroke-linecap="round" stroke-linejoin="round"/>
<path d="M332.16 402C332.16 402 333.05 419.67 334.83 423.68C333.509 424.37 332.04 424.73 330.55 424.73C329.06 424.73 327.591 424.37 326.27 423.68C321.77 421.3 322.51 406.08 323.4 406.12C324.29 406.16 332.16 402 332.16 402Z" fill="#FF9933"/>
<mask id="mask12_209_302" style="mask-type:luminance" maskUnits="userSpaceOnUse" x="322" y="402" width="13" height="23">
<path d="M332.16 402C332.16 402 333.05 419.67 334.83 423.68C333.509 424.37 332.04 424.73 330.55 424.73C329.06 424.73 327.591 424.37 326.27 423.68C321.77 421.3 322.51 406.08 323.4 406.12C324.29 406.16 332.16 402 332.16 402Z" fill="white"/>
</mask>
<g mask="url(#mask12_209_302)">
<path opacity="0.4" d="M332.16 402C332.16 402 333.05 419.67 334.83 423.68C333.509 424.37 332.04 424.73 330.55 424.73C329.06 424.73 327.591 424.37 326.27 423.68C321.77 421.3 322.51 406.08 323.4 406.12C324.29 406.16 332.16 402 332.16 402Z" fill="black" fill-opacity="0.7"/>
</g>
<path d="M332.16 402C332.16 402 333.05 419.67 334.83 423.68C333.509 424.37 332.04 424.73 330.55 424.73C329.06 424.73 327.591 424.37 326.27 423.68C321.77 421.3 322.51 406.08 323.4 406.12C324.29 406.16 332.16 402 332.16 402Z" stroke="#263238" stroke-linecap="round" stroke-linejoin="round"/>
<path d="M332.16 402L325.47 403.34C325.47 403.34 319.09 408.24 321.91 409.87C324.73 411.5 332 407.5 332.16 402Z" fill="#FF9933" stroke="#263238" stroke-linecap="round" stroke-linejoin="round"/>
</g>
<defs>
<clipPath id="clip0_209_302">
<rect width="406" height="439" fill="white"/>
</clipPath>
</defs>
</svg>
