<svg width="540" height="583" viewBox="0 0 540 583" fill="none" xmlns="http://www.w3.org/2000/svg">
<g clip-path="url(#clip0_284_2)">
<path d="M144.252 14.9565C104.004 44.1217 77.8604 83.0087 77.8604 112.922C78.2044 154.426 122.236 213.131 153.196 213.131C164.892 213.131 190.692 200.044 186.908 195.931C185.876 194.809 178.996 195.931 171.084 198.174C151.132 203.783 141.844 200.044 123.268 177.609C102.628 153.304 95.0603 136.478 95.0603 116.287C95.0603 94.2261 105.38 75.1566 129.804 51.2261C164.204 17.2 189.66 8.59999 206.172 25.4261C215.116 34.4 224.06 35.8957 227.844 29.1652C229.564 26.5478 225.092 19.8174 217.18 12.3391C205.484 1.49564 201.7 -3.05176e-05 184.156 -3.05176e-05C166.956 -3.05176e-05 162.14 1.86954 144.252 14.9565Z" fill="#FF9933"/>
<path d="M323.477 13.0869C310.405 25.8 310.405 26.1739 316.597 31.7826C322.789 37.0173 324.165 36.6434 333.109 27.2956C351.341 8.59996 375.421 15.7043 410.853 50.8521C438.029 77.3999 445.941 91.6086 445.941 114.043C445.941 136.852 438.373 153.304 416.701 178.73C398.125 200.417 388.493 203.783 366.133 197.052C353.061 193.313 353.749 200.043 366.821 207.522C388.837 219.861 408.789 212.756 432.181 184.339C460.045 149.939 469.677 113.669 457.981 84.1304C451.445 66.1825 421.517 32.9043 396.749 14.9565C378.861 1.86952 374.045 -4.57764e-05 356.845 -4.57764e-05C338.957 -4.57764e-05 335.517 1.49561 323.477 13.0869Z" fill="#FF9933"/>
<path d="M241.26 25.7998C226.468 32.9041 208.58 53.0954 208.58 62.4433C208.58 65.8085 212.02 63.9389 219.244 56.4607C228.876 45.9911 256.396 33.652 270.5 33.652C283.916 33.652 312.124 45.6172 321.756 55.7128C336.892 71.0433 336.204 57.9563 321.412 41.878C299.052 18.6954 268.092 12.3389 241.26 25.7998Z" fill="#FF9933"/>
<path d="M221.308 158.165C183.124 212.757 170.052 262.487 183.124 304.365C188.284 320.818 219.244 362.696 226.124 362.696C227.844 362.696 225.092 353.722 220.276 343.252C207.548 316.331 205.828 285.296 215.116 256.878C218.9 244.913 220.276 236.313 218.556 237.809C213.052 241.174 203.076 268.844 199.98 287.913C197.572 302.87 196.884 303.618 194.476 295.391C186.564 266.226 193.444 234.818 218.556 179.852C226.468 163.026 232.316 148.07 231.628 147.322C230.94 146.2 226.124 151.435 221.308 158.165Z" fill="#FF9933"/>
<path d="M308.341 146.948C308.341 148.443 315.909 166.017 325.197 186.209C334.485 206.026 343.773 229.209 345.837 237.435C349.965 253.887 350.309 280.809 346.525 295.391C344.117 303.618 343.773 303.244 341.709 289.035C338.957 271.461 326.229 237.061 323.477 240.426C322.445 241.548 324.165 250.148 326.917 259.496C335.173 285.296 333.797 312.218 323.821 335.774C311.437 364.939 313.157 366.435 332.421 345.87C370.605 305.113 373.013 252.391 339.645 189.574C328.981 169.757 308.685 141.713 308.341 146.948Z" fill="#FF9933"/>
<path d="M233.692 221.357C238.852 243.792 246.42 304.739 248.484 342.879C249.86 367.183 252.268 385.131 254.332 385.131C258.116 385.131 255.02 269.218 250.548 233.696C248.484 217.618 246.764 215 239.884 213.879C233.004 212.757 231.972 213.505 233.692 221.357Z" fill="#FF9933"/>
<path d="M292.86 217.618C285.98 240.426 281.164 379.148 287.356 382.887C288.732 384.009 291.14 364.565 292.516 339.887C294.58 299.879 299.052 266.226 306.964 225.096C309.028 214.626 308.34 213.131 301.804 213.131C297.676 213.131 293.892 215.374 292.86 217.618Z" fill="#FF9933"/>
</g>
<path d="M99.5625 464.18H104.625V525H99.5625V464.18ZM119.812 464.18H124.875V525H119.812V464.18ZM109.688 464.18H114.75V525H109.688V464.18ZM94.5 464.18V525C85.5938 528.375 76.3594 530.062 66.7969 530.062C58.5 530.062 50.5547 528.539 42.9609 525.492C35.3672 522.445 28.6875 518.227 22.9219 512.836C17.1562 507.398 12.5391 500.695 9.07031 492.727C5.64844 484.711 3.9375 476.062 3.9375 466.781C3.9375 458.203 5.60156 450.023 8.92969 442.242C12.3047 434.414 16.8047 427.688 22.4297 422.062C28.1016 416.391 34.8281 411.891 42.6094 408.562C50.4375 405.188 58.6406 403.5 67.2188 403.5C77.9062 403.5 87.8438 405.984 97.0312 410.953C106.219 415.922 113.719 422.672 119.531 431.203L115.312 433.945C109.969 426.117 103.055 419.93 94.5703 415.383C86.1328 410.836 77.0156 408.562 67.2188 408.562C59.3438 408.562 51.7969 410.109 44.5781 413.203C37.4062 416.25 31.2188 420.375 26.0156 425.578C20.8125 430.781 16.6641 436.992 13.5703 444.211C10.5234 451.383 9 458.906 9 466.781C9 475.266 10.5703 483.188 13.7109 490.547C16.8984 497.906 21.1172 504.07 26.3672 509.039C31.6641 514.008 37.8047 517.922 44.7891 520.781C51.7734 523.594 59.0391 525 66.5859 525C74.5078 525 82.125 523.758 89.4375 521.273V516.422C82.4531 518.766 75.1172 519.938 67.4297 519.938C61.8516 519.938 56.4141 519.164 51.1172 517.617C45.8672 516.023 40.9922 513.703 36.4922 510.656C32.0391 507.562 28.125 503.906 24.75 499.688C21.4219 495.422 18.7969 490.477 16.875 484.852C15 479.18 14.0625 473.156 14.0625 466.781C14.0625 457.172 16.4297 448.289 21.1641 440.133C25.9453 431.977 32.4141 425.531 40.5703 420.797C48.7266 416.016 57.6094 413.625 67.2188 413.625C76.2188 413.625 84.5859 415.734 92.3203 419.953C100.055 424.125 106.359 429.797 111.234 436.969L107.016 439.711C102.609 433.242 96.8906 428.133 89.8594 424.383C82.875 420.586 75.3281 418.688 67.2188 418.688C60.7031 418.688 54.4688 419.953 48.5156 422.484C42.5625 425.016 37.4297 428.438 33.1172 432.75C28.8516 437.016 25.4531 442.125 22.9219 448.078C20.3906 454.031 19.125 460.266 19.125 466.781C19.125 472.641 19.9688 478.148 21.6562 483.305C23.3906 488.414 25.7578 492.891 28.7578 496.734C31.8047 500.531 35.3438 503.812 39.375 506.578C43.4062 509.297 47.7891 511.359 52.5234 512.766C57.3047 514.172 62.2031 514.875 67.2188 514.875C75 514.875 82.4062 513.562 89.4375 510.938V505.875C82.5 508.547 75.2578 509.883 67.7109 509.883C61.9922 509.883 56.5312 508.922 51.3281 507C46.125 505.031 41.4844 502.266 37.4062 498.703C33.375 495.141 30.1641 490.594 27.7734 485.062C25.3828 479.531 24.1875 473.438 24.1875 466.781C24.1875 459 26.1094 451.805 29.9531 445.195C33.7969 438.586 39.0234 433.359 45.6328 429.516C52.2422 425.672 59.4375 423.75 67.2188 423.75C74.4844 423.75 81.2344 425.438 87.4688 428.812C93.75 432.188 98.8594 436.781 102.797 442.594L98.5781 445.336C95.1094 440.273 90.6094 436.266 85.0781 433.312C79.5938 430.312 73.6406 428.812 67.2188 428.812C60.3281 428.812 53.9766 430.523 48.1641 433.945C42.3516 437.32 37.7344 441.914 34.3125 447.727C30.9375 453.539 29.25 459.891 29.25 466.781C29.25 471.562 29.9297 476.016 31.2891 480.141C32.6484 484.266 34.5234 487.828 36.9141 490.828C39.3047 493.828 42.0938 496.383 45.2812 498.492C48.5156 500.602 51.9844 502.195 55.6875 503.273C59.3906 504.305 63.2344 504.82 67.2188 504.82C75.1406 504.82 82.5469 503.25 89.4375 500.109V495.258C82.7812 498.211 75.5859 499.688 67.8516 499.688C63.3984 499.688 59.2031 499.008 55.2656 497.648C51.3281 496.289 47.7656 494.297 44.5781 491.672C41.4375 489.047 38.9297 485.602 37.0547 481.336C35.2266 477.023 34.3125 472.172 34.3125 466.781C34.3125 462.328 35.1797 458.086 36.9141 454.055C38.6484 449.977 40.9922 446.461 43.9453 443.508C46.8984 440.555 50.3906 438.211 54.4219 436.477C58.5 434.742 62.7656 433.875 67.2188 433.875C72.7969 433.875 77.9766 435.188 82.7578 437.812C87.5391 440.391 91.4297 443.906 94.4297 448.359L90.2812 451.102C87.75 447.352 84.4453 444.398 80.3672 442.242C76.3359 440.039 71.9531 438.938 67.2188 438.938C59.5312 438.938 52.9688 441.656 47.5312 447.094C42.0938 452.531 39.375 459.094 39.375 466.781C39.375 471.516 40.1484 475.711 41.6953 479.367C43.2422 482.977 45.3516 485.883 48.0234 488.086C50.7422 490.242 53.7422 491.883 57.0234 493.008C60.3516 494.086 63.9141 494.625 67.7109 494.625C75.4922 494.625 82.7344 493.008 89.4375 489.773V464.18H94.5ZM403.664 468.961L398.602 460.594V408.562H403.664V468.961ZM413.789 485.555L408.727 477.047V408.562H413.789V485.555ZM423.914 502.359L418.852 493.781V408.562H423.914V502.359ZM351.352 464.602L356.414 472.969V525H351.352V464.602ZM341.227 448.008L346.289 456.516V525H341.227V448.008ZM331.102 431.203L336.164 439.781V525H331.102V431.203ZM332.859 408.562H338.766L410.344 525H404.438L332.859 408.562ZM344.812 408.562H350.789L422.297 525H416.25L344.812 408.562ZM356.695 408.562H362.602L428.977 516.773V408.562H434.039V525C434.039 525 432.047 525 428.062 525L356.695 408.562ZM326.039 416.789V525H320.977V408.562C320.977 408.562 322.992 408.562 327.023 408.562L398.391 525H392.555L326.039 416.789ZM494.438 454.125H485.93C482.32 454.125 479.719 453.211 478.125 451.383C476.531 449.508 475.734 447.047 475.734 444C475.734 437.25 480.773 433.875 490.852 433.875C500.32 433.875 507.445 435.281 512.227 438.094L508.148 441.188C504.867 439.688 499.102 438.938 490.852 438.938C486.82 438.938 484.102 439.383 482.695 440.273C481.336 441.164 480.656 442.406 480.656 444C480.656 445.594 481.031 446.836 481.781 447.727C482.531 448.617 483.914 449.062 485.93 449.062H494.648C500.977 449.062 506.672 450.141 511.734 452.297C516.844 454.453 521.039 457.406 524.32 461.156C527.602 464.859 530.109 469.148 531.844 474.023C533.578 478.852 534.445 484.031 534.445 489.562C534.445 494.062 533.812 498.328 532.547 502.359C531.281 506.391 529.359 510.094 526.781 513.469C524.25 516.844 521.18 519.773 517.57 522.258C514.008 524.695 509.742 526.594 504.773 527.953C499.852 529.359 494.508 530.062 488.742 530.062C479.695 530.062 471.211 528.68 463.289 525.914C455.414 523.195 448.852 519.375 443.602 514.453L447.68 511.43C452.461 515.742 458.438 519.094 465.609 521.484C472.828 523.828 480.539 525 488.742 525C495.164 525 500.953 524.086 506.109 522.258C511.312 520.383 515.578 517.828 518.906 514.594C522.281 511.359 524.859 507.609 526.641 503.344C528.469 499.078 529.383 494.484 529.383 489.562C529.383 483.047 528.07 477.164 525.445 471.914C522.82 466.617 518.812 462.328 513.422 459.047C508.078 455.766 501.75 454.125 494.438 454.125ZM485.93 459.188H493.945C503.461 459.188 510.891 462.094 516.234 467.906C521.625 473.719 524.32 480.938 524.32 489.562C524.32 498.328 521.203 505.594 514.969 511.359C508.734 517.078 499.992 519.938 488.742 519.938C481.242 519.938 474.234 518.906 467.719 516.844C461.203 514.781 455.789 511.875 451.477 508.125L455.414 504.961C459.258 508.102 464.086 510.539 469.898 512.273C475.758 514.008 482.039 514.875 488.742 514.875C498.633 514.875 506.18 512.508 511.383 507.773C516.633 503.039 519.258 496.969 519.258 489.562C519.258 482.25 517.055 476.203 512.648 471.422C508.289 466.641 502.031 464.25 493.875 464.25H485.93C479.086 464.25 473.953 462.375 470.531 458.625C467.109 454.875 465.398 450 465.398 444C465.398 438 467.508 433.125 471.727 429.375C475.992 425.625 482.367 423.75 490.852 423.75C496.805 423.75 502.336 424.453 507.445 425.859C512.555 427.219 516.773 429.188 520.102 431.766L516.094 434.859C510.234 430.828 501.82 428.812 490.852 428.812C483.773 428.812 478.594 430.219 475.312 433.031C472.078 435.797 470.461 439.453 470.461 444C470.461 448.594 471.656 452.273 474.047 455.039C476.484 457.805 480.445 459.188 485.93 459.188ZM485.93 469.312H493.664C500.508 469.312 505.641 471.211 509.062 475.008C512.484 478.805 514.195 483.656 514.195 489.562C514.195 495.562 512.062 500.438 507.797 504.188C503.578 507.938 497.227 509.812 488.742 509.812C482.789 509.812 477.234 509.133 472.078 507.773C466.969 506.367 462.75 504.375 459.422 501.797L463.43 498.703C469.289 502.734 477.727 504.75 488.742 504.75C495.82 504.75 500.977 503.367 504.211 500.602C507.492 497.789 509.133 494.109 509.133 489.562C509.133 485.016 507.914 481.359 505.477 478.594C503.039 475.781 499.078 474.375 493.594 474.375H485.93C476.32 474.375 468.797 471.516 463.359 465.797C457.969 460.031 455.273 452.766 455.273 444C455.273 435.234 458.391 427.992 464.625 422.273C470.859 416.508 479.602 413.625 490.852 413.625C498.352 413.625 505.336 414.656 511.805 416.719C518.32 418.781 523.734 421.688 528.047 425.438L524.109 428.602C520.266 425.461 515.438 423.023 509.625 421.289C503.812 419.555 497.555 418.688 490.852 418.688C480.961 418.688 473.391 421.055 468.141 425.789C462.938 430.523 460.336 436.594 460.336 444C460.336 451.359 462.539 457.43 466.945 462.211C471.352 466.945 477.68 469.312 485.93 469.312ZM485.93 479.438H493.664C497.273 479.438 499.875 480.375 501.469 482.25C503.062 484.125 503.859 486.562 503.859 489.562C503.859 496.312 498.82 499.688 488.742 499.688C479.227 499.688 472.078 498.281 467.297 495.469L471.375 492.375C474.656 493.875 480.445 494.625 488.742 494.625C492.773 494.625 495.469 494.18 496.828 493.289C498.234 492.398 498.938 491.156 498.938 489.562C498.938 488.016 498.539 486.797 497.742 485.906C496.992 484.969 495.586 484.5 493.523 484.5H485.93C479.461 484.5 473.602 483.445 468.352 481.336C463.148 479.227 458.859 476.32 455.484 472.617C452.156 468.914 449.602 464.625 447.82 459.75C446.039 454.875 445.148 449.625 445.148 444C445.148 439.5 445.781 435.234 447.047 431.203C448.312 427.172 450.211 423.469 452.742 420.094C455.32 416.719 458.391 413.812 461.953 411.375C465.562 408.891 469.828 406.969 474.75 405.609C479.719 404.203 485.086 403.5 490.852 403.5C499.898 403.5 508.359 404.883 516.234 407.648C524.109 410.367 530.672 414.188 535.922 419.109L531.844 422.133C527.062 417.82 521.086 414.492 513.914 412.148C506.742 409.758 499.055 408.562 490.852 408.562C484.43 408.562 478.617 409.5 473.414 411.375C468.258 413.203 463.992 415.734 460.617 418.969C457.289 422.203 454.711 425.953 452.883 430.219C451.102 434.484 450.211 439.078 450.211 444C450.211 450.609 451.547 456.562 454.219 461.859C456.891 467.156 460.969 471.422 466.453 474.656C471.938 477.844 478.43 479.438 485.93 479.438Z" fill="black"/>
<path d="M187.594 490.828L189.633 485.766H206.93L208.969 490.828H187.594ZM183.656 500.953L185.625 495.891H210.867L213.047 500.953H183.656ZM179.719 511.078L181.688 506.016H214.875L216.984 511.078H179.719ZM138.586 525H133.102L179.156 408.562H184.641L230.625 525H225.211L181.898 415.383L138.586 525ZM182.531 427.406L185.414 433.875L149.414 525H144L182.531 427.406ZM188.156 440.766L190.828 447.727L160.383 525H154.898L188.156 440.766ZM193.5 454.688L196.172 461.789L171.211 525H165.797L193.5 454.688ZM263.32 525H257.836L211.852 408.562H217.266L263.32 525ZM206.367 408.562L252.422 525H247.008L200.953 408.562H206.367ZM195.469 408.562L241.523 525H236.039L190.055 408.562H195.469ZM302.555 408.562H307.617V525H302.555V408.562ZM292.43 408.562H297.492V525H292.43V408.562ZM282.305 408.562H287.367V525H282.305V408.562ZM272.18 408.562H277.242V525H272.18V408.562Z" fill="#FF9933"/>
<defs>
<clipPath id="clip0_284_2">
<rect width="387" height="387" fill="white" transform="translate(77)"/>
</clipPath>
</defs>
</svg>
