<svg width="427" height="444" viewBox="0 0 427 444" fill="none" xmlns="http://www.w3.org/2000/svg">
<g clip-path="url(#clip0_209_97)">
<path opacity="0.7" d="M25.9295 138.09C25.9295 138.09 -1.95049 210.09 37.2295 282.59C76.4095 355.09 157.11 393.39 221.7 426.14C286.289 458.89 353.36 442.94 385.23 389.3C417.1 335.66 373.389 297.37 373.329 220.88C373.27 144.39 384.78 124.14 343.329 59.52C301.879 -5.09999 200.27 -19.41 123.429 28.52C46.5895 76.45 25.9295 138.09 25.9295 138.09Z" fill="white"/>
<path d="M21.69 110.16C48.4 58.32 98 19.1 159.75 13.58C202.22 9.87695 244.547 22.1227 278.48 47.93C295.34 60.93 310.32 77.48 320.27 96.37C331.69 118.07 335.02 143.09 346.77 164.69C361.38 191.54 388.82 202.62 407.25 225.82C422.42 244.93 427.63 270.54 425.89 294.88C422.71 339.31 396.68 381.49 358.39 404.26C326.02 423.51 287 428.82 249.39 427.07C191.39 424.38 133.65 405.25 87.97 369.42C42.29 333.59 9.45996 280.62 1.67996 223.09C-3.61004 184 4.07996 144.33 21.69 110.16Z" fill="#FF9933"/>
<path opacity="0.7" d="M21.69 110.16C48.4 58.32 98 19.1 159.75 13.58C202.22 9.87695 244.547 22.1227 278.48 47.93C295.34 60.93 310.32 77.48 320.27 96.37C331.69 118.07 335.02 143.09 346.77 164.69C361.38 191.54 388.82 202.62 407.25 225.82C422.42 244.93 427.63 270.54 425.89 294.88C422.71 339.31 396.68 381.49 358.39 404.26C326.02 423.51 287 428.82 249.39 427.07C191.39 424.38 133.65 405.25 87.97 369.42C42.29 333.59 9.45996 280.62 1.67996 223.09C-3.61004 184 4.07996 144.33 21.69 110.16Z" fill="white"/>
<path d="M4.06934 129.11C5.24934 133.79 4.66934 125.18 6.97934 114.66C9.28934 104.14 13.2593 108.4 13.2593 108.4" stroke="#263238" stroke-linecap="round" stroke-linejoin="round"/>
<path d="M3.34961 118.36L10.5996 115.39" stroke="#263238" stroke-linecap="round" stroke-linejoin="round"/>
<path d="M16.59 111.82C16.59 111.82 12.26 120.82 18.79 124.6" stroke="#263238" stroke-linecap="round" stroke-linejoin="round"/>
<path d="M22.7393 109.3C22.7393 109.3 29.8993 113.3 25.4193 121.88" stroke="#263238" stroke-linecap="round" stroke-linejoin="round"/>
<path d="M17.8398 114.86L22.9698 118.6" stroke="#263238" stroke-linecap="round" stroke-linejoin="round"/>
<path d="M21.8596 113.21L17.8496 119.6" stroke="#263238" stroke-linecap="round" stroke-linejoin="round"/>
<path d="M44.8965 208.984C45.8723 203.038 41.8432 197.427 35.8974 196.451C29.9515 195.475 24.3403 199.504 23.3645 205.45C22.3887 211.396 26.4178 217.007 32.3636 217.983C38.3095 218.959 43.9207 214.93 44.8965 208.984Z" stroke="#263238" stroke-linecap="round" stroke-linejoin="round"/>
<path d="M51.3686 223.338C57.9149 221.995 62.1335 215.6 60.7909 209.053C59.4483 202.507 53.053 198.289 46.5066 199.631C39.9602 200.974 35.7417 207.369 37.0843 213.915C38.4269 220.462 44.8222 224.68 51.3686 223.338Z" stroke="#263238" stroke-linecap="round" stroke-linejoin="round"/>
<path d="M44.0698 202.71L39.0498 204.5" stroke="#263238" stroke-linecap="round" stroke-linejoin="round"/>
<path d="M44.7698 204.78L37.5498 207.39" stroke="#263238" stroke-linecap="round" stroke-linejoin="round"/>
<path d="M45.0395 207.28L36.9795 210.38" stroke="#263238" stroke-linecap="round" stroke-linejoin="round"/>
<path d="M44.4691 210.69L37.1191 214.05" stroke="#263238" stroke-linecap="round" stroke-linejoin="round"/>
<path d="M43.1698 213.31L37.5898 215.63" stroke="#263238" stroke-linecap="round" stroke-linejoin="round"/>
<path d="M39.3997 190.59C39.0897 189.59 35.5497 188.97 35.3997 191.59C35.2497 194.21 39.1297 192.03 40.2297 190.59C40.2297 190.59 38.2297 193.28 39.0697 193.81" stroke="#263238" stroke-linecap="round" stroke-linejoin="round"/>
<path d="M58.9994 193.85L55.8594 200.38C55.8594 200.38 57.4294 197.11 59.1094 197.38C61.1794 197.75 59.7994 201.14 57.2994 199.89" stroke="#263238" stroke-linecap="round" stroke-linejoin="round"/>
<path d="M400.71 300.47L405.64 305.13" stroke="#263238" stroke-linecap="round" stroke-linejoin="round"/>
<path d="M405.64 299.25L401.51 305.42" stroke="#263238" stroke-linecap="round" stroke-linejoin="round"/>
<path d="M410.489 301.02L415.429 299.18" stroke="#263238" stroke-linecap="round" stroke-linejoin="round"/>
<path d="M417.8 294.04L420.8 296.69" stroke="#263238" stroke-linecap="round" stroke-linejoin="round"/>
<path d="M423.1 290.85L419.3 303.89" stroke="#263238" stroke-linecap="round" stroke-linejoin="round"/>
<path d="M192.97 227.22L206.24 218.09L223.81 219.32L224.91 241.6L212.01 250.82L196.09 249.66L192.97 227.22Z" stroke="#263238" stroke-linecap="round" stroke-linejoin="round"/>
<path d="M196.09 249.66L208.94 240.41L224.91 241.6" stroke="#263238" stroke-linecap="round" stroke-linejoin="round"/>
<path d="M208.939 240.41L206.239 218.09" stroke="#263238" stroke-linecap="round" stroke-linejoin="round"/>
<path d="M192.97 227.22L210.5 229.25L223.81 219.32" stroke="#263238" stroke-linecap="round" stroke-linejoin="round"/>
<path d="M210.5 229.25L212.01 250.82" stroke="#263238" stroke-linecap="round" stroke-linejoin="round"/>
<path d="M347.85 152.37L341.97 170.64L360.27 168.17L347.85 152.37Z" stroke="#263238" stroke-linecap="round" stroke-linejoin="round"/>
<path d="M347.85 152.37L351.12 169.3" stroke="#263238" stroke-linecap="round" stroke-linejoin="round"/>
<path d="M350.6 166.59L352.74 166.25L353.24 169.12" stroke="#263238" stroke-linecap="round" stroke-linejoin="round"/>
<path d="M117.39 319.56L126.53 324.05" stroke="#263238" stroke-linecap="round" stroke-linejoin="round"/>
<path d="M123.58 316.13L120.96 325.68" stroke="#263238" stroke-linecap="round" stroke-linejoin="round"/>
<path d="M124.85 311.47C125 311.315 125.184 311.197 125.387 311.126C125.591 311.055 125.809 311.032 126.023 311.06C126.237 311.089 126.441 311.167 126.619 311.288C126.798 311.41 126.945 311.571 127.05 311.76C127.97 313.2 126.17 316.22 126.17 316.22L129.84 314.82" stroke="#263238" stroke-linecap="round" stroke-linejoin="round"/>
<path d="M189.15 5C197.88 9.91 187.88 21.91 187.88 28.91C187.88 35.91 197.88 34.91 202.88 36.91C204.88 36.91 208.88 36.91 208.77 41.99" stroke="#263238" stroke-linecap="round" stroke-linejoin="round"/>
<path d="M179.42 11.37C180.94 19.64 190.42 16.71 196.24 18.6C206.24 21.85 200.69 32.17 197.71 38.41C195.92 42.13 194.14 47.35 197.34 50.88" stroke="#263238" stroke-linecap="round" stroke-linejoin="round"/>
<path d="M180.699 14.58L191.109 5.92999" stroke="#263238" stroke-linecap="round" stroke-linejoin="round"/>
<path d="M184.779 17.16L192.619 10.66" stroke="#263238" stroke-linecap="round" stroke-linejoin="round"/>
<path d="M189.39 23.74L196.01 18.54" stroke="#263238" stroke-linecap="round" stroke-linejoin="round"/>
<path d="M188.02 31.52L200.96 22.22" stroke="#263238" stroke-linecap="round" stroke-linejoin="round"/>
<path d="M192.979 35.15L201.999 28.53" stroke="#263238" stroke-linecap="round" stroke-linejoin="round"/>
<path d="M196.819 49.22L208.089 40.04" stroke="#263238" stroke-linecap="round" stroke-linejoin="round"/>
<path d="M197.1 42L204.45 36.83" stroke="#263238" stroke-linecap="round" stroke-linejoin="round"/>
<path d="M49.9505 324.542C60.6882 320.247 65.9113 308.061 61.6165 297.323C57.3217 286.585 45.1354 281.362 34.3976 285.657C23.6598 289.951 18.4367 302.138 22.7315 312.876C27.0263 323.613 39.2127 328.836 49.9505 324.542Z" stroke="#263238" stroke-linecap="round" stroke-linejoin="round"/>
<path d="M47.4395 284.84C54.7395 276.27 60.9495 271.42 63.3395 273C66.9795 275.39 60.4495 291.71 48.7595 309.44C37.0695 327.17 24.6395 339.61 20.9995 337.21C18.5995 335.64 20.6195 328.02 25.6195 317.93" stroke="#263238" stroke-linecap="round" stroke-linejoin="round"/>
<path d="M21.6799 309.4C11.4999 306.47 4.99993 303.05 5.40993 300.32C5.99993 296 23.5899 295 44.5999 298.15C65.6099 301.3 82.1299 307.27 81.4999 311.57C81.0499 314.57 72.4999 315.94 60.3499 315.48" stroke="#263238" stroke-linecap="round" stroke-linejoin="round"/>
<path d="M24.3492 294.23C16.6692 280.37 12.8292 269.56 15.4292 267.87C18.8492 265.66 32.0692 280 44.9592 299.87C57.8492 319.74 65.5192 337.7 62.1092 339.92C59.8492 341.38 53.2992 335.6 45.3892 325.76" stroke="#263238" stroke-linecap="round" stroke-linejoin="round"/>
<path d="M66.29 282.06C65.9171 282.628 65.3842 283.074 64.7584 283.339C64.1327 283.605 63.4422 283.68 62.7742 283.553C62.1063 283.427 61.4907 283.105 61.0053 282.629C60.5198 282.153 60.1863 281.544 60.0468 280.879C59.9073 280.214 59.9681 279.522 60.2215 278.891C60.4749 278.26 60.9095 277.719 61.4705 277.334C62.0315 276.95 62.6937 276.741 63.3735 276.733C64.0533 276.725 64.7202 276.919 65.29 277.29C65.6695 277.537 65.9965 277.856 66.2523 278.23C66.5081 278.604 66.6875 279.024 66.7804 279.467C66.8733 279.91 66.8778 280.368 66.7937 280.813C66.7095 281.257 66.5384 281.681 66.29 282.06Z" fill="#263238"/>
<path d="M54.8994 334.75C54.5265 335.318 53.9935 335.764 53.3678 336.029C52.7421 336.295 52.0516 336.37 51.3836 336.243C50.7156 336.117 50.1001 335.795 49.6146 335.32C49.1292 334.844 48.7957 334.234 48.6562 333.569C48.5167 332.904 48.5775 332.212 48.8309 331.581C49.0843 330.95 49.5189 330.409 50.0799 330.025C50.6409 329.641 51.3031 329.431 51.9829 329.423C52.6627 329.416 53.3296 329.609 53.8994 329.98C54.2789 330.227 54.6059 330.546 54.8617 330.92C55.1174 331.294 55.2969 331.714 55.3898 332.157C55.4827 332.601 55.4872 333.058 55.4031 333.503C55.3189 333.947 55.1477 334.371 54.8994 334.75Z" fill="#263238"/>
<path d="M36.5195 299C36.1466 299.568 35.6137 300.014 34.9879 300.279C34.3622 300.545 33.6717 300.62 33.0037 300.493C32.3358 300.367 31.7202 300.045 31.2348 299.57C30.7493 299.094 30.4158 298.484 30.2763 297.819C30.1368 297.154 30.1976 296.462 30.451 295.831C30.7044 295.2 31.139 294.659 31.7 294.275C32.261 293.891 32.9232 293.681 33.603 293.673C34.2828 293.666 34.9497 293.859 35.5195 294.23C36.2838 294.731 36.8184 295.514 37.0059 296.408C37.1934 297.302 37.0184 298.235 36.5195 299Z" fill="#263238"/>
<path d="M255.829 149.32H267.609L273.499 139.12L267.609 128.92H255.829L249.939 139.12L255.829 149.32Z" stroke="#263238" stroke-linecap="round" stroke-linejoin="round"/>
<path d="M254.119 171.71L248.229 161.51H236.449" stroke="#263238" stroke-linecap="round" stroke-linejoin="round"/>
<path d="M238.03 139.12H249.81L255.7 128.92L249.81 118.71H238.03L232.14 128.92L238.03 139.12Z" stroke="#263238" stroke-linecap="round" stroke-linejoin="round"/>
<path d="M255.829 128.92H267.609L273.499 118.71L267.609 108.51H255.829L249.939 118.71L255.829 128.92Z" stroke="#263238" stroke-linecap="round" stroke-linejoin="round"/>
<path d="M255.699 130.5C256.572 130.5 257.279 129.793 257.279 128.92C257.279 128.047 256.572 127.34 255.699 127.34C254.827 127.34 254.119 128.047 254.119 128.92C254.119 129.793 254.827 130.5 255.699 130.5Z" fill="#263238"/>
<path d="M231.1 109.08C231.972 109.08 232.68 108.373 232.68 107.5C232.68 106.627 231.972 105.92 231.1 105.92C230.227 105.92 229.52 106.627 229.52 107.5C229.52 108.373 230.227 109.08 231.1 109.08Z" fill="#263238"/>
<path d="M252.54 171.71C252.54 171.398 252.633 171.092 252.806 170.832C252.98 170.572 253.227 170.37 253.515 170.25C253.804 170.131 254.122 170.099 254.428 170.16C254.735 170.221 255.016 170.372 255.237 170.593C255.458 170.814 255.609 171.095 255.67 171.402C255.731 171.708 255.699 172.026 255.58 172.315C255.46 172.603 255.258 172.85 254.998 173.024C254.738 173.197 254.433 173.29 254.12 173.29C253.913 173.29 253.707 173.249 253.515 173.17C253.324 173.09 253.15 172.974 253.003 172.827C252.856 172.681 252.74 172.506 252.66 172.315C252.581 172.123 252.54 171.918 252.54 171.71Z" fill="#263238"/>
<path d="M236.449 163.09C237.322 163.09 238.029 162.383 238.029 161.51C238.029 160.637 237.322 159.93 236.449 159.93C235.577 159.93 234.869 160.637 234.869 161.51C234.869 162.383 235.577 163.09 236.449 163.09Z" fill="#263238"/>
<path d="M284.899 119C284.899 118.685 284.993 118.377 285.168 118.116C285.343 117.854 285.592 117.65 285.883 117.53C286.174 117.41 286.495 117.379 286.803 117.441C287.112 117.503 287.395 117.656 287.617 117.879C287.839 118.103 287.99 118.387 288.05 118.696C288.11 119.005 288.077 119.325 287.956 119.615C287.834 119.906 287.628 120.153 287.366 120.327C287.103 120.5 286.794 120.592 286.479 120.59C286.271 120.59 286.065 120.549 285.872 120.469C285.68 120.389 285.506 120.271 285.359 120.124C285.212 119.976 285.096 119.801 285.017 119.608C284.938 119.415 284.898 119.208 284.899 119Z" fill="#263238"/>
<path d="M248.109 163.09C248.982 163.09 249.689 162.383 249.689 161.51C249.689 160.637 248.982 159.93 248.109 159.93C247.237 159.93 246.529 160.637 246.529 161.51C246.529 162.383 247.237 163.09 248.109 163.09Z" fill="#263238"/>
<path d="M271.92 119C271.92 118.686 272.013 118.378 272.188 118.117C272.363 117.855 272.611 117.651 272.901 117.531C273.192 117.411 273.512 117.379 273.82 117.441C274.129 117.502 274.412 117.653 274.634 117.876C274.857 118.098 275.008 118.381 275.069 118.69C275.131 118.998 275.099 119.318 274.979 119.608C274.859 119.899 274.655 120.147 274.393 120.322C274.132 120.497 273.824 120.59 273.51 120.59C273.088 120.59 272.684 120.423 272.386 120.124C272.087 119.826 271.92 119.422 271.92 119Z" fill="#263238"/>
<path d="M254.119 149.33C254.117 149.015 254.209 148.706 254.383 148.443C254.557 148.18 254.805 147.975 255.096 147.853C255.387 147.731 255.708 147.699 256.017 147.76C256.326 147.821 256.61 147.973 256.833 148.196C257.056 148.419 257.208 148.703 257.269 149.012C257.33 149.322 257.298 149.642 257.176 149.933C257.055 150.224 256.849 150.472 256.586 150.646C256.323 150.82 256.015 150.912 255.699 150.91C255.281 150.907 254.881 150.74 254.585 150.444C254.289 150.149 254.122 149.748 254.119 149.33Z" fill="#263238"/>
<path d="M273.51 118.98H286.48" stroke="#263238" stroke-linecap="round" stroke-linejoin="round"/>
<path d="M255.699 149.33L248.109 161.51" stroke="#263238" stroke-linecap="round" stroke-linejoin="round"/>
<path d="M238.03 118.71L231.1 107.5" stroke="#263238" stroke-linecap="round" stroke-linejoin="round"/>
<path d="M321.58 78.4999C322.939 73.9074 325.771 69.8895 329.639 67.0658C333.507 64.2422 338.197 62.7697 342.986 62.8754C347.774 62.9812 352.394 64.6594 356.134 67.6511C359.874 70.6428 362.526 74.7819 363.68 79.4299" stroke="#263238" stroke-linecap="round" stroke-linejoin="round"/>
<path d="M340 106.34C334.679 105.731 329.769 103.186 326.204 99.1897C322.639 95.1934 320.67 90.0252 320.67 84.67" stroke="#263238" stroke-linecap="round" stroke-linejoin="round"/>
<path d="M364.31 84.67C364.31 90.4527 362.013 95.9986 357.925 100.089C353.837 104.178 348.292 106.477 342.51 106.48" stroke="#263238" stroke-linecap="round" stroke-linejoin="round"/>
<path d="M365.55 70.84C372.37 69.97 376.94 70.44 377.65 72.48C379.06 76.54 364.47 85.29 345.06 92.03C325.65 98.77 308.78 100.93 307.36 96.86C306.61 94.69 310.43 91.18 317.11 87.35" stroke="#263238" stroke-linecap="round" stroke-linejoin="round"/>
<path d="M248.11 55.9L250.2 60.13L254.87 60.81L251.49 64.11L252.29 68.76L248.11 66.56L243.93 68.76L244.73 64.11L241.35 60.81L246.02 60.13L248.11 55.9Z" stroke="#263238" stroke-linecap="round" stroke-linejoin="round"/>
<path d="M100.47 44.63C100.467 48.3909 98.9727 51.9971 96.3143 54.6574C93.6559 57.3177 90.0507 58.8147 86.2898 58.82C85.8298 58.82 85.3798 58.8 84.9398 58.76C82.2029 58.5004 79.6003 57.4513 77.4484 55.7402C75.2965 54.0292 73.688 51.7299 72.8184 49.1218C71.9488 46.5137 71.8556 43.7091 72.55 41.049C73.2445 38.3889 74.6967 35.9878 76.7302 34.1377C78.7638 32.2875 81.2909 31.0678 84.0046 30.627C86.7183 30.1862 89.5016 30.5432 92.0162 31.6546C94.5308 32.766 96.6684 34.5839 98.1691 36.8874C99.6699 39.1909 100.469 41.8808 100.47 44.63Z" stroke="#263238" stroke-linecap="round" stroke-linejoin="round"/>
<path d="M98.1998 47.19C98.2018 47.6255 98.0744 48.0519 97.8339 48.415C97.5934 48.7781 97.2505 49.0616 96.8486 49.2297C96.4468 49.3977 96.0042 49.4427 95.5767 49.3589C95.1493 49.2752 94.7564 49.0665 94.4477 48.7592C94.139 48.4519 93.9285 48.0599 93.8428 47.6329C93.7571 47.2059 93.8001 46.763 93.9663 46.3604C94.1325 45.9578 94.4145 45.6137 94.7765 45.3715C95.1385 45.1293 95.5642 45 95.9998 45C96.5815 45 97.1396 45.2304 97.5519 45.6408C97.9642 46.0512 98.1971 46.6083 98.1998 47.19Z" stroke="#263238" stroke-linecap="round" stroke-linejoin="round"/>
<path d="M78.45 52.7701C78.4508 53.2913 78.3365 53.8062 78.1152 54.2782C77.8939 54.7501 77.5712 55.1673 77.17 55.5001C75.3052 53.9607 73.869 51.9665 73 49.7101C73.5503 49.3722 74.1843 49.1955 74.83 49.2001C75.303 49.1934 75.7726 49.2809 76.2115 49.4573C76.6505 49.6338 77.0499 49.8957 77.3868 50.2278C77.7236 50.56 77.991 50.9558 78.1735 51.3922C78.3561 51.8287 78.45 52.297 78.45 52.7701Z" stroke="#263238" stroke-linecap="round" stroke-linejoin="round"/>
<path d="M95.9993 55C93.377 57.4836 89.9011 58.8654 86.2893 58.86C85.8293 58.86 85.3793 58.84 84.9393 58.8C84.8588 58.4152 84.8186 58.0231 84.8193 57.63C84.82 56.3006 85.2696 55.0104 86.0952 53.9684C86.9209 52.9265 88.0742 52.194 89.3683 51.8896C90.6624 51.5851 92.0213 51.7267 93.2249 52.2912C94.4285 52.8558 95.4061 53.8103 95.9993 55Z" stroke="#263238" stroke-linecap="round" stroke-linejoin="round"/>
<path d="M82.8498 39C84.6503 39 86.1098 37.5404 86.1098 35.74C86.1098 33.9395 84.6503 32.48 82.8498 32.48C81.0494 32.48 79.5898 33.9395 79.5898 35.74C79.5898 37.5404 81.0494 39 82.8498 39Z" stroke="#263238" stroke-linecap="round" stroke-linejoin="round"/>
<path d="M85.8696 45C85.8696 45.2986 85.781 45.5906 85.6151 45.8389C85.4492 46.0872 85.2134 46.2808 84.9375 46.3951C84.6615 46.5093 84.3579 46.5392 84.065 46.481C83.7721 46.4227 83.5031 46.2789 83.2919 46.0677C83.0807 45.8565 82.9369 45.5875 82.8786 45.2946C82.8204 45.0017 82.8503 44.6981 82.9646 44.4221C83.0788 44.1462 83.2724 43.9104 83.5207 43.7445C83.769 43.5786 84.061 43.49 84.3596 43.49C84.5579 43.49 84.7543 43.5291 84.9375 43.6049C85.1207 43.6808 85.2871 43.792 85.4273 43.9323C85.5676 44.0725 85.6788 44.2389 85.7547 44.4221C85.8306 44.6053 85.8696 44.8017 85.8696 45Z" stroke="#263238" stroke-linecap="round" stroke-linejoin="round"/>
<path d="M97.7998 36.35C97.4029 36.4801 96.9874 36.5443 96.5698 36.54C96.024 36.54 95.4835 36.4323 94.9793 36.2231C94.4752 36.0139 94.0172 35.7074 93.6318 35.3209C93.2463 34.9345 92.9408 34.4758 92.7328 33.9712C92.5248 33.4665 92.4185 32.9258 92.4198 32.38C92.4096 32.2068 92.4096 32.0332 92.4198 31.86C94.5617 32.8812 96.4119 34.4253 97.7998 36.35Z" stroke="#263238" stroke-linecap="round" stroke-linejoin="round"/>
<path d="M423.85 209.29L425.38 205.85L422.9 204.49C422.991 203.884 423.008 203.27 422.95 202.66L425.49 201.42L424.14 197.91L421.42 198.69C421.055 198.2 420.632 197.757 420.16 197.37L421.09 194.69L417.65 193.16L416.28 195.64C415.672 195.565 415.058 195.565 414.45 195.64L413.22 193.1L409.7 194.45L410.49 197.16C409.999 197.531 409.553 197.957 409.16 198.43L406.49 197.5L405 200.89L407.48 202.26C407.388 202.866 407.372 203.48 407.43 204.09L404.88 205.32L406.23 208.84L408.95 208.05C409.317 208.541 409.74 208.987 410.21 209.38L409.29 212.05L412.73 213.58L414.09 211.1C414.696 211.191 415.31 211.208 415.92 211.15L417.16 213.7L420.67 212.35L419.89 209.63C420.377 209.263 420.82 208.84 421.21 208.37L423.85 209.29ZM413.39 207.37C412.6 207.019 411.933 206.441 411.471 205.711C411.01 204.98 410.775 204.129 410.797 203.265C410.819 202.401 411.097 201.563 411.595 200.857C412.094 200.151 412.79 199.609 413.596 199.299C414.403 198.988 415.283 198.924 416.126 199.114C416.969 199.304 417.737 199.74 418.333 200.366C418.928 200.992 419.325 201.781 419.472 202.633C419.619 203.484 419.51 204.36 419.16 205.15C418.687 206.208 417.815 207.036 416.733 207.452C415.652 207.868 414.45 207.838 413.39 207.37Z" stroke="#263238" stroke-linecap="round" stroke-linejoin="round"/>
<path d="M405.57 226.94L407.65 222.27L404.29 220.41C404.41 219.589 404.43 218.756 404.35 217.93L407.81 216.25L406 211.48L402.31 212.55C401.817 211.881 401.242 211.277 400.6 210.75L401.86 207.11L397.15 205L395.3 208.36C394.478 208.242 393.646 208.219 392.82 208.29L391.14 204.84L386.36 206.68L387.43 210.36C386.766 210.862 386.162 211.439 385.63 212.08L382 210.86L379.92 215.53L383.28 217.39C383.16 218.211 383.14 219.044 383.22 219.87L379.76 221.55L381.6 226.32L385.29 225.26C385.786 225.926 386.36 226.531 387 227.06L385.74 230.69L390.42 232.77L392.27 229.4C393.091 229.523 393.923 229.546 394.75 229.47L396.43 232.92L401.21 231.09L400.14 227.4C400.804 226.901 401.408 226.327 401.94 225.69L405.57 226.94ZM391.37 224.33C390.296 223.852 389.389 223.066 388.762 222.071C388.136 221.077 387.818 219.919 387.85 218.745C387.881 217.57 388.261 216.431 388.94 215.472C389.619 214.513 390.567 213.777 391.665 213.357C392.762 212.937 393.96 212.852 395.106 213.112C396.252 213.373 397.294 213.968 398.102 214.822C398.91 215.675 399.446 216.749 399.643 217.908C399.841 219.066 399.69 220.257 399.21 221.33C398.893 222.042 398.438 222.685 397.872 223.221C397.306 223.758 396.64 224.177 395.912 224.456C395.184 224.735 394.408 224.867 393.628 224.845C392.849 224.824 392.081 224.649 391.37 224.33Z" stroke="#263238" stroke-linecap="round" stroke-linejoin="round"/>
<path d="M198.27 182.61C196.9 185.206 195.353 187.705 193.64 190.09C184.755 202.443 171.7 211.163 156.887 214.639C142.073 218.114 126.502 216.112 113.05 209C111.66 208.27 110.3 207.49 109 206.67C107.7 205.85 106.43 205.01 105.21 204.11C103.73 203.04 102.31 201.9 100.95 200.71C100.863 200.645 100.782 200.571 100.71 200.49C91.8482 192.648 85.3712 182.471 82.0188 171.122C78.6664 159.773 78.5739 147.71 81.7518 136.311C84.9297 124.913 91.2499 114.638 99.9902 106.66C108.731 98.6828 119.539 93.3248 131.18 91.1984C142.82 89.072 154.825 90.2629 165.821 94.6351C176.817 99.0073 186.362 106.384 193.364 115.924C200.367 125.463 204.545 136.779 205.421 148.581C206.298 160.382 203.837 172.191 198.32 182.66L198.27 182.61Z" fill="#FF9933"/>
<mask id="mask0_209_97" style="mask-type:luminance" maskUnits="userSpaceOnUse" x="79" y="90" width="127" height="127">
<path d="M198.27 182.61C196.9 185.206 195.353 187.705 193.64 190.09C184.755 202.443 171.7 211.163 156.887 214.639C142.073 218.114 126.502 216.112 113.05 209C111.66 208.27 110.3 207.49 109 206.67C107.7 205.85 106.43 205.01 105.21 204.11C103.73 203.04 102.31 201.9 100.95 200.71C100.863 200.645 100.782 200.571 100.71 200.49C91.8482 192.648 85.3712 182.471 82.0188 171.122C78.6664 159.773 78.5739 147.71 81.7518 136.311C84.9297 124.913 91.2499 114.638 99.9902 106.66C108.731 98.6828 119.539 93.3248 131.18 91.1984C142.82 89.072 154.825 90.2629 165.821 94.6351C176.817 99.0073 186.362 106.384 193.364 115.924C200.367 125.463 204.545 136.779 205.421 148.581C206.298 160.382 203.837 172.191 198.32 182.66L198.27 182.61Z" fill="white"/>
</mask>
<g mask="url(#mask0_209_97)">
<g opacity="0.6">
<path d="M198.27 182.61C196.9 185.206 195.353 187.705 193.64 190.09L192.42 189.09L190.32 187.98L188.11 186.82L188.48 184.15L188.36 181.74C188.23 179.33 189.97 181.3 191.36 180.57C192.444 179.795 193.32 178.765 193.91 177.57C193.91 177.57 194.91 174.36 194.58 173.07C194.042 171.584 193.407 170.134 192.68 168.73L189.1 173.73L186.1 173.5L183.26 172L182.89 168.05L181.43 167.29L180.82 165.02L172.93 162.81L172.03 161.23C171.13 159.65 167.5 158.84 167.5 158.84L168.39 156.78L169.79 154.48C171.2 152.18 172.66 156 172.66 156L174.33 156.87L177.43 154.27L178.25 150.54L183.3 150.83C183.201 150.325 183.278 149.802 183.518 149.347C183.759 148.892 184.147 148.533 184.62 148.33C186.3 147.67 185.56 144.02 184.92 142.67C184.28 141.32 181.92 142.41 181.92 142.41C181.92 142.41 179.35 138.5 179 136.94C178.65 135.38 183.9 135.94 186.15 134.37C188.4 132.8 187.63 129.68 186.53 129.61C185.43 129.54 188.68 122.51 194.93 124.44C196.67 124.98 197.77 124.79 198.45 124.19C203.139 133.219 205.572 143.248 205.541 153.422C205.51 163.596 203.015 173.61 198.27 182.61Z" fill="white"/>
<path d="M154.54 155.56L152.4 158.25C152.4 158.25 151.49 156.08 150.19 157.25L148.19 159.03L146.74 163.09L144.14 164.77L142.55 163.94L141.05 163.14L139.42 162.28L137.86 165.28L136.59 167.68C137.209 168.858 137.978 169.951 138.88 170.93L141.64 175.8L145 177.5C146.401 177.552 147.796 177.719 149.17 178L151.48 179.21L150.66 184.21C150.66 184.21 148.92 187.04 147.76 186.26L146.59 185.49L144.69 192.07L144.61 195.69C144.61 195.69 143.48 196.16 142.34 196.54C141.2 196.92 141.92 196.72 139.53 197.46C137.14 198.2 137.33 198.17 135.39 198.72C133.736 199.299 132.145 200.043 130.64 200.94L130.81 204.42L126.24 205.09L123.68 203.73L124.31 201.53L124.61 198.09L124.26 195.52L123.16 193.25L126.24 190.46L125.56 188.71L123.81 185.23L120.11 187.23L118.21 188.23L113.91 186.3L113.44 183.69L112 179L110.66 176.08L108.28 172.86L107.68 170.09L109.02 167.55L109.73 166.21L107.54 163.26L106.94 161.16L103.25 157.81C103.25 157.81 104.32 157.74 104.08 156.25C103.84 154.76 106.19 152.25 106.19 152.25C107.52 152.95 111.51 155.73 111.51 155.73L115 156.21C115 156.21 115.7 156.21 116.38 154.89C117.174 153.676 118.107 152.558 119.16 151.56C119.16 151.56 117.55 145.97 118.7 145.22C119.85 144.47 121.02 140.81 121.02 140.81L121.94 139.06C121.94 139.06 119.77 138.11 119.36 136.96C118.95 135.81 113.6 137.34 113.6 137.34L109.91 139.9L107 142.15L105.74 144.54C105.74 144.54 103.17 141.45 103.16 143.18C102.964 144.954 102.575 146.701 102 148.39C102 148.39 102.53 148.67 101.83 150.01C101.13 151.35 100.37 151.28 98.8297 151.47C96.822 151.49 94.8159 151.353 92.8297 151.06C92.8297 151.06 91.8297 154.76 92.5197 155.4L93.1996 156.02C93.1996 156.02 92.1297 158.71 91.0697 158.15L88.4897 156.79L84.8796 158.25L80.8796 162.67L79.9896 162.49C77.5381 146.047 81.677 129.301 91.5064 115.893C101.336 102.485 116.061 93.4993 132.48 90.89C132.71 91.89 132.96 92.83 132.96 92.83L131.96 97.77L130.68 100.21L129.58 102.3L128.03 105.24L132 108.9L131.15 113.23L129 114.58L128.38 117.83L132.07 125.04L133.07 127.87C132.452 129.225 132.148 130.701 132.18 132.19C132.18 132.19 132.63 134.89 134.6 135.96C136.57 137.03 139.16 138.29 139.16 138.29L138.95 142.29L138.06 143.29L139.54 147.6C144.05 149.37 143.62 150.85 144.05 149.37L144.49 147.9L147.56 146.79L151.47 151.46C151.925 151.454 152.374 151.563 152.776 151.776C153.178 151.989 153.52 152.3 153.77 152.68C154.91 154.12 156.69 152.87 154.54 155.56Z" fill="white"/>
<path d="M101.54 190.39C101.65 191.81 99.85 193.59 99.85 193.59L101.32 194.36L101.77 198.36L100.66 200.48C92.7945 193.532 86.7952 184.724 83.21 174.86L84.01 170.62L87.54 170.12C87.54 170.12 90.7 168.02 92.1 168.58C93.5 169.14 94.78 172.58 94.78 172.58C94.78 172.58 95.78 177.22 95.65 177.13H95.59H95.67L97.11 177.89L97.52 179.72L95.52 183.52H92.3C92.3 183.52 91.66 183.18 91.6 184.85C91.6521 185.43 91.8282 185.991 92.1163 186.497C92.4045 187.002 92.7979 187.44 93.27 187.78L96.75 186.89L97.68 183.29L101.1 182.62C101.1 182.62 100.61 184.83 101.41 185.25L102.22 185.68L102.7 188.32C102.342 188.533 102.046 188.836 101.842 189.199C101.639 189.563 101.534 189.974 101.54 190.39Z" fill="white"/>
<path d="M118.08 196.05C117.77 195.19 117.64 194.44 115.51 193.32C113.38 192.2 113.51 192.6 112.67 193.53C112.308 194.008 111.814 194.37 111.249 194.571C110.684 194.772 110.072 194.803 109.49 194.66C108.09 194.35 108.82 195.93 108.82 195.93L109.16 200.2L105.21 204.1C106.43 205 107.693 205.853 109 206.66L109.84 204.08L116.4 206C115.01 205.59 115.83 203.69 115.83 203.69L114.43 202.95C114.43 202.95 118.39 196.89 118.08 196.05Z" fill="white"/>
<path d="M159.4 173.85L157.25 171.68L154.79 172.45L153.79 174.45L153.04 175.89L154.04 177.89L156.04 180.32L157.18 178.14C157.18 178.14 160.35 178.14 162.01 176.31C163.67 174.48 159.4 173.85 159.4 173.85Z" fill="white"/>
<path d="M153.08 164.06L157.08 166.16L157.24 165.22C157.448 164.467 157.817 163.768 158.32 163.17L155.26 159.93L153.08 164.06Z" fill="white"/>
<path d="M151.72 210.61L150.57 208.92L149.23 208.22H145.14L142.81 212.64C142.81 212.64 140.58 212.34 137.65 212.08C134.72 211.82 135.44 213.03 135.44 213.03L134.68 215.81C142.072 216.72 149.567 216.317 156.82 214.62C155.977 214.032 155.102 213.491 154.2 213L151.72 210.61Z" fill="white"/>
</g>
</g>
<path d="M198.27 182.61C196.9 185.206 195.353 187.705 193.64 190.09C184.755 202.443 171.7 211.163 156.887 214.639C142.073 218.114 126.502 216.112 113.05 209C111.66 208.27 110.3 207.49 109 206.67C107.7 205.85 106.43 205.01 105.21 204.11C103.73 203.04 102.31 201.9 100.95 200.71C100.863 200.645 100.782 200.571 100.71 200.49C91.8482 192.648 85.3712 182.471 82.0188 171.122C78.6664 159.773 78.5739 147.71 81.7518 136.311C84.9297 124.913 91.2499 114.638 99.9902 106.66C108.731 98.6828 119.539 93.3248 131.18 91.1984C142.82 89.072 154.825 90.2629 165.821 94.6351C176.817 99.0073 186.362 106.384 193.364 115.924C200.367 125.463 204.545 136.779 205.421 148.581C206.298 160.382 203.837 172.191 198.32 182.66L198.27 182.61Z" stroke="#263238" stroke-linecap="round" stroke-linejoin="round"/>
<path d="M156.82 214.62C149.567 216.317 142.072 216.72 134.68 215.81L135.44 213.03C135.44 213.03 134.72 211.82 137.65 212.08C140.58 212.34 142.81 212.64 142.81 212.64L145.14 208.22H149.23L150.57 208.92L151.72 210.61L154.2 213C155.102 213.491 155.977 214.032 156.82 214.62Z" stroke="#263238" stroke-linecap="round" stroke-linejoin="round"/>
<path d="M198.49 124.2C197.81 124.8 196.71 124.99 194.97 124.45C188.72 122.52 185.48 129.54 186.57 129.62C187.66 129.7 188.43 132.86 186.19 134.38C183.95 135.9 178.69 135.38 179.04 136.95C179.39 138.52 181.96 142.42 181.96 142.42C181.96 142.42 184.26 141.34 184.91 142.68C185.56 144.02 186.3 147.68 184.62 148.34C184.147 148.543 183.759 148.902 183.518 149.357C183.278 149.812 183.201 150.335 183.3 150.84L178.25 150.55L177.43 154.28L174.33 156.88L172.66 156.01C172.66 156.01 171.2 152.19 169.79 154.49L168.39 156.79L167.5 158.85C167.5 158.85 171.13 159.66 172.03 161.24L172.93 162.82L180.82 165.03L181.43 167.3L182.89 168.06L183.26 172.01L186.2 173.55L189.2 173.78L192.78 168.78C193.507 170.184 194.142 171.634 194.68 173.12C195.03 174.41 194.01 177.62 194.01 177.62C193.42 178.815 192.544 179.845 191.46 180.62C190.03 181.35 188.28 179.38 188.46 181.79L188.58 184.2L188.21 186.87L190.42 188.03L192.52 189.14L193.74 190.14" stroke="#263238" stroke-linecap="round" stroke-linejoin="round"/>
<path d="M80.0703 162.49L80.9603 162.67L84.9603 158.25L88.5703 156.79L91.1503 158.15C92.2103 158.71 93.2803 156.02 93.2803 156.02L92.6003 155.4C91.9103 154.76 92.9103 151.06 92.9103 151.06C94.8965 151.353 96.9027 151.49 98.9103 151.47C100.49 151.28 101.24 151.34 101.91 150.01C102.58 148.68 102.08 148.39 102.08 148.39C102.655 146.701 103.044 144.954 103.24 143.18C103.24 141.45 105.82 144.54 105.82 144.54L107.08 142.15L109.9 139.91L113.59 137.35C113.59 137.35 118.94 135.81 119.35 136.97C119.76 138.13 121.93 139.07 121.93 139.07L121.01 140.82C121.01 140.82 119.83 144.46 118.69 145.23C117.55 146 119.15 151.57 119.15 151.57C118.098 152.568 117.165 153.686 116.37 154.9C115.67 156.24 114.99 156.22 114.99 156.22L111.5 155.74C111.5 155.74 107.5 152.96 106.18 152.26C106.18 152.26 103.83 154.77 104.07 156.26C104.31 157.75 103.24 157.82 103.24 157.82L106.93 161.17L107.53 163.27L109.72 166.22L109.01 167.56L107.67 170.1L108.27 172.87L110.65 176.09L112 179L113.46 183.71L113.93 186.32L118.23 188.25L120.13 187.25L123.83 185.25L125.58 188.73L126.26 190.48L123.18 193.27L124.28 195.54L124.63 198.11L124.33 201.55L123.7 203.75L126.26 205.11L130.83 204.45L130.66 200.96C132.165 200.063 133.757 199.319 135.41 198.74C137.35 198.19 137.16 198.22 139.55 197.48C141.94 196.74 141.21 196.94 142.36 196.56C143.51 196.18 144.63 195.71 144.63 195.71L144.71 192.09L146.61 185.51L147.78 186.28C148.94 187.06 150.68 184.23 150.68 184.23L151.5 179.23L149.14 178C147.766 177.719 146.372 177.552 144.97 177.5L141.68 175.77L138.92 170.9C138.019 169.921 137.249 168.828 136.63 167.65L137.9 165.25L139.46 162.25L141.09 163.11L142.59 163.91L144.18 164.74L146.78 163.06L148.23 159L150.23 157.22C151.53 156.04 152.44 158.22 152.44 158.22L154.58 155.53C156.73 152.84 154.95 154.09 153.85 152.71C153.6 152.33 153.258 152.019 152.856 151.806C152.454 151.592 152.005 151.484 151.55 151.49L147.64 146.82L144.53 148L144.09 149.47C143.66 150.95 144.09 149.47 139.58 147.7L138.1 143.39L138.99 142.39L139.2 138.39C139.2 138.39 136.61 137.12 134.64 136.06C132.67 135 132.22 132.29 132.22 132.29C132.189 130.801 132.493 129.325 133.11 127.97L132.11 125.14L128.42 117.93L129.04 114.68L131.19 113.33L132.04 109L128.18 105.34L129.73 102.4L130.83 100.31L132.11 97.87L133.11 92.93C133.11 92.93 132.86 92.01 132.63 90.99" stroke="#263238" stroke-linecap="round" stroke-linejoin="round"/>
<path d="M101 200.7C100.923 200.611 100.836 200.53 100.74 200.46L101.85 198.34L101.4 194.34L99.9304 193.57C99.9304 193.57 101.73 191.79 101.62 190.37C101.601 189.946 101.696 189.525 101.894 189.15C102.093 188.776 102.389 188.461 102.75 188.24L102.27 185.6L101.46 185.17C100.66 184.75 101.15 182.54 101.15 182.54L97.7304 183.21L96.8004 186.81L93.3204 187.7C92.8483 187.36 92.4549 186.922 92.1668 186.417C91.8786 185.911 91.7025 185.349 91.6504 184.77C91.7104 183.1 92.3504 183.44 92.3504 183.44H95.5704L97.5704 179.64L97.1604 177.81L95.7204 177.05" stroke="#263238" stroke-linecap="round" stroke-linejoin="round"/>
<path d="M95.6295 177.05C95.7895 177.14 94.7594 172.5 94.7594 172.5C94.7594 172.5 93.4795 169.11 92.0795 168.5C90.6795 167.89 87.5195 170.04 87.5195 170.04L83.9894 170.54L83.1895 174.78" stroke="#263238" stroke-linecap="round" stroke-linejoin="round"/>
<path d="M109.84 204.08L109 206.66C107.667 205.847 106.403 204.993 105.21 204.1L109.16 200.2L108.82 195.93C108.82 195.93 108.09 194.35 109.49 194.66C110.072 194.803 110.684 194.772 111.249 194.571C111.814 194.37 112.308 194.008 112.67 193.53C113.49 192.6 113.39 192.2 115.51 193.32C117.63 194.44 117.77 195.19 118.08 196.05C118.39 196.91 114.43 202.98 114.43 202.98L115.83 203.72C115.83 203.72 115.01 205.62 116.4 206.03L109.84 204.08Z" stroke="#263238" stroke-linecap="round" stroke-linejoin="round"/>
<path d="M154.79 172.45L157.25 171.68L159.4 173.85C159.4 173.85 163.65 174.4 161.99 176.25C160.33 178.1 157.16 178.08 157.16 178.08L156 180.26L154 177.83L153 175.83L153.75 174.39L154.79 172.45Z" stroke="#263238" stroke-linecap="round" stroke-linejoin="round"/>
<path d="M158.32 163.17C157.817 163.768 157.448 164.467 157.24 165.22L157.08 166.16L153.08 164.06L155.26 159.93L158.32 163.17Z" stroke="#263238" stroke-linecap="round" stroke-linejoin="round"/>
<path d="M375.329 399.05C369.969 403.51 328.679 431.85 269.759 427.28C266.589 400.46 254.499 290.28 268.249 273C268.249 273 301.609 257.09 332.339 263.77C363.069 270.45 375.029 276.85 377.219 282.39C378.879 286.58 376.509 364.6 375.329 399.05Z" fill="#263238"/>
<path d="M331.32 275.54C313.62 290.87 290.82 287.63 291.32 275.86C291.4 274.02 293.37 271.74 293.37 271.74L292.68 270.68L289.68 266.15C287.49 262.76 284.75 258.5 282.84 255.4C281.24 252.76 321.13 228.22 321.13 242.33C321.13 262.21 330.89 265.95 330.89 265.95C334.57 267.43 338 269.77 331.32 275.54Z" fill="white" stroke="#263238" stroke-linecap="round" stroke-linejoin="round"/>
<path d="M342.51 305.9C342.51 305.9 338.94 318.14 340.63 321.65" stroke="white" stroke-linecap="round" stroke-linejoin="round"/>
<path d="M338.34 270.36C338.34 282.17 303.11 293.74 292.79 281.89" stroke="white" stroke-linecap="round" stroke-linejoin="round"/>
<path d="M309.36 256.73C309.36 256.73 307 265.63 296 272.58C295.475 271.679 294.628 271.011 293.63 270.71C293.299 270.656 292.961 270.656 292.63 270.71L289.63 266.18C295.32 262.08 309.36 256.73 309.36 256.73Z" fill="#263238"/>
<path d="M314.3 245.79C314.3 245.79 314.18 254.57 312.3 256.36C298.35 269.74 284.71 270.8 282.46 267.27C267.31 243.51 270.89 237.27 269.35 233.2C266.62 226.06 263.27 214.4 264.75 207.34C268.05 191.57 297.75 179.34 313.39 195.2C320.89 202.79 323.26 219.26 321.68 232.98" fill="white"/>
<path d="M314.3 245.79C314.3 245.79 314.18 254.57 312.3 256.36C298.35 269.74 284.71 270.8 282.46 267.27C267.31 243.51 270.89 237.27 269.35 233.2C266.62 226.06 263.27 214.4 264.75 207.34C268.05 191.57 297.75 179.34 313.39 195.2C320.89 202.79 323.26 219.26 321.68 232.98" stroke="#263238" stroke-linecap="round" stroke-linejoin="round"/>
<path d="M271.259 225.86C271.259 225.86 267.089 223.99 266.189 226.22" stroke="#263238" stroke-linecap="round" stroke-linejoin="round"/>
<path d="M281.37 226C281.37 226 290.04 222.37 293.94 226.78" stroke="#263238" stroke-linecap="round" stroke-linejoin="round"/>
<path d="M290.999 232.15C291.139 233.45 290.509 234.58 289.579 234.69C288.649 234.8 287.789 233.81 287.649 232.51C287.509 231.21 288.139 230.07 289.069 229.97C289.999 229.87 290.819 230.85 290.999 232.15Z" fill="#263238"/>
<path d="M273.999 232.54C274.149 233.84 273.509 234.98 272.579 235.08C271.649 235.18 270.789 234.21 270.649 232.91C270.509 231.61 271.139 230.47 272.069 230.37C272.999 230.27 273.839 231.24 273.999 232.54Z" fill="#263238"/>
<path d="M274.42 229.12C275.63 231.07 274.97 234.4 273.37 238.97C271.77 243.54 273.18 245.19 279.32 245.65" fill="white"/>
<path d="M274.42 229.12C275.63 231.07 274.97 234.4 273.37 238.97C271.77 243.54 273.18 245.19 279.32 245.65" stroke="#263238" stroke-linecap="round" stroke-linejoin="round"/>
<path d="M279.319 253.56C279.319 253.56 287.319 252.83 290.979 250.82" stroke="#263238" stroke-linecap="round" stroke-linejoin="round"/>
<path d="M329.999 208.22C329.999 202.28 324.139 190.09 313.859 188.72C307.949 182.54 299.529 180.27 289.309 182.62C265.689 188.04 258.499 211.36 257.469 215.22C257.369 215.58 257.319 215.78 257.319 215.78L263.639 214.18L260.919 219.49L264.229 221.68L263.469 222.52L267.309 226.22L266.109 219.46C266.849 215.1 271.869 209 271.869 209C270.037 211.375 268.895 214.208 268.569 217.19C270.569 212 282.569 207.19 282.569 207.19C278.679 210.35 276.569 216.53 276.569 216.53C280.269 211.97 288.939 209.02 294.489 207.45C296.359 211.96 299.329 216.67 303.569 219.28C307.569 221.74 307.429 226.82 307.429 226.82C311.733 229.812 314.904 234.166 316.429 239.18L321.269 245.8C321.269 245.8 329.999 235.09 329.999 208.22Z" fill="#263238"/>
<path d="M309.63 228.52C308.01 225.05 313.89 215.65 318.06 216.81C320.4 217.47 323.46 221.74 324.06 226.22C324.66 230.7 321.49 239.22 318.11 241.07C315.96 242.27 314.19 239 314.19 239" fill="white"/>
<path d="M309.63 228.52C308.01 225.05 313.89 215.65 318.06 216.81C320.4 217.47 323.46 221.74 324.06 226.22C324.66 230.7 321.49 239.22 318.11 241.07C315.96 242.27 314.19 239 314.19 239" stroke="#263238" stroke-linecap="round" stroke-linejoin="round"/>
<path d="M54.5098 398.25L167.5 371.83L403.18 399.05L342.5 440.55L54.5098 398.25Z" fill="white"/>
<path d="M54.5098 398.25L167.5 371.83L403.18 399.05" fill="white"/>
<path d="M54.5098 398.25L167.5 371.83L403.18 399.05" stroke="#263238" stroke-linecap="round" stroke-linejoin="round"/>
<path d="M152.29 403.55L198.03 383.33L255.86 386.32L230.14 408.31L152.29 403.55Z" fill="white" stroke="#263238" stroke-linecap="round" stroke-linejoin="round"/>
<path d="M270.479 272C255.809 278 252.649 291.49 227.719 344.8C227.719 344.8 216.649 347.07 210.719 360.52C204.789 373.97 214.719 384.59 226.149 384.23C226.149 384.23 230.739 388.23 240.149 387.82C249.559 387.41 291.149 323.77 291.149 323.77L270.479 272Z" fill="#263238"/>
<path d="M232.09 347.93C238.65 353.77 242.42 362.34 240.42 371.84" stroke="white" stroke-linecap="round" stroke-linejoin="round"/>
<path d="M238.42 350.74C238.42 350.74 246.48 352.5 247.73 362.82" stroke="white" stroke-linecap="round" stroke-linejoin="round"/>
<path d="M262 320.54C258.192 311.144 256.876 300.924 258.18 290.87" stroke="white" stroke-linecap="round" stroke-linejoin="round"/>
<path d="M260.86 306.94C260.25 311.14 264.59 333.5 264.56 357.01" stroke="white" stroke-linecap="round" stroke-linejoin="round"/>
<path d="M370.519 276.42C388.869 285.64 391.049 314.01 373.739 347.93C361.509 371.87 344.629 407.22 333.949 409.59C323.269 411.96 312.849 405.31 312.849 405.31C312.849 405.31 303.849 404.89 301.129 398.49C293.689 381 312.599 358.9 319.999 364.19C319.999 364.19 343.759 312.52 348.089 309.26" fill="#263238"/>
<path d="M299.43 387.86C297 375.79 316 361.55 320 364.19C320 364.19 334.11 364.98 336.22 374.74" stroke="white" stroke-linecap="round" stroke-linejoin="round"/>
<path d="M351.12 390.43C359.38 375.86 373.74 347.93 373.74 347.93" stroke="white" stroke-linecap="round" stroke-linejoin="round"/>
<path d="M320 364.19C320 364.19 329.89 358.27 337.28 363.87" stroke="white" stroke-linecap="round" stroke-linejoin="round"/>
<path d="M323.38 357C323.38 357 328.84 345 334.38 334C339.92 323 352.6 306.71 357.87 305.92" stroke="white" stroke-linecap="round" stroke-linejoin="round"/>
<path d="M219.16 378.57C217.972 378.512 216.812 378.195 215.76 377.64C198.76 368.77 185.54 354.11 177.58 343.59C174.485 339.569 171.636 335.365 169.05 331L173.13 313.52C173.13 313.52 176.97 323.52 192.4 333.35C207.83 343.18 226.16 346.42 232.09 356.35C237.34 365 228.09 379 219.16 378.57Z" fill="white"/>
<mask id="mask1_209_97" style="mask-type:luminance" maskUnits="userSpaceOnUse" x="169" y="313" width="65" height="66">
<path d="M219.16 378.57C217.972 378.512 216.812 378.195 215.76 377.64C198.76 368.77 185.54 354.11 177.58 343.59C174.485 339.569 171.636 335.365 169.05 331L173.13 313.52C173.13 313.52 176.97 323.52 192.4 333.35C207.83 343.18 226.16 346.42 232.09 356.35C237.34 365 228.09 379 219.16 378.57Z" fill="white"/>
</mask>
<g mask="url(#mask1_209_97)">
<path opacity="0.4" d="M219.16 378.57C218.97 377.306 218.635 376.067 218.16 374.88C214.59 365.94 192.99 348.17 192.99 348.17C187.85 348.01 182.2 345.87 177.6 343.59C174.498 339.57 171.643 335.365 169.05 331L173.13 313.52C173.13 313.52 176.97 323.52 192.4 333.35C207.83 343.18 226.16 346.42 232.09 356.35C237.34 365 228.09 379 219.16 378.57Z" fill="#FF9933"/>
</g>
<path d="M219.16 378.57C217.972 378.512 216.812 378.195 215.76 377.64C198.76 368.77 185.54 354.11 177.58 343.59C174.485 339.569 171.636 335.365 169.05 331L173.13 313.52C173.13 313.52 176.97 323.52 192.4 333.35C207.83 343.18 226.16 346.42 232.09 356.35C237.34 365 228.09 379 219.16 378.57Z" stroke="#263238" stroke-linecap="round" stroke-linejoin="round"/>
<path d="M180.66 329.94C180.66 329.94 178.55 339.26 172.99 337.17C169.99 336.04 164.21 327.08 163.12 322.56L180.66 329.94Z" fill="white" stroke="#263238" stroke-linecap="round" stroke-linejoin="round"/>
<path d="M156.149 272.55L160.689 270.21C160.689 270.21 173.519 270.32 181.479 276.79C188.709 282.67 192.379 291.88 192.379 291.88C192.379 291.88 220.469 276.37 249.159 285.27L260.859 350.48L207.069 354L173.499 322.11L156.149 272.55Z" fill="white" stroke="#263238" stroke-linecap="round" stroke-linejoin="round"/>
<path d="M264.56 353.09C264.56 353.09 258.25 352.9 249.81 353.18C237.05 353.58 219.42 355.02 211.36 359.71L210.98 359.58L203.6 357L203.45 356.78C202.09 354.78 191.12 339.03 175.45 332.62L153.29 270.7C153.29 270.7 176.29 271.7 188.86 292.48L195.17 294.76C195.17 294.76 232.72 283.64 253.74 287.64L264.56 353.09Z" fill="#FF9933"/>
<mask id="mask2_209_97" style="mask-type:luminance" maskUnits="userSpaceOnUse" x="153" y="270" width="112" height="90">
<path d="M264.56 353.09C264.56 353.09 258.25 352.9 249.81 353.18C237.05 353.58 219.42 355.02 211.36 359.71L210.98 359.58L203.6 357L203.45 356.78C202.09 354.78 191.12 339.03 175.45 332.62L153.29 270.7C153.29 270.7 176.29 271.7 188.86 292.48L195.17 294.76C195.17 294.76 232.72 283.64 253.74 287.64L264.56 353.09Z" fill="white"/>
</mask>
<g mask="url(#mask2_209_97)">
<path opacity="0.3" d="M203.45 356.79C202.09 354.79 191.12 339.04 175.45 332.63L153.29 270.71C153.29 270.71 176.29 271.71 188.86 292.49L203.45 356.79Z" fill="black" fill-opacity="0.7"/>
<path opacity="0.3" d="M249.81 353.18C237.05 353.58 219.42 355.02 211.36 359.71L210.98 359.58L196.24 297C196.24 297 208.3 294.29 212.01 295.66C212 295.68 236.52 313.77 249.81 353.18Z" fill="black" fill-opacity="0.7"/>
</g>
<path d="M264.56 353.09C264.56 353.09 258.25 352.9 249.81 353.18C237.05 353.58 219.42 355.02 211.36 359.71L210.98 359.58L203.6 357L203.45 356.78C202.09 354.78 191.12 339.03 175.45 332.62L153.29 270.7C153.29 270.7 176.29 271.7 188.86 292.48L195.17 294.76C195.17 294.76 232.72 283.64 253.74 287.64L264.56 353.09Z" stroke="#263238" stroke-linecap="round" stroke-linejoin="round"/>
<path d="M195.189 294.77L209.659 354.8" stroke="#263238" stroke-linecap="round" stroke-linejoin="round"/>
<path d="M203.6 357.01L189.54 297.02" stroke="#263238" stroke-linecap="round" stroke-linejoin="round"/>
<path d="M167.88 331.05C164.67 330.16 158.2 310.87 161.16 302.56C161.16 302.56 164.68 296.45 166.16 296.03C168.4 295.38 177.44 295.57 177 297.09C176 300.61 169.06 300.55 169.06 300.55L166.81 304.67L166.9 306.94C166.9 306.94 170.17 304.56 171.37 304.63C171.99 304.63 175.19 306.23 177.73 307.57C179.9 308.72 181.23 309.35 180.73 310.39C179.12 313.85 172.27 311.39 172.27 311.39L169.69 315.28C169.69 315.28 172.18 315.71 173.27 315.83C174.36 315.95 183.41 321.98 183.14 322.73C182.07 325.67 173.49 322.49 173.49 322.49L171.97 323.76C171.97 323.76 178.29 325.39 178.97 325.63C179.97 326 183.82 328.96 183.76 329.3C183.3 331.9 177.99 329.99 177.99 329.99L173.34 329.8C172.632 330.425 171.78 330.865 170.86 331.08" fill="white"/>
<path d="M167.88 331.05C164.67 330.16 158.2 310.87 161.16 302.56C161.16 302.56 164.68 296.45 166.16 296.03C168.4 295.38 177.44 295.57 177 297.09C176 300.61 169.06 300.55 169.06 300.55L166.81 304.67L166.9 306.94C166.9 306.94 170.17 304.56 171.37 304.63C171.99 304.63 175.19 306.23 177.73 307.57C179.9 308.72 181.23 309.35 180.73 310.39C179.12 313.85 172.27 311.39 172.27 311.39L169.69 315.28C169.69 315.28 172.18 315.71 173.27 315.83C174.36 315.95 183.41 321.98 183.14 322.73C182.07 325.67 173.49 322.49 173.49 322.49L171.97 323.76C171.97 323.76 178.29 325.39 178.97 325.63C179.97 326 183.82 328.96 183.76 329.3C183.3 331.9 177.99 329.99 177.99 329.99L173.34 329.8C172.632 330.425 171.78 330.865 170.86 331.08" stroke="#263238" stroke-linecap="round" stroke-linejoin="round"/>
<path d="M166.86 306.94C166.86 306.94 163.86 309.46 163.09 310.19C162.32 310.92 162.51 313.24 162.51 313.24" stroke="#263238" stroke-linecap="round" stroke-linejoin="round"/>
<path d="M164.689 318.36C164.689 320.9 166.389 322.44 167.169 323.26C167.949 324.08 165.919 326.31 168.169 327.91" stroke="#263238" stroke-linecap="round" stroke-linejoin="round"/>
<path d="M312.809 398.87C306.459 400.6 299.559 389.44 291.139 377.26C285.579 369.26 279.359 360.73 272.209 355.26C271.639 354.83 271.059 354.41 270.479 354.01L274.659 333.01C283.339 337.56 288.719 344.85 297.729 352.34C312.229 364.41 325.079 371.82 328.639 377.16C332.199 382.5 323.689 395.9 312.809 398.87Z" fill="white"/>
<mask id="mask3_209_97" style="mask-type:luminance" maskUnits="userSpaceOnUse" x="270" y="333" width="60" height="67">
<path d="M312.809 398.87C306.459 400.6 299.559 389.44 291.139 377.26C285.579 369.26 279.359 360.73 272.209 355.26C271.639 354.83 271.059 354.41 270.479 354.01L274.659 333.01C283.339 337.56 288.719 344.85 297.729 352.34C312.229 364.41 325.079 371.82 328.639 377.16C332.199 382.5 323.689 395.9 312.809 398.87Z" fill="white"/>
</mask>
<g mask="url(#mask3_209_97)">
<path opacity="0.4" d="M291.139 377.25C285.579 369.25 279.359 360.72 272.209 355.25C273.151 355.298 274.093 355.155 274.979 354.83C274.979 354.83 286.279 364 291.139 377.25Z" fill="#FF9933"/>
</g>
<path d="M312.809 398.87C306.459 400.6 299.559 389.44 291.139 377.26C285.579 369.26 279.359 360.73 272.209 355.26C271.639 354.83 271.059 354.41 270.479 354.01L274.659 333.01C283.339 337.56 288.719 344.85 297.729 352.34C312.229 364.41 325.079 371.82 328.639 377.16C332.199 382.5 323.689 395.9 312.809 398.87Z" stroke="#263238" stroke-linecap="round" stroke-linejoin="round"/>
<path d="M277 353.18C276.565 353.956 275.849 354.536 275 354.8C274.774 354.889 274.543 354.965 274.31 355.03H274.12C267.41 356.78 252.31 353.14 252.31 353.14C252.31 353.14 242.42 348.44 241.82 347.33C241.402 346.45 241.031 345.549 240.71 344.63L240.44 343.84C240.44 343.84 236.88 341.84 236.44 340.28C236 338.72 235.25 338.28 237.44 338C239.63 337.72 251.44 338 251.44 338L238.59 332.76C238.59 332.76 230.08 328.47 229.29 326.96C228.5 325.45 227.51 324.45 231.86 325.05C236.21 325.65 245.71 328.41 245.71 328.41L253.2 330L245.76 326.83C245.76 326.83 231.12 325.06 233.89 320.51H242.2C246.907 320.718 251.59 321.313 256.2 322.29C258.62 323.03 274.62 332.97 274.62 332.97" fill="white"/>
<mask id="mask4_209_97" style="mask-type:luminance" maskUnits="userSpaceOnUse" x="228" y="320" width="49" height="36">
<path d="M277 353.18C276.565 353.956 275.849 354.536 275 354.8C274.774 354.889 274.543 354.965 274.31 355.03H274.12C267.41 356.78 252.31 353.14 252.31 353.14C252.31 353.14 242.42 348.44 241.82 347.33C241.402 346.45 241.031 345.549 240.71 344.63L240.44 343.84C240.44 343.84 236.88 341.84 236.44 340.28C236 338.72 235.25 338.28 237.44 338C239.63 337.72 251.44 338 251.44 338L238.59 332.76C238.59 332.76 230.08 328.47 229.29 326.96C228.5 325.45 227.51 324.45 231.86 325.05C236.21 325.65 245.71 328.41 245.71 328.41L253.2 330L245.76 326.83C245.76 326.83 231.12 325.06 233.89 320.51H242.2C246.907 320.718 251.59 321.313 256.2 322.29C258.62 323.03 274.62 332.97 274.62 332.97" fill="white"/>
</mask>
<g mask="url(#mask4_209_97)">
<path opacity="0.4" d="M274.099 355.07C267.389 356.82 252.289 353.18 252.289 353.18C252.289 353.18 242.399 348.48 241.799 347.37C241.381 346.491 241.011 345.589 240.689 344.67L252.829 346C252.405 346.765 252.182 347.625 252.182 348.5C252.182 349.375 252.405 350.235 252.829 351C254.179 353.43 269.559 355.89 274.099 355.07Z" fill="#FF9933"/>
</g>
<path d="M277 353.18C276.565 353.956 275.849 354.536 275 354.8C274.774 354.889 274.543 354.965 274.31 355.03H274.12C267.41 356.78 252.31 353.14 252.31 353.14C252.31 353.14 242.42 348.44 241.82 347.33C241.402 346.45 241.031 345.549 240.71 344.63L240.44 343.84C240.44 343.84 236.88 341.84 236.44 340.28C236 338.72 235.25 338.28 237.44 338C239.63 337.72 251.44 338 251.44 338L238.59 332.76C238.59 332.76 230.08 328.47 229.29 326.96C228.5 325.45 227.51 324.45 231.86 325.05C236.21 325.65 245.71 328.41 245.71 328.41L253.2 330L245.76 326.83C245.76 326.83 231.12 325.06 233.89 320.51H242.2C246.907 320.718 251.59 321.313 256.2 322.29C258.62 323.03 274.62 332.97 274.62 332.97" stroke="#263238" stroke-linecap="round" stroke-linejoin="round"/>
<path d="M240.42 343.88L255.03 346.03" stroke="#263238" stroke-linecap="round" stroke-linejoin="round"/>
<path d="M94.7793 388.62L131.399 399.62L198.399 384.33C198.399 384.33 157.479 372.71 157.099 373C156.719 373.29 94.7793 388.62 94.7793 388.62Z" fill="#FF9933"/>
<mask id="mask5_209_97" style="mask-type:luminance" maskUnits="userSpaceOnUse" x="94" y="372" width="105" height="28">
<path d="M94.7793 388.62L131.399 399.62L198.399 384.33C198.399 384.33 157.479 372.71 157.099 373C156.719 373.29 94.7793 388.62 94.7793 388.62Z" fill="white"/>
</mask>
<g mask="url(#mask5_209_97)">
<path opacity="0.3" d="M94.7793 388.62L131.399 399.62L198.399 384.33C198.399 384.33 157.479 372.71 157.099 373C156.719 373.29 94.7793 388.62 94.7793 388.62Z" fill="black" fill-opacity="0.7"/>
</g>
<path d="M94.7793 388.62L131.399 399.62L198.399 384.33C198.399 384.33 157.479 372.71 157.099 373C156.719 373.29 94.7793 388.62 94.7793 388.62Z" stroke="#263238" stroke-linecap="round" stroke-linejoin="round"/>
<path d="M95.3097 375.72C92.7397 375.9 92.0997 385.16 94.7797 388.62L153.94 376.34L158.68 365.12L95.3097 375.72Z" fill="#FF9933"/>
<mask id="mask6_209_97" style="mask-type:luminance" maskUnits="userSpaceOnUse" x="93" y="365" width="66" height="24">
<path d="M95.3097 375.72C92.7397 375.9 92.0997 385.16 94.7797 388.62L153.94 376.34L158.68 365.12L95.3097 375.72Z" fill="white"/>
</mask>
<g mask="url(#mask6_209_97)">
<path opacity="0.3" d="M95.3097 375.72C92.7397 375.9 92.0997 385.16 94.7797 388.62L153.94 376.34L158.68 365.12L95.3097 375.72Z" fill="black" fill-opacity="0.7"/>
</g>
<path d="M95.3097 375.72C92.7397 375.9 92.0997 385.16 94.7797 388.62L153.94 376.34L158.68 365.12L95.3097 375.72Z" stroke="#263238" stroke-linecap="round" stroke-linejoin="round"/>
<path d="M195.53 375.59C195.53 375.59 194.65 380.46 195.22 383.46L131.33 397.92L97.6501 388C97.6501 388 94.1501 381.81 97.2001 377L158.74 366.55L195.53 375.59Z" fill="white" stroke="#263238" stroke-linecap="round" stroke-linejoin="round"/>
<path d="M95.3096 375.72L158.68 365.12L198.03 375.09L131.85 388.28L95.3096 375.72Z" fill="#FF9933" stroke="#263238" stroke-linecap="round" stroke-linejoin="round"/>
<path d="M97.5596 381.64L131.07 391.62L185.92 380.58" stroke="#263238" stroke-linecap="round" stroke-linejoin="round"/>
<path d="M195.04 381.6L136.06 394.18" stroke="#263238" stroke-linecap="round" stroke-linejoin="round"/>
<path d="M98.3496 385.57C98.8596 385.62 123.61 393.24 123.61 393.24" stroke="#263238" stroke-linecap="round" stroke-linejoin="round"/>
<path d="M190.22 379.29L194.91 378.53" stroke="#263238" stroke-linecap="round" stroke-linejoin="round"/>
<path d="M129.98 395.09L127.49 394.53" stroke="#263238" stroke-linecap="round" stroke-linejoin="round"/>
<path d="M97.1996 377C98.5109 378.511 99.2698 380.422 99.3515 382.421C99.4333 384.42 98.8331 386.387 97.6496 388C96.5539 386.392 95.931 384.509 95.8515 382.564C95.7719 380.62 96.239 378.692 97.1996 377Z" fill="#263238"/>
<mask id="mask7_209_97" style="mask-type:luminance" maskUnits="userSpaceOnUse" x="95" y="377" width="5" height="11">
<path d="M97.1996 377C98.5109 378.511 99.2698 380.422 99.3515 382.421C99.4333 384.42 98.8331 386.387 97.6496 388C96.5539 386.392 95.931 384.509 95.8515 382.564C95.7719 380.62 96.239 378.692 97.1996 377Z" fill="white"/>
</mask>
<g mask="url(#mask7_209_97)">
<path opacity="0.3" d="M97.1996 377C98.5109 378.511 99.2698 380.422 99.3515 382.421C99.4333 384.42 98.8331 386.387 97.6496 388C96.5539 386.392 95.931 384.509 95.8515 382.564C95.7719 380.62 96.239 378.692 97.1996 377Z" fill="white" fill-opacity="0.7"/>
</g>
<path d="M97.1996 377C98.5109 378.511 99.2698 380.422 99.3515 382.421C99.4333 384.42 98.8331 386.387 97.6496 388C96.5539 386.392 95.931 384.509 95.8515 382.564C95.7719 380.62 96.239 378.692 97.1996 377Z" stroke="#263238" stroke-linecap="round" stroke-linejoin="round"/>
<path d="M234.07 391.62L298.02 394.24L291.79 416.25L213.12 413.25L234.07 391.62Z" fill="white"/>
<mask id="mask8_209_97" style="mask-type:luminance" maskUnits="userSpaceOnUse" x="213" y="391" width="86" height="26">
<path d="M234.07 391.62L298.02 394.24L291.79 416.25L213.12 413.25L234.07 391.62Z" fill="white"/>
</mask>
<g mask="url(#mask8_209_97)">
<path opacity="0.4" d="M234.07 391.62L298.02 394.24L291.79 416.25L213.12 413.25L234.07 391.62Z" fill="#FF9933"/>
</g>
<path d="M234.07 391.62L298.02 394.24L291.79 416.25L213.12 413.25L234.07 391.62Z" stroke="#263238" stroke-linecap="round" stroke-linejoin="round"/>
</g>
<defs>
<clipPath id="clip0_209_97">
<rect width="427" height="444" fill="white"/>
</clipPath>
</defs>
</svg>
