<svg width="415" height="405" viewBox="0 0 415 405" fill="none" xmlns="http://www.w3.org/2000/svg">
<g clip-path="url(#clip0_209_840)">
<path d="M380.66 262.509C380.66 262.509 426.641 212.094 412.025 124.373C397.409 36.6518 322.322 4.33261 272.525 21.2166C222.728 38.1005 211.496 67.4872 170.825 84.2921C130.154 101.097 52.8712 89.5601 14.2252 146.007C-24.4208 202.453 24.9172 295.987 87.7282 354.637C150.539 413.287 310.82 376.569 380.66 262.509Z" fill="#FF9933"/>
<path opacity="0.7" d="M380.66 262.509C380.66 262.509 426.641 212.094 412.025 124.373C397.409 36.6518 322.322 4.33261 272.525 21.2166C222.728 38.1005 211.496 67.4872 170.825 84.2921C130.154 101.097 52.8712 89.5601 14.2252 146.007C-24.4208 202.453 24.9172 295.987 87.7282 354.637C150.539 413.287 310.82 376.569 380.66 262.509Z" fill="white"/>
<path d="M42.4219 404.147H402.557" stroke="#263238" stroke-miterlimit="10"/>
<path d="M98.3032 270.7L112.595 403.972" stroke="#263238" stroke-width="2" stroke-miterlimit="10"/>
<path d="M110.057 376.631L103.703 370.081" stroke="#263238" stroke-width="2" stroke-miterlimit="10"/>
<path d="M105.638 372.048C105.626 371.045 105.395 370.055 104.959 369.146C104.522 368.238 103.892 367.431 103.109 366.78C101.48 365.358 92.8938 361.837 92.0838 364.787C91.1928 368 99.9769 374.304 105.638 372.048Z" fill="#FF9933" stroke="#263238" stroke-miterlimit="10"/>
<path d="M105.638 372.048L97.4658 367.078" stroke="#263238" stroke-width="0.5" stroke-miterlimit="10"/>
<path d="M111.65 391.531L105.305 384.981" stroke="#263238" stroke-width="2" stroke-miterlimit="10"/>
<path d="M107.231 386.948C107.22 385.944 106.988 384.955 106.552 384.046C106.116 383.137 105.485 382.33 104.702 381.68C103.073 380.257 94.4871 376.736 93.6771 379.686C92.7861 382.9 101.57 389.195 107.231 386.948Z" fill="#FF9933" stroke="#263238" stroke-miterlimit="10"/>
<path d="M107.231 386.948L99.0591 381.978" stroke="#263238" stroke-width="0.5" stroke-miterlimit="10"/>
<path d="M106.169 340.273L99.8149 333.732" stroke="#263238" stroke-width="2" stroke-miterlimit="10"/>
<path d="M101.75 335.69C101.739 334.686 101.507 333.697 101.071 332.788C100.635 331.88 100.004 331.073 99.2212 330.422C97.5922 329.008 89.0062 325.479 88.1962 328.429C87.3052 331.651 96.0891 337.946 101.75 335.69Z" fill="#FF9933" stroke="#263238" stroke-miterlimit="10"/>
<path d="M101.75 335.69L93.5781 330.729" stroke="#263238" stroke-width="0.5" stroke-miterlimit="10"/>
<path d="M107.762 355.173L101.408 348.632" stroke="#263238" stroke-width="2" stroke-miterlimit="10"/>
<path d="M103.343 350.589C103.331 349.586 103.1 348.597 102.664 347.688C102.227 346.779 101.597 345.972 100.814 345.321C99.1848 343.899 90.5988 340.378 89.7888 343.328C88.8978 346.542 97.6998 352.846 103.343 350.589Z" fill="#FF9933" stroke="#263238" stroke-miterlimit="10"/>
<path d="M103.343 350.589L95.1709 345.62" stroke="#263238" stroke-width="0.5" stroke-miterlimit="10"/>
<path d="M103.586 316.075L97.2319 309.525" stroke="#263238" stroke-width="2" stroke-miterlimit="10"/>
<path d="M99.1581 311.492C99.1467 310.489 98.9151 309.499 98.4789 308.591C98.0427 307.682 97.4119 306.875 96.6291 306.224C95.0001 304.802 86.4141 301.281 85.6041 304.231C84.7221 307.445 93.5061 313.749 99.1581 311.492Z" fill="#FF9933" stroke="#263238" stroke-miterlimit="10"/>
<path d="M99.1578 311.492L90.9858 306.523" stroke="#263238" stroke-width="0.5" stroke-miterlimit="10"/>
<path d="M100.985 291.772L94.6309 285.222" stroke="#263238" stroke-width="2" stroke-miterlimit="10"/>
<path d="M96.557 287.154C96.5457 286.151 96.3141 285.161 95.8778 284.253C95.4416 283.344 94.8108 282.537 94.028 281.886C92.399 280.464 83.822 276.943 83.003 279.893C82.121 283.142 90.905 289.437 96.557 287.154Z" fill="#FF9933" stroke="#263238" stroke-miterlimit="10"/>
<path d="M96.5573 287.18L88.3853 282.219" stroke="#263238" stroke-width="0.5" stroke-miterlimit="10"/>
<path d="M108.995 367.816L113.819 360.133" stroke="#263238" stroke-width="2" stroke-miterlimit="10"/>
<path d="M112.352 362.442C112.152 361.46 112.17 360.447 112.404 359.472C112.639 358.497 113.084 357.581 113.711 356.788C115.007 355.032 122.657 349.896 124.079 352.618C125.6 355.576 118.4 363.54 112.352 362.442Z" fill="#FF9933" stroke="#263238" stroke-miterlimit="10"/>
<path d="M112.352 362.442L119.705 355.576" stroke="#263238" stroke-width="0.5" stroke-miterlimit="10"/>
<path d="M104.801 328.613L109.625 320.931" stroke="#263238" stroke-width="2" stroke-miterlimit="10"/>
<path d="M108.158 323.231C107.96 322.25 107.978 321.239 108.213 320.265C108.447 319.291 108.892 318.378 109.517 317.585C110.813 315.829 118.463 310.684 119.885 313.406C121.433 316.365 114.17 324.302 108.158 323.231Z" fill="#FF9933" stroke="#263238" stroke-miterlimit="10"/>
<path d="M108.158 323.231L115.511 316.374" stroke="#263238" stroke-width="0.5" stroke-miterlimit="10"/>
<path d="M102.956 311.378L107.789 303.696" stroke="#263238" stroke-width="2" stroke-miterlimit="10"/>
<path d="M106.313 306.005C106.113 305.022 106.131 304.009 106.365 303.034C106.6 302.059 107.045 301.144 107.672 300.35C108.968 298.638 116.618 293.458 118.04 296.18C119.588 299.139 112.325 307.076 106.313 306.005Z" fill="#FF9933" stroke="#263238" stroke-miterlimit="10"/>
<path d="M106.313 306.005L113.666 299.147" stroke="#263238" stroke-width="0.5" stroke-miterlimit="10"/>
<path d="M100.256 286.127L105.08 278.444" stroke="#263238" stroke-width="2" stroke-miterlimit="10"/>
<path d="M103.613 280.744C103.413 279.762 103.431 278.749 103.666 277.774C103.9 276.799 104.346 275.884 104.972 275.09C106.268 273.378 113.918 268.198 115.34 270.92C116.888 273.878 109.625 281.816 103.613 280.744Z" fill="#FF9933" stroke="#263238" stroke-miterlimit="10"/>
<path d="M103.613 280.745L110.966 273.887" stroke="#263238" stroke-width="0.5" stroke-miterlimit="10"/>
<path d="M98.1861 269.971C97.9876 268.99 98.0061 267.979 98.2405 267.005C98.4749 266.032 98.9196 265.118 99.5451 264.326C100.841 262.57 108.491 257.425 109.913 260.147C111.461 263.105 104.198 271.043 98.1861 269.971Z" fill="#FF9933" stroke="#263238" stroke-miterlimit="10"/>
<path d="M98.186 269.971L105.548 263.114" stroke="#263238" stroke-width="0.5" stroke-miterlimit="10"/>
<path d="M98.5999 270.27C97.5766 270.361 96.5452 270.237 95.575 269.907C94.6048 269.577 93.7182 269.048 92.9749 268.356C91.3549 266.925 86.8819 258.953 89.8069 257.864C93.0019 256.67 100.328 264.554 98.5999 270.27Z" fill="#FF9933" stroke="#263238" stroke-miterlimit="10"/>
<path d="M98.6181 270.27L92.3901 262.412" stroke="#263238" stroke-width="0.5" stroke-miterlimit="10"/>
<path d="M135.266 288.743L123.449 403.972" stroke="#263238" stroke-width="2" stroke-miterlimit="10"/>
<path d="M124.412 394.762L119.579 387.079" stroke="#263238" stroke-width="2" stroke-miterlimit="10"/>
<path d="M121.1 389.388C121.299 388.405 121.279 387.392 121.044 386.417C120.808 385.441 120.36 384.527 119.732 383.734C118.436 382.022 110.786 376.85 109.364 379.572C107.771 382.531 115.043 390.459 121.1 389.388Z" fill="#FF9933" stroke="#263238" stroke-miterlimit="10"/>
<path d="M121.055 389.388L114.107 382.882" stroke="#263238" stroke-width="0.5" stroke-miterlimit="10"/>
<path d="M128.282 358.404L123.449 350.721" stroke="#263238" stroke-width="2" stroke-miterlimit="10"/>
<path d="M124.916 353.004C125.116 352.021 125.098 351.009 124.863 350.033C124.629 349.058 124.184 348.143 123.557 347.35C122.261 345.638 114.602 340.466 113.189 343.188C111.641 346.173 118.904 354.101 124.916 353.004Z" fill="#FF9933" stroke="#263238" stroke-miterlimit="10"/>
<path d="M124.916 353.03L117.977 346.533" stroke="#263238" stroke-width="0.5" stroke-miterlimit="10"/>
<path d="M126.698 373.303L121.856 365.621" stroke="#263238" stroke-width="2" stroke-miterlimit="10"/>
<path d="M123.332 367.93C123.532 366.947 123.514 365.935 123.279 364.959C123.045 363.984 122.6 363.069 121.973 362.276C120.677 360.564 113.018 355.392 111.596 358.114C110.057 361.073 117.32 369.001 123.332 367.93Z" fill="#FF9933" stroke="#263238" stroke-miterlimit="10"/>
<path d="M123.332 367.93L116.384 361.433" stroke="#263238" stroke-width="0.5" stroke-miterlimit="10"/>
<path d="M130.856 334.206L126.023 326.523" stroke="#263238" stroke-width="2" stroke-miterlimit="10"/>
<path d="M127.49 328.833C127.69 327.85 127.672 326.837 127.438 325.862C127.203 324.887 126.758 323.972 126.131 323.178C124.835 321.422 117.131 316.286 115.763 319.008C114.215 321.967 121.478 329.895 127.49 328.833Z" fill="#FF9933" stroke="#263238" stroke-miterlimit="10"/>
<path d="M127.49 328.833L120.551 322.327" stroke="#263238" stroke-width="0.5" stroke-miterlimit="10"/>
<path d="M133.439 309.894L128.606 302.212" stroke="#263238" stroke-width="2" stroke-miterlimit="10"/>
<path d="M130.1 304.521C130.299 303.538 130.279 302.524 130.043 301.549C129.808 300.574 129.36 299.659 128.732 298.866C127.436 297.154 119.786 291.983 118.364 294.705C116.798 297.69 124.07 305.592 130.1 304.521Z" fill="#FF9933" stroke="#263238" stroke-miterlimit="10"/>
<path d="M130.082 304.521L123.134 298.024" stroke="#263238" stroke-width="0.5" stroke-miterlimit="10"/>
<path d="M125.231 385.92L131.576 379.37" stroke="#263238" stroke-width="2" stroke-miterlimit="10"/>
<path d="M129.65 381.337C129.66 380.334 129.89 379.345 130.325 378.437C130.76 377.528 131.389 376.721 132.17 376.069C133.799 374.647 142.385 371.117 143.204 374.067C144.086 377.281 135.311 383.585 129.65 381.337Z" fill="#FF9933" stroke="#263238" stroke-miterlimit="10"/>
<path d="M129.65 381.337L138.299 376.104" stroke="#263238" stroke-width="0.5" stroke-miterlimit="10"/>
<path d="M129.398 346.717L135.752 340.167" stroke="#263238" stroke-width="2" stroke-miterlimit="10"/>
<path d="M133.817 342.126C133.828 341.122 134.06 340.133 134.496 339.224C134.932 338.316 135.563 337.509 136.346 336.858C137.975 335.435 146.552 331.914 147.371 334.856C148.262 338.078 139.478 344.382 133.817 342.126Z" fill="#FF9933" stroke="#263238" stroke-miterlimit="10"/>
<path d="M133.817 342.125L142.466 336.893" stroke="#263238" stroke-width="0.5" stroke-miterlimit="10"/>
<path d="M131.234 329.482L137.579 322.932" stroke="#263238" stroke-width="2" stroke-miterlimit="10"/>
<path d="M135.653 324.908C135.663 323.905 135.893 322.916 136.328 322.008C136.763 321.099 137.392 320.292 138.173 319.64C139.802 318.218 148.388 314.688 149.207 317.638C150.089 320.843 141.314 327.147 135.653 324.908Z" fill="#FF9933" stroke="#263238" stroke-miterlimit="10"/>
<path d="M135.653 324.899L144.302 319.666" stroke="#263238" stroke-width="0.5" stroke-miterlimit="10"/>
<path d="M133.916 304.222L140.27 297.672" stroke="#263238" stroke-width="2" stroke-miterlimit="10"/>
<path d="M138.335 299.639C138.346 298.636 138.578 297.647 139.014 296.738C139.45 295.829 140.081 295.022 140.864 294.371C142.493 292.949 151.07 289.419 151.889 292.369C152.78 295.583 143.996 301.887 138.335 299.639Z" fill="#FF9933" stroke="#263238" stroke-miterlimit="10"/>
<path d="M138.335 299.639L146.984 294.406" stroke="#263238" stroke-width="0.5" stroke-miterlimit="10"/>
<path d="M135.302 288.032C135.314 287.029 135.545 286.039 135.981 285.131C136.418 284.222 137.048 283.415 137.831 282.764C139.46 281.342 148.037 277.821 148.856 280.771C149.747 283.958 140.963 290.262 135.302 288.032Z" fill="#FF9933" stroke="#263238" stroke-miterlimit="10"/>
<path d="M135.302 288.006L143.951 282.773" stroke="#263238" stroke-width="0.5" stroke-miterlimit="10"/>
<path d="M135.662 288.383C134.642 288.266 133.661 287.937 132.782 287.419C131.903 286.901 131.149 286.206 130.568 285.38C129.281 283.624 126.59 274.958 129.668 274.476C133.043 273.984 138.551 283.133 135.662 288.383Z" fill="#FF9933" stroke="#263238" stroke-miterlimit="10"/>
<path d="M135.662 288.383L131.225 279.445" stroke="#263238" stroke-width="0.5" stroke-miterlimit="10"/>
<path d="M119.3 235.396L118.427 404.174" stroke="#263238" stroke-width="2" stroke-miterlimit="10"/>
<path d="M119.435 376.157L113.81 369.001" stroke="#263238" stroke-width="2" stroke-miterlimit="10"/>
<path d="M115.52 371.144C115.613 370.147 115.487 369.143 115.15 368.198C114.813 367.253 114.274 366.39 113.567 365.665C112.1 364.084 103.937 359.712 102.812 362.557C101.588 365.665 109.652 372.812 115.52 371.144Z" fill="#FF9933" stroke="#263238" stroke-miterlimit="10"/>
<path d="M115.52 371.143L107.924 365.375" stroke="#263238" stroke-width="0.5" stroke-miterlimit="10"/>
<path d="M119.435 345.023L113.81 337.867" stroke="#263238" stroke-width="2" stroke-miterlimit="10"/>
<path d="M115.52 340.009C115.613 339.013 115.487 338.009 115.15 337.064C114.813 336.119 114.274 335.256 113.567 334.531C112.1 332.95 103.937 328.578 102.812 331.431C101.588 334.566 109.652 341.678 115.52 340.009Z" fill="#FF9933" stroke="#263238" stroke-miterlimit="10"/>
<path d="M115.52 340.01L107.924 334.241" stroke="#263238" stroke-width="0.5" stroke-miterlimit="10"/>
<path d="M119.435 308.472L113.81 301.316" stroke="#263238" stroke-width="2" stroke-miterlimit="10"/>
<path d="M115.52 303.458C115.613 302.462 115.487 301.458 115.15 300.513C114.813 299.568 114.274 298.705 113.567 297.98C112.1 296.399 103.937 292.027 102.812 294.88C101.588 297.98 109.652 305.127 115.52 303.458Z" fill="#FF9933" stroke="#263238" stroke-miterlimit="10"/>
<path d="M115.52 303.458L107.924 297.69" stroke="#263238" stroke-width="0.5" stroke-miterlimit="10"/>
<path d="M119.435 284.134L113.81 276.987" stroke="#263238" stroke-width="2" stroke-miterlimit="10"/>
<path d="M115.52 279.129C115.614 278.131 115.489 277.126 115.152 276.179C114.815 275.233 114.275 274.367 113.567 273.641C112.1 272.07 103.937 267.697 102.812 270.542C101.588 273.641 109.652 280.797 115.52 279.129Z" fill="#FF9933" stroke="#263238" stroke-miterlimit="10"/>
<path d="M115.52 279.129L107.924 273.361" stroke="#263238" stroke-width="0.5" stroke-miterlimit="10"/>
<path d="M119.435 259.699L113.81 252.543" stroke="#263238" stroke-width="2" stroke-miterlimit="10"/>
<path d="M115.52 254.668C115.614 253.67 115.489 252.664 115.152 251.718C114.815 250.772 114.275 249.906 113.567 249.18C112.1 247.6 103.937 243.228 102.812 246.081C101.588 249.207 109.652 256.362 115.52 254.668Z" fill="#FF9933" stroke="#263238" stroke-miterlimit="10"/>
<path d="M115.52 254.694L107.924 248.926" stroke="#263238" stroke-width="0.5" stroke-miterlimit="10"/>
<path d="M119.309 385.657L124.934 378.51" stroke="#263238" stroke-width="2" stroke-miterlimit="10"/>
<path d="M123.224 380.652C123.129 379.655 123.255 378.649 123.592 377.702C123.929 376.756 124.469 375.891 125.177 375.165C126.644 373.593 134.807 369.221 135.932 372.065C137.156 375.165 129.083 382.32 123.224 380.652Z" fill="#FF9933" stroke="#263238" stroke-miterlimit="10"/>
<path d="M123.224 380.652L131.27 374.576" stroke="#263238" stroke-width="0.5" stroke-miterlimit="10"/>
<path d="M119.309 336.146L124.934 328.991" stroke="#263238" stroke-width="2" stroke-miterlimit="10"/>
<path d="M123.224 331.142C123.129 330.144 123.255 329.138 123.592 328.192C123.929 327.245 124.469 326.38 125.177 325.654C126.644 324.074 134.807 319.701 135.932 322.555C137.156 325.654 129.083 332.81 123.224 331.142Z" fill="#FF9933" stroke="#263238" stroke-miterlimit="10"/>
<path d="M123.224 331.142L131.27 325.057" stroke="#263238" stroke-width="0.5" stroke-miterlimit="10"/>
<path d="M119.309 311.703L124.934 304.556" stroke="#263238" stroke-width="2" stroke-miterlimit="10"/>
<path d="M123.224 306.698C123.129 305.701 123.255 304.695 123.592 303.748C123.929 302.802 124.469 301.937 125.177 301.211C126.644 299.639 134.807 295.267 135.932 298.111C137.156 301.202 129.083 308.367 123.224 306.698Z" fill="#FF9933" stroke="#263238" stroke-miterlimit="10"/>
<path d="M123.224 306.698L131.27 300.623" stroke="#263238" stroke-width="0.5" stroke-miterlimit="10"/>
<path d="M119.309 279.401L124.934 272.254" stroke="#263238" stroke-width="2" stroke-miterlimit="10"/>
<path d="M123.224 274.397C123.129 273.399 123.255 272.393 123.592 271.447C123.929 270.5 124.469 269.635 125.177 268.909C126.644 267.337 134.807 262.965 135.932 265.81C137.156 268.909 129.083 276.065 123.224 274.397Z" fill="#FF9933" stroke="#263238" stroke-miterlimit="10"/>
<path d="M123.224 274.397L131.27 268.321" stroke="#263238" stroke-width="0.5" stroke-miterlimit="10"/>
<path d="M119.309 254.009L124.934 246.854" stroke="#263238" stroke-width="2" stroke-miterlimit="10"/>
<path d="M123.224 249.005C123.129 248.007 123.255 247.001 123.592 246.055C123.929 245.108 124.469 244.243 125.177 243.517C126.644 241.937 134.807 237.564 135.932 240.418C137.156 243.517 129.083 250.673 123.224 249.005Z" fill="#FF9933" stroke="#263238" stroke-miterlimit="10"/>
<path d="M123.224 249.005L131.27 242.929" stroke="#263238" stroke-width="0.5" stroke-miterlimit="10"/>
<path d="M118.976 237.74C118.881 236.743 119.007 235.737 119.344 234.79C119.68 233.844 120.221 232.979 120.929 232.253C122.396 230.672 130.559 226.309 131.684 229.153C132.908 232.253 124.835 239.408 118.976 237.74Z" fill="#FF9933" stroke="#263238" stroke-miterlimit="10"/>
<path d="M118.976 237.74L127.022 231.664" stroke="#263238" stroke-width="0.5" stroke-miterlimit="10"/>
<path d="M119.363 238.074C118.335 238.063 117.32 237.837 116.389 237.411C115.457 236.986 114.63 236.37 113.963 235.607C112.505 234.009 108.905 225.632 111.929 224.842C115.232 223.982 121.685 232.56 119.363 238.074Z" fill="#FF9933" stroke="#263238" stroke-miterlimit="10"/>
<path d="M119.363 238.074L114.017 229.636" stroke="#263238" stroke-width="0.5" stroke-miterlimit="10"/>
<path d="M347.936 404.148L342.734 345.646H219.569L212.765 404.148H347.936Z" fill="#263238" stroke="#263238" stroke-miterlimit="10"/>
<path d="M272.498 168.334C272.498 168.334 236.498 177.992 220.748 189.617C204.998 201.242 194.108 213.13 196.646 235.651C199.184 258.171 215.672 319.789 215.672 319.789C215.672 319.789 213.386 344.786 213.386 346.27C213.386 347.754 213.134 351.959 218.714 352.205C224.294 352.451 291.263 355.182 306.23 355.427C321.197 355.673 340.988 354.189 343.265 352.46C344.392 351.546 345.313 350.414 345.968 349.136C346.623 347.857 346.999 346.46 347.072 345.032C347.324 342.064 349.862 305.68 349.862 305.68L350.114 289.349C350.114 289.349 366.611 235.896 367.619 218.573C368.627 201.251 362.039 195.561 354.686 190.117C347.333 184.674 324.437 175.455 312.071 171.802C299.705 168.15 272.498 168.334 272.498 168.334Z" fill="#FF9933" stroke="#263238" stroke-miterlimit="10"/>
<path d="M281.381 251.393C279.581 275.494 276.287 319.877 276.575 327.524C276.98 338.06 272.579 341.177 272.579 345.084" stroke="#263238" stroke-miterlimit="10"/>
<path d="M282.578 235.844C282.578 235.844 282.254 239.944 281.759 246.432" stroke="#263238" stroke-miterlimit="10"/>
<path d="M298.652 266.802L300.956 293.318L313.853 292.422L298.652 266.802Z" fill="#263238" stroke="#263238" stroke-miterlimit="10"/>
<path d="M286.43 313.037C286.43 313.037 317.93 308.208 320.297 308.718C322.664 309.227 338.792 316.848 341.141 317.357C342.669 317.71 344.154 318.222 345.569 318.885L349.106 321.774L347.9 313.037C347.9 313.037 343.211 307.445 332.789 303.379C322.367 299.314 317.156 301.623 314.789 302.37C312.422 303.116 286.43 313.037 286.43 313.037Z" fill="#263238" stroke="#263238" stroke-miterlimit="10"/>
<path d="M237.992 289.85L319.892 289.595C319.892 289.595 346.28 287.128 347.288 286.873C348.296 286.619 358.709 289.349 359.726 290.095C360.743 290.842 360.734 293.063 360.23 295.293L359.726 297.514C360.097 299.397 360.35 301.3 360.482 303.213C360.482 304.969 358.457 305.434 358.196 306.18C357.935 306.927 359.726 309.64 357.692 311.378L355.667 313.134C355.667 313.134 355.406 317.84 354.398 319.078C353.39 320.316 350.339 322.538 349.07 321.8C347.801 321.062 348.305 319.078 348.305 317.84C348.305 316.602 347.801 315.364 346.28 315.364C344.759 315.364 344.48 316.602 336.641 314.618C328.802 312.634 320.153 305.961 319.388 305.706C318.623 305.452 249.881 323.53 229.586 326.006C209.291 328.482 207.518 325.76 206.753 322.494C205.988 319.227 204.728 311.606 204.728 311.606L201.128 296.514L237.992 289.85Z" fill="white" stroke="#263238" stroke-miterlimit="10"/>
<path d="M291.245 197.343C291.245 197.343 295.484 192.953 298.157 194.946C300.83 196.94 303.278 207.335 306.617 206.466C309.956 205.597 316.643 185.394 316.643 177.351C316.643 169.309 310.847 164.533 309.515 164.094C308.183 163.655 274.1 163.216 270.086 164.752C266.072 166.289 264.524 179.959 262.967 188.212C261.41 196.465 264.965 198.423 267.197 197.343C269.429 196.264 278.105 192.778 280.112 192.778C282.119 192.778 291.245 197.343 291.245 197.343Z" fill="#FF9933" stroke="#263238" stroke-miterlimit="10"/>
<path d="M314.06 151.538C314.06 151.538 310.865 166.938 309.623 170.74C308.381 174.542 299.336 186.14 297.023 188.564C294.71 190.987 287.978 202.919 286.223 203.27C284.468 203.621 279.5 187.352 279.5 187.352C279.5 187.352 273.11 176.623 271.868 173.857C270.626 171.091 268.7 162.961 268.7 162.961C268.7 162.961 279.158 171.741 290.3 169.88C301.442 168.018 307.139 157.079 307.139 157.079L314.06 151.538Z" fill="white" stroke="#263238" stroke-miterlimit="10"/>
<path d="M270.761 120.861C270.761 120.861 267.638 117.595 265.856 122.617C264.074 127.639 267.656 136.516 267.656 136.516L270.761 120.861Z" fill="white" stroke="#263238" stroke-miterlimit="10"/>
<path d="M271.319 110.676C271.319 110.676 266.18 146.314 266.18 148.43C266.18 150.546 264.758 157.421 266.891 161.925C269.024 166.429 275.396 171.952 280.544 172.645C285.692 173.339 295.79 172.303 301.469 167.974C307.148 163.646 313.7 154.313 313.7 154.313C313.7 154.313 320.801 153.268 325.4 151.372C329.999 149.475 333.554 145.138 333.383 140.642C333.179 137.764 332.132 135.003 330.368 132.688L327.668 127.841L334.76 114.864C334.76 114.864 330.683 107.428 317.561 100.333C304.439 93.2391 292.73 90.9915 287.24 90.9915C281.75 90.9915 274.82 93.2391 272.84 97.5677C270.86 101.896 271.319 110.676 271.319 110.676Z" fill="white" stroke="#263238" stroke-miterlimit="10"/>
<path d="M288.167 93.239C288.167 93.239 298.274 109.5 305.906 108.815C313.538 108.13 315.806 104.662 315.806 104.662L320.945 111.405C320.945 111.405 315.455 113.653 316.517 116.427C317.579 119.201 322.367 125.418 322.367 125.418L318.461 141.678C318.461 141.678 321.476 142.196 322.016 141.16C322.556 140.124 325.202 133.724 325.202 133.724C325.917 133.276 326.693 132.927 327.506 132.688C328.443 132.491 329.413 132.491 330.35 132.688C330.35 132.688 332.294 126.287 333.05 126.111C333.806 125.936 340.853 124.03 343.517 117.287C346.181 110.544 342.095 99.8153 332.87 91.3426C323.645 82.8699 304.142 80.6134 303.08 79.0506C302.018 77.4877 308.048 79.7354 306.806 76.2761C305.564 72.8168 297.761 68.3214 287.834 73.168C277.907 78.0145 279.32 83.3703 280.382 85.1L281.444 86.856C281.444 86.856 273.11 84.0903 267.26 87.5496C261.41 91.0089 258.575 97.9276 261.23 98.6212C263.885 99.3148 267.26 97.7432 267.26 97.7432C267.26 97.7432 263.714 103.45 264.776 104.662C265.838 105.873 271.337 110.711 271.337 110.711C271.337 110.711 273.47 98.6036 277.898 96.874C282.326 95.1443 288.167 93.239 288.167 93.239Z" fill="#263238" stroke="#263238" stroke-miterlimit="10"/>
<path d="M284.972 116.594L286.574 121.616L277.529 138.219L287.105 141.854" stroke="#263238" stroke-miterlimit="10"/>
<path d="M283.199 114.689C283.199 114.689 278.951 111.405 275.396 112.274C271.841 113.143 273.983 113.653 276.467 114.522C278.951 115.391 283.91 117.63 283.199 114.689Z" fill="#263238" stroke="#263238" stroke-miterlimit="10"/>
<path d="M296.33 114.004C296.33 114.004 292.244 115.04 294.197 115.9C296.15 116.761 302 115.022 304.304 115.9C306.608 116.778 309.623 119.711 309.452 118.323C309.19 117.13 308.614 116.024 307.781 115.115C306.948 114.205 305.886 113.522 304.7 113.134C301.469 112.098 296.33 114.004 296.33 114.004Z" fill="#263238" stroke="#263238" stroke-miterlimit="10"/>
<path d="M280.859 122.371C280.544 123.627 279.68 124.496 278.915 124.312C278.15 124.127 277.79 122.977 278.096 121.721C278.402 120.466 279.284 119.597 280.04 119.772C280.796 119.948 281.165 121.116 280.859 122.371Z" fill="#263238"/>
<path d="M300.2 127.305C299.885 128.552 299.012 129.421 298.256 129.246C297.5 129.07 297.131 127.902 297.437 126.612C297.743 125.321 298.616 124.487 299.381 124.671C300.146 124.856 300.497 126.05 300.2 127.305Z" fill="#263238"/>
<path d="M272.03 143.926L279.302 148.597" stroke="#263238" stroke-miterlimit="10"/>
<path d="M346.82 185.903C346.82 185.903 371.93 195.315 376.754 209.416C381.578 223.517 375.485 241.34 372.947 248.768C370.409 256.196 354.686 285.143 352.148 292.071C349.61 298.998 345.803 307.418 345.803 307.418C345.803 307.418 342.257 286.627 332.6 273.765C322.943 260.902 320.675 249.26 320.675 249.26C320.675 249.26 338.18 219.065 342.743 209.662" fill="#FF9933"/>
<path d="M346.82 185.903C346.82 185.903 371.93 195.315 376.754 209.416C381.578 223.517 375.485 241.34 372.947 248.768C370.409 256.196 354.686 285.143 352.148 292.071C349.61 298.998 345.803 307.418 345.803 307.418C345.803 307.418 342.257 286.627 332.6 273.765C322.943 260.902 320.675 249.26 320.675 249.26C320.675 249.26 338.18 219.065 342.743 209.662" stroke="#263238" stroke-miterlimit="10"/>
<path d="M323.357 244.027C323.357 244.027 328.496 241.524 330.206 242.358C331.916 243.193 353.903 254.65 356.756 267.706C358.816 277.527 357.408 287.74 352.76 296.68C350.186 301.422 345.335 310.605 341.627 311.72C337.919 312.836 334.769 283.036 327.065 267.443C319.361 251.85 323.357 244.027 323.357 244.027Z" fill="#FF9933" stroke="#263238" stroke-miterlimit="10"/>
<path d="M331.853 229.707C331.853 229.707 336.416 214.614 338.198 208.678" stroke="#263238" stroke-miterlimit="10"/>
<path d="M286.043 176.105C286.043 176.105 278.951 166.447 273.443 160.02C267.935 153.593 262.265 149.809 260.321 150.362C258.377 150.915 257.621 152.785 258.899 155.033C260.177 157.28 265.991 162.303 267.053 163.69C268.115 165.077 269.753 170.09 269.753 170.09C269.753 170.09 264.614 170.433 263.723 171.469C262.894 172.671 262.183 173.947 261.599 175.279C260.528 175.808 259.603 176.579 258.899 177.527C258.369 178.25 258.007 179.077 257.837 179.95C257.657 180.644 255.137 181.856 255.353 184.964C255.569 188.072 258.548 192.576 259.61 194.622C260.672 196.667 268.475 205.86 269.897 207.423C271.319 208.986 279.473 222.814 281.597 227.485C283.721 232.156 304.295 286.311 310.325 294.441C316.355 302.572 327.524 310.351 333.554 313.125C339.584 315.9 343.841 311.22 346.676 305.337C349.511 299.455 351.995 287.69 346.505 274.195C341.015 260.7 330.188 249.11 321.854 242.192C313.52 235.273 297.914 217.976 296.141 214.86C294.368 211.743 292.1 204.824 292.1 204.824C292.1 204.824 296.708 191.654 297.059 188.563C297.41 185.473 295.646 179.915 296.159 177.492C296.672 175.069 298.814 170.222 299.705 168.15C300.596 166.078 303.602 162.61 302.009 161.056C300.416 159.502 293.855 161.398 291.551 165.033C289.496 168.616 287.657 172.313 286.043 176.105Z" fill="white" stroke="#263238" stroke-miterlimit="10"/>
<path d="M231.233 213.569C231.764 210.821 232.133 208.924 232.133 208.924L231.233 213.569Z" fill="#FF9933"/>
<path d="M231.233 213.569C231.764 210.821 232.133 208.924 232.133 208.924" stroke="#263238" stroke-miterlimit="10"/>
<path d="M229.622 185.166C229.622 185.166 216.176 186.922 202.226 201.496C188.276 216.071 194.36 250.743 195.629 257.925C196.898 265.107 198.932 287.154 198.932 287.154L234.698 275.521C234.698 275.521 228.866 236.669 228.353 233.201C228.101 231.445 229.073 225.299 230.099 219.592" fill="#FF9933"/>
<path d="M229.622 185.166C229.622 185.166 216.176 186.922 202.226 201.496C188.276 216.071 194.36 250.743 195.629 257.925C196.898 265.107 198.932 287.154 198.932 287.154L234.698 275.521C234.698 275.521 228.866 236.669 228.353 233.201C228.101 231.445 229.073 225.299 230.099 219.592" stroke="#263238" stroke-miterlimit="10"/>
<path d="M195.377 279.454C195.377 279.454 198.932 298.015 200.705 298.998C202.478 299.982 230.126 292.571 233.177 292.071C236.228 291.57 237.992 292.317 237.992 289.85C237.992 287.382 235.454 275.74 233.933 273.765C232.412 271.789 199.436 275.986 196.646 276.732C193.856 277.479 195.377 279.454 195.377 279.454Z" fill="#FF9933" stroke="#263238" stroke-miterlimit="10"/>
<path d="M215.6 265.107C221.901 267.569 228.015 270.462 233.897 273.764C233.897 273.764 225.275 257.961 221.72 254.703" stroke="#263238" stroke-miterlimit="10"/>
<path d="M210.848 263.369C211.865 263.712 212.873 264.072 213.863 264.432" stroke="#263238" stroke-miterlimit="10"/>
<path d="M294.044 344.382C300.605 342.099 306.644 339.588 310.244 337.112" stroke="#263238" stroke-miterlimit="10"/>
<path d="M263.111 353.197C263.111 353.197 277.124 349.957 290.426 345.603" stroke="#263238" stroke-miterlimit="10"/>
<path d="M322.052 336.085C315.158 339.439 304.241 344.338 295.322 346.516" stroke="#263238" stroke-miterlimit="10"/>
<path d="M328.811 332.661C328.811 332.661 327.398 333.425 325.049 334.601" stroke="#263238" stroke-miterlimit="10"/>
<path d="M91.5078 18.6089C31.1448 46.9771 19.6968 130.264 57.9828 180.328C65.9838 190.794 76.4418 199.644 88.8348 204.745C131.135 222.243 165.038 187.448 185.657 155.472C218.579 104.433 222.692 91.8166 222.107 100.412C221.522 109.008 236.804 118.192 245.624 72.922C256.901 14.974 173.777 1.804 131.702 7.28272C117.776 8.96992 104.211 12.7924 91.5078 18.6089Z" fill="#263238" stroke="#263238" stroke-miterlimit="10"/>
<path d="M240.518 123.955C244.058 117.719 243.819 110.984 239.984 108.912C236.149 106.84 230.17 110.215 226.63 116.451C223.09 122.686 223.329 129.421 227.164 131.493C230.999 133.566 236.978 130.19 240.518 123.955Z" fill="#263238" stroke="#263238" stroke-miterlimit="10"/>
<path d="M246.821 125.233C244.733 128.912 244.877 132.898 247.136 134.119C249.395 135.339 252.941 133.346 255.029 129.667C257.117 125.988 256.982 122.002 254.714 120.782C252.446 119.561 248.9 121.546 246.821 125.233Z" fill="#263238" stroke="#263238" stroke-miterlimit="10"/>
<path d="M94.9999 13.218C34.6189 41.551 23.1709 124.838 61.4569 174.902C69.4579 185.367 79.9249 194.218 92.3089 199.319C134.609 216.817 168.512 182.022 189.131 150.045C222.053 99.0073 226.175 86.3905 225.581 94.9861C224.987 103.582 240.278 112.766 249.098 67.4608C260.375 9.51281 177.251 -3.65719 135.176 1.82153C121.252 3.53279 107.693 7.37901 94.9999 13.218Z" fill="white" stroke="#263238" stroke-miterlimit="10"/>
<path d="M230.108 111.027C226.562 117.261 226.805 123.995 230.639 126.067C234.473 128.139 240.449 124.759 243.995 118.525C247.541 112.292 247.289 105.557 243.455 103.485C239.621 101.413 233.645 104.793 230.108 111.027Z" fill="white" stroke="#263238" stroke-miterlimit="10"/>
<path d="M250.304 119.807C248.207 123.495 248.351 127.472 250.619 128.693C252.887 129.913 256.415 127.929 258.503 124.241C260.591 120.554 260.456 116.576 258.188 115.356C255.92 114.135 252.392 116.12 250.304 119.807Z" fill="white" stroke="#263238" stroke-miterlimit="10"/>
<path d="M63.1128 75.9511V64.3527H70.3128C70.6567 62.4337 71.1717 60.5476 71.8518 58.7159L65.5968 55.2039L71.5998 45.1508L77.8998 48.6628C79.1857 47.1713 80.6009 45.7907 82.1298 44.5362L78.5298 38.3902L88.8258 32.5867L92.4258 38.7327C94.3034 38.0692 96.2367 37.5668 98.2038 37.2313V30.2073H110.093V37.2752C112.061 37.6036 113.994 38.1031 115.871 38.7678L119.471 32.6657L129.767 38.4693L126.167 44.6153C127.693 45.8698 129.105 47.2505 130.388 48.7419L136.688 45.2299L142.628 55.2742L136.328 58.7862C137.009 60.6168 137.521 62.5033 137.858 64.4229H145.058V76.0213H137.858C137.513 77.943 136.998 79.8318 136.319 81.6669L142.574 85.1789L136.634 95.2232L130.334 91.7112C129.05 93.202 127.635 94.5799 126.104 95.829L129.704 101.975L119.408 107.77L115.808 101.624C113.928 102.287 111.991 102.787 110.021 103.116V110.14H98.1318V103.116C96.1647 102.781 94.2314 102.278 92.3538 101.615L88.7538 107.761L78.4398 101.896L82.0398 95.75C80.5109 94.4955 79.0957 93.1149 77.8098 91.6234L71.5098 95.1354L65.5608 85.0911L71.8608 81.5791C71.1818 79.744 70.6669 77.8552 70.3218 75.9335L63.1128 75.9511ZM104.09 91.7551C108.473 91.7551 112.757 90.4871 116.401 88.1115C120.045 85.7358 122.885 82.3593 124.562 78.4089C126.239 74.4585 126.677 70.1117 125.821 65.9183C124.966 61.7249 122.854 57.8733 119.755 54.8505C116.655 51.8278 112.706 49.7697 108.407 48.9366C104.108 48.1036 99.6527 48.5329 95.6041 50.1703C91.5554 51.8078 88.0954 54.5798 85.6617 58.1357C83.228 61.6916 81.93 65.8718 81.9318 70.1475C81.9294 72.9873 82.5009 75.7996 83.6135 78.4238C84.7261 81.0479 86.358 83.4324 88.4159 85.4408C90.4738 87.4493 92.9174 89.0422 95.6068 90.1287C98.2963 91.2152 101.179 91.7738 104.09 91.7726V91.7551Z" fill="#CCCCCC"/>
<path d="M79.979 144.11V134.689H85.865C86.1459 133.126 86.5645 131.59 87.116 130.097L82.031 127.235L86.864 119.069L91.967 121.941C93.0095 120.726 94.16 119.604 95.405 118.587L92.462 113.617L100.832 108.902L103.766 113.872C105.292 113.331 106.864 112.922 108.464 112.651V106.909H118.13V112.651C119.729 112.924 121.301 113.333 122.828 113.872L125.771 108.911L134.141 113.626L131.198 118.578C132.441 119.597 133.591 120.719 134.636 121.932L139.73 119.061L144.563 127.226L139.469 130.097C140.021 131.587 140.439 133.12 140.72 134.68H146.606V144.128H140.72C140.44 145.688 140.022 147.221 139.469 148.711L144.554 151.573L139.721 159.747L134.6 156.867C133.555 158.08 132.405 159.202 131.162 160.221L134.096 165.191L125.726 169.906L122.792 164.945C121.265 165.483 119.693 165.891 118.094 166.165V171.899H108.5V166.157C106.899 165.892 105.326 165.483 103.802 164.936L100.859 169.906L92.489 165.191L95.432 160.213C94.192 159.193 93.0447 158.071 92.003 156.859L86.9 159.73L82.067 151.564L87.161 148.702C86.6095 147.209 86.191 145.673 85.91 144.11H79.979ZM113.279 156.973C116.839 156.973 120.319 155.943 123.279 154.013C126.239 152.084 128.546 149.341 129.909 146.133C131.271 142.924 131.628 139.393 130.933 135.987C130.239 132.581 128.524 129.452 126.007 126.996C123.49 124.54 120.282 122.868 116.791 122.19C113.299 121.513 109.68 121.86 106.391 123.189C103.102 124.518 100.29 126.769 98.3126 129.657C96.3347 132.545 95.279 135.94 95.279 139.413C95.279 141.72 95.7452 144.005 96.6509 146.137C97.5566 148.268 98.8841 150.205 100.557 151.836C102.231 153.467 104.217 154.76 106.403 155.641C108.589 156.523 110.932 156.975 113.297 156.973H113.279Z" fill="#CCCCCC"/>
<path d="M141.395 122.564V115.382H145.895C146.105 114.186 146.424 113.01 146.849 111.87L142.97 109.684L146.651 103.467L150.539 105.654C151.334 104.729 152.21 103.874 153.158 103.099L150.917 99.3145L157.289 95.7235L159.53 99.5077C160.699 99.093 161.904 98.7815 163.13 98.577V94.187H170.492V98.577C171.718 98.7841 172.922 99.0955 174.092 99.5077L176.333 95.7323L182.705 99.3233L180.464 103.107C181.412 103.883 182.288 104.738 183.083 105.662L186.962 103.476L190.643 109.692L186.773 111.879C187.176 113.022 187.477 114.197 187.673 115.391H192.173V122.573H187.673C187.463 123.769 187.144 124.944 186.719 126.085L190.58 128.236L186.899 134.461L183.011 132.275C182.216 133.196 181.34 134.048 180.392 134.821L182.633 138.614L176.261 142.205L174.02 138.421C172.85 138.831 171.645 139.143 170.42 139.351V143.741H163.058V139.351C161.834 139.162 160.63 138.868 159.458 138.473L157.217 142.249L150.845 138.658L153.086 134.874C152.14 134.096 151.264 133.241 150.467 132.319L146.588 134.505L142.952 128.236L146.822 126.058C146.404 124.916 146.088 123.741 145.877 122.546L141.395 122.564ZM166.766 132.354C169.479 132.354 172.131 131.569 174.386 130.099C176.642 128.628 178.4 126.539 179.438 124.094C180.476 121.649 180.748 118.958 180.218 116.362C179.689 113.767 178.383 111.383 176.465 109.511C174.546 107.64 172.103 106.366 169.442 105.849C166.781 105.333 164.023 105.598 161.517 106.611C159.011 107.624 156.869 109.339 155.362 111.539C153.854 113.739 153.05 116.326 153.05 118.973C153.05 122.522 154.495 125.925 157.067 128.435C159.64 130.944 163.128 132.354 166.766 132.354Z" fill="#CCCCCC"/>
<path d="M167.612 56.1257V48.9437H172.112C172.326 47.7484 172.645 46.5734 173.066 45.4317L169.196 43.2543L172.877 37.0292L176.756 39.2155C177.555 38.295 178.431 37.4405 179.375 36.6605L177.134 32.8763L183.515 29.2853L185.747 33.0695C186.916 32.6547 188.121 32.3433 189.347 32.1388V27.7488H196.7V32.1388C197.925 32.3473 199.13 32.6587 200.3 33.0695L202.532 29.2941L208.913 32.8851L206.6 36.6868C207.543 37.4646 208.416 38.3194 209.21 39.2418L213.098 37.0556L216.779 43.2806L212.9 45.458C213.321 46.5997 213.64 47.7748 213.854 48.97H218.354V56.1521H213.854C213.643 57.3471 213.327 58.5221 212.909 59.6641L216.779 61.8415L213.098 68.0665L209.219 65.8803C208.422 66.8001 207.545 67.6519 206.6 68.4265L208.841 72.2195L202.46 75.8105L200.228 72.0263C199.08 72.4213 197.9 72.7209 196.7 72.9219V77.3119H189.338V72.9219C188.114 72.7305 186.91 72.4367 185.738 72.0439L183.506 75.8193L177.125 72.2283L179.366 68.4441C178.422 67.6641 177.546 66.8095 176.747 65.8891L172.868 68.0753L169.187 61.8503L173.066 59.6729C172.641 58.5324 172.321 57.357 172.112 56.1609L167.612 56.1257ZM192.983 65.8979C195.698 65.8996 198.352 65.1158 200.61 63.6456C202.869 62.1754 204.629 60.0849 205.669 57.6384C206.71 55.1919 206.983 52.4995 206.454 49.9016C205.926 47.3037 204.619 44.9171 202.7 43.0437C200.781 41.1702 198.335 39.8941 195.673 39.3768C193.01 38.8595 190.25 39.1241 187.742 40.1373C185.233 41.1504 183.089 42.8666 181.581 45.0687C180.072 47.2707 179.267 49.8598 179.267 52.5084C179.267 56.058 180.712 59.4623 183.284 61.9731C185.856 64.4838 189.344 65.8955 192.983 65.8979Z" fill="#CCCCCC"/>
</g>
<defs>
<clipPath id="clip0_209_840">
<rect width="415" height="405" fill="white"/>
</clipPath>
</defs>
</svg>
