<svg xmlns="http://www.w3.org/2000/svg" enable-background="new 0 0 850 850" viewBox="0 0 850 850"><rect width="134.7" height="269.1" x="630.2" y="446.9" fill="#ffc0b8"/><rect width="134.7" height="269.1" x="667.9" y="446.9" fill="#ffc0b8"/><path fill="#e56f54" d="M816.8,435.2v7.1c0,2.5-2,4.5-4.4,4.5H169.7c-2.4,0-4.4-2-4.4-4.5v-7.1c0-2.5,2-4.5,4.4-4.5h642.7
				C814.8,430.7,816.8,432.7,816.8,435.2L816.8,435.2z"/><rect width="184.6" height="269.1" x="211.4" y="446.9" fill="#ffc0b8"/><rect width="184.6" height="269.1" x="263.2" y="446.9" fill="#d3d6db"/><path fill="#ffc0b8" d="M437.8,701.1H273.1V454.5h164.8V701.1z M274.9,699.3h161.2v-243H274.9V699.3z"/><rect width="163" height="1.8" x="274" y="536.1" fill="#ffc0b8"/><rect width="163" height="1.8" x="274" y="619.2" fill="#ffc0b8"/><path fill="#ffc0b8" d="M372.2,470.4h-30.2c-1.5,0-2.7-1.2-2.7-2.7c0-1.5,1.2-2.7,2.7-2.7h30.2c1.5,0,2.7,1.2,2.7,2.7
				C374.8,469.2,373.6,470.4,372.2,470.4L372.2,470.4z"/><path fill="#ffc0b8" d="M372.2,551.7h-30.2c-1.5,0-2.7-1.2-2.7-2.7c0-1.5,1.2-2.7,2.7-2.7h30.2c1.5,0,2.7,1.2,2.7,2.7
				C374.8,550.5,373.6,551.7,372.2,551.7L372.2,551.7z"/><path fill="#ffc0b8" d="M372.2,636.5h-30.2c-1.5,0-2.7-1.2-2.7-2.7c0-1.5,1.2-2.7,2.7-2.7h30.2c1.5,0,2.7,1.2,2.7,2.7
				C374.8,635.3,373.6,636.5,372.2,636.5L372.2,636.5z"/><path fill="#a5a8ad" d="M755.1,536.6v13.5c0,3.4-2.8,6.2-6.2,6.2H566.8c-3.4,0-6.2-2.8-6.2-6.2v-7.3c0-3.4,2.8-6.2,6.2-6.2h127.3
				l45.9-5.5L755.1,536.6z"/><path fill="#a5a8ad" d="M685.6,542.8v7.3c0,3.4-2.8,6.2-6.2,6.2H566.8c-3.4,0-6.2-2.8-6.2-6.2v-7.3c0-3.4,2.8-6.2,6.2-6.2h112.6
				C682.8,536.6,685.6,539.4,685.6,542.8L685.6,542.8z"/><path fill="#d3d6db" d="M594.4,556.2l-5.5,24.7v0L558.8,715c-0.1,0.5-0.5,0.9-1,0.9h0c-1,0-1.7-1.1-1.5-2.3l25.4-144.8v0l2.2-12.6
				L594.4,556.2z"/><path fill="#d3d6db" d="M643.5,556.2l-5.5,24.7v0L607.8,715c-0.1,0.5-0.5,0.9-1,0.9h0c-1,0-1.7-1.1-1.5-2.3l25.4-144.8v0l2.2-12.6
				L643.5,556.2z"/><path fill="#d3d6db" d="M678.1,556.3l5.5,24.7v0l29.8,134.1c0.1,0.5,0.5,0.9,1,0.9h0c1,0,1.7-1.1,1.5-2.3l-25.1-144.9v0l-2.2-12.6
				L678.1,556.3z"/><path fill="#d3d6db" d="M730.2,556.3l5.5,24.7v0l29.8,134.1c0.1,0.5,0.5,0.9,1,0.9h0c1,0,1.8-1.1,1.5-2.3l-25.1-144.9v0l-2.2-12.6
				L730.2,556.3z"/><path fill="#d3d6db" d="M736.3,321.5c-35.2-2.6-66.5,31.9-69.9,77.2c-1.5,20.3,2.8,39.3,11.3,54.3c2.1,3.8,3.8,7.8,5.1,12
				c9.7,32.8,17.5,72-0.3,71.8h72.6c0,0,0-48.4,22.6-94.5C811.6,372.9,771.6,324.2,736.3,321.5L736.3,321.5z"/><path fill="#ffa982" d="M411.1,519.4L411.1,519.4C411.2,519.4,411.1,519.4,411.1,519.4L411.1,519.4z"/><path fill="#0a0a0c" d="M155.5,722.5c-0.4,1.1-1.3,1.8-2.4,1.8c-3,0.2-70.3,1.5-70.5-0.2c-0.1-0.5-0.1-1.1-0.2-1.7v0
				c-0.7-9.1,0.4-29.2,0.4-29.2h32.9c0,0-3.2,12.6,10.1,15.3c10.7,2.2,24.1,4.5,27.1,7.3C155.7,718.3,156.1,720.9,155.5,722.5z"/><path fill="#0a0a0c" d="M248.6,719.9c-0.4,1.1-1.2,1.8-2.1,1.8c-2.7,0.2-63.5,1.5-63.7-0.2c-0.1-0.5-0.1-1.1-0.1-1.7v0
				c-0.6-9.1,0.3-29.2,0.3-29.2H210c0,0-0.3,12.6,11.8,15.3c9.7,2.2,21.8,4.5,24.5,7.3C248.7,715.7,249.2,718.3,248.6,719.9z"/><path fill="#631db0" d="M210,693.3h-27.5c-9-20.8-18-114.1-19.7-127.6c-0.7-5.9-17.8-37.3-36.7-70.5c-1.5-2.6-2.9-5.2-4.4-7.8
				c-12.6-22.1-25.5-44.2-34.6-59.6c-3.4-5.7-6.2-10.5-8.2-14c-2.4-4.1-3.8-6.5-3.8-6.5h82.7c2.5,2.5,5.8,9.3,9.5,18.6
				c14.7,36.9,35.9,113.3,37.7,120C207.2,554.4,210,693.3,210,693.3z"/><path fill="#631db0" d="M129.3,428.9c-0.3,9.5-0.8,21.2-1.4,33.5c-0.5,10.7-1.2,22-1.8,32.8c-1.4,25.2-2.8,48-3,56
				c-0.5,19.3-6.6,140.9-5.9,144.6c-1.1-0.4-14.6,0.9-25.7,1.3c-1.4,0-2.8,0.1-4,0.1c-0.1,0-0.1,0-0.2,0c-5.5,0.1-5,1.1-5.5,0.1
				c-1.4-3.4-1.7-115.8-2.1-139.7c0-0.1,0-0.2,0-0.3c0-0.2,0-0.4,0-0.5c0-0.1,0-0.2,0-0.3c-0.5-21-19.2-105.5-19.7-119.2
				c-0.1-3.6,0.4-7.4,1.1-11.2c2.2-10.8,6.8-20.8,6.8-20.8s4-0.8,10-1.8c16.9-2.8,49.5-6.7,51.1,4
				C129.6,410.5,129.6,418.4,129.3,428.9z"/><path fill="#fcc0a9" d="M178,240.9c6-4.5,22.4-3.3,29.6,2.5c7.2,5.8-7.6,16.8-13.3,15.7c-5.8-1.1-18.4-4.5-18.7-8.2
				C175.3,247.3,176.3,242.2,178,240.9z"/><path fill="#fcc0a9" d="M207.6,243.5c6.5,4.5,1.5,24.9,0.7,31.5c-0.8,6.6-20.6,4.4-22.1,1.6c-1.4-2.8-0.2-12.7-1.7-20.6
				C183.3,250.1,202.5,239.9,207.6,243.5z"/><path fill="#ed3b26" d="M178.9,346.2c1.4,1.8,13.7,21,23.1,12.3c16.2-15.1,6.3-81.3,6.3-83.5s-9.4,6.4-21.3,0.3
				c-2.7-1.4-0.5,43-3.2,41c-2.7-1.9-6-62.5-12.1-67c-6.1-4.5-14,73.8-14,73.8S174,340.1,178.9,346.2z"/><path fill="#fcc0a9" d="M202.9,272.9c2.5,2.2-0.1,10.5-8.7,10.1c-8.5-0.4-11.6-7.8-5-6.8C197.5,277.4,200.3,270.6,202.9,272.9z"/><path fill="#ed3b26" d="M162.6,409.9c-0.5,10.2-56.6,8.2-83.6,5c-7.4-0.9-12.6-1.8-13.9-2.7c-2.7-1.7-2.7-12.3-1.6-25.5
				c0.3-3.5,0.6-7.3,1.1-11.1c0.8-7.1,1.7-14.5,2.5-21.3c0.1-0.9,0.2-1.9,0.2-2.8c1.1-24.3-18.1-62.3-15.9-80.1
				c2.3-18.6,27.6-27.2,33.4-30.4c5.8-3.2,30.8-21.4,30.8-21.4s25.7,5.5,29.2,6.4c3.5,0.9,10.9,12.2,26.8,23.3
				c9.4,6.5-6.2,64.1-9.1,85.5S163.5,391.3,162.6,409.9z"/><path fill="#fcc0a9" d="M116.1,233.7c-1.3-6.6,0.9-32.9,0-40.2c-0.9-7.3,28.9,10.8,28.9,10.8c0,0.1,0,0.9-0.1,2.2
				c0,1.7-0.1,4.3-0.1,7.3c-0.1,8,0.1,18.9,1.4,23.3C148.4,244.3,117.4,240.3,116.1,233.7z"/><path fill="#fc9a73" d="M144.9,206.9c0,2-0.1,4.9-0.1,8.4c-17.4,11-26.7-11.5-26.7-11.5L144.9,206.9z"/><path fill="#ed3b26" d="M80.4,273.9c0,0,5.9,8.9,5.9,25.9c0,7.3-5.9,32.2-4.2,32c1.7-0.1,41.4,1.2,41.4,1.2l-2.7,3.3
				c0,0-42.6,5.1-44.6,1.2C74.3,333.6,80.4,273.9,80.4,273.9z"/><path fill="#ed3b26" d="M126.5,360.1c0,0-39.7,20.1-63,26.5c0.3-3.5,0.6-7.3,1.1-11.1l62.6-22.4L126.5,360.1z"/><path fill="#ed3b26" d="M79,414.8c-7.4-0.9-12.6-1.8-13.9-2.7c-2.7-1.7-2.7-12.3-1.6-25.5c0.3-3.5,0.6-7.3,1.1-11.1
				c0.8-7.1,1.7-14.5,2.5-21.3c0.1-0.9,0.2-1.9,0.2-2.8c9,2.7,15.8,5.2,15.8,5.2S77.8,400.6,79,414.8z"/><polygon fill="#d3d6db" points="184.5 360.7 144.2 363.3 180 293.3 221.8 289.3"/><path fill="#fcc0a9" d="M140.5,329.9c0,0,6.9-6.7,7.8-9.4c0.9-2.7,2.3-9.8,6.6-11.9c4.3-2.1,15.7-3.6,16.3-1.5
				c1.2,4.7-9.7,5.1-9.7,5.1c-2.9,2.6-1,5.8,0,6.2c1.8,0.8,22.8-1.2,28-4c5.2-2.8,4.3,2.2,1,4c-5.2,3-17.4,4.8-17.4,4.8
				c0.2,2.9,18.4-4.8,20.9-1.9c1.9,2.2-5.2,3.4-8.8,4.8c-5.2,1.9-13.7,1.6-11.5,3.6c1.5,1.4,18.6-4.8,19.3-2.9c1,2.5-5.1,5.2-8.9,6
				c-3.8,0.9-10.3,0.7-9.4,1.2c6.5,4.1,17.3-2.9,17.8-1.8c1,2.2-4,5-5.7,5.7c-2.1,0.9-8.4,2.3-17.9,3.9c-9.5,1.6-21.1,2.1-25.6,4.3
				L140.5,329.9z"/><path fill="#ed3b26" d="M123.1,333.1c0,0,16.5-4.9,18.1-4c1.6,1,5.1,14.8,5.1,17.1c0,2.3-13,5.2-18.8,8.6
				C127.5,354.8,114.8,343.6,123.1,333.1z"/><path fill="#ed3b26" d="M127,355.2c-3.1,1.6-82.1,33.5-91.2,30.9c-1-0.3-1.7-2-2.1-4.8C30.5,359,45.4,267.9,57.1,258.8
				c10.7-8.4,22.4,9.3,25.2,22.6c4,18.8-2.3,42.7-4.1,50.5c-0.3,1.5-0.5,2.4-0.5,2.6c0.1,0.2,0.5,0.3,1.2,0.4
				c7.3,1,44.6-1.7,44.6-1.7c-2.5,5.1-1.7,9.5-0.2,13.1C125.4,351.1,128.8,354.3,127,355.2z"/><path fill="#fcc0a9" d="M202.7,260.6c3.9,2,1.9,12.3-9.9,13.7c-11.8,1.4-17.4-6.4-8.2-6.8C196.2,267,198.6,258.5,202.7,260.6z"/><path fill="#fcc0a9" d="M178,240.9c-3.4-0.5-9.9,4.5-8.7,13c1.2,8.5,5.2,7.4,6.1,6.7c0.9-0.7,0.2-4.6,4.6-9
				C182.9,248.8,184.4,241.8,178,240.9z"/><path fill="#a5a8ad" d="M173.2,275.8c-0.7,1.2-2.3,1.6-3.6,0.9l0,0c-1.3-0.7-1.8-2.3-1.2-3.5l22.6-40.6c0.7-1.2,2.3-1.6,3.6-0.9l0,0
				c1.3,0.7,1.8,2.3,1.2,3.5L173.2,275.8z"/><path fill="#d3d6db" d="M179.3,267.8c-0.9,1.5-3.2,1.8-5.3,0.7l0,0c-2.1-1.2-3.1-3.3-2.2-4.9l28.5-51.1c0.9-1.5,3.2-1.8,5.3-0.7
				l0,0c2.1,1.2,3.1,3.3,2.2,4.9L179.3,267.8z"/><path fill="#fcc0a9" d="M175.7,265.4c1,3.7,3.7,2.4,16.7-5.1c13-7.6,18.9-9.3,15.7-16.1c-1.8-3.9-10.1,2.8-15.8,6.3
				C182.1,256.7,174.7,261.7,175.7,265.4z"/><path fill="#fcc0a9" d="M117.4,206.4c1.5,4.3,17.1,7.4,23.3,7.9c4.1,0.3,10.4,1.1,13.8-1.3c2.9-2.1,10.8-19.7,8.6-28.6
				c-0.4-1.7-1.1-9-0.5-13.9c1-8.2-5-21.5-5-21.5c-24-16.1-44,7.9-45.6,17C110.5,175,111.4,189.2,117.4,206.4z"/><path fill="#0a0a0c" d="M98.3,180c3.6,11.6,16.3,17.3,16.3,17.3c-1.4-7.2-2.3-22.3-0.5-22.3c1.8,0,6.7,5.3,6.2,2.6
				c-0.5-2.7-3.2-6.5,0.1-12.4c3.3-5.8,0.2-12.8,0.2-12.8s0,0,0.1,0c0,0,0,0,0,0c0.6,0.3,1.4,0.5,2.1,0.7c0,0,0,0,0,0
				c2.1,0.5,4.6,0.7,7.4,0.8c2.4,0.1,4.9,0,7.4-0.2c2.7-0.2,5.3-0.5,7.7-1c2.2-0.4,4.2-0.9,5.8-1.4c1-0.3,1.8-0.5,2.6-0.6
				c0.6-0.1,1.1-0.2,1.6-0.2c3.4-0.1,3.8,2,3.8,2c5-7.1,3.8-11.8,2.5-16.1c-2.4-7.8-9.3-13.7-19.5-10.8c-10,2.9-8.2,3.2-18,2.6
				c-22.7-1.4-22,14-22,14C91.3,148.9,94.7,168.4,98.3,180z"/><path fill="#fabba5" d="M119.3,179.8c0,0-5.6-8.2-10.6-4.3c-5,3.9,0.4,10.8,2.4,13.4c2.2,2.8,3.4,2.8,7.1,1.8
				C121.8,189.7,119.3,179.8,119.3,179.8z"/><rect width="179" height="239.1" x="453.1" y="125" fill="#e56f54"/><rect width="163.8" height="218.8" x="460.7" y="135.2" fill="#ffc0b8"/><rect width="163.8" height="9.8" x="460.7" y="199.9" fill="#e56f54"/><rect width="10.8" height="64.7" x="537.2" y="135.2" fill="#e56f54"/><rect width="202.9" height="12.7" x="441.2" y="362.8" fill="#e56f54"/><rect width="33.6" height="80.3" x="460.7" y="273.7" fill="#d3d6db"/><rect width="48.3" height="124.8" x="494.4" y="229.2" fill="#a5a8ad"/><rect width="38.5" height="63.7" x="542.6" y="290.3" fill="#d3d6db"/><rect width="34.7" height="109.4" x="581.1" y="244.6" fill="#a5a8ad"/><rect width="14.1" height="73.9" x="610.4" y="280.1" fill="#d3d6db"/></svg>