<svg width="90" height="90" viewBox="0 0 90 90" fill="none" xmlns="http://www.w3.org/2000/svg">
<path d="M84 13.5C84 12.0166 83.5601 10.5666 82.736 9.3332C81.9119 8.09983 80.7406 7.13853 79.3701 6.57088C77.9997 6.00322 76.4917 5.85469 75.0368 6.14408C73.582 6.43347 72.2456 7.14778 71.1967 8.19667C70.1478 9.24557 69.4335 10.5819 69.1441 12.0368C68.8547 13.4917 69.0033 14.9997 69.5709 16.3701C70.1386 17.7405 71.0999 18.9119 72.3332 19.736C73.5666 20.5601 75.0166 21 76.5 21C78.4884 20.9976 80.3947 20.2067 81.8007 18.8006C83.2067 17.3946 83.9976 15.4884 84 13.5ZM72 13.5C72 12.61 72.2639 11.7399 72.7584 10.9999C73.2529 10.2599 73.9557 9.68311 74.7779 9.34252C75.6002 9.00192 76.505 8.91281 77.3779 9.08644C78.2508 9.26007 79.0526 9.68866 79.682 10.318C80.3113 10.9473 80.7399 11.7492 80.9135 12.6221C81.0872 13.495 80.9981 14.3998 80.6575 15.2221C80.3169 16.0443 79.7401 16.7471 79.0001 17.2416C78.26 17.7361 77.39 18 76.5 18C75.3065 18 74.1619 17.5259 73.318 16.682C72.4741 15.838 72 14.6934 72 13.5Z" fill="black"/>
<path d="M16.5 66H13.5V75C13.5 75.3978 13.658 75.7794 13.9393 76.0607C14.2206 76.342 14.6022 76.5 15 76.5H21V73.5H16.5V66Z" fill="black"/>
<path d="M75.4695 32.589C75.7481 32.8528 76.1171 32.9997 76.5007 32.9997C76.8844 32.9997 77.2534 32.8528 77.532 32.589C78.8085 31.3785 90 20.568 90 13.5C90 9.91958 88.5777 6.4858 86.0459 3.95406C83.5142 1.42232 80.0804 0 76.5 0C72.9196 0 69.4858 1.42232 66.9541 3.95406C64.4223 6.4858 63 9.91958 63 13.5C63 20.568 74.1915 31.3785 75.4695 32.589ZM76.5 3C79.2838 3.00318 81.9527 4.11044 83.9211 6.07889C85.8896 8.04733 86.9968 10.7162 87 13.5C87 17.94 80.1705 25.716 76.5 29.4C72.8295 25.7145 66 17.9415 66 13.5C66.0032 10.7162 67.1104 8.04733 69.0789 6.07889C71.0473 4.11044 73.7162 3.00318 76.5 3Z" fill="black"/>
<path d="M67.5 42H19.5C18.7044 42 17.9413 41.6839 17.3787 41.1213C16.8161 40.5587 16.5 39.7957 16.5 39C16.5 38.2044 16.8161 37.4413 17.3787 36.8787C17.9413 36.3161 18.7044 36 19.5 36H63V33H19.5C17.9087 33 16.3826 33.6321 15.2574 34.7574C14.1321 35.8826 13.5 37.4087 13.5 39C13.5 40.5913 14.1321 42.1174 15.2574 43.2426C16.3826 44.3679 17.9087 45 19.5 45H67.5C72.2739 45 76.8523 46.8964 80.2279 50.2721C83.6036 53.6477 85.5 58.2261 85.5 63C85.5 67.7739 83.6036 72.3523 80.2279 75.7279C76.8523 79.1036 72.2739 81 67.5 81H33V84H67.5C73.0695 84 78.411 81.7875 82.3492 77.8493C86.2875 73.911 88.5 68.5696 88.5 63C88.5 57.4305 86.2875 52.089 82.3492 48.1508C78.411 44.2125 73.0695 42 67.5 42Z" fill="black"/>
<path d="M19.5 57H67.5C69.0913 57 70.6174 57.6321 71.7426 58.7573C72.8679 59.8826 73.5 61.4087 73.5 63C73.5 64.5913 72.8679 66.1174 71.7426 67.2426C70.6174 68.3678 69.0913 69 67.5 69H33V72H67.5C69.8869 72 72.1761 71.0518 73.864 69.3639C75.5518 67.6761 76.5 65.3869 76.5 63C76.5 60.613 75.5518 58.3238 73.864 56.636C72.1761 54.9482 69.8869 54 67.5 54H19.5C15.5218 54 11.7064 52.4196 8.8934 49.6066C6.08035 46.7935 4.5 42.9782 4.5 39C4.5 35.0217 6.08035 31.2064 8.8934 28.3934C11.7064 25.5803 15.5218 24 19.5 24H63V21H19.5C14.7261 21 10.1477 22.8964 6.77208 26.272C3.39642 29.6477 1.5 34.2261 1.5 39C1.5 43.7739 3.39642 48.3522 6.77208 51.7279C10.1477 55.1036 14.7261 57 19.5 57Z" fill="black"/>
<path d="M15 60C12.0333 60 9.13319 60.8797 6.66645 62.5279C4.19972 64.1761 2.27713 66.5188 1.14181 69.2597C0.00649926 72.0006 -0.290551 75.0166 0.288228 77.9263C0.867006 80.836 2.29562 83.5088 4.3934 85.6066C6.49119 87.7044 9.16394 89.133 12.0737 89.7118C14.9834 90.2905 17.9994 89.9935 20.7403 88.8582C23.4812 87.7229 25.8238 85.8003 27.472 83.3335C29.1203 80.8668 30 77.9667 30 75C29.9956 71.0231 28.4139 67.2103 25.6018 64.3982C22.7897 61.5861 18.9769 60.0043 15 60ZM15 87C12.6266 87 10.3066 86.2962 8.33316 84.9776C6.35977 83.659 4.8217 81.7849 3.91345 79.5922C3.0052 77.3995 2.76756 74.9867 3.23058 72.6589C3.69361 70.3311 4.83649 68.1929 6.51473 66.5147C8.19296 64.8365 10.3312 63.6936 12.6589 63.2305C14.9867 62.7675 17.3995 63.0052 19.5922 63.9134C21.7849 64.8217 23.6591 66.3597 24.9776 68.3331C26.2962 70.3065 27 72.6266 27 75C26.9964 78.1815 25.731 81.2316 23.4813 83.4813C21.2317 85.731 18.1815 86.9964 15 87Z" fill="black"/>
</svg>
