<svg width="622" height="595" viewBox="0 0 622 595" fill="none" xmlns="http://www.w3.org/2000/svg">
<g clip-path="url(#clip0_209_1226)">
<path d="M70.5079 138.072C70.8019 138.072 71.0399 152.52 71.0399 170.342C71.0399 188.164 70.8019 202.626 70.5079 202.626C70.2139 202.626 69.9619 188.178 69.9619 170.342C69.9619 152.506 70.1999 138.072 70.5079 138.072Z" fill="#E0E0E0"/>
<path d="M78.922 145.156C79.216 145.156 79.454 156.188 79.454 169.796C79.454 183.404 79.216 194.436 78.922 194.436C78.628 194.436 78.376 183.418 78.376 169.796C78.376 156.174 78.6 145.156 78.922 145.156Z" fill="#E0E0E0"/>
<path d="M88.4 152.198C88.694 152.198 88.946 160.192 88.946 170.048C88.946 179.904 88.694 187.884 88.4 187.884C88.106 187.884 87.854 179.904 87.854 170.048C87.854 160.192 88.092 152.198 88.4 152.198Z" fill="#E0E0E0"/>
<path d="M96.6461 158.274C96.9401 158.274 97.1781 162.726 97.1781 168.228C97.1781 173.73 96.9401 178.182 96.6461 178.182C96.3521 178.182 96.1001 173.716 96.1001 168.228C96.1001 162.74 96.3381 158.274 96.6461 158.274Z" fill="#E0E0E0"/>
<path d="M103.926 163.118C104.22 163.118 104.458 165.568 104.458 168.592C104.458 171.616 104.22 174.052 103.926 174.052C103.632 174.052 103.38 171.602 103.38 168.592C103.38 165.582 103.618 163.118 103.926 163.118Z" fill="#E0E0E0"/>
<path d="M112.2 157.294C112.508 157.294 112.746 161.76 112.746 167.248C112.746 172.736 112.508 177.202 112.2 177.202C111.892 177.202 111.668 172.75 111.668 167.248C111.668 161.746 111.878 157.294 112.2 157.294Z" fill="#E0E0E0"/>
<path d="M119.942 149.286C120.25 149.286 120.488 157.686 120.488 167.976C120.488 178.266 120.25 186.68 119.942 186.68C119.634 186.68 119.41 178.28 119.41 167.976C119.41 157.672 119.648 149.286 119.942 149.286Z" fill="#E0E0E0"/>
<path d="M21.4241 152.198C21.7321 152.198 21.9701 160.192 21.9701 170.048C21.9701 179.904 21.7321 187.884 21.4241 187.884C21.1161 187.884 20.8921 179.904 20.8921 170.048C20.8921 160.192 21.2001 152.198 21.4241 152.198Z" fill="#E0E0E0"/>
<path d="M29.6842 158.274C29.9782 158.274 30.2302 162.726 30.2302 168.228C30.2302 173.73 29.9782 178.182 29.6842 178.182C29.3902 178.182 29.1382 173.716 29.1382 168.228C29.1382 162.74 29.3902 158.274 29.6842 158.274Z" fill="#E0E0E0"/>
<path d="M36.9641 163.118C37.2721 163.118 37.5101 165.568 37.5101 168.592C37.5101 171.616 37.2721 174.052 36.9641 174.052C36.6561 174.052 36.4321 171.602 36.4321 168.592C36.4321 165.582 36.6701 163.118 36.9641 163.118Z" fill="#E0E0E0"/>
<path d="M45.2237 154.382C45.5177 154.382 45.7697 160.15 45.7697 167.248C45.7697 174.346 45.5177 180.114 45.2237 180.114C44.9297 180.114 44.6777 174.36 44.6777 167.248C44.6777 160.136 44.9997 154.382 45.2237 154.382Z" fill="#E0E0E0"/>
<path d="M52.9938 149.286C53.2878 149.286 53.5257 157.686 53.5257 167.976C53.5257 178.266 53.2878 186.68 52.9938 186.68C52.6998 186.68 52.4478 178.28 52.4478 167.976C52.4478 157.672 52.6858 149.286 52.9938 149.286Z" fill="#E0E0E0"/>
<path d="M62.4578 145.408C62.7518 145.408 63.0038 156.048 63.0038 169.208C63.0038 182.368 62.7518 193.008 62.4578 193.008C62.1638 193.008 61.9258 182.368 61.9258 169.208C61.9258 156.048 62.1638 145.408 62.4578 145.408Z" fill="#E0E0E0"/>
<path d="M12.6038 177.202C12.3098 177.202 12.0718 172.75 12.0718 167.248C12.0718 161.746 12.3098 157.294 12.6038 157.294C12.8978 157.294 13.1498 161.76 13.1498 167.248C13.1498 172.736 12.8978 177.202 12.6038 177.202Z" fill="#E0E0E0"/>
<path d="M5.32383 172.4C5.02983 172.4 4.77783 169.964 4.77783 166.94C4.77783 163.916 5.02983 161.48 5.32383 161.48C5.61783 161.48 5.86983 163.93 5.86983 166.94C5.86983 169.95 5.61783 172.4 5.32383 172.4Z" fill="#E0E0E0"/>
<path d="M127.6 157.294C127.908 157.294 128.146 161.76 128.146 167.248C128.146 172.736 127.908 177.202 127.6 177.202C127.292 177.202 127.068 172.75 127.068 167.248C127.068 161.746 127.25 157.294 127.6 157.294Z" fill="#E0E0E0"/>
<path d="M134.838 162.152C135.132 162.152 135.37 164.602 135.37 167.612C135.37 170.622 135.132 173.072 134.838 173.072C134.544 173.072 134.292 170.636 134.292 167.612C134.292 164.588 134.6 162.152 134.838 162.152Z" fill="#E0E0E0"/>
<path d="M521.91 185.98C522.372 185.98 522.736 207.834 522.736 234.77C522.736 261.706 522.372 283.574 521.91 283.574C521.448 283.574 521.098 261.734 521.098 234.77C521.098 207.806 521.462 185.98 521.91 185.98Z" fill="#E0E0E0"/>
<path d="M534.636 196.704C535.084 196.704 535.448 213.378 535.448 233.958C535.448 254.538 535.084 271.212 534.636 271.212C534.188 271.212 533.81 254.538 533.81 233.958C533.81 213.378 534.174 196.704 534.636 196.704Z" fill="#E0E0E0"/>
<path d="M548.999 207.4C549.447 207.4 549.825 219.482 549.825 234.378C549.825 249.274 549.447 261.356 548.999 261.356C548.551 261.356 548.188 249.274 548.188 234.378C548.188 219.482 548.495 207.4 548.999 207.4Z" fill="#E0E0E0"/>
<path d="M561.417 216.528C561.879 216.528 562.243 223.262 562.243 231.564C562.243 239.866 561.879 246.6 561.417 246.6C560.955 246.6 560.605 239.866 560.605 231.55C560.605 223.234 560.969 216.528 561.417 216.528Z" fill="#E0E0E0"/>
<path d="M572.436 223.864C572.884 223.864 573.248 227.56 573.248 232.124C573.248 236.688 572.884 240.384 572.436 240.384C571.988 240.384 571.624 236.688 571.624 232.124C571.624 227.56 571.988 223.864 572.436 223.864Z" fill="#E0E0E0"/>
<path d="M584.91 215.058C585.372 215.058 585.736 221.792 585.736 230.094C585.736 238.396 585.4 245.2 584.91 245.2C584.42 245.2 584.098 238.466 584.098 230.15C584.098 221.834 584.462 215.058 584.91 215.058Z" fill="#E0E0E0"/>
<path d="M596.6 202.948C597.062 202.948 597.426 215.548 597.426 231.2C597.426 246.852 597.062 259.466 596.6 259.466C596.138 259.466 595.788 246.866 595.788 231.2C595.788 215.534 596.208 202.948 596.6 202.948Z" fill="#E0E0E0"/>
<path d="M447.724 207.4C448.172 207.4 448.536 219.482 448.536 234.378C448.536 249.274 448.172 261.356 447.724 261.356C447.276 261.356 446.912 249.274 446.912 234.378C446.912 219.482 447.276 207.4 447.724 207.4Z" fill="#E0E0E0"/>
<path d="M460.198 216.528C460.66 216.528 461.024 223.262 461.024 231.564C461.024 239.866 460.66 246.6 460.198 246.6C459.736 246.6 459.386 239.866 459.386 231.55C459.386 223.234 459.75 216.528 460.198 216.528Z" fill="#E0E0E0"/>
<path d="M471.216 223.864C471.664 223.864 472.028 227.56 472.028 232.124C472.028 236.688 471.664 240.384 471.216 240.384C470.768 240.384 470.404 236.688 470.404 232.124C470.404 227.56 470.768 223.864 471.216 223.864Z" fill="#E0E0E0"/>
<path d="M483.69 210.648C484.152 210.648 484.516 219.356 484.516 230.094C484.516 240.832 484.152 249.554 483.69 249.554C483.228 249.554 482.878 240.846 482.878 230.094C482.878 219.342 483.2 210.648 483.69 210.648Z" fill="#E0E0E0"/>
<path d="M495.436 202.948C495.884 202.948 496.262 215.548 496.262 231.2C496.262 246.852 495.884 259.466 495.436 259.466C494.988 259.466 494.624 246.866 494.624 231.2C494.624 215.534 494.988 202.948 495.436 202.948Z" fill="#E0E0E0"/>
<path d="M509.8 197.068C510.248 197.068 510.612 213.168 510.612 233.034C510.612 252.9 510.206 269 509.8 269C509.394 269 508.974 252.9 508.974 233.034C508.974 213.168 509.296 197.068 509.8 197.068Z" fill="#E0E0E0"/>
<path d="M434.382 245.2C433.934 245.2 433.57 238.466 433.57 230.164C433.57 221.862 433.934 215.114 434.382 215.114C434.83 215.114 435.208 221.848 435.208 230.164C435.208 238.48 434.83 245.2 434.382 245.2Z" fill="#E0E0E0"/>
<path d="M423.378 237.808C422.916 237.808 422.552 234.112 422.552 229.548C422.552 224.984 422.916 221.288 423.378 221.288C423.84 221.288 424.19 224.984 424.19 229.548C424.19 234.112 423.826 237.808 423.378 237.808Z" fill="#E0E0E0"/>
<path d="M608.15 215.058C608.612 215.058 608.976 221.792 608.976 230.094C608.976 238.396 608.612 245.144 608.15 245.144C607.688 245.144 607.338 238.41 607.338 230.094C607.338 221.778 607.702 215.058 608.15 215.058Z" fill="#E0E0E0"/>
<path d="M619.168 222.394C619.616 222.394 619.98 226.09 619.98 230.654C619.98 235.218 619.616 238.914 619.168 238.914C618.72 238.914 618.342 235.218 618.342 230.654C618.342 226.09 618.72 222.394 619.168 222.394Z" fill="#E0E0E0"/>
<path d="M549.868 100.076C543.861 100.072 538.102 97.6846 533.855 93.4373C529.607 89.19 527.22 83.4306 527.216 77.424V50.824C527.227 44.8223 529.618 39.07 533.864 34.8288C538.111 30.5876 543.866 28.2037 549.868 28.2C555.866 28.2 561.619 30.5788 565.865 34.8148C570.112 39.0508 572.505 44.798 572.52 50.796V77.396C572.523 80.3731 571.94 83.3217 570.804 86.0732C569.667 88.8247 567.999 91.3251 565.895 93.4315C563.791 95.5379 561.293 97.2089 558.543 98.3491C555.793 99.4892 552.845 100.076 549.868 100.076Z" fill="#EBEBEB"/>
<path d="M549.882 113.866C541.014 113.859 532.511 110.332 526.24 104.062C519.97 97.791 516.443 89.2882 516.436 80.42H519.67C519.677 88.428 522.861 96.1061 528.522 101.77C534.183 107.434 541.86 110.621 549.868 110.632C567.662 110.632 580.08 98.186 580.08 80.42H583.314C583.314 100.09 569.566 113.852 549.882 113.866Z" fill="#EBEBEB"/>
<path d="M551.492 112.228H548.258V128.608H551.492V112.228Z" fill="#EBEBEB"/>
<path d="M569.65 126.27H530.1V129.504H569.65V126.27Z" fill="#EBEBEB"/>
<path d="M516.478 42.97C514.443 42.6842 512.469 42.0596 510.64 41.122C505.81 39.064 504.2 38.014 504.76 36.292L504.984 35.62L505.74 35.228C507.434 34.472 511.718 36.222 512.558 36.628C513.398 37.034 517.64 38.854 518.256 40.59L518.494 41.262L518.172 42.032C518.016 42.3402 517.771 42.5944 517.469 42.7617C517.167 42.9289 516.822 43.0015 516.478 42.97Z" fill="#EBEBEB"/>
<path d="M529.4 26.016C528.378 26.016 526.81 24.868 523.548 20.416C519.684 15.166 519.88 13.892 519.95 13.416L520.048 12.758L521.196 11.862H521.966C522.386 11.932 523.66 12.114 527.566 17.364C532.074 23.496 531.556 24.658 530.464 25.456C530.19 25.7665 529.811 25.9657 529.4 26.016Z" fill="#EBEBEB"/>
<path d="M549.364 19.884L548.748 19.352C548.44 19.058 547.516 18.176 547.586 12.002C547.656 5.82801 548.608 5.002 548.916 4.666L549.434 4.19H550.246C551.24 4.274 552.598 4.37201 552.514 12.03C552.43 19.688 551.114 19.772 550.078 19.828L549.364 19.884Z" fill="#EBEBEB"/>
<path d="M569.244 24.28L568.572 23.748C567.172 22.432 568.418 20.584 571.218 16.86C574.018 13.136 575.418 11.4 577.112 12.394L577.742 12.758L577.952 13.612C578.344 15.53 575.488 19.38 575.152 19.814C574.816 20.248 571.918 24.014 569.972 24.224L569.244 24.28Z" fill="#EBEBEB"/>
<path d="M583.902 42.718C583.581 42.7404 583.262 42.6655 582.984 42.5031C582.707 42.3408 582.485 42.0985 582.348 41.808C581.48 40.282 583.16 39.008 583.958 38.35C585.132 37.4732 586.362 36.6735 587.64 35.956C593.646 32.54 594.752 33.31 595.368 34.388C596.236 35.914 594.57 37.188 593.758 37.832C592.59 38.7218 591.359 39.5266 590.076 40.24C586.8 42.102 584.98 42.718 583.902 42.718Z" fill="#EBEBEB"/>
<path d="M75.688 471.314C82.212 467.94 89.884 467.506 97.136 468.71C101.028 469.34 105.074 470.516 107.72 473.428C110.366 476.34 110.87 481.492 107.832 484.012C105.873 485.341 103.51 485.941 101.154 485.706C95.554 485.636 89.198 484.642 84.662 488.044C82.086 489.99 80.364 493.238 77.27 494.19C75.7246 494.545 74.1056 494.389 72.6564 493.746C71.2072 493.102 70.0062 492.005 69.234 490.62C67.7728 487.776 67.4475 484.483 68.324 481.408C68.6931 479.273 69.5495 477.251 70.8267 475.501C72.1038 473.75 73.7673 472.317 75.688 471.314Z" fill="#EBEBEB"/>
<path d="M60.7357 442.46C64.7257 448.158 72.4817 446.268 76.1357 442.796C79.7897 439.324 81.2457 434.284 82.6317 429.468C85.7957 418.492 88.9737 406.97 86.6217 395.784C86.0459 392.379 84.539 389.201 82.2677 386.6C81.1271 385.321 79.671 384.364 78.0447 383.823C76.4185 383.283 74.679 383.178 72.9997 383.52C69.0937 384.556 66.6717 388.378 64.9077 392.018C59.7396 402.777 57.0282 414.55 56.9697 426.486C56.9697 432.086 57.6137 437.854 60.7357 442.432" fill="#EBEBEB"/>
<path d="M49.7879 450.636C54.1139 445.498 54.94 438.036 53.0079 431.554C51.076 425.072 46.736 419.64 41.71 415.174C35.8077 409.915 28.9359 405.859 21.48 403.232C18.5924 402.071 15.4887 401.546 12.38 401.692C10.8276 401.78 9.32047 402.248 7.99039 403.053C6.66032 403.858 5.54775 404.977 4.74995 406.312C2.62195 410.372 4.66595 415.3 6.87795 419.318C10.7657 426.401 15.2082 433.166 20.1639 439.548C24.1399 444.686 28.704 449.754 34.78 452.064C40.8559 454.374 47.156 454.122 50.362 449.908" fill="#EBEBEB"/>
<path d="M60.4699 528.392C60.6895 527.545 60.8116 526.676 60.8339 525.802C61.0159 523.926 61.2399 521.602 61.5199 518.802C61.8768 515.324 62.4094 511.866 63.1159 508.442C64.0318 504.266 65.2914 500.174 66.8819 496.206C68.4248 492.24 70.5275 488.516 73.1259 485.146C75.2333 482.394 77.9316 480.15 81.0219 478.58C83.1156 477.543 85.3599 476.844 87.6719 476.508C88.5415 476.474 89.405 476.347 90.2479 476.13C89.3729 476.039 88.4909 476.039 87.6159 476.13C85.1933 476.308 82.8224 476.92 80.6159 477.936C77.3703 479.479 74.5209 481.744 72.2859 484.558C69.6109 487.97 67.4549 491.758 65.8879 495.8C64.285 499.828 63.0344 503.988 62.1499 508.232C61.4742 511.701 61.0067 515.207 60.7499 518.732C60.5259 521.728 60.4419 524.164 60.3999 525.844C60.3401 526.694 60.3636 527.547 60.4699 528.392Z" fill="#E0E0E0"/>
<path d="M60.9601 522.96C61.0079 522.56 61.0079 522.156 60.9601 521.756C60.9601 520.86 60.9601 519.712 60.9601 518.326C60.9601 515.344 60.9601 511.032 61.1141 505.726C61.3801 495.072 62.3041 483.606 64.0681 467.45C65.7481 452.246 68.0021 434.564 70.3821 423.056C70.8861 420.438 71.4041 418.086 71.8801 416.056C72.3561 414.026 72.7341 412.206 73.1121 410.764C73.4901 409.322 73.7001 408.3 73.9241 407.432C74.0334 407.043 74.1038 406.645 74.1341 406.242C73.9445 406.595 73.8032 406.972 73.7141 407.362C73.4481 408.23 73.1121 409.322 72.7201 410.666C72.3281 412.01 71.8241 413.858 71.3201 415.916C70.8161 417.974 70.2141 420.312 69.6541 422.916C66.7092 436.517 64.4941 450.266 63.0181 464.104C61.2401 480.302 60.4421 495.044 60.3721 505.726C60.3721 511.074 60.3721 515.4 60.5681 518.326C60.6521 519.726 60.7221 520.846 60.7781 521.756C60.7865 522.164 60.8476 522.568 60.9601 522.96Z" fill="#E0E0E0"/>
<path d="M61.0301 494.512C61.1187 493.319 61.1187 492.121 61.0301 490.928C60.9041 488.618 60.5821 485.328 59.9381 481.198C59.1522 476.424 58.0958 471.698 56.7741 467.044C55.2315 461.301 53.2517 455.685 50.8521 450.244C46.7406 440.237 40.8494 431.059 33.4641 423.154C32.178 421.804 30.808 420.537 29.3621 419.36C28.7321 418.828 28.1861 418.296 27.6121 417.876L26.0301 416.784C25.0823 416.05 24.0702 415.404 23.0061 414.852C22.8381 415.076 27.2901 417.652 32.9181 423.672C40.0555 431.646 45.7882 440.772 49.8721 450.664C52.2212 456.061 54.2089 461.608 55.8221 467.268C57.3761 472.476 58.4121 477.264 59.1961 481.268C59.9801 485.272 60.3581 488.604 60.5961 490.886C60.6472 492.104 60.7922 493.316 61.0301 494.512Z" fill="#E0E0E0"/>
<path d="M33.5342 544.688L36.3902 583.748H86.5522L89.4082 544.688H33.5342Z" fill="#E0E0E0"/>
<path d="M95.3859 529.302H28.6899V544.688H95.3859V529.302Z" fill="#E0E0E0"/>
<path d="M28.6899 582.25V586.52H31.8259H94.2939V582.25H28.6899Z" fill="#EBEBEB"/>
<path d="M34.8922 594.024L31.8262 586.52H91.9002L88.3162 594.024H34.8922Z" fill="#E0E0E0"/>
<path d="M88.4699 557.4C88.4699 557.4 88.4699 557.526 88.2319 557.764L87.4899 558.758L84.5639 562.496L84.4379 562.664L84.3119 562.482L77.1999 552.612H77.6199L70.6199 562.622L70.1999 563L69.9479 562.706L61.5479 552.738H62.0379L61.5759 553.326L54.0719 562.72L53.8339 563.028L53.5959 562.706C51.0479 559.108 48.6679 555.706 46.5959 552.696H47.0019L38.2939 562.608L38.1399 562.79L38.0279 562.594L35.2279 558.016L34.5279 556.784C34.4345 556.652 34.3635 556.505 34.3179 556.35C34.4263 556.469 34.5203 556.601 34.5979 556.742L35.3819 557.918L38.1819 562.412H37.9999L46.5679 552.36L46.7779 552.108L46.9739 552.388L54.1139 562.342H53.6799L61.1559 552.934L61.6179 552.36L61.8559 552.052L62.0939 552.346L70.4939 562.342H70.0179L77.1579 552.388L77.3679 552.094L77.5779 552.388L84.5779 562.426H84.3119L87.3639 558.786L88.1759 557.848C88.3999 557.554 88.3999 557.4 88.4699 557.4Z" fill="#F5F5F5"/>
<path d="M90.1079 544.436C90.1079 544.604 77.5079 544.744 62.0239 544.744C46.5399 544.744 34.0239 544.604 34.0239 544.436C34.0239 544.268 46.6239 544.128 62.0239 544.128C77.4239 544.128 90.1079 544.268 90.1079 544.436Z" fill="#F5F5F5"/>
<path d="M92.5997 586.94C92.5997 587.108 78.9357 587.248 62.0797 587.248C45.2237 587.248 31.5737 587.108 31.5737 586.94C31.5737 586.772 45.2237 586.632 62.0797 586.632C78.9357 586.632 92.5997 586.8 92.5997 586.94Z" fill="#F5F5F5"/>
<path d="M430.28 594.024H229.688C205.454 593.912 184.972 573.248 185.07 549.014L187.212 43.838C187.279 32.2049 191.961 21.0741 200.23 12.8916C208.5 4.70904 219.679 0.144147 231.312 0.2L432.8 1.054C444.442 1.10587 455.586 5.77935 463.783 14.0467C471.979 22.314 476.557 33.4983 476.508 45.14L474.366 550.316C474.344 556.081 473.186 561.786 470.958 567.104C468.73 572.421 465.476 577.248 461.382 581.307C457.287 585.366 452.433 588.579 447.096 590.761C441.76 592.943 436.046 594.052 430.28 594.024Z" fill="#263238"/>
<path d="M432.534 22.278L393.46 22.096C390.9 22.1439 388.463 23.2001 386.678 25.0352C384.892 26.8703 383.904 29.3359 383.926 31.896V38.98C383.956 41.5399 382.972 44.0076 381.188 45.8439C379.404 47.6802 376.966 48.7358 374.406 48.78L298.246 48.43C295.674 48.3604 293.234 47.2732 291.463 45.4071C289.691 43.541 288.732 41.0483 288.796 38.476V31.392C288.842 28.8235 287.877 26.3397 286.11 24.4754C284.342 22.6111 281.913 21.5154 279.346 21.424H265.598L231.41 21.27C227.365 21.2608 223.359 22.0484 219.618 23.5877C215.878 25.1271 212.477 27.3881 209.611 30.2416C206.744 33.0952 204.468 36.4854 202.911 40.2187C201.355 43.952 200.549 47.9553 200.54 52L198.454 545.094C198.436 553.241 201.645 561.063 207.381 566.849C213.117 572.635 220.911 575.912 229.058 575.964L430.154 576.888C438.318 576.91 446.157 573.691 451.948 567.936C457.739 562.182 461.009 554.364 461.038 546.2L463.124 53.106C463.132 44.9688 459.919 37.1591 454.187 31.383C448.456 25.6068 440.671 22.3335 432.534 22.278Z" fill="#E0E0E0"/>
<path d="M432.534 22.278L393.46 22.096C390.901 22.1439 388.463 23.2001 386.678 25.0352C384.893 26.8703 383.904 29.3359 383.926 31.896V38.98C383.956 41.5399 382.972 44.0076 381.188 45.8439C379.404 47.6802 376.966 48.7358 374.406 48.78L298.246 48.43C295.674 48.3604 293.235 47.2732 291.463 45.4071C289.691 43.541 288.732 41.0483 288.796 38.476V31.392C288.842 28.8235 287.877 26.3397 286.11 24.4754C284.343 22.6111 281.914 21.5154 279.346 21.424H265.598L231.41 21.27C227.366 21.2608 223.359 22.0484 219.618 23.5877C215.878 25.1271 212.478 27.3881 209.611 30.2416C206.744 33.0951 204.468 36.4854 202.912 40.2187C201.355 43.952 200.55 47.9553 200.54 52L200.274 115.392H462.858L463.124 53.19C463.154 45.0382 459.951 37.2071 454.217 31.4127C448.483 25.6184 440.686 22.3335 432.534 22.278Z" fill="#FF9933"/>
<path d="M220.168 94C220.068 93.9991 219.969 93.9775 219.877 93.9365C219.786 93.8956 219.703 93.8362 219.636 93.762L214.288 87.406C214.175 87.276 214.112 87.1094 214.112 86.937C214.112 86.7646 214.175 86.598 214.288 86.468L219.622 80.966C219.686 80.8998 219.763 80.8469 219.848 80.8104C219.933 80.7739 220.024 80.7544 220.116 80.7531C220.208 80.7518 220.3 80.7687 220.386 80.8028C220.472 80.837 220.55 80.8876 220.616 80.952C220.682 81.0163 220.735 81.0931 220.772 81.1779C220.808 81.2626 220.828 81.3538 220.829 81.4461C220.83 81.5384 220.813 81.63 220.779 81.7158C220.745 81.8016 220.694 81.8798 220.63 81.946L215.8 87L220.742 92.852C220.859 92.9976 220.914 93.1832 220.896 93.369C220.877 93.5548 220.787 93.726 220.644 93.846C220.508 93.9519 220.34 94.0065 220.168 94Z" fill="white"/>
<path d="M227.196 87.77H215.058C214.873 87.77 214.695 87.6962 214.563 87.565C214.432 87.4337 214.358 87.2556 214.358 87.07C214.358 86.8843 214.432 86.7063 214.563 86.575C214.695 86.4437 214.873 86.37 215.058 86.37H227.196C227.382 86.37 227.56 86.4437 227.691 86.575C227.823 86.7063 227.896 86.8843 227.896 87.07C227.896 87.2556 227.823 87.4337 227.691 87.565C227.56 87.6962 227.382 87.77 227.196 87.77Z" fill="white"/>
<path d="M354.4 87.406C354.4 87.602 334.996 87.77 311.084 87.77C287.172 87.77 267.768 87.602 267.768 87.406C267.768 87.21 287.2 87 311 87C334.8 87 354.4 87.21 354.4 87.406Z" fill="white"/>
<path d="M330.852 96.688C330.852 96.884 316.712 97.052 299.296 97.052C281.88 97.052 267.74 96.884 267.74 96.688C267.74 96.492 281.866 96.324 299.296 96.324C316.726 96.324 330.852 96.492 330.852 96.688Z" fill="white"/>
<path d="M435.474 81.526C435.474 81.8749 435.371 82.2159 435.177 82.506C434.983 82.7961 434.708 83.0222 434.385 83.1557C434.063 83.2892 433.708 83.3242 433.366 83.2561C433.024 83.188 432.71 83.02 432.463 82.7733C432.216 82.5266 432.048 82.2123 431.98 81.8701C431.912 81.5279 431.947 81.1733 432.081 80.8509C432.214 80.5286 432.44 80.2531 432.73 80.0593C433.02 79.8655 433.361 79.762 433.71 79.762C434.178 79.762 434.627 79.9478 434.958 80.2787C435.288 80.6095 435.474 81.0581 435.474 81.526Z" fill="white"/>
<path d="M435.474 87.406C435.474 87.7549 435.371 88.0959 435.177 88.386C434.983 88.6761 434.708 88.9022 434.385 89.0357C434.063 89.1692 433.708 89.2042 433.366 89.1361C433.024 89.068 432.71 88.9 432.463 88.6533C432.216 88.4066 432.048 88.0923 431.98 87.7501C431.912 87.408 431.947 87.0533 432.081 86.7309C432.214 86.4086 432.44 86.1331 432.73 85.9393C433.02 85.7455 433.361 85.642 433.71 85.642C434.178 85.642 434.627 85.8279 434.958 86.1587C435.288 86.4895 435.474 86.9382 435.474 87.406Z" fill="white"/>
<path d="M433.71 95.05C434.684 95.05 435.474 94.2602 435.474 93.286C435.474 92.3118 434.684 91.522 433.71 91.522C432.736 91.522 431.946 92.3118 431.946 93.286C431.946 94.2602 432.736 95.05 433.71 95.05Z" fill="white"/>
<path d="M461.696 115.35H199.728V373.706H461.696V115.35Z" fill="white"/>
<g opacity="0.3">
<path d="M386.404 466.61V465.77C386.404 465.21 386.404 464.37 386.292 463.292C385.943 457.831 384.719 452.461 382.666 447.388C381.665 444.853 380.457 442.404 379.054 440.066C375.624 434.362 371.145 429.36 365.852 425.324C362.789 422.971 359.463 420.984 355.94 419.402C352.13 417.658 348.119 416.393 343.998 415.636C339.593 414.808 335.098 414.558 330.628 414.894C328.275 415.063 325.937 415.39 323.628 415.874C321.277 416.379 318.962 417.038 316.698 417.848C307.052 421.364 298.663 427.658 292.59 435.936C291.02 438.094 289.616 440.369 288.39 442.74C287.746 443.93 287.214 445.162 286.654 446.408C286.094 447.654 285.632 448.928 285.254 450.23C283.494 455.507 282.596 461.033 282.594 466.596C282.604 469.409 282.829 472.217 283.266 474.996C283.709 477.718 284.369 480.401 285.24 483.018C285.66 484.32 286.178 485.58 286.64 486.854C287.102 488.128 287.746 489.332 288.39 490.522C289.605 492.899 291.01 495.174 292.59 497.326C298.665 505.599 307.054 511.888 316.698 515.4C318.962 516.21 321.277 516.869 323.628 517.374C330.328 518.781 337.239 518.862 343.97 517.612C351.905 516.129 359.384 512.811 365.81 507.924C371.103 503.888 375.582 498.886 379.012 493.182C380.411 490.84 381.623 488.392 382.638 485.86C383.487 483.733 384.198 481.554 384.766 479.336C385.547 476.261 386.044 473.122 386.25 469.956C386.348 468.864 386.334 468.038 386.362 467.478C386.362 468.038 386.362 468.878 386.278 469.956C386.108 473.129 385.639 476.279 384.878 479.364C384.316 481.596 383.61 483.789 382.764 485.93C381.763 488.475 380.555 490.933 379.152 493.28C375.73 499.022 371.245 504.059 365.936 508.12C359.486 513.058 351.967 516.415 343.984 517.92C339.551 518.753 335.028 519.007 330.53 518.676C328.178 518.511 325.839 518.188 323.53 517.71C321.157 517.195 318.819 516.531 316.53 515.722C306.817 512.189 298.369 505.855 292.254 497.522C290.676 495.349 289.272 493.055 288.054 490.662C287.41 489.472 286.85 488.226 286.29 486.966C285.73 485.706 285.268 484.432 284.89 483.116C284.014 480.48 283.349 477.779 282.902 475.038C282.467 472.259 282.243 469.451 282.23 466.638C282.237 461.038 283.14 455.475 284.904 450.16C285.31 448.858 285.842 447.584 286.304 446.31C286.766 445.036 287.41 443.818 288.054 442.614C294.087 430.971 304.276 422.021 316.6 417.54C318.889 416.731 321.227 416.067 323.6 415.552C325.909 415.074 328.248 414.751 330.6 414.586C335.098 414.255 339.621 414.509 344.054 415.342C348.195 416.111 352.225 417.39 356.052 419.15C359.584 420.757 362.923 422.757 366.006 425.114C371.312 429.184 375.796 434.225 379.222 439.968C380.625 442.315 381.833 444.773 382.834 447.318C383.677 449.455 384.383 451.643 384.948 453.87C385.708 456.96 386.177 460.114 386.348 463.292C386.446 464.37 386.348 465.21 386.432 465.77L386.404 466.61Z" fill="#FF9933"/>
</g>
<path d="M379.81 465.49C379.81 465.49 379.81 465.238 379.81 464.762C379.81 464.286 379.81 463.558 379.712 462.62C379.52 459.89 379.089 457.182 378.424 454.528C375.919 444.693 370.148 436.001 362.058 429.874C359.409 427.854 356.539 426.139 353.504 424.764C350.222 423.259 346.765 422.168 343.214 421.516C339.412 420.81 335.534 420.598 331.678 420.886C329.664 421.029 327.662 421.31 325.686 421.726C323.659 422.168 321.663 422.739 319.708 423.434C311.387 426.46 304.151 431.888 298.918 439.03C297.546 440.885 296.324 442.847 295.264 444.896C294.151 446.969 293.214 449.133 292.464 451.364C289.403 460.528 289.403 470.438 292.464 479.602C293.214 481.833 294.151 483.997 295.264 486.07C300.433 496.039 309.157 503.704 319.708 507.546C321.661 508.243 323.658 508.809 325.686 509.24C327.661 509.663 329.663 509.944 331.678 510.08C335.534 510.382 339.414 510.17 343.214 509.45C350.07 508.162 356.529 505.285 362.072 501.05C366.637 497.571 370.499 493.258 373.454 488.338C375.667 484.612 377.34 480.592 378.424 476.396C379.09 473.742 379.521 471.034 379.712 468.304C379.796 467.366 379.782 466.652 379.81 466.176C379.838 465.7 379.81 465.448 379.81 465.448C379.81 465.448 379.81 466.428 379.81 468.248C379.401 475.356 377.288 482.26 373.65 488.38C370.695 493.34 366.822 497.692 362.24 501.204C356.658 505.527 350.135 508.473 343.2 509.8C339.376 510.522 335.475 510.744 331.594 510.458C329.562 510.308 327.542 510.027 325.546 509.618C323.505 509.176 321.495 508.606 319.526 507.91C308.882 504.06 300.082 496.336 294.886 486.28C293.773 484.192 292.836 482.014 292.086 479.77C289.006 470.533 289.006 460.545 292.086 451.308C292.836 449.064 293.773 446.886 294.886 444.798C295.955 442.73 297.186 440.75 298.568 438.876C305.102 429.942 314.712 423.743 325.546 421.474C327.535 421.051 329.551 420.77 331.58 420.634C335.466 420.341 339.373 420.562 343.2 421.292C350.086 422.567 356.574 425.445 362.142 429.692C370.254 435.866 376.017 444.622 378.48 454.514C379.14 457.177 379.553 459.895 379.712 462.634C379.838 464.496 379.81 465.49 379.81 465.49Z" fill="#FF9933"/>
<path d="M360.51 492.739C374.938 478.31 374.938 454.918 360.51 440.489C346.082 426.061 322.689 426.061 308.261 440.489C293.832 454.918 293.832 478.31 308.26 492.739C322.689 507.167 346.082 507.167 360.51 492.739Z" fill="#FF9933"/>
<path d="M334.464 455.382H334.184C331.563 455.382 329.438 457.507 329.438 460.128V466.148C329.438 468.769 331.563 470.894 334.184 470.894H334.464C337.085 470.894 339.21 468.769 339.21 466.148V460.128C339.21 457.507 337.085 455.382 334.464 455.382Z" fill="#FAFAFA"/>
<path d="M334.324 473.862C332.414 473.858 330.584 473.097 329.235 471.745C327.886 470.394 327.128 468.562 327.128 466.652C327.144 466.573 327.187 466.502 327.249 466.451C327.312 466.4 327.39 466.372 327.471 466.372C327.552 466.372 327.63 466.4 327.692 466.451C327.755 466.502 327.798 466.573 327.814 466.652C327.814 468.38 328.499 470.037 329.72 471.26C330.94 472.483 332.596 473.172 334.324 473.176C335.191 473.216 336.057 473.074 336.867 472.761C337.677 472.447 338.412 471.968 339.026 471.354C339.64 470.74 340.119 470.005 340.433 469.195C340.746 468.385 340.888 467.519 340.848 466.652C340.864 466.573 340.907 466.502 340.969 466.451C341.032 466.4 341.11 466.372 341.191 466.372C341.272 466.372 341.35 466.4 341.412 466.451C341.475 466.502 341.518 466.573 341.534 466.652C341.578 467.61 341.421 468.568 341.074 469.462C340.728 470.357 340.198 471.169 339.52 471.848C338.841 472.526 338.029 473.056 337.134 473.402C336.239 473.749 335.282 473.906 334.324 473.862Z" fill="#FAFAFA"/>
<path d="M334.674 473.512H333.988V477.04H334.674V473.512Z" fill="white"/>
<path d="M338.594 477.236H330.068C330.017 477.246 329.965 477.245 329.914 477.233C329.864 477.22 329.817 477.197 329.777 477.164C329.737 477.131 329.704 477.09 329.682 477.043C329.66 476.996 329.648 476.945 329.648 476.893C329.648 476.841 329.66 476.79 329.682 476.743C329.704 476.696 329.737 476.655 329.777 476.622C329.817 476.589 329.864 476.566 329.914 476.553C329.965 476.541 330.017 476.54 330.068 476.55H338.594C338.673 476.566 338.744 476.609 338.795 476.671C338.847 476.734 338.874 476.812 338.874 476.893C338.874 476.974 338.847 477.052 338.795 477.114C338.744 477.177 338.673 477.22 338.594 477.236Z" fill="white"/>
<path d="M327.184 458.21C327.184 458.294 326.624 458.126 326.008 457.86C325.392 457.594 324.902 457.356 324.93 457.258C324.958 457.16 325.518 457.258 326.148 457.538C326.778 457.818 327.226 458.126 327.184 458.21Z" fill="white"/>
<path d="M329.928 454.556C329.844 454.556 329.41 454.15 328.934 453.52C328.458 452.89 328.15 452.316 328.234 452.26C328.318 452.204 328.752 452.666 329.228 453.31C329.704 453.954 330.012 454.5 329.928 454.556Z" fill="white"/>
<path d="M334.352 453.254C334.254 453.254 334.184 452.652 334.184 451.854C334.184 451.056 334.282 450.454 334.38 450.524C334.478 450.594 334.548 451.126 334.548 451.854C334.604 452.33 334.536 452.812 334.352 453.254Z" fill="white"/>
<path d="M340.022 452.288C340.106 452.288 339.896 452.848 339.49 453.38C339.084 453.912 338.664 454.248 338.594 454.192C338.524 454.136 338.832 453.688 339.21 453.17C339.588 452.652 339.938 452.246 340.022 452.288Z" fill="white"/>
<path d="M343.83 456.908C343.83 456.992 343.424 457.342 342.822 457.692C342.22 458.042 341.674 458.252 341.632 458.154C341.59 458.056 342.038 457.72 342.64 457.384C343.242 457.048 343.788 456.824 343.83 456.908Z" fill="white"/>
<path d="M404.884 464.286L408.916 459.218C409.083 459.006 409.295 458.834 409.538 458.715C409.78 458.596 410.046 458.533 410.316 458.532H422.454C422.935 458.532 423.395 458.722 423.736 459.06C424.077 459.398 424.271 459.858 424.274 460.338V470.334C424.274 470.573 424.227 470.81 424.136 471.03C424.044 471.251 423.91 471.452 423.741 471.621C423.572 471.79 423.372 471.924 423.151 472.015C422.93 472.107 422.693 472.154 422.454 472.154H410.512C410.247 472.158 409.984 472.104 409.742 471.995C409.5 471.886 409.285 471.725 409.112 471.524L404.912 466.596C404.643 466.273 404.494 465.866 404.489 465.446C404.484 465.025 404.623 464.616 404.884 464.286Z" fill="#455A64"/>
<path d="M245.116 459.162C245.677 458.828 246.28 458.569 246.908 458.392L247.286 456.614H250.282L250.702 458.378C251.338 458.533 251.951 458.773 252.522 459.092L254.034 458.098L256.19 460.184L255.252 461.724C255.591 462.285 255.854 462.887 256.036 463.516L257.8 463.894V466.89L256.05 467.31C255.885 467.945 255.64 468.556 255.322 469.13L256.4 470.6L254.328 472.756L252.774 471.818C252.217 472.162 251.613 472.426 250.982 472.602L250.618 474.366H247.622L247.188 472.602C246.557 472.447 245.949 472.207 245.382 471.888L243.856 472.882L241.714 470.81L242.652 469.256C242.308 468.698 242.044 468.095 241.868 467.464L240.09 467.1V464.104L241.84 463.67C241.997 463.035 242.237 462.423 242.554 461.85L241.56 460.338L243.646 458.182L245.186 459.12L245.116 459.162ZM246.726 463.152C246.285 463.607 245.989 464.183 245.875 464.807C245.762 465.431 245.835 466.074 246.087 466.656C246.339 467.237 246.757 467.732 247.29 468.076C247.822 468.419 248.445 468.598 249.079 468.588C249.713 468.578 250.329 468.381 250.851 468.021C251.373 467.66 251.776 467.154 252.009 466.564C252.243 465.975 252.297 465.33 252.164 464.71C252.031 464.09 251.717 463.524 251.262 463.082C250.96 462.789 250.603 462.558 250.211 462.402C249.82 462.247 249.401 462.17 248.98 462.177C248.559 462.183 248.143 462.273 247.756 462.44C247.369 462.607 247.019 462.849 246.726 463.152Z" fill="#455A64"/>
<path d="M418.014 461.576L411.589 468L412.579 468.99L419.004 462.566L418.014 461.576Z" fill="white"/>
<path d="M413.05 461.59L412.06 462.581L418.486 469.004L419.476 468.014L413.05 461.59Z" fill="white"/>
<path d="M395.392 291.582H229.464C220.255 291.582 212.79 299.047 212.79 308.256V309.222C212.79 318.431 220.255 325.896 229.464 325.896H395.392C404.601 325.896 412.066 318.431 412.066 309.222V308.256C412.066 299.047 404.601 291.582 395.392 291.582Z" fill="#EBEBEB"/>
<path d="M462.382 338.86H199.182V379.278H462.382V338.86Z" fill="#F5F5F5"/>
<path d="M302.754 357.2H304V365.166H308.928V366.286H302.698L302.754 357.2Z" fill="#263238"/>
<path d="M310.062 357.2C310.062 357.09 310.084 356.982 310.126 356.881C310.169 356.78 310.231 356.688 310.309 356.611C310.387 356.534 310.48 356.473 310.582 356.433C310.683 356.392 310.792 356.372 310.902 356.374C311.061 356.38 311.214 356.431 311.344 356.523C311.473 356.615 311.573 356.743 311.631 356.891C311.688 357.039 311.701 357.201 311.668 357.356C311.635 357.511 311.556 357.653 311.443 357.764C311.33 357.876 311.187 357.952 311.031 357.982C310.875 358.013 310.714 357.997 310.567 357.937C310.42 357.877 310.294 357.775 310.204 357.644C310.114 357.513 310.065 357.359 310.062 357.2ZM310.286 359.328H311.532V366.202H310.286V359.328Z" fill="#263238"/>
<path d="M313.03 365.6L313.548 364.606C314.269 365.074 315.111 365.322 315.97 365.32C317.132 365.32 317.608 364.97 317.608 364.382C317.608 362.842 313.254 364.172 313.254 361.442C313.254 360.21 314.36 359.37 316.054 359.37C316.93 359.357 317.795 359.574 318.56 360L318.028 360.98C317.434 360.606 316.742 360.416 316.04 360.434C314.948 360.434 314.416 360.84 314.416 361.386C314.416 363.01 318.784 361.68 318.784 364.354C318.784 365.614 317.636 366.398 315.802 366.398C314.82 366.408 313.857 366.13 313.03 365.6Z" fill="#263238"/>
<path d="M324.272 365.866C323.843 366.193 323.314 366.361 322.774 366.342C322.482 366.377 322.184 366.346 321.905 366.251C321.626 366.155 321.372 365.998 321.162 365.791C320.952 365.584 320.792 365.332 320.693 365.054C320.594 364.776 320.559 364.479 320.59 364.186V360.406H319.4V359.384H320.576V357.872H321.822V359.384H323.796V360.406H321.822V364.2C321.801 364.35 321.814 364.503 321.859 364.648C321.905 364.793 321.982 364.926 322.085 365.037C322.188 365.148 322.315 365.235 322.456 365.292C322.597 365.348 322.749 365.372 322.9 365.362C323.25 365.37 323.591 365.256 323.866 365.04L324.272 365.866Z" fill="#263238"/>
<path d="M331.734 363.234H326.134C326.215 363.827 326.519 364.366 326.985 364.741C327.452 365.116 328.044 365.298 328.64 365.25C329.011 365.263 329.381 365.196 329.724 365.053C330.067 364.911 330.375 364.696 330.628 364.424L331.314 365.222C330.806 365.741 330.159 366.101 329.451 366.259C328.742 366.417 328.003 366.367 327.323 366.113C326.643 365.86 326.051 365.415 325.619 364.831C325.187 364.248 324.933 363.552 324.888 362.828C324.869 362.366 324.945 361.905 325.111 361.474C325.277 361.042 325.53 360.65 325.854 360.32C326.179 359.991 326.567 359.732 326.996 359.558C327.424 359.385 327.884 359.302 328.346 359.314C328.808 359.301 329.268 359.385 329.696 359.561C330.124 359.736 330.511 359.999 330.831 360.332C331.151 360.666 331.398 361.063 331.556 361.497C331.714 361.932 331.78 362.395 331.748 362.856C331.75 362.982 331.746 363.108 331.734 363.234ZM326.134 362.338H330.6C330.539 361.794 330.28 361.292 329.871 360.927C329.463 360.563 328.935 360.361 328.388 360.361C327.841 360.361 327.313 360.563 326.905 360.927C326.497 361.292 326.237 361.794 326.176 362.338H326.134Z" fill="#263238"/>
<path d="M340.022 362.296V366.258H338.776V362.45C338.776 361.05 338.104 360.434 336.914 360.434C336.614 360.414 336.312 360.46 336.032 360.569C335.751 360.677 335.497 360.847 335.289 361.064C335.081 361.282 334.923 361.543 334.826 361.828C334.73 362.114 334.697 362.417 334.73 362.716V366.258H333.484V359.384H334.674V360.42C334.973 360.052 335.354 359.759 335.787 359.567C336.22 359.375 336.693 359.288 337.166 359.314C337.56 359.284 337.955 359.342 338.324 359.483C338.692 359.625 339.025 359.846 339.298 360.131C339.571 360.416 339.778 360.758 339.903 361.132C340.028 361.507 340.069 361.904 340.022 362.296Z" fill="#263238"/>
<path d="M342.108 357.2C342.108 357.09 342.13 356.982 342.173 356.881C342.215 356.78 342.277 356.688 342.355 356.611C342.433 356.534 342.526 356.473 342.628 356.433C342.73 356.392 342.839 356.372 342.948 356.374C343.107 356.38 343.261 356.431 343.39 356.523C343.52 356.615 343.619 356.743 343.677 356.891C343.735 357.039 343.748 357.201 343.714 357.356C343.681 357.511 343.603 357.653 343.49 357.764C343.376 357.876 343.233 357.952 343.077 357.982C342.921 358.013 342.76 357.997 342.613 357.937C342.466 357.877 342.34 357.775 342.25 357.644C342.161 357.513 342.111 357.359 342.108 357.2ZM342.318 359.328H343.564V366.202H342.318V359.328Z" fill="#263238"/>
<path d="M352.482 362.296V366.258H351.236V362.45C351.236 361.05 350.55 360.434 349.374 360.434C349.073 360.411 348.77 360.455 348.488 360.563C348.206 360.671 347.952 360.841 347.743 361.059C347.534 361.277 347.376 361.539 347.28 361.825C347.185 362.112 347.154 362.416 347.19 362.716V366.258H346V359.384H347.204V360.42C347.498 360.05 347.876 359.757 348.308 359.564C348.739 359.372 349.21 359.286 349.682 359.314C350.071 359.293 350.46 359.357 350.822 359.502C351.183 359.647 351.509 359.87 351.776 360.154C352.042 360.438 352.244 360.777 352.366 361.147C352.488 361.517 352.527 361.909 352.482 362.296Z" fill="#263238"/>
<path d="M361.4 359.384V365.334C361.47 365.817 361.425 366.31 361.269 366.772C361.113 367.235 360.851 367.655 360.504 367.998C360.157 368.341 359.734 368.598 359.27 368.748C358.806 368.898 358.313 368.937 357.83 368.862C356.653 368.913 355.494 368.551 354.554 367.84L355.142 366.874C355.9 367.469 356.839 367.785 357.802 367.77C359.412 367.77 360.154 367.014 360.154 365.46V364.914C359.847 365.265 359.465 365.543 359.036 365.727C358.607 365.912 358.143 365.997 357.676 365.978C356.793 365.978 355.945 365.627 355.32 365.002C354.695 364.377 354.344 363.53 354.344 362.646C354.344 361.762 354.695 360.915 355.32 360.29C355.945 359.665 356.793 359.314 357.676 359.314C358.16 359.295 358.641 359.387 359.083 359.584C359.524 359.78 359.915 360.076 360.224 360.448V359.384H361.4ZM360.182 362.646C360.207 362.174 360.09 361.704 359.846 361.299C359.602 360.894 359.242 360.571 358.812 360.372C358.383 360.174 357.904 360.109 357.437 360.185C356.97 360.262 356.537 360.477 356.193 360.802C355.849 361.127 355.611 361.548 355.509 362.01C355.407 362.472 355.446 362.954 355.621 363.394C355.796 363.834 356.098 364.211 356.49 364.477C356.881 364.743 357.343 364.885 357.816 364.886C358.122 364.91 358.43 364.869 358.719 364.766C359.008 364.664 359.273 364.502 359.496 364.291C359.719 364.08 359.895 363.824 360.013 363.541C360.131 363.258 360.189 362.953 360.182 362.646Z" fill="#263238"/>
<path d="M363.192 365.446C363.19 365.33 363.212 365.214 363.255 365.106C363.299 364.998 363.364 364.9 363.446 364.818C363.528 364.736 363.626 364.671 363.734 364.627C363.842 364.584 363.958 364.562 364.074 364.564C364.189 364.564 364.302 364.587 364.407 364.632C364.513 364.676 364.608 364.742 364.688 364.824C364.768 364.906 364.83 365.004 364.871 365.111C364.912 365.217 364.932 365.332 364.928 365.446C364.932 365.561 364.913 365.676 364.871 365.784C364.83 365.891 364.768 365.99 364.689 366.073C364.609 366.156 364.514 366.223 364.408 366.269C364.303 366.315 364.189 366.34 364.074 366.342C363.957 366.342 363.841 366.319 363.733 366.274C363.625 366.228 363.527 366.162 363.445 366.079C363.363 365.995 363.299 365.896 363.255 365.788C363.212 365.679 363.19 365.563 363.192 365.446Z" fill="#263238"/>
<path d="M366.132 365.446C366.13 365.33 366.152 365.214 366.195 365.106C366.239 364.998 366.304 364.9 366.386 364.818C366.468 364.736 366.566 364.671 366.674 364.627C366.782 364.584 366.898 364.562 367.014 364.564C367.13 364.562 367.245 364.584 367.352 364.627C367.459 364.671 367.556 364.736 367.637 364.819C367.718 364.901 367.782 365 367.824 365.107C367.866 365.215 367.886 365.33 367.882 365.446C367.886 365.562 367.866 365.678 367.824 365.787C367.782 365.895 367.719 365.994 367.638 366.078C367.557 366.162 367.46 366.228 367.353 366.273C367.246 366.319 367.13 366.342 367.014 366.342C366.897 366.342 366.781 366.319 366.673 366.274C366.565 366.228 366.467 366.162 366.385 366.079C366.303 365.995 366.239 365.896 366.195 365.788C366.152 365.679 366.13 365.563 366.132 365.446Z" fill="#263238"/>
<path d="M369.086 365.446C369.084 365.33 369.106 365.214 369.149 365.106C369.193 364.998 369.258 364.9 369.34 364.818C369.422 364.736 369.52 364.671 369.628 364.627C369.736 364.584 369.852 364.562 369.968 364.564C370.083 364.564 370.196 364.587 370.301 364.632C370.407 364.676 370.502 364.742 370.582 364.824C370.662 364.906 370.724 365.004 370.765 365.111C370.806 365.217 370.826 365.332 370.822 365.446C370.826 365.561 370.807 365.676 370.766 365.784C370.724 365.891 370.662 365.99 370.583 366.073C370.503 366.156 370.408 366.223 370.303 366.269C370.197 366.315 370.083 366.34 369.968 366.342C369.851 366.342 369.735 366.319 369.627 366.274C369.519 366.228 369.421 366.162 369.339 366.079C369.257 365.995 369.193 365.896 369.149 365.788C369.106 365.679 369.084 365.563 369.086 365.446Z" fill="#263238"/>
<path d="M243.212 304V313.086H241.91V309.04H236.688V313.086H235.4V304H236.688V307.906H241.91V304H243.212Z" fill="#263238"/>
<path d="M245.522 304.112C245.522 304.001 245.544 303.891 245.587 303.789C245.631 303.687 245.694 303.595 245.774 303.518C245.853 303.441 245.948 303.381 246.051 303.341C246.155 303.301 246.265 303.282 246.376 303.286C246.534 303.294 246.686 303.348 246.814 303.442C246.941 303.535 247.039 303.664 247.094 303.812C247.15 303.96 247.161 304.121 247.126 304.276C247.091 304.43 247.012 304.571 246.898 304.681C246.785 304.791 246.641 304.865 246.486 304.895C246.331 304.924 246.17 304.908 246.024 304.847C245.878 304.787 245.752 304.685 245.663 304.555C245.574 304.424 245.525 304.27 245.522 304.112ZM245.746 306.24H246.992V313.114H245.746V306.24Z" fill="#263238"/>
<path d="M249.078 312.4C249.076 312.287 249.097 312.174 249.141 312.07C249.184 311.965 249.248 311.87 249.33 311.791C249.411 311.713 249.508 311.651 249.614 311.612C249.72 311.572 249.833 311.554 249.946 311.56C250.149 311.586 250.334 311.685 250.469 311.839C250.604 311.992 250.678 312.189 250.678 312.393C250.678 312.597 250.604 312.794 250.469 312.947C250.334 313.101 250.149 313.2 249.946 313.226C249.835 313.23 249.724 313.211 249.619 313.172C249.515 313.132 249.42 313.072 249.339 312.995C249.258 312.918 249.194 312.826 249.149 312.724C249.104 312.622 249.08 312.512 249.078 312.4ZM249.204 304H250.604L250.352 310.216H249.4L249.204 304Z" fill="#263238"/>
<path d="M252.298 312.302C252.296 312.186 252.318 312.07 252.361 311.962C252.405 311.854 252.47 311.756 252.552 311.674C252.634 311.592 252.732 311.527 252.84 311.483C252.948 311.44 253.064 311.418 253.18 311.42C253.296 311.418 253.411 311.44 253.518 311.483C253.625 311.527 253.722 311.592 253.803 311.675C253.884 311.757 253.948 311.855 253.99 311.963C254.032 312.071 254.052 312.186 254.048 312.302C254.052 312.418 254.032 312.534 253.99 312.643C253.948 312.751 253.885 312.85 253.804 312.934C253.723 313.018 253.626 313.084 253.519 313.129C253.412 313.175 253.296 313.198 253.18 313.198C253.063 313.198 252.947 313.175 252.839 313.13C252.731 313.084 252.633 313.018 252.551 312.935C252.469 312.851 252.405 312.752 252.361 312.644C252.318 312.535 252.296 312.419 252.298 312.302Z" fill="#263238"/>
<path d="M255.252 312.302C255.258 312.132 255.313 311.968 255.411 311.829C255.509 311.69 255.646 311.584 255.804 311.522C255.962 311.46 256.135 311.446 256.301 311.481C256.467 311.517 256.619 311.6 256.739 311.721C256.858 311.842 256.939 311.996 256.972 312.162C257.004 312.329 256.988 312.502 256.923 312.659C256.859 312.816 256.75 312.951 256.61 313.047C256.47 313.143 256.304 313.195 256.134 313.198C256.017 313.2 255.9 313.178 255.791 313.134C255.682 313.089 255.584 313.023 255.501 312.939C255.419 312.855 255.354 312.756 255.312 312.646C255.269 312.537 255.249 312.42 255.252 312.302Z" fill="#263238"/>
<path d="M258.192 312.302C258.19 312.186 258.212 312.07 258.255 311.962C258.299 311.854 258.364 311.756 258.446 311.674C258.528 311.592 258.626 311.527 258.734 311.483C258.842 311.44 258.958 311.418 259.074 311.42C259.189 311.418 259.303 311.44 259.41 311.484C259.516 311.527 259.612 311.593 259.693 311.676C259.773 311.758 259.835 311.857 259.875 311.964C259.916 312.072 259.934 312.187 259.928 312.302C259.934 312.418 259.916 312.533 259.875 312.642C259.835 312.75 259.773 312.849 259.693 312.933C259.613 313.017 259.517 313.084 259.411 313.129C259.304 313.175 259.19 313.198 259.074 313.198C258.957 313.198 258.841 313.175 258.733 313.13C258.625 313.084 258.527 313.018 258.445 312.935C258.363 312.851 258.299 312.752 258.255 312.644C258.212 312.535 258.19 312.419 258.192 312.302Z" fill="#263238"/>
<path d="M434.97 325.532C444.241 325.532 451.756 318.017 451.756 308.746C451.756 299.475 444.241 291.96 434.97 291.96C425.699 291.96 418.184 299.475 418.184 308.746C418.184 318.017 425.699 325.532 434.97 325.532Z" fill="#FF9933"/>
<path d="M431.176 307.528V302.838C431.178 302.756 431.2 302.676 431.24 302.605C431.281 302.533 431.338 302.473 431.408 302.43C431.478 302.387 431.557 302.362 431.639 302.357C431.721 302.353 431.802 302.369 431.876 302.404L444.014 308.396C444.098 308.434 444.169 308.495 444.219 308.572C444.268 308.649 444.295 308.738 444.295 308.83C444.295 308.922 444.268 309.011 444.219 309.088C444.169 309.165 444.098 309.226 444.014 309.264L431.876 315.088C431.802 315.123 431.721 315.139 431.639 315.135C431.557 315.13 431.478 315.105 431.408 315.062C431.338 315.019 431.281 314.959 431.24 314.887C431.2 314.816 431.178 314.736 431.176 314.654V310.664C431.176 310.559 431.21 310.457 431.273 310.374C431.336 310.29 431.425 310.23 431.526 310.202L435.978 308.942L431.568 308.004C431.459 307.979 431.362 307.919 431.291 307.833C431.22 307.747 431.18 307.64 431.176 307.528Z" fill="white"/>
<path d="M449.264 135.762C449.451 135.613 449.586 135.409 449.651 135.18C449.716 134.95 449.708 134.706 449.628 134.481C449.548 134.256 449.4 134.062 449.204 133.925C449.008 133.788 448.775 133.716 448.536 133.718H230.136C229.351 133.718 228.574 133.873 227.849 134.173C227.123 134.473 226.464 134.914 225.909 135.469C225.354 136.024 224.914 136.683 224.613 137.408C224.313 138.134 224.158 138.911 224.158 139.696V182.746C224.158 183.531 224.313 184.308 224.613 185.034C224.914 185.759 225.354 186.418 225.909 186.973C226.464 187.528 227.123 187.969 227.849 188.269C228.574 188.569 229.351 188.724 230.136 188.724H429.664C431.25 188.724 432.77 188.094 433.891 186.973C435.012 185.852 435.642 184.331 435.642 182.746V147.522C435.642 147.353 435.68 147.186 435.752 147.033C435.825 146.881 435.931 146.746 436.062 146.64L449.264 135.762Z" fill="#EBEBEB"/>
<path d="M400.446 155.502C400.446 155.698 366.538 155.866 324.72 155.866C282.902 155.866 248.98 155.698 248.98 155.502C248.98 155.306 282.888 155.124 324.72 155.124C366.552 155.124 400.446 155.292 400.446 155.502Z" fill="#263238"/>
<path d="M400.446 165.918C400.446 166.114 366.538 166.282 324.72 166.282C282.902 166.282 248.98 166.114 248.98 165.918C248.98 165.722 282.888 165.554 324.72 165.554C366.552 165.554 400.446 165.722 400.446 165.918Z" fill="#263238"/>
<path d="M428.698 195.724H277.218C274.133 195.724 271.632 198.225 271.632 201.31V224.676C271.632 227.761 274.133 230.262 277.218 230.262H428.698C431.783 230.262 434.284 227.761 434.284 224.676V201.31C434.284 198.225 431.783 195.724 428.698 195.724Z" fill="#EBEBEB"/>
<path d="M416.7 212.02C416.7 212.216 388.028 212.384 352.678 212.384C317.328 212.384 288.6 212.216 288.6 212.02C288.6 211.824 317.258 211.656 352.636 211.656C388.014 211.656 416.7 211.824 416.7 212.02Z" fill="#263238"/>
<path d="M98.3398 533.11L76.3318 562.048L65.5238 589.964C65.338 590.439 65.0568 590.871 64.6977 591.234C64.3386 591.596 63.9091 591.881 63.4356 592.072C62.9621 592.262 62.4547 592.353 61.9447 592.34C61.4346 592.326 60.9326 592.209 60.4698 591.994C59.9298 591.745 59.458 591.37 59.0947 590.899C58.7315 590.429 58.4875 589.877 58.3837 589.292C56.9837 581.732 52.1118 553.872 53.8478 551.842C55.8498 549.49 75.0438 519.768 75.0438 519.768L98.3398 533.11Z" fill="#FF9933"/>
<g opacity="0.6">
<path d="M60.47 591.994L55.29 549.854L54.38 551.1C53.5986 552.177 53.2264 553.497 53.33 554.824C53.596 558.38 54.576 568.166 58.286 589.222C58.3905 589.833 58.6447 590.408 59.0258 590.897C59.4069 591.385 59.9031 591.772 60.47 592.022V591.994Z" fill="white"/>
</g>
<g opacity="0.6">
<path d="M68.2118 544.8C68.3963 545.336 68.3719 545.922 68.1435 546.441C67.9152 546.96 67.4997 547.374 66.9798 547.6C66.4485 547.808 65.8569 547.798 65.3329 547.572C64.8088 547.347 64.3946 546.924 64.1798 546.396C64.0059 545.836 64.0439 545.231 64.2865 544.697C64.5291 544.162 64.9594 543.736 65.4958 543.498C66.0597 543.359 66.6554 543.443 67.1587 543.733C67.6621 544.022 68.0343 544.495 68.1978 545.052" fill="white"/>
</g>
<path d="M63.0598 574.2C64.4197 573.791 65.8458 573.648 67.2598 573.78C68.6667 574.13 69.993 574.748 71.1658 575.6C71.1658 575.6 71.0398 575.04 70.4098 574.452C69.5796 573.704 68.5473 573.217 67.4418 573.052C66.3332 572.848 65.1889 572.974 64.1518 573.416C63.3678 573.766 63.0038 574.2 63.0598 574.2Z" fill="#263238"/>
<path d="M62.3042 579.716C63.4911 579.853 64.669 580.059 65.8322 580.332C66.9123 580.84 67.9597 581.415 68.9682 582.054C69.1642 581.956 68.1982 580.304 66.0842 579.59C65.4909 579.304 64.837 579.166 64.1787 579.188C63.5203 579.21 62.8771 579.391 62.3042 579.716Z" fill="#263238"/>
<path d="M62.8218 566.374C64.668 566.431 66.5072 566.627 68.3238 566.962C70.0806 567.547 71.7891 568.267 73.4338 569.118C72.2041 567.587 70.4651 566.548 68.5338 566.192C66.6702 565.561 64.6414 565.626 62.8218 566.374Z" fill="#263238"/>
<path d="M68.7998 557.008C68.7998 557.246 70.8578 557.75 72.9998 559.206C75.1418 560.662 76.4718 562.384 76.6678 562.244C76.0573 560.667 74.9128 559.354 73.4338 558.534C72.109 557.511 70.4735 556.972 68.7998 557.008Z" fill="#263238"/>
<path d="M75.0298 548.356C76.6098 548.868 78.1125 549.593 79.4958 550.512C80.7332 551.625 81.8077 552.907 82.6878 554.32C82.7858 554.32 82.6878 553.69 82.3378 552.808C81.7962 551.664 80.9958 550.663 79.9998 549.882C79.0023 549.098 77.8306 548.564 76.5838 548.328C75.6318 548.16 75.0298 548.258 75.0298 548.356Z" fill="#263238"/>
<path d="M80.6441 548.832C80.6441 548.832 81.0361 548.51 81.4841 547.754C82.1311 546.659 82.5502 545.445 82.7161 544.184C82.9247 543.277 82.8262 542.327 82.4361 541.482C82.2815 541.215 82.0474 541.002 81.7663 540.874C81.4853 540.746 81.1713 540.709 80.8681 540.768C80.2963 540.918 79.7987 541.272 79.4681 541.762C78.8214 542.801 78.5558 544.032 78.7167 545.245C78.8776 546.458 79.455 547.578 80.3501 548.412C81.253 549.219 82.3753 549.738 83.5744 549.905C84.7735 550.072 85.9952 549.879 87.0841 549.35C87.3592 549.209 87.6013 549.012 87.7944 548.77C87.9875 548.529 88.1271 548.249 88.2041 547.95C88.2494 547.642 88.1967 547.328 88.0535 547.051C87.9103 546.775 87.6838 546.551 87.4061 546.41C86.5676 546.054 85.6517 545.919 84.7461 546.018C83.4852 546.081 82.2445 546.361 81.0781 546.844C80.2521 547.194 79.8601 547.502 79.8881 547.544C81.4539 546.977 83.0966 546.652 84.7601 546.578C85.5514 546.529 86.3431 546.668 87.0701 546.984C87.224 547.058 87.3496 547.18 87.428 547.331C87.5063 547.483 87.533 547.656 87.5041 547.824C87.4381 548.012 87.3346 548.185 87.1998 548.332C87.0651 548.478 86.9018 548.596 86.7201 548.678C85.767 549.105 84.7112 549.249 83.6786 549.092C82.646 548.936 81.6801 548.486 80.8961 547.796C80.1505 547.09 79.6637 546.155 79.5139 545.139C79.364 544.123 79.56 543.087 80.0701 542.196C80.2925 541.844 80.6361 541.585 81.0361 541.468C81.2021 541.434 81.3744 541.453 81.5296 541.52C81.6849 541.588 81.8156 541.702 81.9041 541.846C82.228 542.565 82.3256 543.366 82.1841 544.142C81.9483 545.783 81.4271 547.37 80.6441 548.832Z" fill="#263238"/>
<path d="M121.258 548.538L123.498 578.106C123.498 578.106 94.0981 588.144 94.0981 593.66L151.624 593.52L150.028 547.32L121.258 548.538Z" fill="#FF9933"/>
<g opacity="0.6">
<path d="M141.166 574.9C141.725 575.049 142.209 575.398 142.527 575.88C142.844 576.363 142.973 576.946 142.888 577.518C142.763 578.083 142.426 578.577 141.947 578.901C141.467 579.224 140.882 579.35 140.312 579.254C139.715 579.098 139.198 578.724 138.864 578.206C138.53 577.687 138.402 577.062 138.506 576.454C138.693 575.893 139.087 575.425 139.607 575.144C140.127 574.863 140.735 574.791 141.306 574.942" fill="white"/>
</g>
<g opacity="0.6">
<path d="M151.554 593.52L151.386 588.872L95.848 591C95.264 591.306 94.7659 591.753 94.399 592.301C94.0322 592.849 93.8084 593.479 93.748 594.136L151.554 593.52Z" fill="white"/>
</g>
<path d="M122.546 577.84C122.546 578.12 123.946 578.204 125.346 579.044C126.746 579.884 127.544 581.046 127.796 580.92C128.048 580.794 127.558 579.198 125.836 578.204C124.114 577.21 122.476 577.588 122.546 577.84Z" fill="#263238"/>
<path d="M116.624 580.584C116.624 580.85 117.8 581.284 118.808 582.432C119.816 583.58 120.124 584.826 120.404 584.798C120.684 584.77 120.796 583.188 119.536 581.774C118.276 580.36 116.624 580.318 116.624 580.584Z" fill="#263238"/>
<path d="M113.488 587.934C113.74 587.934 114.076 586.534 113.292 585.05C112.508 583.566 111.178 582.992 111.066 583.23C110.954 583.468 111.808 584.252 112.466 585.498C113.124 586.744 113.208 587.906 113.488 587.934Z" fill="#263238"/>
<path d="M122.784 571.05C122.91 571.302 124.184 570.868 125.78 570.91C127.376 570.952 128.58 571.4 128.762 571.162C128.944 570.924 127.67 569.958 125.794 569.93C123.918 569.902 122.644 570.84 122.784 571.05Z" fill="#263238"/>
<g opacity="0.3">
<path d="M121.706 554.404L122.098 559.668L150.336 558.282L150.182 553.536L121.706 554.404Z" fill="black"/>
</g>
<path d="M122.448 565.086C123.4 565.296 124.391 565.247 125.318 564.946C126.35 564.722 127.351 564.374 128.3 563.91C128.86 563.635 129.398 563.316 129.91 562.958C130.231 562.773 130.52 562.537 130.764 562.258C130.928 562.043 131.018 561.78 131.018 561.509C131.018 561.238 130.928 560.975 130.764 560.76C130.617 560.57 130.428 560.417 130.211 560.313C129.995 560.208 129.758 560.155 129.518 560.158C129.152 560.179 128.79 560.245 128.44 560.354C127.833 560.532 127.243 560.761 126.676 561.04C125.721 561.516 124.847 562.14 124.086 562.888C122.812 564.176 122.392 565.24 122.49 565.296C122.588 565.352 123.232 564.47 124.548 563.406C125.32 562.786 126.167 562.264 127.068 561.852C127.593 561.619 128.136 561.427 128.692 561.278C129.294 561.096 129.812 561.068 129.98 561.278C130.148 561.488 130.05 561.418 129.98 561.6C129.796 561.802 129.584 561.977 129.35 562.118C128.871 562.455 128.376 562.769 127.866 563.056C126.971 563.533 126.033 563.927 125.066 564.232C124.172 564.449 123.297 564.734 122.448 565.086Z" fill="#263238"/>
<path d="M122.826 565.464C123.336 564.624 123.562 563.642 123.47 562.664C123.479 561.597 123.303 560.536 122.952 559.528C122.747 558.928 122.479 558.35 122.154 557.806C121.987 557.429 121.725 557.102 121.394 556.856C121.062 556.611 120.673 556.456 120.264 556.406C120.008 556.427 119.764 556.518 119.556 556.668C119.349 556.819 119.187 557.024 119.088 557.26C118.958 557.602 118.873 557.96 118.836 558.324C118.759 558.972 118.783 559.629 118.906 560.27C119.129 561.344 119.609 562.348 120.306 563.196C121.482 564.596 122.672 564.918 122.686 564.834C122.7 564.75 121.776 564.176 120.866 562.79C120.333 561.984 119.984 561.071 119.844 560.116C119.761 559.564 119.761 559.002 119.844 558.45C119.844 557.834 120.124 557.33 120.348 557.386C120.572 557.442 121.146 557.806 121.398 558.296C121.698 558.781 121.956 559.292 122.168 559.822C122.525 560.718 122.751 561.661 122.84 562.622C122.924 564.4 122.672 565.436 122.826 565.464Z" fill="#263238"/>
<path d="M102.638 295.67C102.638 295.67 89.1138 321.626 89.1138 342.654C89.1138 347.092 114.776 557.204 114.776 557.204L153.654 553.942L136.602 360.574L142.706 319.19L102.638 295.67Z" fill="#263238"/>
<path d="M189.2 318.672C189.2 318.672 180.114 394.552 175.844 423.798C171.392 454.388 162.614 460.198 162.614 460.198L92.376 550.092L64.8521 525.298L126.452 435.348C126.452 435.348 143.336 316.236 142.748 319.148C142.16 322.06 189.2 318.672 189.2 318.672Z" fill="#263238"/>
<path d="M161.2 461.444C161.016 461.78 160.795 462.095 160.542 462.382L158.596 465L151.218 474.492C145.016 482.626 136.518 493.742 127.124 506.034C117.73 518.326 109.176 529.498 102.848 537.436C99.684 541.426 97.094 544.604 95.26 546.788L93.146 549.28C92.9075 549.576 92.6503 549.857 92.376 550.12C92.5575 549.786 92.7733 549.471 93.02 549.182L95.022 546.592L102.414 537.1C108.616 528.966 117.114 517.85 126.508 505.558C135.902 493.266 144.456 482.094 150.784 474.156C153.948 470.166 156.538 466.988 158.358 464.804L160.486 462.312C160.7 462.004 160.939 461.714 161.2 461.444Z" fill="#455A64"/>
<path d="M121.552 167.416C121.552 167.416 107.958 175.578 103.87 182.816C99.7818 190.054 78.0538 243.016 78.9498 251.682C79.8458 260.348 100.244 265.682 100.244 265.682L121.552 238.046L108.854 229.436L121.552 213.574V167.416Z" fill="#FF9933"/>
<path d="M143.504 160.374L121.552 167.374C121.552 167.374 111.584 262.07 106.6 275.664C103.37 285.19 101.238 295.054 100.244 305.064C100.244 305.064 103.044 331.538 133.844 335.164C164.644 338.79 189.2 320.618 189.2 320.618C189.2 320.618 207.638 273.9 213.07 234C218.502 194.1 214.75 171.378 214.75 171.378L180.982 159.254L143.504 160.374Z" fill="#FF9933"/>
<path d="M208.548 174.22C207.596 175.2 194.044 184.188 189.508 199.588C184.972 214.988 180.002 230.85 180.002 230.85L162.32 233.118L172.288 273.9C172.288 273.9 193.596 271.632 205.37 252.144C217.144 232.656 224.396 208.646 224.396 208.646C224.396 208.646 222.898 159.282 208.548 174.22Z" fill="#FF9933"/>
<path d="M100.244 265.738C100.244 265.738 149.608 275.608 167.514 254.356L162.32 236.324C162.32 236.324 129.714 244.038 119.522 240.72L100.244 265.738Z" fill="#FFBE9D"/>
<path d="M168.382 232.348C168.382 232.348 175.9 215.548 176.894 215.338C177.888 215.128 192.294 210.032 192.294 210.032C192.736 211.21 192.736 212.508 192.294 213.686L197.6 214.4C197.6 214.4 196.816 217.606 195.052 218.054L196.928 219.706C195.988 220.959 194.777 221.983 193.386 222.702C192.856 222.968 192.271 223.107 191.678 223.107C191.085 223.107 190.5 222.968 189.97 222.702C189.97 222.702 190.628 223.906 187.646 225.782C184.664 227.658 179.568 230.43 179.568 230.43L168.382 232.348Z" fill="#FFBE9D"/>
<path d="M168.326 232.39C168.634 231.704 175.858 215.59 176.852 215.366C177.846 215.142 192.252 210.116 192.336 210.074C192.755 211.246 192.755 212.528 192.336 213.7L197.53 214.372C197.53 214.498 196.746 217.522 195.024 218.026L196.886 219.664C195.938 220.918 194.723 221.946 193.33 222.674C192.803 222.916 192.23 223.041 191.65 223.041C191.07 223.041 190.497 222.916 189.97 222.674C190.054 222.996 190.124 224.074 187.59 225.712C184.636 227.56 179.568 230.332 179.526 230.346L168.326 232.39ZM192.35 210.088C191.552 210.368 177.86 215.156 176.95 215.38C176.04 215.604 171.112 226.482 168.55 232.292L179.624 230.346C179.82 230.234 184.79 227.546 187.688 225.698C190.586 223.85 190.012 222.674 189.998 222.674V222.548L190.11 222.618C190.637 222.877 191.217 223.012 191.804 223.012C192.392 223.012 192.971 222.877 193.498 222.618C194.873 221.899 196.073 220.885 197.012 219.65L195.094 217.97H195.164C196.788 217.564 197.572 214.764 197.67 214.386L192.462 213.728C192.865 212.541 192.826 211.248 192.35 210.088Z" fill="#EB996E"/>
<path d="M191.916 213.742C188.852 215.217 185.679 216.453 182.424 217.438C181.108 217.914 179.792 218.278 178.756 218.838C177.837 219.283 177.079 220.002 176.586 220.896C175.732 222.464 175.41 223.584 175.27 223.542C175.324 222.522 175.606 221.527 176.096 220.63C176.588 219.589 177.403 218.735 178.42 218.194C179.637 217.643 180.891 217.175 182.172 216.794C185.336 215.526 188.594 214.505 191.916 213.742Z" fill="#EB996E"/>
<path d="M195.29 217.998C194.485 218.477 193.596 218.799 192.672 218.95C191.006 219.398 188.668 219.776 186.19 220.448C184.067 220.992 182.07 221.943 180.31 223.248C178.994 224.27 178.406 225.166 178.308 225.096C178.21 225.026 178.658 224.018 179.96 222.828C181.693 221.334 183.756 220.274 185.98 219.734C188.528 219.048 190.88 218.754 192.546 218.446C193.445 218.213 194.363 218.063 195.29 217.998Z" fill="#EB996E"/>
<path d="M182.004 225.6C182.864 224.442 184.094 223.612 185.49 223.248C186.802 222.631 188.289 222.497 189.69 222.87C189.69 223.108 187.856 223.234 185.77 223.99C183.684 224.746 182.2 225.824 182.004 225.6Z" fill="#EB996E"/>
<path d="M163.846 237.486L122.476 225.922L110.17 239.348C110.17 239.348 152.254 272.332 171.49 271.8" fill="#FFBE9D"/>
<path d="M171.49 271.8C169.759 271.919 168.021 271.796 166.324 271.436C161.714 270.463 157.239 268.935 152.996 266.886C142.132 262 128.104 253.236 113.6 242.4L109.988 239.6L109.652 239.348L109.946 239.026L122.28 225.614L122.434 225.446H122.658L152.366 233.846L160.878 236.338L163.146 237.024C163.408 237.1 163.666 237.194 163.916 237.304C163.64 237.288 163.367 237.236 163.104 237.15L160.822 236.576L152.24 234.28L122.448 226.104L122.826 225.992L110.52 239.432V238.858L114.118 241.658C128.65 252.466 142.594 261.258 153.318 266.27C157.516 268.344 161.936 269.936 166.492 271.016C167.203 271.186 167.923 271.317 168.648 271.408C169.181 271.496 169.718 271.552 170.258 271.576C170.673 271.625 171.084 271.7 171.49 271.8Z" fill="#EB996E"/>
<path d="M190.908 190.348C190.847 191.466 190.645 192.571 190.306 193.638C189.844 195.654 189.144 198.412 188.318 201.45C187.492 204.488 186.708 207.232 186.106 209.192C185.851 210.282 185.47 211.339 184.972 212.342C185.033 211.224 185.235 210.119 185.574 209.052C186.036 207.036 186.736 204.278 187.562 201.24C188.388 198.202 189.172 195.472 189.774 193.498C190.033 192.409 190.413 191.352 190.908 190.348Z" fill="#263238"/>
<path d="M188.99 245.69C188.85 245.69 188.458 243.646 187.422 240.454C186.838 238.594 185.933 236.85 184.748 235.302C183.344 233.415 181.288 232.118 178.98 231.662C176.618 231.55 174.254 231.824 171.98 232.474L166.156 233.622C165.422 233.721 164.703 233.909 164.014 234.182C163.768 234.282 163.545 234.431 163.359 234.622C163.173 234.812 163.029 235.039 162.936 235.288C162.836 235.508 162.785 235.747 162.785 235.988C162.785 236.229 162.836 236.468 162.936 236.688C162.936 236.688 162.32 236.31 162.586 235.288C162.674 234.988 162.823 234.709 163.023 234.468C163.222 234.227 163.469 234.03 163.748 233.888C164.456 233.555 165.204 233.315 165.974 233.174L171.784 231.858C174.156 231.146 176.633 230.847 179.106 230.976C181.611 231.465 183.838 232.886 185.336 234.952C186.543 236.583 187.436 238.426 187.968 240.384C188.342 241.676 188.637 242.99 188.85 244.318C188.96 244.767 189.007 245.228 188.99 245.69Z" fill="#263238"/>
<path d="M195.052 236.8C193.837 234.63 192.2 232.726 190.236 231.2C186.876 228.834 183.39 228.4 183.446 228.218C184.199 228.089 184.972 228.142 185.7 228.372C187.493 228.765 189.191 229.507 190.698 230.556C192.209 231.61 193.455 232.999 194.338 234.616C194.762 235.269 195.009 236.022 195.052 236.8Z" fill="#263238"/>
<path d="M224.396 208.646C224.353 208.944 224.274 209.236 224.158 209.514C223.948 210.158 223.668 210.914 223.346 211.964C222.576 214.176 221.54 217.2 220.266 220.91C218.992 224.62 217.396 229.198 215.198 234.028C213 238.858 210.382 244.038 207.246 249.316C204.301 254.292 200.549 258.744 196.144 262.49C192.561 265.564 188.535 268.08 184.202 269.952C181.281 271.206 178.207 272.068 175.06 272.514C174.206 272.639 173.346 272.719 172.484 272.752C172.186 272.789 171.885 272.789 171.588 272.752C171.588 272.668 172.82 272.612 175.004 272.22C178.096 271.648 181.109 270.708 183.978 269.42C193.432 265.044 201.318 257.876 206.574 248.882C209.668 243.688 212.174 238.424 214.54 233.706C216.906 228.988 218.348 224.452 219.734 220.714C221.12 216.976 222.24 213.924 223.052 211.838L224.018 209.444C224.117 209.166 224.244 208.899 224.396 208.646Z" fill="#263238"/>
<path d="M211.6 175.284C211.684 175.508 208.198 176.684 204.32 179.05C200.442 181.416 197.656 183.782 197.502 183.614C201.247 179.471 206.164 176.566 211.6 175.284Z" fill="#263238"/>
<path d="M119.928 209.444C120.07 206.847 120.478 204.272 121.146 201.758C121.552 199.188 122.213 196.665 123.12 194.226C122.987 196.823 122.583 199.399 121.916 201.912C121.509 204.483 120.843 207.007 119.928 209.444Z" fill="#263238"/>
<path d="M177.818 283.546C177.083 283.978 176.321 284.361 175.536 284.694C174.794 285.044 173.87 285.464 172.736 285.884C171.602 286.304 170.426 286.836 169.026 287.284C165.77 288.429 162.451 289.387 159.086 290.154C150.827 292.041 142.348 292.79 133.886 292.38C130.443 292.215 127.011 291.85 123.61 291.288C122.14 291.092 120.81 290.784 119.704 290.546C118.598 290.308 117.576 290.084 116.778 289.86C115.943 289.683 115.124 289.44 114.328 289.132C115.179 289.202 116.022 289.348 116.848 289.566C117.646 289.734 118.626 289.944 119.788 290.112C120.95 290.28 122.238 290.574 123.694 290.742C126.578 291.162 130.064 291.484 133.928 291.652C142.323 291.981 150.726 291.238 158.932 289.44C162.279 288.71 165.587 287.813 168.844 286.752C170.244 286.332 171.476 285.842 172.582 285.45C173.688 285.058 174.612 284.708 175.382 284.4C176.165 284.039 176.981 283.753 177.818 283.546Z" fill="#263238"/>
<path d="M141.6 306.688C138.516 306.295 135.49 305.538 132.584 304.434C129.594 303.576 126.718 302.363 124.016 300.822C124.1 300.612 127.978 302.082 132.822 303.622C135.798 304.496 138.727 305.519 141.6 306.688Z" fill="#263238"/>
<g opacity="0.3">
<path d="M158.75 269.392C155.838 268.16 153.024 266.494 149.902 266.018C146.094 265.444 142.902 266.578 139.094 267.166C127.754 268.944 119.284 267.6 108.588 267.166L108 270.4C112.704 274.068 118.64 275.244 124.604 275.132C130.022 275.034 135.342 273.27 140.76 273.424C145.021 273.771 149.226 274.616 153.29 275.944C160.192 277.778 167.43 279.052 174.472 277.834C181.514 276.616 188.374 272.5 191.272 266.004C186.548 269.201 181.109 271.183 175.436 271.774C169.762 272.365 164.031 271.547 158.75 269.392Z" fill="black"/>
</g>
<g opacity="0.3">
<path d="M125.262 302.334C127.562 306.15 130.722 309.377 134.489 311.756C138.257 314.136 142.528 315.603 146.962 316.04C148.883 316.276 150.832 316.114 152.688 315.564C153.612 315.285 154.47 314.823 155.211 314.205C155.952 313.587 156.561 312.825 157 311.966C154.948 310.624 152.665 309.675 150.266 309.166L125.528 302.362" fill="black"/>
</g>
<path d="M111.92 239.026L95.9738 239.6C94.3778 239.6 92.8798 238.2 92.2078 235.918L80.0838 194.94C78.9218 191.034 80.6018 186.68 83.3318 186.54L106.278 185.14C108.014 185.042 109.624 186.722 110.226 189.34L118.444 223.99C120.194 231.2 116.904 238.844 111.92 239.026Z" fill="#455A64"/>
<path d="M100.692 221.862C98.9002 223.71 88.9042 215.59 85.9502 216.192C82.9962 216.794 81.2182 218.502 82.8562 219.762C84.4942 221.022 88.6242 225.138 89.2682 226.874C89.2682 226.874 89.5762 219.608 88.7922 220.784C88.0082 221.96 86.6922 223.836 88.5962 224.662C90.5002 225.488 87.5602 231.886 88.9742 232.684C91.3255 233.81 93.7955 234.67 96.3382 235.246C98.946 236.048 101.511 236.983 104.024 238.046C107.877 239.613 112.171 239.712 116.092 238.326L118.094 237.626C119.615 237.094 120.931 236.099 121.858 234.781C122.784 233.462 123.275 231.887 123.26 230.276L123.19 223.654L125.57 218.306L121.37 209.318L114.37 206.994L117.058 215.324C114.258 216.724 109.666 217.578 107.258 216.276C104.85 214.974 95.6382 205.762 93.8882 206.644C92.1382 207.526 90.5842 209.64 92.1802 211.656C93.7762 213.672 102.456 219.944 100.664 221.806" fill="#FFBE9D"/>
<path d="M65.062 524.878C65.1291 524.731 65.2087 524.591 65.3 524.458C65.496 524.164 65.748 523.758 66.084 523.268L69.122 518.718L80.406 502.044L117.8 447.206L126.06 435.152V435.32C127.922 412.92 129.574 393.194 130.75 378.998C131.366 371.998 131.87 366.286 132.15 362.338C132.332 360.42 132.472 358.922 132.57 357.858C132.57 357.368 132.668 356.99 132.696 356.696C132.675 356.566 132.675 356.434 132.696 356.304C132.714 356.434 132.714 356.566 132.696 356.696C132.696 356.99 132.696 357.382 132.696 357.858C132.612 358.936 132.514 360.434 132.388 362.352C132.094 366.314 131.674 371.984 131.142 379.026C130.022 393.236 128.454 412.976 126.69 435.39V435.474V435.558L118.43 447.612C103.744 468.962 90.43 488.296 80.798 502.338L69.318 518.872L66.168 523.352L65.342 524.5C65.174 524.766 65.076 524.892 65.062 524.878Z" fill="#455A64"/>
<path d="M147.116 345.076C147.228 345.258 143.672 347.484 139.738 350.802C135.804 354.12 133.004 357.214 132.836 357.074C133.272 356.254 133.834 355.508 134.502 354.862C137.468 351.557 140.885 348.687 144.652 346.336C145.4 345.786 146.232 345.361 147.116 345.076Z" fill="#455A64"/>
<path d="M133.2 356.612C131.599 356.539 130.052 356.004 128.748 355.072C127.321 354.352 126.137 353.227 125.346 351.838C125.5 351.684 126.97 353.154 129.126 354.456C131.282 355.758 133.2 356.402 133.2 356.612Z" fill="#455A64"/>
<path d="M186.148 338.86C186.148 339.07 182.312 338.608 177.594 338.342C172.876 338.076 169.054 338.104 169.04 337.894C171.882 337.437 174.77 337.343 177.636 337.614C180.515 337.662 183.376 338.081 186.148 338.86Z" fill="#455A64"/>
<path d="M104.262 322.2C104.262 322.2 103.73 322.606 102.694 322.858C101.338 323.166 99.9335 323.199 98.5641 322.956C97.1992 322.714 95.8985 322.194 94.7421 321.43C93.8601 320.842 93.4261 320.338 93.4961 320.268C95.1447 321.137 96.8938 321.8 98.7041 322.242C100.552 322.45 102.418 322.436 104.262 322.2Z" fill="#455A64"/>
<path d="M220.924 204.88C220.583 205.15 220.206 205.372 219.804 205.538C218.745 206.066 217.645 206.506 216.514 206.854C214.843 207.392 213.129 207.785 211.39 208.03C209.25 208.294 207.089 208.364 204.936 208.24C202.787 208.069 200.659 207.694 198.58 207.12C196.891 206.639 195.246 206.011 193.666 205.244C192.599 204.738 191.574 204.148 190.6 203.48C190.222 203.265 189.878 202.996 189.578 202.682C189.662 202.57 191.188 203.592 193.89 204.782C195.47 205.466 197.098 206.033 198.762 206.476C200.807 206.992 202.89 207.339 204.992 207.512C207.097 207.64 209.21 207.588 211.306 207.358C213.014 207.156 214.703 206.824 216.36 206.364C219.202 205.566 220.868 204.754 220.924 204.88Z" fill="white"/>
<path d="M112.2 198.496C113.546 198.542 114.888 198.673 116.218 198.888C117.569 198.865 118.92 198.921 120.264 199.056C118.954 199.522 117.561 199.712 116.174 199.616C114.786 199.52 113.434 199.138 112.2 198.496Z" fill="white"/>
<path d="M188.08 198.104C188.08 198.314 173.198 199.77 154.802 201.38C136.406 202.99 121.454 204.18 121.44 203.914C121.426 203.648 136.322 202.248 154.732 200.652C173.142 199.056 188.066 197.908 188.08 198.104Z" fill="white"/>
<path d="M177.818 165.274C178.486 163.978 178.809 162.531 178.756 161.074L177.076 106.642C177.72 91.494 169.446 78.488 154.27 78.264H152.87C146.062 78.5619 139.615 81.4123 134.814 86.2479C130.012 91.0835 127.207 97.5498 126.956 104.36C126.466 117.492 126.088 132.01 126.48 139.024C127.292 153.556 141.88 155.18 141.88 155.18L142.356 160.85C142.356 160.85 141.222 170.65 152.618 174.01C161.368 176.586 170.972 171.07 175.018 168.41C176.202 167.619 177.166 166.54 177.818 165.274Z" fill="#FFBE9D"/>
<path d="M141.81 155.278C148.565 154.988 155.095 152.767 160.626 148.88C160.626 148.88 156.594 159.534 142.034 158.862L141.81 155.278Z" fill="#EB996E"/>
<path d="M135.062 116.218C135.077 116.759 135.304 117.272 135.694 117.647C136.085 118.022 136.607 118.228 137.148 118.22C137.413 118.231 137.678 118.189 137.926 118.096C138.174 118.003 138.401 117.86 138.593 117.677C138.786 117.494 138.939 117.274 139.044 117.031C139.149 116.787 139.204 116.525 139.206 116.26C139.191 115.718 138.965 115.203 138.575 114.826C138.185 114.449 137.662 114.24 137.12 114.244C136.855 114.237 136.591 114.282 136.343 114.377C136.096 114.473 135.869 114.617 135.678 114.8C135.486 114.984 135.333 115.204 135.228 115.447C135.122 115.691 135.066 115.953 135.062 116.218Z" fill="#263238"/>
<path d="M130.4 111.444C130.666 111.71 132.192 110.478 134.418 110.38C136.644 110.282 138.352 111.332 138.618 111.052C138.884 110.772 138.45 110.45 137.708 109.96C136.716 109.328 135.55 109.024 134.376 109.092C133.213 109.131 132.094 109.543 131.184 110.268C130.47 110.8 130.246 111.332 130.4 111.444Z" fill="#263238"/>
<path d="M156.692 116.218C156.707 116.759 156.934 117.272 157.324 117.647C157.715 118.022 158.237 118.228 158.778 118.22C159.043 118.231 159.308 118.189 159.556 118.096C159.804 118.003 160.031 117.86 160.223 117.677C160.415 117.494 160.569 117.274 160.674 117.031C160.779 116.787 160.834 116.525 160.836 116.26C160.821 115.719 160.594 115.206 160.204 114.831C159.813 114.456 159.291 114.25 158.75 114.258C158.485 114.247 158.22 114.289 157.972 114.382C157.724 114.475 157.497 114.618 157.304 114.801C157.112 114.984 156.959 115.203 156.854 115.447C156.749 115.69 156.694 115.953 156.692 116.218Z" fill="#263238"/>
<path d="M152.366 110.912C152.632 111.164 154.158 109.932 156.398 109.848C158.638 109.764 160.318 110.8 160.598 110.52C160.878 110.24 160.43 109.904 159.688 109.428C158.698 108.791 157.532 108.482 156.356 108.546C155.193 108.594 154.075 109.011 153.164 109.736C152.45 110.296 152.24 110.8 152.366 110.912Z" fill="#263238"/>
<path d="M144.974 127.824C143.782 127.505 142.554 127.341 141.32 127.334C140.746 127.334 140.2 127.208 140.088 126.816C140.01 126.233 140.118 125.64 140.396 125.122L141.894 120.698C143.966 114.412 145.45 109.246 145.184 109.162C144.918 109.078 143.042 114.118 140.984 120.362C140.494 121.916 140.018 123.386 139.584 124.8C139.262 125.507 139.193 126.302 139.388 127.054C139.477 127.255 139.612 127.431 139.783 127.57C139.953 127.708 140.153 127.805 140.368 127.852C140.684 127.925 141.009 127.953 141.334 127.936C142.547 128.053 143.77 128.016 144.974 127.824Z" fill="#263238"/>
<path d="M151.4 102.176C151.638 102.778 153.864 102.386 156.496 102.596C159.128 102.806 161.284 103.422 161.606 102.862C161.746 102.582 161.354 102.036 160.472 101.462C159.309 100.778 157.998 100.384 156.65 100.314C155.303 100.208 153.95 100.424 152.702 100.944C151.764 101.392 151.302 101.896 151.4 102.176Z" fill="#263238"/>
<path d="M130.932 104.948C131.338 105.438 132.85 104.836 134.712 104.738C136.574 104.64 138.142 104.92 138.478 104.374C138.618 104.108 138.352 103.618 137.652 103.17C136.714 102.62 135.627 102.375 134.544 102.47C133.455 102.537 132.414 102.938 131.562 103.618C130.932 104.164 130.736 104.696 130.932 104.948Z" fill="#263238"/>
<path d="M175.354 120.964C175.348 120.429 175.45 119.898 175.656 119.404C175.861 118.909 176.165 118.462 176.549 118.089C176.932 117.716 177.388 117.424 177.888 117.233C178.387 117.041 178.921 116.953 179.456 116.974C182.172 117.114 185.252 118.514 185.322 124.128C185.434 134.082 175.424 132.15 175.396 131.856C175.368 131.562 175.368 125.122 175.354 120.964Z" fill="#FFBE9D"/>
<path d="M177.524 128.09C177.524 128.09 177.692 128.216 177.986 128.342C178.404 128.507 178.87 128.507 179.288 128.342C179.926 127.925 180.442 127.347 180.784 126.666C181.126 125.984 181.281 125.225 181.234 124.464C181.244 123.61 181.067 122.764 180.716 121.986C180.622 121.675 180.452 121.393 180.223 121.163C179.993 120.934 179.711 120.764 179.4 120.67C179.199 120.619 178.987 120.639 178.8 120.729C178.613 120.819 178.464 120.971 178.378 121.16C178.252 121.44 178.308 121.636 178.266 121.65C178.224 121.664 178.042 121.496 178.126 121.076C178.175 120.829 178.309 120.606 178.504 120.446C178.778 120.244 179.117 120.15 179.456 120.18C179.866 120.258 180.249 120.439 180.57 120.706C180.891 120.973 181.138 121.317 181.29 121.706C181.727 122.573 181.943 123.535 181.92 124.506C181.92 126.508 180.884 128.398 179.442 128.832C179.177 128.916 178.896 128.936 178.621 128.893C178.347 128.849 178.086 128.742 177.86 128.58C177.538 128.328 177.482 128.104 177.524 128.09Z" fill="#EB996E"/>
<path d="M126.97 104.052C126.83 106.068 124.254 99.264 125.29 97.528C124.567 97.7312 123.809 97.777 123.067 97.6623C122.325 97.5476 121.616 97.275 120.988 96.863C120.361 96.4509 119.828 95.909 119.428 95.2738C119.028 94.6386 118.768 93.9248 118.667 93.1808C118.566 92.4367 118.626 91.6796 118.842 90.9606C119.058 90.2415 119.427 89.5773 119.922 89.0127C120.417 88.4481 121.027 87.9962 121.712 87.6877C122.396 87.3791 123.139 87.221 123.89 87.224C123.382 86.3125 123.192 85.258 123.349 84.2265C123.506 83.195 124.002 82.245 124.758 81.526C125.637 80.9218 126.643 80.5289 127.698 80.378C127.667 79.1446 127.957 77.9242 128.538 76.836C129.152 75.6415 130.031 74.6032 131.107 73.8005C132.184 72.9978 133.43 72.452 134.75 72.2047C136.07 71.9575 137.429 72.0154 138.723 72.3741C140.017 72.7327 141.212 73.3826 142.216 74.274C143.058 73.1301 144.166 72.2084 145.444 71.5885C146.722 70.9686 148.132 70.6691 149.551 70.716C150.971 70.7629 152.358 71.1546 153.592 71.8575C154.827 72.5603 155.871 73.553 156.636 74.75C157.682 74.109 158.858 73.7078 160.078 73.5754C161.297 73.4431 162.531 73.5827 163.691 73.9844C164.85 74.386 165.906 75.0396 166.783 75.8983C167.659 76.7569 168.335 77.7991 168.76 78.95C170.003 78.2823 171.429 78.0374 172.823 78.2521C174.217 78.4667 175.504 79.1294 176.488 80.14C177.164 81.094 177.903 82.0014 178.7 82.856C179.844 83.5669 181.054 84.1669 182.312 84.648C183.192 85.1782 183.944 85.8956 184.516 86.7492C185.087 87.6028 185.464 88.5717 185.619 89.5872C185.774 90.6027 185.703 91.6399 185.413 92.6251C185.122 93.6103 184.618 94.5194 183.936 95.288C185.373 96.3347 186.626 97.612 187.646 99.068C188.152 99.7988 188.477 100.64 188.594 101.521C188.711 102.402 188.616 103.299 188.318 104.136C187.478 106.096 185.252 107.174 184.426 109.148C184.048 110.044 184.006 111.066 183.642 111.948C183.314 112.683 182.833 113.34 182.232 113.876C181.631 114.411 180.924 114.814 180.156 115.056C179.218 119.06 176.418 120.152 176.334 121.328C175.522 133.704 170.426 126.522 167.864 100.426C167.262 94.294 169.502 91.172 164.672 87.406C164.037 88.1862 163.444 88.9993 162.894 89.842C162.152 90.7211 161.234 91.4352 160.199 91.9383C159.165 92.4415 158.036 92.7225 156.886 92.7634C155.736 92.8042 154.591 92.6041 153.523 92.1757C152.455 91.7473 151.489 91.1002 150.686 90.276C150.131 91.2382 149.355 92.0545 148.422 92.6574C147.489 93.2603 146.426 93.6325 145.321 93.7433C144.216 93.8541 143.1 93.7003 142.066 93.2946C141.032 92.8889 140.109 92.2429 139.374 91.41C137.582 93.006 133.424 95.708 130.274 92.81C128.351 96.2652 127.222 100.106 126.97 104.052Z" fill="#263238"/>
<path d="M144.4 132.836C144.718 133.762 145.166 134.639 145.73 135.44C146.018 135.834 146.387 136.163 146.812 136.404C147.236 136.645 147.708 136.794 148.194 136.84C148.715 136.85 149.231 136.726 149.691 136.481C150.152 136.236 150.542 135.878 150.826 135.44C151.385 134.545 151.645 133.496 151.568 132.444C151.568 131.506 151.092 130.372 150.168 130.26C149.775 130.253 149.386 130.339 149.034 130.512L144.092 132.514" fill="#EB996E"/>
<path d="M146.332 136.896C147.222 136.941 148.113 136.827 148.964 136.56C149.825 136.222 150.533 135.579 150.952 134.754C151.178 134.247 151.295 133.699 151.295 133.144C151.295 132.589 151.178 132.041 150.952 131.534C150.838 131.27 150.692 131.021 150.518 130.792C150.336 130.596 150.364 130.596 150.154 130.638C149.881 130.722 149.614 130.825 149.356 130.946L148.558 131.268C147.494 131.702 146.542 132.066 145.758 132.374C144.914 132.781 144.012 133.055 143.084 133.186C143.816 132.592 144.638 132.119 145.52 131.786C146.29 131.408 147.228 130.974 148.32 130.512L149.118 130.162C149.408 130.016 149.707 129.89 150.014 129.784C150.25 129.701 150.506 129.701 150.742 129.784C150.959 129.871 151.149 130.016 151.288 130.204C151.515 130.491 151.703 130.806 151.848 131.142C152.113 131.771 152.237 132.451 152.21 133.133C152.183 133.815 152.007 134.483 151.694 135.09C151.429 135.574 151.072 136.001 150.642 136.347C150.212 136.693 149.718 136.951 149.188 137.106C148.501 137.333 147.763 137.362 147.06 137.19C146.542 137.106 146.304 136.938 146.332 136.896Z" fill="#263238"/>
<path d="M621.87 594.066C621.87 594.276 482.682 594.444 311.07 594.444C139.458 594.444 0.200195 594.276 0.200195 594.066C0.200195 593.856 139.36 593.702 311.084 593.702C482.808 593.702 621.87 593.87 621.87 594.066Z" fill="#263238"/>
</g>
<defs>
<clipPath id="clip0_209_1226">
<rect width="622" height="595" fill="white"/>
</clipPath>
</defs>
</svg>
