<svg width="676" height="568" viewBox="0 0 676 568" fill="none" xmlns="http://www.w3.org/2000/svg">
<g clip-path="url(#clip0_209_993)">
<path d="M668.577 266.712C660.968 231.548 647.61 197.221 631.725 165.665C604.34 111.224 559.473 66.0163 502.076 39.18C361.232 -26.676 259.592 0.763974 204.416 54.272C149.24 107.78 165.212 199.704 105.68 239.492C46.1479 279.28 4.03987 297.116 1.13587 369.832C-1.76813 442.548 35.9839 497.428 96.9679 515.264C157.952 533.1 249.428 590.724 432.38 557.796C615.332 524.868 660.344 432.944 671.96 367.088C677.768 333.954 675.764 299.956 668.577 266.712Z" fill="#FF9933"/>
<path opacity="0.7" d="M668.577 266.712C660.968 231.548 647.61 197.221 631.725 165.665C604.34 111.224 559.473 66.0163 502.076 39.18C361.232 -26.676 259.592 0.763974 204.416 54.272C149.24 107.78 165.212 199.704 105.68 239.492C46.1479 279.28 4.03987 297.116 1.13587 369.832C-1.76813 442.548 35.9839 497.428 96.9679 515.264C157.952 533.1 249.428 590.724 432.38 557.796C615.332 524.868 660.344 432.944 671.96 367.088C677.768 333.954 675.764 299.956 668.577 266.712Z" fill="white"/>
<path d="M239.728 65.9615H226.573V121.047H239.728V65.9615Z" fill="#C9C9C9" stroke="#263238" stroke-linecap="round" stroke-linejoin="round"/>
<path d="M239.728 74.2483H226.573V79.6266H239.728V74.2483Z" fill="white" stroke="#263238" stroke-linecap="round" stroke-linejoin="round"/>
<path d="M239.728 108.425H226.573V113.803H239.728V108.425Z" fill="white" stroke="#263238" stroke-linecap="round" stroke-linejoin="round"/>
<path d="M255.076 65.9615H236.665V121.047H255.076V65.9615Z" fill="#878787" stroke="#263238" stroke-linecap="round" stroke-linejoin="round"/>
<path d="M253.769 65.9615H240.614V121.047H253.769V65.9615Z" fill="#C9C9C9" stroke="#263238" stroke-linecap="round" stroke-linejoin="round"/>
<path d="M253.769 74.2483H240.614V79.6266H253.769V74.2483Z" fill="white" stroke="#263238" stroke-linecap="round" stroke-linejoin="round"/>
<path d="M253.769 108.425H240.614V113.803H253.769V108.425Z" fill="white" stroke="#263238" stroke-linecap="round" stroke-linejoin="round"/>
<path d="M269.102 65.9615H250.69V121.047H269.102V65.9615Z" fill="#878787" stroke="#263238" stroke-linecap="round" stroke-linejoin="round"/>
<path d="M267.796 65.9615H254.641V121.047H267.796V65.9615Z" fill="#C9C9C9" stroke="#263238" stroke-linecap="round" stroke-linejoin="round"/>
<path d="M267.796 74.2483H254.641V79.6266H267.796V74.2483Z" fill="white" stroke="#263238" stroke-linecap="round" stroke-linejoin="round"/>
<path d="M267.796 108.425H254.641V113.803H267.796V108.425Z" fill="white" stroke="#263238" stroke-linecap="round" stroke-linejoin="round"/>
<path d="M283.128 65.9615H264.717V121.047H283.128V65.9615Z" fill="#C9C9C9" stroke="#263238" stroke-linecap="round" stroke-linejoin="round"/>
<path d="M295.122 121.61H326.021L334.239 114.585H295.122V121.61Z" fill="white" stroke="#263238" stroke-linecap="round" stroke-linejoin="round"/>
<path d="M330.74 121.966L329.752 120.361L294.483 120.293L295.5 121.966H330.74Z" fill="white" stroke="#263238" stroke-linecap="round" stroke-linejoin="round"/>
<path d="M277.234 67.1084L265.846 73.3311L295.03 121.018L306.418 114.795L277.234 67.1084Z" fill="#C9C9C9" stroke="#263238" stroke-linecap="round" stroke-linejoin="round"/>
<path d="M281.627 74.263L270.239 80.4857L273.089 85.1415L284.477 78.9188L281.627 74.263Z" fill="white" stroke="#263238" stroke-linecap="round" stroke-linejoin="round"/>
<path d="M299.746 103.845L288.357 110.068L291.207 114.724L302.595 108.501L299.746 103.845Z" fill="white" stroke="#263238" stroke-linecap="round" stroke-linejoin="round"/>
<path d="M334.036 115.065L306.114 114.997L276.929 67.306L304.851 67.3746L334.036 115.065Z" fill="#C9C9C9" stroke="#263238" stroke-linecap="round" stroke-linejoin="round"/>
<path d="M349.253 93.717C349.253 93.717 344.171 92.002 342.719 84.456C341.267 76.91 338.726 66.277 341.63 63.876C344.534 61.475 349.979 60.103 350.705 64.905C351.431 69.707 350.342 78.968 351.431 81.026C352.52 83.084 356.15 81.712 356.15 77.596C356.15 70.8183 353.246 63.876 354.277 57.016C355.729 47.5355 365.893 46.4928 366.982 57.016C367.592 62.8333 367.766 68.7741 367.766 74.6188C367.766 77.0198 372.122 78.3918 371.759 72.5608C371.497 68.4448 374.663 63.6428 379.019 65.0148C383.375 66.3868 379.745 84.5658 378.293 87.6528C376.841 90.7398 367.766 91.316 367.766 91.316V99.205L356.876 99.548L356.513 91.659C354.296 92.8701 351.809 93.5748 349.253 93.717Z" fill="#FF9933" stroke="#263238" stroke-linecap="round" stroke-linejoin="round"/>
<path d="M359.054 78.6799C359.184 80.3949 359.272 81.4239 359.272 81.4239" stroke="#263238" stroke-linecap="round" stroke-linejoin="round"/>
<path d="M359.78 52.0768C359.78 52.0768 357.398 53.6409 357.573 58.3332C357.689 61.1869 358.27 69.0896 358.72 74.8658" stroke="#263238" stroke-linecap="round" stroke-linejoin="round"/>
<path d="M363.874 68.2527L364.252 79.7363" stroke="#263238" stroke-linecap="round" stroke-linejoin="round"/>
<path d="M369.188 87.2C368.347 87.3237 367.498 87.3924 366.647 87.4058" stroke="#263238" stroke-linecap="round" stroke-linejoin="round"/>
<path d="M376.768 67.9097C375.93 69.4115 375.486 71.0822 375.476 72.7803C375.476 75.5243 375.665 83.2212 373.821 85.3067C373.371 85.7749 372.821 86.1488 372.209 86.4043" stroke="#263238" stroke-linecap="round" stroke-linejoin="round"/>
<path d="M345.26 83.3447C345.696 85.4075 346.743 87.3107 348.28 88.8327C349.189 89.52 350.31 89.908 351.474 89.9377C352.638 89.9674 353.78 89.6372 354.727 88.9973" stroke="#263238" stroke-linecap="round" stroke-linejoin="round"/>
<path d="M344.911 64.7816C344.911 64.7816 341.237 64.7815 342.515 70.8595C343.067 73.4251 343.575 76.5808 344.228 79.558" stroke="#263238" stroke-linecap="round" stroke-linejoin="round"/>
<path d="M358.72 87.9135L359.46 95.3909" stroke="#263238" stroke-linecap="round" stroke-linejoin="round"/>
<path d="M377.567 96.118L376.245 106.353L375.345 113.323L374.3 121.431H348.178L347.133 113.323L346.232 106.353L344.911 96.118H377.567Z" fill="white" stroke="#263238" stroke-linecap="round" stroke-linejoin="round"/>
<path d="M376.245 106.353L375.345 113.323H347.133L346.232 106.353H376.245Z" fill="#FF9933" stroke="#263238" stroke-linecap="round" stroke-linejoin="round"/>
<path d="M391.912 121.431H224.25V131.927H391.912V121.431Z" fill="white" stroke="#263238" stroke-linecap="round" stroke-linejoin="round"/>
<path d="M391.912 121.431H353.26V131.927H391.912V121.431Z" fill="white" stroke="#263238" stroke-linecap="round" stroke-linejoin="round"/>
<path d="M349.5 131.968C367.461 138.225 364.223 150.051 364.223 150.051H381.226V131.968H349.5Z" fill="#919191" stroke="#263238" stroke-linecap="round" stroke-linejoin="round"/>
<path d="M355.235 131.968C373.182 138.225 369.944 150.051 369.944 150.051H386.962V131.968H355.235Z" fill="white" stroke="#263238" stroke-linecap="round" stroke-linejoin="round"/>
<path d="M234.429 131.968C252.39 138.225 249.152 150.051 249.152 150.051H266.155V131.968H234.429Z" fill="#919191" stroke="#263238" stroke-linecap="round" stroke-linejoin="round"/>
<path d="M240.164 131.968C258.111 138.225 254.873 150.051 254.873 150.051H271.89V131.968H240.164Z" fill="white" stroke="#263238" stroke-linecap="round" stroke-linejoin="round"/>
<path d="M625.554 67.9234H475.185V265.162H625.554V67.9234Z" fill="#919191" stroke="#263238" stroke-linecap="round" stroke-linejoin="round"/>
<path d="M619.034 76.4847H481.719V256.601H619.034V76.4847Z" fill="#FF9933"/>
<path opacity="0.5" d="M619.034 76.4847H481.719V256.601H619.034V76.4847Z" fill="white"/>
<path d="M511.906 242.922C508.224 248.229 503.573 252.874 498.17 256.642H619.034V76.4847H596.761L593.857 77.349C572.077 83.8386 549.571 102.621 536.808 136.757" stroke="#263238" stroke-linecap="round" stroke-linejoin="round"/>
<path d="M534.688 142.739C529.617 159.018 526.815 175.852 526.353 192.817C525.555 213.177 520.966 227.816 514.839 238.34" stroke="#263238" stroke-linecap="round" stroke-linejoin="round"/>
<path d="M605.604 122.2C585.639 133.176 562.392 151.615 553.709 179.892C549.048 194.984 553.419 208.595 562.058 220.243" stroke="#263238" stroke-linecap="round" stroke-linejoin="round"/>
<path d="M566.733 225.923C578.712 239.176 595.773 249.604 609.582 256.615H619.034V115.546C616.334 116.739 613.459 118.084 610.468 119.662" stroke="#263238" stroke-linecap="round" stroke-linejoin="round"/>
<path d="M504.544 123.448C515.057 103.198 516.16 87.1314 514.955 76.4847H481.748V158.887C486.656 152.288 492.667 143.466 499.927 131.639C500.377 130.912 500.798 130.267 501.219 129.499" stroke="#263238" stroke-linecap="round" stroke-linejoin="round"/>
<path d="M517.554 201.446C515.942 211.421 511.092 218.665 505.371 218.665C498.329 218.665 492.608 207.689 492.608 194.106C492.608 180.523 498.329 169.547 505.371 169.547C512.414 169.547 518.135 180.523 518.135 194.106" stroke="#263238" stroke-linecap="round" stroke-linejoin="round"/>
<path d="M523.608 143.699C523.608 148.926 521.169 153.179 518.134 153.179C515.1 153.179 512.675 148.926 512.675 143.699C512.675 138.472 515.114 134.218 518.134 134.218C521.154 134.218 523.608 138.458 523.608 143.699Z" stroke="#263238" stroke-linecap="round" stroke-linejoin="round"/>
<path d="M593.275 183.748C598.546 186.121 601.987 190.265 601.987 194.971C601.987 202.338 593.421 208.32 582.836 208.32C572.251 208.32 563.698 202.338 563.698 194.971C563.698 187.603 572.265 181.607 582.836 181.607C584.522 181.606 586.205 181.762 587.859 182.074" stroke="#263238" stroke-linecap="round" stroke-linejoin="round"/>
<path d="M590.909 194.971C590.909 198.058 587.322 200.568 582.879 200.568C578.436 200.568 574.85 198.058 574.85 194.971C574.85 191.884 578.451 189.359 582.879 189.359C587.308 189.359 590.909 191.87 590.909 194.971Z" stroke="#263238" stroke-linecap="round" stroke-linejoin="round"/>
<path d="M603.861 160.931C603.861 165.212 599.374 168.683 593.827 168.683C588.281 168.683 583.794 165.212 583.794 160.931C583.794 156.651 588.281 153.179 593.827 153.179C599.374 153.179 603.861 156.651 603.861 160.931Z" stroke="#263238" stroke-linecap="round" stroke-linejoin="round"/>
<path d="M531.362 117.85C535.139 117.85 538.201 110.713 538.201 101.908C538.201 93.103 535.139 85.9652 531.362 85.9652C527.585 85.9652 524.523 93.103 524.523 101.908C524.523 110.713 527.585 117.85 531.362 117.85Z" stroke="#263238" stroke-linecap="round" stroke-linejoin="round"/>
<path d="M550.064 238.916C550.064 240.707 549.502 242.457 548.449 243.947C547.396 245.436 545.899 246.596 544.148 247.282C542.397 247.967 540.47 248.146 538.611 247.797C536.752 247.448 535.045 246.585 533.704 245.319C532.364 244.052 531.451 242.439 531.082 240.682C530.712 238.926 530.902 237.105 531.627 235.45C532.352 233.796 533.581 232.382 535.157 231.387C536.732 230.392 538.585 229.861 540.481 229.861C543.022 229.861 545.46 230.815 547.257 232.513C549.054 234.211 550.064 236.514 550.064 238.916Z" stroke="#263238" stroke-linecap="round" stroke-linejoin="round"/>
<path d="M594.743 104.487C594.745 105.598 594.399 106.685 593.748 107.61C593.096 108.535 592.169 109.256 591.083 109.683C589.998 110.109 588.802 110.221 587.649 110.005C586.496 109.789 585.436 109.254 584.605 108.469C583.773 107.683 583.207 106.682 582.979 105.592C582.75 104.503 582.869 103.373 583.32 102.347C583.771 101.321 584.535 100.445 585.514 99.8294C586.492 99.2139 587.643 98.8867 588.818 98.8895C590.388 98.8931 591.893 99.484 593.003 100.533C594.113 101.582 594.739 103.004 594.743 104.487Z" stroke="#263238" stroke-linecap="round" stroke-linejoin="round"/>
<path d="M557.354 144.124C557.356 144.722 557.172 145.307 556.822 145.805C556.473 146.303 555.975 146.692 555.392 146.923C554.808 147.153 554.166 147.215 553.545 147.1C552.924 146.985 552.354 146.699 551.906 146.277C551.457 145.856 551.152 145.318 551.027 144.732C550.903 144.146 550.965 143.538 551.207 142.986C551.448 142.434 551.857 141.962 552.383 141.629C552.909 141.297 553.527 141.12 554.159 141.12C554.578 141.118 554.993 141.194 555.381 141.344C555.768 141.495 556.12 141.716 556.417 141.995C556.714 142.274 556.949 142.606 557.11 142.971C557.271 143.337 557.354 143.729 557.354 144.124Z" stroke="#263238" stroke-linecap="round" stroke-linejoin="round"/>
<path d="M619.034 76.4847H481.719V256.601H619.034V76.4847Z" stroke="#263238" stroke-linecap="round" stroke-linejoin="round"/>
<path d="M394.613 333.323H357.312V346.59H394.613V333.323Z" fill="#263238" stroke="#263238" stroke-linecap="round" stroke-linejoin="round"/>
<path d="M444.663 335.326H296.196L303.224 226.581H451.705L444.663 335.326Z" fill="#919191" stroke="#263238" stroke-linecap="round" stroke-linejoin="round"/>
<path d="M440.409 335.326H291.942L298.97 226.581H447.437L440.409 335.326Z" fill="#263238" stroke="#263238" stroke-linecap="round" stroke-linejoin="round"/>
<path d="M432.554 329.276H300.582L306.826 232.618H438.798L432.554 329.276Z" fill="white" stroke="#263238" stroke-linecap="round" stroke-linejoin="round"/>
<path d="M394.163 314.87H304.517L309.323 240.384H398.984L394.163 314.87Z" fill="#919191" stroke="#263238" stroke-linecap="round" stroke-linejoin="round"/>
<path d="M339.887 282.875C339.887 282.875 321.215 289.858 321.098 291.738C320.982 293.617 317.323 314.87 317.323 314.87H372.848L368.172 290.393L347.626 282.326L339.887 282.875Z" fill="white" stroke="#263238" stroke-linecap="round" stroke-linejoin="round"/>
<path d="M340.439 278.567C339.034 278.917 337.729 279.559 336.62 280.446C335.168 281.818 333.397 286.36 333.397 286.36L333.324 291.738L340.686 287.978L348.164 287.512L355.162 293.7L356.063 284.288C356.063 284.288 354.988 278.91 352.723 278.635C350.458 278.361 340.439 278.567 340.439 278.567Z" fill="white" stroke="#263238" stroke-linecap="round" stroke-linejoin="round"/>
<path d="M340.207 273.463L339.888 282.875L344.287 289.597L351.562 282.6L352.694 273.998L340.207 273.463Z" fill="white" stroke="#263238" stroke-linecap="round" stroke-linejoin="round"/>
<path d="M358.153 262.459C357.631 270.348 352.084 279.911 346 279.911C339.916 279.911 335.604 270.307 336.112 262.459C336.62 254.611 341.92 248.177 348.047 248.177C354.175 248.177 358.662 254.584 358.153 262.459Z" fill="white" stroke="#263238" stroke-linecap="round" stroke-linejoin="round"/>
<path d="M336.01 263.502C336.01 263.502 334.05 258.673 333.237 262.432C332.424 266.191 336.431 270.225 336.431 270.225L336.01 263.502Z" fill="white" stroke="#263238" stroke-linecap="round" stroke-linejoin="round"/>
<path d="M358.153 262.459C358.153 262.459 362.959 260.552 361.551 264.586C361.193 265.727 360.569 266.778 359.725 267.662C358.881 268.545 357.837 269.238 356.672 269.69L358.153 262.459Z" fill="white" stroke="#263238" stroke-linecap="round" stroke-linejoin="round"/>
<path d="M345.405 263.502C345.443 263.018 345.374 262.531 345.203 262.073C345.031 261.615 344.76 261.196 344.408 260.843C344.056 260.489 343.629 260.208 343.156 260.019C342.682 259.83 342.172 259.736 341.658 259.743C340.588 259.769 339.566 260.167 338.787 260.861C338.007 261.554 337.526 262.494 337.433 263.502C337.395 263.987 337.464 264.474 337.635 264.933C337.807 265.391 338.077 265.811 338.429 266.166C338.781 266.521 339.208 266.802 339.681 266.993C340.154 267.184 340.665 267.28 341.179 267.275C342.252 267.248 343.276 266.848 344.056 266.152C344.835 265.456 345.316 264.512 345.405 263.502Z" fill="white" stroke="#263238" stroke-linecap="round" stroke-linejoin="round"/>
<path d="M355.075 263.502L359.417 262.432" stroke="#263238" stroke-linecap="round" stroke-linejoin="round"/>
<path d="M355.076 263.502C355.114 263.019 355.045 262.533 354.875 262.076C354.704 261.62 354.435 261.201 354.084 260.848C353.733 260.494 353.308 260.214 352.837 260.023C352.365 259.833 351.857 259.738 351.344 259.743C350.271 259.766 349.245 260.162 348.463 260.856C347.681 261.55 347.197 262.492 347.104 263.502C347.066 263.987 347.135 264.474 347.306 264.933C347.477 265.391 347.748 265.811 348.1 266.166C348.452 266.521 348.878 266.802 349.352 266.993C349.825 267.184 350.336 267.28 350.85 267.275C351.923 267.248 352.947 266.848 353.726 266.152C354.506 265.456 354.987 264.512 355.076 263.502Z" fill="white" stroke="#263238" stroke-linecap="round" stroke-linejoin="round"/>
<path d="M347.06 246.558C347.06 246.558 342.704 244.417 339.437 245.762C336.17 247.107 333.76 254.364 333.92 256.244C334.432 258.708 335.13 261.133 336.01 263.502L339.466 254.09L348.527 250.331L347.06 246.558Z" fill="#263238" stroke="#263238" stroke-linecap="round" stroke-linejoin="round"/>
<path d="M342.675 248.451C342.675 248.451 349.848 243.073 355.656 245.707C357.434 246.437 358.903 247.707 359.831 249.314C360.76 250.922 361.094 252.776 360.782 254.584C360.695 255.956 360.578 262.103 360.578 262.103L357.123 262.651L355.424 257.589C353.461 256.855 351.55 256.003 349.703 255.037C349.703 255.037 342.022 254.09 342.675 248.451Z" fill="#263238" stroke="#263238" stroke-linecap="round" stroke-linejoin="round"/>
<path d="M345.405 263.502L344.896 271.309H346.886" fill="white"/>
<path d="M345.405 263.502L344.896 271.309H346.886" stroke="#263238" stroke-linecap="round" stroke-linejoin="round"/>
<path d="M343.852 274.258H348.12" stroke="#263238" stroke-linecap="round" stroke-linejoin="round"/>
<path d="M344.287 289.597L342.704 314.06" stroke="#263238" stroke-linecap="round" stroke-linejoin="round"/>
<path d="M368.144 290.393C368.144 290.393 362.205 303.043 362.031 305.732C361.856 308.421 361.188 314.335 361.188 314.335" stroke="#263238" stroke-linecap="round" stroke-linejoin="round"/>
<path d="M321.099 291.738C321.099 291.738 327.008 301.424 327.778 302.714C328.547 304.003 327.604 314.28 327.604 314.28" stroke="#263238" stroke-linecap="round" stroke-linejoin="round"/>
<path d="M372.107 299.544L374.068 291.203L377.407 287.978L380.558 283.135H381.981L380.239 288.253L384.653 285.824L387.499 281.53L389.154 282.326L385.088 292.287L378.641 295.236L377.523 299.27L372.107 299.544Z" fill="white" stroke="#263238" stroke-linecap="round" stroke-linejoin="round"/>
<path d="M377.625 314.87L378.162 298.2L371.686 297.116L366.575 314.87H377.625Z" fill="white" stroke="#263238" stroke-linecap="round" stroke-linejoin="round"/>
<path d="M393.771 321.057H304.11L304.517 314.87H394.163L393.771 321.057Z" fill="white" stroke="#263238" stroke-linecap="round" stroke-linejoin="round"/>
<path d="M307.769 317.298H390.024" stroke="#263238" stroke-linecap="round" stroke-linejoin="round"/>
<path d="M432.699 260.264H402.526L403.804 240.631H433.977L432.699 260.264Z" fill="#FF9933" stroke="#263238" stroke-linecap="round" stroke-linejoin="round"/>
<path d="M432.699 260.264H402.526L402.744 257.04H432.917L432.699 260.264Z" fill="white" stroke="#263238" stroke-linecap="round" stroke-linejoin="round"/>
<path d="M422.956 249.302L415.115 244.87L414.549 253.733L422.956 249.302Z" fill="white" stroke="#263238" stroke-linecap="round" stroke-linejoin="round"/>
<path d="M430.739 290.654H400.566L401.83 271.034H432.002L430.739 290.654Z" fill="#FF9933" stroke="#263238" stroke-linecap="round" stroke-linejoin="round"/>
<path d="M430.739 290.654H400.566L400.784 287.43H430.942L430.739 290.654Z" fill="white" stroke="#263238" stroke-linecap="round" stroke-linejoin="round"/>
<path d="M420.996 279.705L413.155 275.274L412.589 284.137L420.996 279.705Z" fill="white" stroke="#263238" stroke-linecap="round" stroke-linejoin="round"/>
<path d="M428.765 321.057H398.606L399.87 301.424H430.042L428.765 321.057Z" fill="#FF9933" stroke="#263238" stroke-linecap="round" stroke-linejoin="round"/>
<path d="M428.765 321.057H398.606L398.81 317.833H428.982L428.765 321.057Z" fill="white" stroke="#263238" stroke-linecap="round" stroke-linejoin="round"/>
<path d="M419.021 310.095L411.195 305.664L410.614 314.527L419.021 310.095Z" fill="white" stroke="#263238" stroke-linecap="round" stroke-linejoin="round"/>
<path d="M402.613 263.502H431.915" stroke="#263238" stroke-linecap="round" stroke-linejoin="round"/>
<path d="M402.396 266.74H431.711" stroke="#263238" stroke-linecap="round" stroke-linejoin="round"/>
<path d="M400.624 294.166H429.94" stroke="#263238" stroke-linecap="round" stroke-linejoin="round"/>
<path d="M400.421 297.39H429.737" stroke="#263238" stroke-linecap="round" stroke-linejoin="round"/>
<path d="M387.629 346.59H365.588C365.588 344.513 366.461 342.52 368.016 341.051C369.571 339.582 371.68 338.756 373.879 338.756H379.309C381.508 338.756 383.617 339.582 385.172 341.051C386.727 342.52 387.6 344.513 387.6 346.59H387.629Z" fill="white" stroke="#263238" stroke-linecap="round" stroke-linejoin="round"/>
<path d="M355.09 342.323H247.322V346.59H355.09V342.323Z" fill="#919191" stroke="#263238" stroke-linecap="round" stroke-linejoin="round"/>
<path d="M355.06 342.323H327.98V346.59H355.06V342.323Z" fill="white" stroke="#263238" stroke-linecap="round" stroke-linejoin="round"/>
<path d="M203.152 137.456V56.3849" stroke="#263238" stroke-linecap="round" stroke-linejoin="round"/>
<path d="M203.152 543.198V145.524" stroke="#263238" stroke-linecap="round" stroke-linejoin="round"/>
<path d="M399.086 375.046L412.154 541.51C412.222 542.118 412.532 542.678 413.022 543.077C413.512 543.476 414.144 543.683 414.79 543.657C415.436 543.631 416.047 543.373 416.499 542.936C416.951 542.499 417.209 541.915 417.221 541.305L415.261 375.046H399.086Z" fill="#919191" stroke="#263238" stroke-linecap="round" stroke-linejoin="round"/>
<path d="M408.944 375.046L415.841 543.431C416.248 543.226 416.588 542.919 416.823 542.544C417.059 542.169 417.181 541.74 417.177 541.305L415.261 375.046H408.944Z" fill="white" stroke="#263238" stroke-linecap="round" stroke-linejoin="round"/>
<path d="M481.226 375.046L494.294 541.51C494.361 542.118 494.672 542.678 495.162 543.077C495.651 543.476 496.284 543.683 496.93 543.657C497.576 543.631 498.187 543.373 498.638 542.936C499.09 542.499 499.349 541.915 499.361 541.305L497.401 375.046H481.226Z" fill="#919191" stroke="#263238" stroke-linecap="round" stroke-linejoin="round"/>
<path d="M490.314 375.046L498.359 543.184C498.66 542.961 498.903 542.676 499.069 542.35C499.236 542.024 499.32 541.666 499.317 541.305L497.4 375.046H490.314Z" fill="white" stroke="#263238" stroke-linecap="round" stroke-linejoin="round"/>
<path d="M264.703 376.857L251.635 541.497C251.591 542.101 251.306 542.667 250.837 543.079C250.367 543.492 249.75 543.721 249.109 543.719C248.773 543.725 248.439 543.667 248.127 543.55C247.814 543.432 247.53 543.258 247.289 543.036C247.049 542.814 246.857 542.549 246.726 542.256C246.595 541.964 246.526 541.65 246.524 541.332L248.456 376.418L264.703 376.857Z" fill="#263238" stroke="#263238" stroke-linecap="round" stroke-linejoin="round"/>
<path d="M182.636 376.857L169.568 541.497C169.524 542.101 169.238 542.667 168.769 543.079C168.3 543.492 167.682 543.721 167.041 543.719C166.706 543.717 166.375 543.653 166.067 543.53C165.758 543.407 165.478 543.227 165.244 543.002C165.009 542.776 164.824 542.508 164.698 542.215C164.573 541.921 164.511 541.607 164.515 541.291L166.446 376.376L182.636 376.857Z" fill="#263238" stroke="#263238" stroke-linecap="round" stroke-linejoin="round"/>
<path d="M502.207 350.459H161.524V376.39H502.207V350.459Z" fill="#919191" stroke="#263238" stroke-linecap="round" stroke-linejoin="round"/>
<path d="M502.207 350.459H404.574V376.39H502.207V350.459Z" fill="white" stroke="#263238" stroke-linecap="round" stroke-linejoin="round"/>
<path d="M502.207 354.575H161.524V361.723H502.207V354.575Z" fill="#263238" stroke="#263238" stroke-linecap="round" stroke-linejoin="round"/>
<path d="M507.115 346.741H156.616V355.412H507.115V346.741Z" fill="#919191" stroke="#263238" stroke-linecap="round" stroke-linejoin="round"/>
<path d="M507.1 346.741H410.847V355.412H507.1V346.741Z" fill="white" stroke="#263238" stroke-linecap="round" stroke-linejoin="round"/>
<path d="M403.761 185.984H356.455C353.99 185.984 351.627 186.909 349.884 188.556C348.141 190.203 347.162 192.436 347.162 194.765V211.229C347.16 212.382 347.399 213.525 347.866 214.591C348.332 215.657 349.016 216.626 349.88 217.442C350.743 218.258 351.768 218.904 352.896 219.345C354.025 219.786 355.234 220.011 356.455 220.01H381.226L371.948 244.5L389.72 220.01H403.761C404.982 220.011 406.191 219.786 407.32 219.345C408.448 218.904 409.473 218.258 410.336 217.442C411.2 216.626 411.884 215.657 412.35 214.591C412.817 213.525 413.056 212.382 413.054 211.229V194.765C413.054 192.436 412.075 190.203 410.332 188.556C408.589 186.909 406.226 185.984 403.761 185.984Z" fill="white" stroke="#263238" stroke-linecap="round" stroke-linejoin="round"/>
<path d="M367.432 206.742C369.3 206.742 370.815 205.311 370.815 203.546C370.815 201.78 369.3 200.349 367.432 200.349C365.564 200.349 364.049 201.78 364.049 203.546C364.049 205.311 365.564 206.742 367.432 206.742Z" fill="#263238"/>
<path d="M380.108 206.742C381.976 206.742 383.491 205.311 383.491 203.546C383.491 201.78 381.976 200.349 380.108 200.349C378.239 200.349 376.725 201.78 376.725 203.546C376.725 205.311 378.239 206.742 380.108 206.742Z" fill="#263238"/>
<path d="M396.153 203.546C396.153 202.913 395.954 202.294 395.582 201.768C395.209 201.242 394.68 200.832 394.061 200.591C393.442 200.349 392.761 200.287 392.104 200.411C391.448 200.536 390.845 200.842 390.372 201.29C389.9 201.739 389.579 202.309 389.45 202.93C389.321 203.551 389.39 204.195 389.648 204.779C389.907 205.362 390.343 205.861 390.901 206.21C391.459 206.56 392.115 206.745 392.784 206.742C393.228 206.742 393.667 206.66 394.077 206.499C394.487 206.338 394.859 206.102 395.172 205.805C395.485 205.508 395.732 205.156 395.901 204.768C396.069 204.38 396.155 203.965 396.153 203.546Z" fill="#263238"/>
<path d="M628.399 544.076H667.603" stroke="#263238" stroke-linecap="round" stroke-linejoin="round"/>
<path d="M9.84766 544.076H608.072" stroke="#263238" stroke-linecap="round" stroke-linejoin="round"/>
<path d="M240.193 301.616C235.938 294.756 223.422 268.345 223.422 268.345C223.8 265.524 224.411 262.734 225.252 260.003C226.283 257.259 228.882 248.945 228.359 247.216C227.836 245.488 220.3 242.305 219.531 242.058C218.761 241.811 220.562 237.64 217.701 236.652C214.841 235.664 213.81 237.146 213.81 237.146L212.721 244.006L209.381 248.945C207.991 247.946 206.536 247.03 205.025 246.201C202.688 244.966 197.228 244.472 196.967 246.448C196.705 248.424 201.323 250.125 202.934 251.36C204.546 252.595 206.579 258.48 208.408 260.209C210.071 261.924 211.632 263.724 213.084 265.601L214.129 268.798C214.129 268.798 217.687 301.163 218.108 309.217C218.529 317.271 219.807 338.578 222.362 341.788C224.918 344.999 225.353 347.029 232.526 344.615C239.699 342.2 241.035 338.976 242.69 331.732C244.345 324.487 244.447 308.449 240.193 301.616Z" fill="white" stroke="#263238" stroke-linecap="round" stroke-linejoin="round"/>
<path d="M242.749 331.773C244.447 324.542 244.447 308.449 240.193 301.589C239.728 300.834 239.162 299.86 238.523 298.708C228.897 296.06 219.749 300.381 219.749 300.381L217.426 301.342C217.731 304.703 217.963 307.516 218.05 309.231C218.486 317.271 219.749 338.592 222.305 341.802C224.86 345.013 225.296 347.043 232.469 344.628C239.641 342.214 241.035 339.017 242.749 331.773Z" fill="#FF9933" stroke="#263238" stroke-linecap="round" stroke-linejoin="round"/>
<path d="M209.149 192.844C210.198 196.483 210.783 200.228 210.892 203.998C210.892 209.363 209.149 212.669 211.777 214.316C214.406 215.962 216.584 215.976 216.133 219.282C215.961 221.108 215.195 222.838 213.941 224.235C213.941 224.235 213.07 241.166 212.199 242.826C211.327 244.486 199.958 242.414 197.33 241.989C194.702 241.564 187.282 244.884 182.462 235.801C177.641 226.719 181.59 213.081 190.331 206.056C196.344 201.331 202.626 196.92 209.149 192.844Z" fill="white" stroke="#263238" stroke-linecap="round" stroke-linejoin="round"/>
<path d="M210.892 203.93C210.892 203.93 208.525 202.256 207.276 205.192" stroke="#263238" stroke-linecap="round" stroke-linejoin="round"/>
<path d="M208.772 210.762C208.432 212.426 208.542 214.144 209.092 215.756" stroke="#263238" stroke-linecap="round" stroke-linejoin="round"/>
<path d="M213.128 230.162C212.74 230.28 212.33 230.319 211.925 230.277C211.52 230.236 211.129 230.114 210.777 229.92C210.425 229.725 210.12 229.464 209.882 229.151C209.644 228.838 209.479 228.482 209.396 228.104" stroke="#263238" stroke-linecap="round" stroke-linejoin="round"/>
<path d="M218.08 307.818C218.08 307.818 216.628 314.101 215.335 317.422C214.043 320.742 190.869 326.834 180.778 328.096C174.13 328.88 167.439 329.297 160.74 329.344L161.379 346.714C161.379 346.714 180.923 347.084 182.302 346.714C183.682 346.343 216.584 332.445 216.584 332.445L230.785 330.689C230.785 330.689 236.752 329.317 236.985 324.94C237.217 320.563 231.946 308.119 229.551 306.185C227.155 304.25 222.102 299.119 219.067 302.275C216.032 305.43 218.08 307.818 218.08 307.818Z" fill="white" stroke="#263238" stroke-linecap="round" stroke-linejoin="round"/>
<path d="M174.504 339.003C174.504 331.498 176.537 331.306 178.86 328.329C172.857 328.963 166.823 329.302 160.783 329.344L160.304 345.287C160.304 345.287 171.005 346.22 177.524 346.659C176.987 347.441 174.504 343.833 174.504 339.003Z" fill="#FF9933" stroke="#263238" stroke-linecap="round" stroke-linejoin="round"/>
<path d="M237.609 372.754C229.877 364.545 220.05 358.343 209.062 354.74L183.565 365.016C181.585 360.423 178.957 356.103 175.753 352.174L170.991 346.686L174.055 330.95C174.055 330.95 192.408 319.068 194.775 313.923L194.862 313.758C198.55 319.15 214.551 342.488 217.556 344.752C220.954 347.331 231.147 347.647 235.561 343.791C239.975 339.936 242.023 337.37 241.006 331.594C241.006 331.594 234.211 317.778 230.465 311.673C226.719 305.567 218.573 283.739 214.493 276.989C211.589 272.159 210.384 268.757 208.322 266.479C206.89 264.149 205.201 261.969 203.283 259.976C199.203 255.86 187.979 254.831 185.598 253.871C183.217 252.91 182.883 252.581 169.292 248.739C155.701 244.898 140.397 242.634 129.522 250.66C129.522 250.66 114.915 267.042 109.194 294.015C103.473 320.989 103.066 348.292 102.398 353.107C101.73 357.923 95.9369 381.37 94.2381 394.857C92.5392 408.344 107.437 421.886 116.613 426.084C125.79 430.282 165.212 430.9 188.328 426.084C211.444 421.268 248.15 399.426 248.15 399.426C248.15 399.426 249.5 385.926 237.609 372.754Z" fill="#FF9933" stroke="#263238" stroke-linecap="round" stroke-linejoin="round"/>
<path d="M177.511 313.415L172.85 313.264" stroke="#263238" stroke-linecap="round" stroke-linejoin="round"/>
<path d="M175.754 306.404C182.283 308.483 188.641 311.014 194.775 313.978L182.811 313.594" stroke="#263238" stroke-linecap="round" stroke-linejoin="round"/>
<path d="M238.901 314.513C240.242 316.503 241.068 318.764 241.311 321.112C241.311 324.144 241.848 328.205 240.513 326.943C239.177 325.681 238.625 321.359 238.625 321.359L238.901 314.513Z" fill="white" stroke="#263238" stroke-linecap="round" stroke-linejoin="round"/>
<path d="M230.856 310.973C230.856 310.973 235.88 308.394 238.116 311.495C240.353 314.595 239.757 320.783 238.116 323.843C236.476 326.902 234.603 323.98 234.835 321.263C235.067 318.547 230.856 310.973 230.856 310.973Z" fill="white" stroke="#263238" stroke-linecap="round" stroke-linejoin="round"/>
<path d="M228.97 307.68C228.97 307.68 234.008 305.101 236.23 308.202C238.451 311.302 237.856 317.476 236.23 320.55C234.603 323.623 232.716 320.687 232.948 317.97C233.181 315.254 228.97 307.68 228.97 307.68Z" fill="white" stroke="#263238" stroke-linecap="round" stroke-linejoin="round"/>
<path d="M226.66 304.127C226.66 304.127 231.699 301.548 233.92 304.648C236.142 307.749 235.561 313.937 233.92 316.996C232.279 320.056 230.406 317.133 230.639 314.417C230.871 311.7 226.66 304.127 226.66 304.127Z" fill="white" stroke="#263238" stroke-linecap="round" stroke-linejoin="round"/>
<path d="M213.912 179.961C213.996 184.892 212.65 189.75 210.021 194.01C202.586 204.753 195.602 203.504 192.597 212.189C189.591 220.874 185.104 229.888 189.896 234.91C194.688 239.931 198.608 236.968 198.608 236.968C198.608 236.968 201.672 244.404 193.802 251.84C185.932 259.276 172.385 256.381 168.886 255.147C166.682 254.344 164.621 253.229 162.773 251.84C162.773 251.84 160.58 257.63 149.705 257.63C138.829 257.63 126.473 250.605 126.473 237.791C126.473 224.976 133.892 216.319 135.649 211.352C137.406 206.386 132.586 191.115 140.005 181.621C147.425 172.127 158.881 165.157 167.593 165.157C176.305 165.157 193.308 169.671 193.381 169.698C194.528 170.288 201.875 167.462 203.864 167.585C211.168 167.97 213.825 173.636 213.912 179.961Z" fill="#263238" stroke="#263238" stroke-linecap="round" stroke-linejoin="round"/>
<path d="M185.54 238.724C187.125 238.923 188.732 238.923 190.317 238.724" stroke="#919191" stroke-linecap="round" stroke-linejoin="round"/>
<path d="M207.61 187.164C206.921 190.842 205.486 194.359 203.385 197.523C196.59 207.607 188.865 211.243 179.616 220.847C173.677 227.062 174.795 233.263 179.616 236.515" stroke="#919191" stroke-linecap="round" stroke-linejoin="round"/>
<path d="M207.741 176.449C208.024 177.961 208.165 179.495 208.162 181.031" stroke="#919191" stroke-linecap="round" stroke-linejoin="round"/>
<path d="M198.608 186.066C198.608 186.066 197.156 200.267 190.855 208.512C184.553 216.758 171.979 220.86 172.429 229.586" stroke="#919191" stroke-linecap="round" stroke-linejoin="round"/>
<path d="M257.123 423.765C257.123 423.765 266.184 467.752 273.937 489.127C281.691 510.503 289.445 530.054 291.361 531.893C293.278 533.731 298.476 540.44 298.476 540.44C296.074 542.253 293.138 543.322 290.069 543.5C285.539 543.5 279.731 538.012 274.547 534.938C269.364 531.865 268.739 530.054 258.386 526.391C248.034 522.728 256.455 512.959 259.04 508.061C260.534 505.418 261.415 502.504 261.624 499.513C257.515 485.756 250.23 473.03 240.295 462.25C224.163 445.155 220.925 405.504 220.925 405.504L251.954 394.528L257.123 423.765Z" fill="white" stroke="#263238" stroke-linecap="round" stroke-linejoin="round"/>
<path d="M290.084 529.697L288.211 530.054C288.211 530.054 277.22 516.005 268.827 511.121C265.966 509.255 262.602 508.198 259.128 508.075C256.529 512.959 248.136 522.728 258.474 526.391C268.813 530.054 269.466 531.879 274.635 534.938C279.804 537.998 285.627 543.5 290.157 543.5C293.226 543.322 296.162 542.253 298.564 540.44C298.564 540.44 293.38 533.717 291.449 531.893C290.899 531.218 290.441 530.48 290.084 529.697Z" fill="#FF9933" stroke="#263238" stroke-linecap="round" stroke-linejoin="round"/>
<path d="M284.871 541.757C279.76 538.423 275.143 531.015 266.823 526.391C259.258 522.193 255.367 522.028 253.755 522.344C254.15 523.323 254.784 524.201 255.607 524.904C256.43 525.608 257.417 526.117 258.488 526.391C268.841 530.054 269.48 531.879 274.649 534.938C277.916 536.914 281.517 539.96 284.871 541.757Z" fill="#FF9933" stroke="#263238" stroke-linecap="round" stroke-linejoin="round"/>
<path d="M290.084 543.5C289.753 543.488 289.423 543.456 289.097 543.404C289.422 543.462 289.753 543.494 290.084 543.5Z" fill="#FF9933" stroke="#263238" stroke-linecap="round" stroke-linejoin="round"/>
<path d="M199.508 357.484C199.508 357.484 230.581 347.084 233.485 353.944C236.389 360.804 249.689 386.392 244.839 396.902C239.99 407.411 205.897 366.718 201.047 365.839C196.197 364.961 198.941 360.557 199.508 357.484Z" fill="white" stroke="#263238" stroke-linecap="round" stroke-linejoin="round"/>
<path d="M229.957 370.888C229.957 370.888 265.284 368.144 272.065 374.099C278.846 380.053 255.614 451.384 243.025 473.788C223.292 508.829 229.26 518.008 229.26 518.008C229.26 518.008 230.712 523.496 240.397 532.194C250.082 540.893 252.986 542.251 249.588 543.623C246.19 544.995 231.685 543.623 230.233 542.704C228.781 541.785 218.138 533.566 208.453 530.822C198.768 528.078 200.22 526.24 204.576 518.008C208.932 509.776 208.453 516.636 213.288 502.463C219.084 484.998 223.663 467.192 226.995 449.161C229.565 434.467 233.485 418.332 232.382 403.391L229.957 370.888Z" fill="white" stroke="#263238" stroke-linecap="round" stroke-linejoin="round"/>
<path d="M255.832 393.225C252.132 384.791 245.768 377.643 237.609 372.754C222.16 363.438 209.063 354.74 209.063 354.74L183.566 365.016C183.566 365.016 189.78 374.977 157.836 380.012C133.239 383.881 110.661 378.27 98.4784 371.506C96.7795 379.477 95.0081 388.34 94.1224 394.83C92.4235 408.317 107.379 421.803 116.556 425.988C125.732 430.173 199.668 438.83 219.575 426.743C255.832 404.832 255.832 393.225 255.832 393.225Z" fill="#263238" stroke="#263238" stroke-linecap="round" stroke-linejoin="round"/>
<path d="M180.675 372.576C177.263 375.224 170.613 378.064 157.835 380.026C133.239 383.895 110.66 378.284 98.4777 371.52C98.0421 373.564 97.6065 375.636 97.1709 377.762C105.52 382.509 123.06 390.549 142.836 388.258C166.431 385.528 176.915 379.436 180.675 372.576Z" fill="#FF9933" stroke="#263238" stroke-linecap="round" stroke-linejoin="round"/>
<path d="M161.828 401.964C160.696 403.336 159.52 404.708 158.329 406.08" stroke="white" stroke-linecap="round" stroke-linejoin="round"/>
<path d="M179.616 375.924C175.147 383.687 170.162 391.175 164.689 398.342" stroke="white" stroke-linecap="round" stroke-linejoin="round"/>
<path d="M168.972 384.608C168.972 384.608 160.26 395.584 151.069 401.992" stroke="white" stroke-linecap="round" stroke-linejoin="round"/>
<path d="M240.397 532.167C230.712 523.496 229.26 518.008 229.26 518.008C228.935 517.723 228.678 517.378 228.505 516.993C227.851 517.638 225.877 518.859 221.042 517.102C216.845 515.58 212.867 512.986 208.67 511.244C207.669 512.932 206.696 513.988 204.576 518.008C200.22 526.24 198.768 528.078 208.453 530.822C218.138 533.566 228.781 541.798 230.233 542.704C231.685 543.61 246.205 544.995 249.588 543.623C252.971 542.251 250.082 540.852 240.397 532.167Z" fill="#FF9933" stroke="#263238" stroke-linecap="round" stroke-linejoin="round"/>
<path d="M249.312 397.876L265.777 388.272" stroke="#263238" stroke-linecap="round" stroke-linejoin="round"/>
<path d="M52.6094 310.918C52.6094 310.918 105.056 304.717 138.568 313.662L143.664 434.138H65.024C65.024 434.138 70.0915 369.42 52.6094 310.918Z" fill="#919191" stroke="#263238" stroke-linecap="round" stroke-linejoin="round"/>
<path d="M138.568 313.662C105.056 304.717 52.6094 310.918 52.6094 310.918C58.2218 330.416 61.9494 350.356 63.7462 370.491C93.0313 384.308 119.853 402.361 143.243 423.999L138.568 313.662Z" fill="#757575" stroke="#263238" stroke-linecap="round" stroke-linejoin="round"/>
<path d="M237.464 546.82C236.871 546.822 236.291 546.652 235.803 546.333C235.315 546.014 234.942 545.562 234.734 545.036C223.118 515.456 220.214 438.665 220.04 435.414C220.013 434.686 220.293 433.978 220.819 433.445C221.344 432.913 222.072 432.599 222.842 432.574C223.612 432.548 224.362 432.813 224.925 433.309C225.489 433.806 225.821 434.494 225.848 435.222C225.848 436.017 228.868 514.372 240.179 543.116C240.447 543.798 240.416 544.553 240.095 545.214C239.774 545.875 239.188 546.389 238.466 546.642C238.147 546.761 237.807 546.822 237.464 546.82Z" fill="white" stroke="#263238" stroke-linecap="round" stroke-linejoin="round"/>
<path d="M174.229 546.82C173.638 546.819 173.061 546.648 172.576 546.329C172.091 546.01 171.72 545.559 171.513 545.036C159.897 515.456 156.993 438.665 156.805 435.414C156.778 434.686 157.058 433.978 157.583 433.445C158.109 432.913 158.837 432.599 159.607 432.574C160.377 432.548 161.126 432.813 161.69 433.309C162.254 433.806 162.586 434.494 162.613 435.222C162.613 436.017 165.633 514.372 176.958 543.116C177.226 543.798 177.196 544.553 176.874 545.214C176.553 545.875 175.967 546.389 175.245 546.642C174.921 546.761 174.576 546.822 174.229 546.82Z" fill="white" stroke="#263238" stroke-linecap="round" stroke-linejoin="round"/>
<path d="M236.679 434.083H63.6445V428.595H230.9C232.441 428.595 233.918 429.173 235.007 430.202C236.096 431.231 236.708 432.627 236.708 434.083H236.679Z" fill="#919191" stroke="#263238" stroke-linecap="round" stroke-linejoin="round"/>
<path d="M236.665 432.752H63.6445V438.199H236.665V432.752Z" fill="white" stroke="#263238" stroke-linecap="round" stroke-linejoin="round"/>
<path d="M137.275 546.82C136.838 546.829 136.405 546.744 136.007 546.573C135.61 546.401 135.258 546.147 134.979 545.829C134.7 545.511 134.5 545.138 134.395 544.737C134.29 544.336 134.282 543.918 134.371 543.513C150.794 470.002 135.823 315.418 135.62 313.868C135.585 313.508 135.625 313.144 135.738 312.799C135.852 312.453 136.036 312.132 136.281 311.853C136.525 311.575 136.826 311.345 137.165 311.176C137.503 311.008 137.874 310.904 138.255 310.87C139.026 310.803 139.793 311.028 140.388 311.495C140.983 311.962 141.357 312.633 141.428 313.36C141.588 314.925 156.674 470.317 140.078 544.639C139.943 545.249 139.591 545.798 139.082 546.194C138.572 546.591 137.935 546.811 137.275 546.82Z" fill="white" stroke="#263238" stroke-linecap="round" stroke-linejoin="round"/>
<path d="M47.2514 544.817C46.9808 544.82 46.7114 544.783 46.4528 544.707C45.7147 544.509 45.0895 544.043 44.7141 543.41C44.3386 542.778 44.2433 542.031 44.4491 541.332C82.2011 414.696 50.1554 312.729 49.836 311.714C49.653 311.031 49.7549 310.308 50.1207 309.694C50.4864 309.081 51.0879 308.623 51.8007 308.417C52.5135 308.211 53.2829 308.271 53.9497 308.586C54.6165 308.901 55.1295 309.446 55.3826 310.109C55.7166 311.138 88.314 414.559 50.0393 542.814C49.8686 543.389 49.5041 543.896 49.0009 544.257C48.4978 544.619 47.8835 544.815 47.2514 544.817Z" fill="white" stroke="#263238" stroke-linecap="round" stroke-linejoin="round"/>
<path d="M578.131 318.588C578.131 318.588 560.286 309.217 558.965 330.456C557.644 351.694 554.348 489.731 554.348 489.731" stroke="#263238" stroke-width="2" stroke-linecap="round" stroke-linejoin="round"/>
<path d="M549.701 332.322C549.701 332.322 564.221 362.931 557.644 487.865" stroke="#263238" stroke-width="2" stroke-linecap="round" stroke-linejoin="round"/>
<path d="M564.003 322.868C564.003 322.868 557.165 326.984 553.288 322.265C549.411 317.545 555.916 308.874 550.18 305.17C544.445 301.465 534.528 307.118 534.528 307.118C534.528 307.118 542.151 309.231 541.904 313.168C541.657 317.106 537.984 318.588 537.548 316.873C537.112 315.158 533.41 306.487 527.224 310.095C525.437 311.09 523.882 312.418 522.654 313.999C521.426 315.579 520.55 317.378 520.08 319.288C520.08 319.288 534.499 317.833 535.37 322.951C536.241 328.068 529.46 322.059 523.507 321.73C517.554 321.4 512.123 322.224 512.516 325.626C512.648 328.637 512.458 331.652 511.949 334.626C515.209 332.069 519.329 330.696 523.565 330.757C530.114 331.128 529.867 335.066 523.914 334.736C517.961 334.407 512.849 339.758 512.849 339.758C512.849 339.758 518.28 348.525 525.177 352.86C532.074 357.196 534.557 355.604 535.341 352.298C536.125 348.991 534.296 340.389 538.463 340.622C542.63 340.855 531.566 355.467 536.88 356.332C542.194 357.196 546.478 355.742 547.872 352.435L549.324 349.129C549.324 349.129 547.465 340.554 548.278 337.22C549.091 333.886 550.064 337.316 551.008 341.336C551.952 345.356 552.547 354.96 554.362 354.493C556.177 354.027 562 347.029 563.365 344.272C564.729 341.514 555.698 333.131 555.8 331.443C555.901 329.756 562.871 332.966 563.96 334.723C564.751 336.056 565.463 337.43 566.094 338.839C566.094 338.839 570.45 336.259 570.334 328.356C570.218 320.454 564.003 322.868 564.003 322.868Z" fill="#FF9933"/>
<path opacity="0.3" d="M564.003 322.868C564.003 322.868 557.165 326.984 553.288 322.265C549.411 317.545 555.916 308.874 550.18 305.17C544.445 301.465 534.528 307.118 534.528 307.118C534.528 307.118 542.151 309.231 541.904 313.168C541.657 317.106 537.984 318.588 537.548 316.873C537.112 315.158 533.41 306.487 527.224 310.095C525.437 311.09 523.882 312.418 522.654 313.999C521.426 315.579 520.55 317.378 520.08 319.288C520.08 319.288 534.499 317.833 535.37 322.951C536.241 328.068 529.46 322.059 523.507 321.73C517.554 321.4 512.123 322.224 512.516 325.626C512.648 328.637 512.458 331.652 511.949 334.626C515.209 332.069 519.329 330.696 523.565 330.757C530.114 331.128 529.867 335.066 523.914 334.736C517.961 334.407 512.849 339.758 512.849 339.758C512.849 339.758 518.28 348.525 525.177 352.86C532.074 357.196 534.557 355.604 535.341 352.298C536.125 348.991 534.296 340.389 538.463 340.622C542.63 340.855 531.566 355.467 536.88 356.332C542.194 357.196 546.478 355.742 547.872 352.435L549.324 349.129C549.324 349.129 547.465 340.554 548.278 337.22C549.091 333.886 550.064 337.316 551.008 341.336C551.952 345.356 552.547 354.96 554.362 354.493C556.177 354.027 562 347.029 563.365 344.272C564.729 341.514 555.698 333.131 555.8 331.443C555.901 329.756 562.871 332.966 563.96 334.723C564.751 336.056 565.463 337.43 566.094 338.839C566.094 338.839 570.45 336.259 570.334 328.356C570.218 320.454 564.003 322.868 564.003 322.868Z" fill="#263238"/>
<path d="M529.388 341.404C533.845 336.204 540.394 329.166 545.897 325.805" stroke="#263238" stroke-linecap="round" stroke-linejoin="round"/>
<path d="M524.233 347.729C524.233 347.729 525.366 346.234 527.225 343.984" stroke="#263238" stroke-linecap="round" stroke-linejoin="round"/>
<path d="M548.801 327.094C548.801 327.094 555.422 335.93 556.642 345.026" stroke="#263238" stroke-linecap="round" stroke-linejoin="round"/>
<path d="M541.279 332.322C541.279 332.322 543.138 331.292 542.441 342.543" stroke="#263238" stroke-linecap="round" stroke-linejoin="round"/>
<path d="M546.144 321.812C546.144 321.812 549.933 318.643 547.929 312.318" stroke="#263238" stroke-linecap="round" stroke-linejoin="round"/>
<path d="M541.033 327.231L538.332 322.567" stroke="#263238" stroke-linecap="round" stroke-linejoin="round"/>
<path d="M535.355 331.992C535.355 331.992 526.789 325.873 521.431 325.571" stroke="#263238" stroke-linecap="round" stroke-linejoin="round"/>
<path d="M588.339 306.199C588.339 306.199 588.063 315.473 580.396 315.926C572.73 316.379 567.996 304.305 560.156 307.214C552.315 310.123 551.56 323.349 551.56 323.349C551.56 323.349 558.994 317.573 563.001 320.481C567.009 323.39 566.08 327.89 563.916 327.177C561.753 326.463 550.108 324.007 549.701 332.322C549.538 334.692 549.886 337.069 550.722 339.309C551.558 341.549 552.865 343.606 554.565 345.356C554.565 345.356 562.856 330.716 568.897 333.378C574.937 336.04 563.916 338.372 559.502 343.778C555.088 349.183 552.242 354.877 556.148 356.839C559.428 358.758 562.493 360.988 565.296 363.493C565.296 363.493 564.25 355.838 569.1 349.897C573.95 343.956 577.943 346.865 573.543 352.27C569.143 357.676 571.321 366.169 571.321 366.169C571.321 366.169 584.302 367.006 593.595 363.425C602.888 359.844 602.946 356.441 599.955 353.409C596.964 350.377 586.625 346.288 589.704 342.433C592.782 338.578 600.739 359.076 605.284 354.63C609.828 350.185 611.193 345.15 608.638 341.569L606.082 338.002C606.082 338.002 595.744 333.886 592.753 330.867C589.762 327.849 594.074 329.248 598.967 331.087C603.861 332.925 614.446 338.921 615.201 336.877C615.956 334.832 612.486 324.529 610.511 321.4C608.536 318.272 593.464 321.057 591.751 319.809C590.038 318.56 598.183 314.156 600.782 314.321C602.731 314.474 604.67 314.726 606.59 315.075C606.59 315.075 606.823 309.203 598.372 303.921C589.922 298.639 588.339 306.199 588.339 306.199Z" fill="#FF9933"/>
<path opacity="0.2" d="M588.339 306.199C588.339 306.199 588.063 315.473 580.396 315.926C572.73 316.379 567.996 304.305 560.156 307.214C552.315 310.123 551.56 323.349 551.56 323.349C551.56 323.349 558.994 317.573 563.001 320.481C567.009 323.39 566.08 327.89 563.916 327.177C561.753 326.463 550.108 324.007 549.701 332.322C549.538 334.692 549.886 337.069 550.722 339.309C551.558 341.549 552.865 343.606 554.565 345.356C554.565 345.356 562.856 330.716 568.897 333.378C574.937 336.04 563.916 338.372 559.502 343.778C555.088 349.183 552.242 354.877 556.148 356.839C559.428 358.758 562.493 360.988 565.296 363.493C565.296 363.493 564.25 355.838 569.1 349.897C573.95 343.956 577.943 346.865 573.543 352.27C569.143 357.676 571.321 366.169 571.321 366.169C571.321 366.169 584.302 367.006 593.595 363.425C602.888 359.844 602.946 356.441 599.955 353.409C596.964 350.377 586.625 346.288 589.704 342.433C592.782 338.578 600.739 359.076 605.284 354.63C609.828 350.185 611.193 345.15 608.638 341.569L606.082 338.002C606.082 338.002 595.744 333.886 592.753 330.867C589.762 327.849 594.074 329.248 598.967 331.087C603.861 332.925 614.446 338.921 615.201 336.877C615.956 334.832 612.486 324.529 610.511 321.4C608.536 318.272 593.464 321.057 591.751 319.809C590.038 318.56 598.183 314.156 600.782 314.321C602.731 314.474 604.67 314.726 606.59 315.075C606.59 315.075 606.823 309.203 598.372 303.921C589.922 298.639 588.339 306.199 588.339 306.199Z" fill="#263238"/>
<path d="M584.39 351.571C581.936 343.764 578.916 332.788 579.119 325.324" stroke="#263238" stroke-linecap="round" stroke-linejoin="round"/>
<path d="M587.57 360.777C587.57 360.777 586.757 358.664 585.639 355.385" stroke="#263238" stroke-linecap="round" stroke-linejoin="round"/>
<path d="M582.458 323.458C582.458 323.458 596.325 323.211 606.794 328.26" stroke="#263238" stroke-linecap="round" stroke-linejoin="round"/>
<path d="M582.894 334.16C582.894 334.16 583.068 331.704 594.51 340.032" stroke="#263238" stroke-linecap="round" stroke-linejoin="round"/>
<path d="M575.111 322.402C575.111 322.402 574.327 316.667 566.269 314.252" stroke="#263238" stroke-linecap="round" stroke-linejoin="round"/>
<path d="M577.303 330.895L570.522 330.264" stroke="#263238" stroke-linecap="round" stroke-linejoin="round"/>
<path d="M578.48 339.511C578.48 339.511 566.152 343.448 562.188 348.319" stroke="#263238" stroke-linecap="round" stroke-linejoin="round"/>
<path d="M506.083 367.939C506.083 367.939 545.084 392.292 544.43 486.617" stroke="#263238" stroke-width="2" stroke-linecap="round" stroke-linejoin="round"/>
<path d="M554.174 361.504C554.174 361.504 552.925 372.178 544.01 372.013C535.094 371.849 530.942 357.498 521.533 360.159C512.124 362.821 509.989 377.995 509.989 377.995C509.989 377.995 519.166 371.986 523.493 375.718C527.82 379.45 526.295 384.54 523.87 383.525C521.445 382.509 508.247 378.627 506.954 388.189C506.534 390.911 506.704 393.685 507.453 396.343C508.201 399.001 509.514 401.488 511.31 403.652C511.31 403.652 522.346 387.503 529.039 391.125C535.733 394.747 522.796 396.435 517.162 402.28C511.528 408.125 507.71 414.436 511.978 417.043C515.577 419.552 518.896 422.402 521.881 425.549C521.881 425.549 521.431 416.631 527.616 410.196C533.802 403.762 538.143 407.452 532.51 413.338C526.876 419.224 528.56 429.171 528.56 429.171C528.56 429.171 543.472 431.298 554.551 428.005C565.63 424.712 566.022 420.788 562.871 417.029C559.72 413.27 548.206 407.617 552.141 403.528C556.076 399.44 563.205 423.724 568.897 418.991C574.589 414.257 576.65 408.591 574.066 404.228L571.481 399.865C571.481 399.865 559.967 394.226 556.816 390.453C553.665 386.68 558.5 388.711 563.96 391.263C569.42 393.815 581.05 401.676 582.11 399.399C583.17 397.121 580.208 384.938 578.248 381.11C576.287 377.282 558.617 379.189 556.758 377.598C554.9 376.006 564.759 371.657 567.735 372.11C569.951 372.458 572.147 372.916 574.313 373.482C574.313 373.482 575.155 366.731 565.935 359.871C556.715 353.011 554.174 361.504 554.174 361.504Z" fill="#FF9933"/>
<path opacity="0.3" d="M554.174 361.504C554.174 361.504 552.925 372.178 544.01 372.013C535.094 371.849 530.942 357.498 521.533 360.159C512.124 362.821 509.989 377.995 509.989 377.995C509.989 377.995 519.166 371.986 523.493 375.718C527.82 379.45 526.295 384.54 523.87 383.525C521.445 382.509 508.247 378.627 506.954 388.189C506.534 390.911 506.704 393.685 507.453 396.343C508.201 399.001 509.514 401.488 511.31 403.652C511.31 403.652 522.346 387.503 529.039 391.125C535.733 394.747 522.796 396.435 517.162 402.28C511.528 408.125 507.71 414.436 511.978 417.043C515.577 419.552 518.896 422.402 521.881 425.549C521.881 425.549 521.431 416.631 527.616 410.196C533.802 403.762 538.143 407.452 532.51 413.338C526.876 419.224 528.56 429.171 528.56 429.171C528.56 429.171 543.472 431.298 554.551 428.005C565.63 424.712 566.022 420.788 562.871 417.029C559.72 413.27 548.206 407.617 552.141 403.528C556.076 399.44 563.205 423.724 568.897 418.991C574.589 414.257 576.65 408.591 574.066 404.228L571.481 399.865C571.481 399.865 559.967 394.226 556.816 390.453C553.665 386.68 558.5 388.711 563.96 391.263C569.42 393.815 581.05 401.676 582.11 399.399C583.17 397.121 580.208 384.938 578.248 381.11C576.287 377.282 558.617 379.189 556.758 377.598C554.9 376.006 564.759 371.657 567.735 372.11C569.951 372.458 572.147 372.916 574.313 373.482C574.313 373.482 575.155 366.731 565.935 359.871C556.715 353.011 554.174 361.504 554.174 361.504Z" fill="#263238"/>
<path d="M545.084 413.503C542.993 404.338 540.656 391.372 541.614 382.743" stroke="#263238" stroke-linecap="round" stroke-linejoin="round"/>
<path d="M547.842 424.41C547.842 424.41 547.116 421.899 546.144 418.017" stroke="#263238" stroke-linecap="round" stroke-linejoin="round"/>
<path d="M545.636 380.89C545.636 380.89 561.608 381.851 573.224 388.601" stroke="#263238" stroke-linecap="round" stroke-linejoin="round"/>
<path d="M545.099 393.156C545.099 393.156 545.549 390.343 557.92 400.976" stroke="#263238" stroke-linecap="round" stroke-linejoin="round"/>
<path d="M537.286 379.024C537.286 379.024 536.952 372.329 527.906 368.817" stroke="#263238" stroke-linecap="round" stroke-linejoin="round"/>
<path d="M538.97 389.013L531.217 387.682" stroke="#263238" stroke-linecap="round" stroke-linejoin="round"/>
<path d="M539.479 399.056C539.479 399.056 524.858 402.513 519.79 407.768" stroke="#263238" stroke-linecap="round" stroke-linejoin="round"/>
<path d="M521.285 442.26C521.285 442.26 546.405 460.37 549.047 487.234L543.762 397.272" stroke="#263238" stroke-width="2" stroke-linecap="round" stroke-linejoin="round"/>
<path d="M582.095 429.144C549.048 423.518 549.048 487.234 549.048 487.234" stroke="#263238" stroke-width="2" stroke-linecap="round" stroke-linejoin="round"/>
<path d="M553.012 486.617C553.012 486.617 533.845 354.822 589.312 354.822" stroke="#263238" stroke-width="2" stroke-linecap="round" stroke-linejoin="round"/>
<path d="M569.506 425.357C564.991 420.555 555.393 420.555 549.759 432.821C544.125 445.086 549.193 442.96 549.193 442.96C549.193 442.96 559.909 439.749 566.69 437.623C573.47 435.496 582.487 430.159 583.054 433.356C583.62 436.552 578.538 439.749 572.323 440.819C566.109 441.889 549.759 446.156 551.444 449.408C553.128 452.66 557.092 462.209 557.092 462.209C561.912 458.339 567.001 454.777 572.323 451.548C579.67 447.281 584.186 448.873 580.237 453.675C576.287 458.477 564.991 463.8 567.256 470.208C569.521 476.615 583.054 484.6 583.054 484.6C583.054 484.6 584.752 471.278 588.702 467.011C592.651 462.744 592.651 467.546 591.519 475.01C590.952 478.188 590.574 481.395 590.386 484.614L606.184 489.951C608.768 486.234 611.595 482.673 614.649 479.29L617.553 476.546C617.553 476.546 605.139 466.421 604.572 460.082C604.006 453.744 613.037 460.082 615.854 461.152C618.671 462.222 623.187 469.686 623.187 469.686C623.187 469.686 626.018 457.42 626.585 453.154L627.151 448.887C627.151 448.887 615.288 444.62 610.772 444.62C606.257 444.62 604.006 447.816 604.006 443.563C604.006 439.31 608.522 436.621 613.604 437.156C618.202 437.882 622.731 438.951 627.151 440.353C627.151 440.353 630.534 437.691 629.401 429.692C628.269 421.694 625.452 421.694 618.686 423.82C611.919 425.947 607.389 430.763 602.307 430.763C597.225 430.763 600.057 424.89 603.44 423.299C606.823 421.707 615.288 418.497 616.987 417.962C618.686 417.427 607.955 409.963 602.307 408.893C596.659 407.823 589.355 411.637 589.893 416.892C590.953 428.019 574.022 430.2 569.506 425.357Z" fill="#FF9933"/>
<path d="M605.836 480.264C606.01 481.865 606.126 483.47 606.184 485.08" stroke="#263238" stroke-linecap="round" stroke-linejoin="round"/>
<path d="M594.495 441.985C599.47 452.544 603.054 463.64 605.167 475.023" stroke="#263238" stroke-linecap="round" stroke-linejoin="round"/>
<path d="M592.463 437.705C589.675 432.025 587.569 428.554 587.569 428.554C590.649 427.183 593.209 424.951 594.902 422.16C596.222 419.633 598.158 417.437 600.55 415.753" stroke="#263238" stroke-linecap="round" stroke-linejoin="round"/>
<path d="M567.822 446.664C567.822 446.664 588.15 438.665 588.15 440.257" stroke="#263238" stroke-linecap="round" stroke-linejoin="round"/>
<path d="M599.359 436.552C599.359 436.552 608.391 432.285 616.29 432.285" stroke="#263238" stroke-linecap="round" stroke-linejoin="round"/>
<path d="M596.034 449.408C592.117 452.45 588.524 455.846 585.304 459.547C582.011 463.217 579.346 467.351 577.405 471.799" stroke="#263238" stroke-linecap="round" stroke-linejoin="round"/>
<path d="M602.264 451.493C602.264 451.493 614.127 448.283 620.327 453.62" stroke="#263238" stroke-linecap="round" stroke-linejoin="round"/>
<path d="M623.71 379.436C617.568 376.006 610.772 375.924 607.433 372.302C604.093 368.68 610.642 366.814 614.141 368.186C617.64 369.558 625.757 373.495 627.281 374.346C628.806 375.197 627.761 362.67 624.915 357.882C622.069 353.094 614.272 350.404 610.395 354.274C602.191 362.409 589.384 351.735 590.255 345.369C591.127 339.003 584.84 332.157 571.379 336.163C557.919 340.169 562.914 342.406 562.914 342.406C562.914 342.406 572.497 347.962 578.654 351.392C584.81 354.822 594.974 357.772 592.782 360.269C590.589 362.766 584.709 361.243 579.787 357.525C574.864 353.807 560.736 344.916 559.284 348.223C557.832 351.53 552.75 360.64 552.75 360.64C559.005 361.545 565.19 362.843 571.263 364.522C579.482 366.965 581.166 371.231 574.748 371.561C568.33 371.89 556.656 367.335 552.968 373.139C549.28 378.942 551.821 393.842 551.821 393.842C551.821 393.842 563.582 386.323 569.579 386.337C575.576 386.351 571.742 389.506 565.034 393.595C562.125 395.273 559.318 397.106 556.627 399.083L562.726 413.859C567.39 413.263 572.089 412.942 576.795 412.899L580.774 413.173C580.774 413.173 580.774 397.67 585.478 393.074C590.183 388.477 591.025 399.11 592.027 401.827C593.029 404.544 590.023 412.652 590.023 412.652C590.023 412.652 601.639 406.629 605.443 404.228L609.233 401.841C609.233 401.841 604.877 390.577 601.9 387.366C598.924 384.156 594.916 384.622 598.314 381.878C601.712 379.134 606.823 380.506 609.727 384.54C612.161 388.294 614.273 392.225 616.043 396.298C616.043 396.298 620.399 396.97 626.047 390.92C631.696 384.869 629.851 382.866 623.71 379.436ZM570.319 396.504C565.804 394.363 576.52 390.096 576.52 390.096C580.483 389.575 574.821 398.644 570.319 396.504ZM577.913 376.596C575.997 375.69 581.761 373.852 581.761 373.852C590.096 375.32 579.83 377.501 577.899 376.596H577.913Z" fill="#FF9933"/>
<path d="M570.174 407.37C569.012 408.536 567.793 409.675 566.559 410.772" stroke="#263238" stroke-linecap="round" stroke-linejoin="round"/>
<path d="M593.334 374.181C588.148 384.644 581.618 394.464 573.892 403.419" stroke="#263238" stroke-linecap="round" stroke-linejoin="round"/>
<path d="M595.425 369.928C598.14 364.207 599.519 360.434 599.519 360.434C602.641 361.728 606.105 362.092 609.451 361.477C612.332 360.757 615.354 360.696 618.265 361.298" stroke="#263238" stroke-linecap="round" stroke-linejoin="round"/>
<path d="M590.517 368.529C591.794 367.472 572.091 358.225 572.091 358.225" stroke="#263238" stroke-linecap="round" stroke-linejoin="round"/>
<path d="M600.898 374.126C600.898 374.126 610.235 377.776 615.418 383.415" stroke="#263238" stroke-linecap="round" stroke-linejoin="round"/>
<path d="M588.455 380.108C583.459 379.307 578.392 378.967 573.325 379.093C568.229 379.153 563.173 379.963 558.341 381.494" stroke="#263238" stroke-linecap="round" stroke-linejoin="round"/>
<path d="M590.822 385.939C590.822 385.939 601.146 392.292 600.986 400.222" stroke="#263238" stroke-linecap="round" stroke-linejoin="round"/>
<path d="M536.009 453.318C531.072 450.574 525.598 450.506 522.941 447.583C520.284 444.661 525.511 443.193 528.328 444.29C531.145 445.388 537.679 448.571 538.913 449.257C540.147 449.943 539.29 439.845 536.996 436.045C534.702 432.244 528.429 430.035 525.308 433.136C518.701 439.694 508.392 431.092 509.103 425.974C509.815 420.857 504.747 415.341 493.872 418.565C482.996 421.79 487.062 423.587 487.062 423.587C487.062 423.587 494.772 428.06 499.723 430.817C504.675 433.575 512.864 435.962 511.093 437.966C509.321 439.969 504.602 438.761 500.638 435.757C496.674 432.752 485.305 425.604 484.143 428.265C482.982 430.927 478.887 438.254 478.887 438.254C483.92 438.987 488.897 440.032 493.785 441.382C500.391 443.344 501.742 446.774 496.573 447.034C491.403 447.295 482.053 443.632 479.149 448.31C476.245 452.989 478.219 464.98 478.219 464.98C478.219 464.98 487.686 458.916 492.507 458.93C497.328 458.943 494.249 461.482 488.862 464.774C486.521 466.125 484.262 467.6 482.096 469.192L486.989 481.074C490.744 480.597 494.527 480.345 498.315 480.319L501.524 480.525C501.524 480.525 501.524 468.053 505.314 464.349C509.103 460.645 509.771 469.206 510.57 471.401C511.368 473.596 508.958 480.113 508.958 480.113C508.958 480.113 518.338 475.256 521.373 473.336L524.422 471.401C524.422 471.401 520.908 462.346 518.527 459.753C516.145 457.16 512.893 457.558 515.623 455.308C518.353 453.057 522.462 454.237 524.799 457.434C526.76 460.458 528.464 463.623 529.896 466.901C529.896 466.901 533.395 467.436 537.94 462.579C542.485 457.722 540.96 456.09 536.009 453.318ZM493.03 467.038C489.4 465.323 498.025 461.893 498.025 461.893C501.204 461.482 496.66 468.781 493.03 467.052V467.038ZM499.172 451.041C497.618 450.3 502.264 448.845 502.264 448.845C508.958 450.067 500.696 451.768 499.172 451.041Z" fill="#FF9933"/>
<path d="M492.942 475.805C491.998 476.738 491.025 477.657 490.038 478.549" stroke="#263238" stroke-linecap="round" stroke-linejoin="round"/>
<path d="M511.572 449.092C507.402 457.513 502.149 465.416 495.934 472.622" stroke="#263238" stroke-linecap="round" stroke-linejoin="round"/>
<path d="M513.256 445.662C515.434 441.066 516.552 438.034 516.552 438.034C519.062 439.072 521.848 439.364 524.538 438.871C526.854 438.292 529.284 438.245 531.624 438.734" stroke="#263238" stroke-linecap="round" stroke-linejoin="round"/>
<path d="M494.467 436.251C494.467 436.251 510.337 443.7 509.306 444.483" stroke="#263238" stroke-linecap="round" stroke-linejoin="round"/>
<path d="M517.655 449.051C517.655 449.051 525.162 451.987 529.271 456.529" stroke="#263238" stroke-linecap="round" stroke-linejoin="round"/>
<path d="M507.636 453.867C503.618 453.224 499.543 452.953 495.469 453.058C491.368 453.094 487.3 453.747 483.417 454.992" stroke="#263238" stroke-linecap="round" stroke-linejoin="round"/>
<path d="M509.554 458.559C509.554 458.559 517.859 463.677 517.699 470.043" stroke="#263238" stroke-linecap="round" stroke-linejoin="round"/>
<path d="M515.855 365.263C515.855 365.263 509.641 369.53 505.691 365.263C501.742 360.996 507.39 352.463 501.742 349.266C496.093 346.069 487.076 351.927 487.076 351.927C487.076 351.927 494.409 353.533 494.409 357.264C494.409 360.996 491.026 362.602 490.46 360.996C489.893 359.391 485.944 351.392 480.296 355.138C478.668 356.173 477.28 357.509 476.214 359.066C475.149 360.622 474.428 362.366 474.096 364.193C474.096 364.193 487.628 362.066 488.761 366.868C489.893 371.67 483.127 366.333 477.479 366.333C471.83 366.333 466.748 367.404 467.315 370.6C467.622 373.438 467.622 376.297 467.315 379.134C470.238 376.548 474.044 375.034 478.045 374.867C484.245 374.867 484.245 378.599 478.611 378.599C472.978 378.599 468.447 383.936 468.447 383.936C468.447 383.936 474.096 391.935 480.862 395.667C487.628 399.399 489.893 397.793 490.46 394.597C491.026 391.4 488.761 383.401 492.71 383.401C496.66 383.401 487.076 397.793 492.144 398.328C497.211 398.864 501.175 397.258 502.308 394.062L503.44 390.865C503.44 390.865 501.175 382.866 501.742 379.669C502.308 376.473 503.44 379.669 504.559 383.401C505.677 387.133 506.824 396.188 508.522 395.667C510.221 395.145 515.289 388.189 516.421 385.528C517.554 382.866 508.522 375.402 508.522 373.797C508.522 372.192 515.289 374.867 516.421 376.459C517.554 378.05 518.672 380.191 518.672 380.191C518.672 380.191 522.621 377.529 522.055 370.065C521.489 362.602 515.855 365.263 515.855 365.263Z" fill="#FF9933"/>
<path d="M484.23 384.608C488.136 379.463 493.93 372.466 498.925 368.995" stroke="#263238" stroke-linecap="round" stroke-linejoin="round"/>
<path d="M479.729 390.865C479.729 390.865 480.731 389.383 482.343 387.16" stroke="#263238" stroke-linecap="round" stroke-linejoin="round"/>
<path d="M501.741 370.065C501.741 370.065 508.522 378.064 510.206 386.598" stroke="#263238" stroke-linecap="round" stroke-linejoin="round"/>
<path d="M494.976 375.402C494.976 375.402 496.66 374.332 496.66 385.006" stroke="#263238" stroke-linecap="round" stroke-linejoin="round"/>
<path d="M498.925 365.263C498.925 365.263 502.308 362.066 500.057 356.194" stroke="#263238" stroke-linecap="round" stroke-linejoin="round"/>
<path d="M494.409 370.6L491.592 366.333" stroke="#263238" stroke-linecap="round" stroke-linejoin="round"/>
<path d="M489.327 375.402C489.327 375.402 480.862 370.065 475.78 370.065" stroke="#263238" stroke-linecap="round" stroke-linejoin="round"/>
<path d="M572.846 484.737H529.214V544.076H572.846V484.737Z" fill="#263238" stroke="#263238" stroke-width="2" stroke-linecap="round" stroke-linejoin="round"/>
</g>
<defs>
<clipPath id="clip0_209_993">
<rect width="676" height="568" fill="white"/>
</clipPath>
</defs>
</svg>
