<svg xmlns="http://www.w3.org/2000/svg" viewBox="0 0 1364 960"><path fill="#FFE5DB" d="M1131.406 433.526c-1.932-33.537-17.341-65.457-44.649-85.514-14.772-10.85-31.902-17.712-48.415-25.385-16.444-7.642-32.038-16.73-46.228-28.063-21.308-17.018-38.407-38.582-49.105-63.121-1.483-21.705.316-37.514-13.781-50.879-48.405-45.89-158.014 56.631-252.521 7.891-43.252-22.306-33.365-50.512-80.886-74.967-69.327-35.676-177.666-20.581-217.011 37.484-39.417 58.172 24.178 109.644-9.865 189.391-38.158 89.391-144.226 86.007-157.826 153.88-6.077 30.331.313 97.506 87.303 169.663 31.85 19.208 62.046 28.579 91.894 31.799a304.7 304.7 0 0 1-30.24-.096c-22.935-1.199-45.594-6.166-67.21-13.861-36.186-12.884-69.429-36.106-90.788-68.414-20.725-31.349-27.788-70.192-17.766-106.619 4.916-17.868 14.107-34.375 27.137-47.604 14.455-14.675 32.372-26.023 50.426-35.752 35.671-19.223 78.741-41.071 84.134-86.205.161-1.352-2.176-1.68-2.395-.324-6.913 42.71-51.479 66.617-87.048 83.098-19.206 8.899-38.578 18.121-53.996 32.974-13.673 13.171-23.28 30.203-28.955 48.233-11.699 37.17-5.855 78.376 13.81 111.756 19.884 33.752 52.137 58.791 88.007 73.721 23.865 9.933 49.417 14.226 75.099 15.803 13.486.828 26.934.967 40.428.194 13.313-.762 27.032-1.476 39.954-4.907a2.573 2.573 0 0 0 1.577-1.171c69.413-4.147 140.271-32.315 229.042-38.243 113.815-7.6 244.729 137.678 370.017-22.028 28.343-36.13 46.925-67.71 58.374-95.328 2.277-2.619 4.509-5.288 6.648-8.061 21.572-27.968 36.902-63.466 34.835-99.345zm-60.134-49.76c-32.154-37.791-88.915-40.223-116.397-102.587-5.139-11.66-8.015-22.133-9.713-31.635 5.617 11.008 12.523 21.469 20.421 31.307 22.291 27.764 52.15 44.69 83.539 60.185 15.765 7.783 31.253 16.369 43.045 29.695 10.763 12.163 17.689 27.146 21.547 42.824 7.5 30.484 1.82 62.617-11.99 90.444 13.147-60.269-10.897-97.25-30.452-120.233z"/><path fill="#2D64AD" d="M702.99 112.544h202.433c6.257 0 11.329 5.052 11.329 11.284v139.457c0 6.232-5.072 11.284-11.329 11.284H702.99c-6.257 0-11.329-5.052-11.329-11.284V123.828c0-6.232 5.073-11.284 11.329-11.284z"/><path fill="#FFF" d="M705.802 128.3h196.81c6.083 0 11.015 4.444 11.015 9.927v124.152c0 5.482-4.931 9.927-11.015 9.927h-196.81c-6.083 0-11.015-4.444-11.015-9.927V138.227c0-5.482 4.932-9.927 11.015-9.927zM733.019 120.642c0-.711-.845-1.287-1.889-1.287-1.043 0-1.889.576-1.889 1.287s.846 1.287 1.889 1.287c1.044.001 1.889-.576 1.889-1.287zM723.449 120.642c0-.711-.846-1.287-1.889-1.287-1.043 0-1.889.576-1.889 1.287s.846 1.287 1.889 1.287c1.043.001 1.889-.576 1.889-1.287zM713.879 120.642c0-.711-.846-1.287-1.889-1.287-1.043 0-1.889.576-1.889 1.287s.846 1.287 1.889 1.287c1.043.001 1.889-.576 1.889-1.287zM855.43 123.473h41.558c1.635 0 2.961-.922 2.961-2.06s-1.326-2.06-2.961-2.06H855.43c-1.636 0-2.961.922-2.961 2.06s1.325 2.06 2.961 2.06z"/><path fill="#52A1FA" d="M751.063 185.491h8.663v18.095h-8.663z"/><path fill="#D94559" d="M766.52 173.823h8.663v29.763h-8.663z"/><path fill="#FFBC47" d="M781.977 189.55h8.663v14.036h-8.663z"/><path fill="#D94559" d="M797.434 164.86h8.663v38.726h-8.663z"/><path fill="#52A1FA" d="M812.891 175.514h8.663v28.072h-8.663z"/><path fill="#D94559" d="M828.349 166.213h8.663v37.373h-8.663z"/><path fill="#FFBC47" d="M843.806 152.346h8.663v51.24h-8.663z"/><path fill="#D94559" d="m840.276 140.045-7.031-1.089-7.03-1.089c-.41-.063-.619.41-.376.853l2.909 5.283-14.291 7.689-4.429-4.171-1.326-1.248-1.632.813-20.405 10.173-5.086-2.784-1.051-.575-.938.359-22.976 8.802a.594.594 0 0 0 .335 1.137l4.684-.964 18.267-3.757 5.455 2.986 1.199.656 1.224-.61 19.996-9.969 4.474 4.214 1.371 1.291 1.66-.894 15.977-8.596.99 1.799 1.937 3.518c.211.382.623.493.838.273a.44.44 0 0 0 .086-.13l2.86-6.487 2.709-6.142.152-.344c.163-.38-.142-.933-.552-.997z"/><circle cx="713.908" cy="229.491" r="7.657" fill="#FFBC47" transform="rotate(-76.674 713.88 229.488)"/><circle cx="713.908" cy="247.722" r="7.657" fill="#52A1FA" transform="rotate(-45.001 713.909 247.731)"/><path fill="#DFE0F0" d="M895.28 228.475H727.22a.688.688 0 1 1 0-1.376h168.06c.38 0 .688.308.688.688a.687.687 0 0 1-.688.688zM895.28 233.981H727.22a.688.688 0 1 1 0-1.376h168.06c.38 0 .688.308.688.688a.687.687 0 0 1-.688.688zM895.28 248.09H727.22a.688.688 0 1 1 0-1.376h168.06c.38 0 .688.308.688.688a.687.687 0 0 1-.688.688zM895.28 253.596H727.22a.688.688 0 1 1 0-1.376h168.06c.38 0 .688.308.688.688a.687.687 0 0 1-.688.688z"/><path fill="#FFF" d="M721.11 243.027c-3.185 1.539-5.737 3.982-7.976 6.655-1.233-.794-2.51-1.504-3.915-1.98l-.113.127a339.41 339.41 0 0 0 4.325 3.948 437.837 437.837 0 0 0 7.805-8.635l-.126-.115zM717.211 234.202l1.499-1.62-3.755-3.288 3.697-3.359-1.527-1.591-3.26 3.848-3.261-3.786-1.499 1.62 3.68 3.289-3.622 3.359 1.527 1.591 3.194-3.848c1.11 1.261 2.219 2.523 3.327 3.785z"/><path fill="#474B6B" d="M429.149 452.686h5.198v383.877h-5.198zM946.12 452.686h5.198v383.877h-5.198z"/><path fill="#FFF" d="M434.346 472.272h511.773v74.956H434.346z"/><path fill="#D95265" d="M449.72 492.384h147.32v42.296H449.72zM615.843 492.384h155.504v42.296H615.843zM790.149 492.384h145.993v42.296H790.149z"/><path fill="#CCC" d="M434.346 472.272h511.773v11.23H434.346z"/><path fill="#FFF" d="M403.158 433.099h572.69v39.172h-572.69zM519.067 513.532c0-3.037 1.931-5.499 4.313-5.499s4.313 2.462 4.313 5.499c0 3.037-1.931 5.499-4.313 5.499s-4.313-2.462-4.313-5.499zM689.281 513.532c0-3.037 1.931-5.499 4.313-5.499 2.382 0 4.314 2.462 4.314 5.499 0 3.037-1.931 5.499-4.314 5.499-2.382-.001-4.313-2.462-4.313-5.499zM859.495 513.532c0-3.037 1.931-5.499 4.314-5.499 2.382 0 4.313 2.462 4.313 5.499 0 3.037-1.931 5.499-4.313 5.499-2.382-.001-4.314-2.462-4.314-5.499z"/><path fill="#141A0C" d="M491.22 237.772h235.166V394.39H491.22z"/><path fill="#1A1A1A" d="M497.022 243.556h223.56v145.049h-223.56z"/><path fill="#FFF" d="M497.022 243.556h223.56v145.049h-223.56z"/><path fill="#474B6B" d="M726.384 394.39V237.772H491.22V394.39h106.075v35.002h-28.536v3.708h80.089v-3.708h-28.536V394.39h106.072zM497.022 243.556h223.56v145.049h-223.56V243.556z"/><path fill="#BADAFF" d="M565.943 277.488h-54.167c-.578 0-1.047-.282-1.047-.629 0-.348.469-.629 1.047-.629h54.167c.578 0 1.047.282 1.047.629 0 .348-.469.629-1.047.629zM689.992 277.488H571.74c-.578 0-1.047-.282-1.047-.629 0-.348.469-.629 1.047-.629h118.252c.578 0 1.047.282 1.047.629 0 .348-.468.629-1.047.629zM705.484 277.488h-8.686c-.503 0-.911-.245-.911-.548 0-.302.408-.548.911-.548h8.686c.503 0 .911.245.911.548 0 .303-.408.548-.911.548zM705.348 283.99H511.776c-.578 0-1.047-.282-1.047-.629 0-.348.469-.629 1.047-.629h193.572c.578 0 1.047.282 1.047.629 0 .347-.468.629-1.047.629zM565.943 296.293h-54.167c-.578 0-1.047-.282-1.047-.629 0-.347.469-.629 1.047-.629h54.167c.578 0 1.047.282 1.047.629 0 .347-.469.629-1.047.629zM689.992 296.293H571.74c-.578 0-1.047-.282-1.047-.629 0-.347.469-.629 1.047-.629h118.252c.578 0 1.047.282 1.047.629 0 .347-.468.629-1.047.629zM583.645 289.792h-71.869c-.578 0-1.047-.282-1.047-.629 0-.347.469-.629 1.047-.629h71.869c.578 0 1.047.282 1.047.629 0 .347-.469.629-1.047.629zM705.348 289.792H594.289c-.578 0-1.047-.282-1.047-.629 0-.347.469-.629 1.047-.629h111.059c.578 0 1.047.282 1.047.629 0 .347-.468.629-1.047.629zM705.484 296.293h-8.686c-.503 0-.911-.245-.911-.548 0-.302.408-.548.911-.548h8.686c.503 0 .911.245.911.548 0 .303-.408.548-.911.548zM518.387 304.747h14.633v12.595h-14.633zM581.493 304.747h14.633v12.595h-14.633zM643.99 304.747h14.633v12.595H643.99zM561.505 305.907h-24.33a.411.411 0 0 1-.411-.411v-.301a.41.41 0 0 1 .411-.41h24.33a.41.41 0 0 1 .41.41v.301a.41.41 0 0 1-.41.411zM571.311 317.381h-34.136a.41.41 0 0 1-.411-.41v-.301a.41.41 0 0 1 .411-.41h34.136a.41.41 0 0 1 .41.41v.301a.41.41 0 0 1-.41.41zM571.311 311.644h-16.62a.411.411 0 0 1-.411-.411v-.3a.41.41 0 0 1 .411-.41h16.62a.41.41 0 0 1 .41.41v.3a.41.41 0 0 1-.41.411zM550.072 311.644h-12.898a.411.411 0 0 1-.411-.411v-.3a.41.41 0 0 1 .411-.41h12.898a.41.41 0 0 1 .41.41v.3a.41.41 0 0 1-.41.411zM571.266 305.869h-6.077a.41.41 0 0 1-.41-.411v-.301a.41.41 0 0 1 .41-.41h6.077a.41.41 0 0 1 .41.41v.301a.41.41 0 0 1-.41.411zM626.126 305.907h-24.33a.41.41 0 0 1-.41-.411v-.301a.41.41 0 0 1 .41-.41h24.33a.41.41 0 0 1 .41.41v.301a.41.41 0 0 1-.41.411zM635.932 317.381h-34.137a.41.41 0 0 1-.41-.41v-.301a.41.41 0 0 1 .41-.41h34.137a.41.41 0 0 1 .41.41v.301a.41.41 0 0 1-.41.41zM635.932 311.644h-16.62a.411.411 0 0 1-.411-.411v-.3a.41.41 0 0 1 .411-.41h16.62a.41.41 0 0 1 .41.41v.3a.41.41 0 0 1-.41.411zM614.694 311.644h-12.898a.41.41 0 0 1-.41-.411v-.3a.41.41 0 0 1 .41-.41h12.898a.41.41 0 0 1 .41.41v.3a.41.41 0 0 1-.41.411zM635.888 305.869h-6.077a.41.41 0 0 1-.41-.411v-.301a.41.41 0 0 1 .41-.41h6.077a.41.41 0 0 1 .41.41v.301a.41.41 0 0 1-.41.411zM688.521 305.907h-24.33a.411.411 0 0 1-.411-.411v-.301a.41.41 0 0 1 .411-.41h24.33a.41.41 0 0 1 .41.41v.301a.41.41 0 0 1-.41.411zM698.327 317.381h-34.136a.41.41 0 0 1-.411-.41v-.301a.41.41 0 0 1 .411-.41h34.136a.41.41 0 0 1 .41.41v.301a.41.41 0 0 1-.41.41zM698.327 311.644h-16.62a.411.411 0 0 1-.411-.411v-.3a.41.41 0 0 1 .411-.41h16.62a.41.41 0 0 1 .41.41v.3a.41.41 0 0 1-.41.411zM677.089 311.644h-12.898a.411.411 0 0 1-.411-.411v-.3a.41.41 0 0 1 .411-.41h12.898a.41.41 0 0 1 .41.41v.3a.41.41 0 0 1-.41.411zM698.283 305.869h-6.077a.41.41 0 0 1-.41-.411v-.301a.41.41 0 0 1 .41-.41h6.077a.41.41 0 0 1 .41.41v.301a.41.41 0 0 1-.41.411zM565.943 334.478h-54.167c-.578 0-1.047-.282-1.047-.629 0-.348.469-.629 1.047-.629h54.167c.578 0 1.047.282 1.047.629 0 .347-.469.629-1.047.629zM689.992 334.478H571.74c-.578 0-1.047-.282-1.047-.629 0-.348.469-.629 1.047-.629h118.252c.578 0 1.047.282 1.047.629 0 .347-.468.629-1.047.629zM705.484 334.478h-8.686c-.503 0-.911-.245-.911-.548 0-.302.408-.548.911-.548h8.686c.503 0 .911.245.911.548 0 .303-.408.548-.911.548zM705.348 340.979H511.776c-.578 0-1.047-.282-1.047-.629 0-.347.469-.629 1.047-.629h193.572c.578 0 1.047.282 1.047.629 0 .347-.468.629-1.047.629zM518.387 350.264h14.633v12.595h-14.633zM581.493 350.264h14.633v12.595h-14.633zM643.99 350.264h14.633v12.595H643.99zM561.505 351.423h-24.33a.41.41 0 0 1-.411-.41v-.301a.41.41 0 0 1 .411-.41h24.33a.41.41 0 0 1 .41.41v.301a.41.41 0 0 1-.41.41zM571.311 362.897h-34.136a.411.411 0 0 1-.411-.411v-.3c0-.227.184-.411.411-.411h34.136a.41.41 0 0 1 .41.411v.3a.41.41 0 0 1-.41.411zM571.311 357.16h-16.62a.411.411 0 0 1-.411-.411v-.301a.41.41 0 0 1 .411-.41h16.62a.41.41 0 0 1 .41.41v.301a.41.41 0 0 1-.41.411zM550.072 357.16h-12.898a.411.411 0 0 1-.411-.411v-.301a.41.41 0 0 1 .411-.41h12.898a.41.41 0 0 1 .41.41v.301a.41.41 0 0 1-.41.411zM571.266 351.385h-6.077a.41.41 0 0 1-.41-.41v-.301a.41.41 0 0 1 .41-.41h6.077a.41.41 0 0 1 .41.41v.301a.41.41 0 0 1-.41.41zM626.126 351.423h-24.33a.41.41 0 0 1-.41-.41v-.301a.41.41 0 0 1 .41-.41h24.33a.41.41 0 0 1 .41.41v.301a.41.41 0 0 1-.41.41zM635.932 362.897h-34.137a.41.41 0 0 1-.41-.411v-.3a.41.41 0 0 1 .41-.411h34.137a.41.41 0 0 1 .41.411v.3a.41.41 0 0 1-.41.411zM635.932 357.16h-16.62a.411.411 0 0 1-.411-.411v-.301a.41.41 0 0 1 .411-.41h16.62a.41.41 0 0 1 .41.41v.301a.41.41 0 0 1-.41.411zM614.694 357.16h-12.898a.41.41 0 0 1-.41-.411v-.301a.41.41 0 0 1 .41-.41h12.898a.41.41 0 0 1 .41.41v.301a.41.41 0 0 1-.41.411zM635.888 351.385h-6.077a.41.41 0 0 1-.41-.41v-.301a.41.41 0 0 1 .41-.41h6.077a.41.41 0 0 1 .41.41v.301a.41.41 0 0 1-.41.41zM688.521 351.423h-24.33a.41.41 0 0 1-.411-.41v-.301a.41.41 0 0 1 .411-.41h24.33a.41.41 0 0 1 .41.41v.301a.41.41 0 0 1-.41.41zM698.327 362.897h-34.136a.411.411 0 0 1-.411-.411v-.3c0-.227.184-.411.411-.411h34.136a.41.41 0 0 1 .41.411v.3a.41.41 0 0 1-.41.411zM698.327 357.16h-16.62a.411.411 0 0 1-.411-.411v-.301a.41.41 0 0 1 .411-.41h16.62a.41.41 0 0 1 .41.41v.301a.41.41 0 0 1-.41.411zM677.089 357.16h-12.898a.411.411 0 0 1-.411-.411v-.301a.41.41 0 0 1 .411-.41h12.898a.41.41 0 0 1 .41.41v.301a.41.41 0 0 1-.41.411zM698.283 351.385h-6.077a.41.41 0 0 1-.41-.41v-.301a.41.41 0 0 1 .41-.41h6.077a.41.41 0 0 1 .41.41v.301a.41.41 0 0 1-.41.41zM667.591 262.613H536.405a4.363 4.363 0 0 1 0-8.726h131.186a4.364 4.364 0 0 1 0 8.726zM523.37 262.613h-8.78a4.363 4.363 0 0 1 0-8.726h8.78a4.363 4.363 0 1 1 0 8.726zM687.318 262.613h-7.171a4.363 4.363 0 0 1 0-8.726h7.171a4.364 4.364 0 0 1 0 8.726zM705.94 255.433h-9.849a.772.772 0 1 1 0-1.545h9.849a.773.773 0 1 1 0 1.545zM705.94 259.023h-9.849a.773.773 0 1 1 0-1.546h9.849a.773.773 0 1 1 0 1.546zM705.94 262.613h-9.849a.772.772 0 1 1 0-1.545h9.849a.772.772 0 1 1 0 1.545z"/><ellipse cx="512.254" cy="706.077" fill="#474B6B" rx="48.597" ry="34.335"/><path fill="#474B6B" d="M546.513 835.063a192.496 192.496 0 0 1-35.784 3.206 192.291 192.291 0 0 1-34.259-3.206l-13.674-128.902h97.391l-13.674 128.902z"/><path fill="#FFF" d="M559.62 716.284h-96.257a6.75 6.75 0 0 1 0-13.498h96.257a6.749 6.749 0 1 1 0 13.498z"/><path fill="#2F3354" d="M537.29 678.231c0 3.583-10.703 6.488-23.907 6.488-13.203 0-23.907-2.905-23.907-6.488 0-3.583 10.703-6.488 23.907-6.488 13.204-.001 23.907 2.904 23.907 6.488z"/><path fill="#FFCCC2" d="m755.962 638.363-92.672-26.477c8.611 60.058-4.52 120.333-9.041 162.201-1.507 14.423-2.045 26.586-.323 35.842l4.912 25.873h-74.374l38.034-26.949s-3.121-13.669-6.996-34.766c-10.763-57.26-27.662-168.982-5.166-206.008 21.742-35.734 112.798-34.443 167.153-48.435l-21.527 118.719zM995.928 230.435a308.11 308.11 0 0 1-5.208 11.198c-22.751 46.575-61.908 100.994-106.415 157.839a2567.23 2567.23 0 0 1-23.109 29.243l3.423-56.988 2.282-37.944c38.087-29.6 73.036-63.764 104.133-103.206 2.14-2.496 4.065-4.992 5.991-7.489 0 0-2.282-33.736 20.327-22.253 22.612 11.555-1.424 29.6-1.424 29.6z"/><path fill="#FFBC47" d="M990.721 242.947c-22.751 46.575-61.908 99.68-106.415 156.525l-19.685-27.745 2.282-37.944c38.087-29.6 71.98-64.576 103.077-104.018l20.741 13.182z"/><path fill="#FFCCC2" d="M734.526 429s-30.954 56.631-64.12 49.214c-31.81-7.204-58.485-75.604-68.114-103.491-2.496-7.204-3.851-11.696-3.851-11.696s-29.528-19.472-3.922-33.023c26.247-13.908 22.538 24.678 22.538 24.678s1.497 2.069 4.137 5.421c12.624 16.476 50.283 64.833 53.35 58.057 4.065-9.058 25.605-38.443 47.288-67.044L734.526 429z"/><path fill="#FFBC47" d="M734.526 429s-30.954 56.631-64.12 49.214c-31.81-7.204-61.776-74.412-71.404-102.299 5.087-6.426 16.645-13.288 24.199-16.557 12.624 16.476 44.091 59.91 50.181 55.642 9.027-6.328 30.542-45.898 48.45-63.885L734.526 429z"/><path fill="#FFCCC2" d="M869.092 574.792H754.689c4.422-71.609-35.376-143.432-33.094-223.529 22.539-14.335 63.55-27.674 69.398-29.528.499-.142.713-.214.713-.214l5.35-45.29h28.529l6.563 45.29s.214.072.57.214c5.492 1.712 49.998 16.191 69.541 29.314-16.985 82.151-40.87 153.987-33.167 223.743z"/><path fill="#FFBC47" d="M869.092 574.792H754.689c2.746-71.61-46.631-143.437-33.094-223.529 22.539-14.335 63.55-27.674 69.398-29.528h41.724c5.492 1.712 53.131 16.898 72.674 30.021-18.81 76.959-44.002 153.28-36.299 223.036z"/><path fill="#3A3557" d="M857.318 301.438c-3.705-28.232 8.743-33.664 1.267-59.593-1.826-6.333-8.705-30.193-26.626-35.503-6.147-1.821-11.57-.854-20.08 1.732-8.51-2.587-12.882-3.858-22.396-.905-17.852 5.54-22.484 28.343-24.31 34.676-7.476 25.929 4.972 31.361 1.267 59.593-4.36 33.223-23.958 43.673-16.483 63.396 3.538 9.335 10.747 14.434 19.02 20.287 15.056 10.652 31.231 13.698 42.695 14.325v.026c.068-.003.14-.009.207-.013.068.003.14.009.207.013v-.026c11.465-.626 27.639-3.673 42.695-14.325 8.273-5.853 15.482-10.952 19.02-20.287 7.474-19.723-12.124-30.173-16.483-63.396z"/><path fill="#FFCCC2" d="M852.224 636.434c-30.867-8.875-61.391-17.967-92.776-24.591 10.142 44.491 14.88 110.737 24.239 153.815 3.223 14.835 5.229 19.549 10.962 31.199 3.269 6.642 6.576 11.758 9.98 18.263-22.496 5.749-45.06 11.245-67.473 17.374 9.252-9.54 18.167-19.848 27.564-28.97-7.748-13.856-9.504-13.597-18.815-30.558-25.292-46.072-69.052-143.718-39.942-197.327 29.11-53.609 113.771-36.957 161.733-54.761-4.555 39.206-11.268 76.807-15.472 115.556z"/><path fill="#302B47" d="M867.694 626.782c-29.418-6.641-73.897-4.197-103.685-8.977 6.523 45.165 13.315 106.364 23.393 150.919-14.533 3.157-28.101 7.308-43.223 9.906-27.387-50.843-90.835-149.142-61.697-204.226 29.137-55.083 137.265-34.874 185.211-53.589-4.55 39.349 4.203 67.17.001 105.967zM762.852 799.628c-7.109 16.552-28.072 13.964-27.2 36.018 23.484-6.435 47.096-12.258 70.665-18.368-1.694-10.149-4.447-19.026-13.377-24.888-9.863 3.656-19.591 6.291-30.088 7.238z"/><path fill="#3A3557" d="m755.962 638.363-88.756-19.521c2.697 62.898-5.738 116.721-10.259 158.589l-45.239.841c-10.763-57.26-23.868-173.167-1.372-210.192 21.742-35.734 112.798-34.443 167.153-48.435l-21.527 118.718zM621.01 802.031c-4.09 11.558-36.547 10.893-36.547 33.771h74.374c1.712-11.01.543-26.831-5.96-33.771-11.016 1.52-21.728 1.866-31.867 0z"/><path fill="#474B6B" d="M821.84 626.782h9.818v209.02h-9.818z"/><path fill="#D95265" d="M917.891 361.592c-6.674-7.042-15.715-10.564-25.078-7.923-39.501 11.004-82.231 10.124-127.975-2.641-19.266-5.281-37.026 15.992-35.626 42.843 0 0 6.626 121.635 9.883 179.996.925 16.58-12.27 30.526-28.876 30.526h-31.251c-8.3 0-15.443 6.379-15.834 14.67-.417 8.853 6.637 16.162 15.398 16.162h90.276c.04 0 .078.005.119.005H887c14.746 0 27.124-15.258 28.523-35.36 3.336-50.179 9.58-142.467 13.67-203.063.86-14.527-3.66-27.292-11.302-35.215z"/><path fill="#C94457" d="M917.891 361.592c-3.897-4.112-8.604-7.011-13.709-8.196 4.518 7.635 6.941 17.6 6.292 28.573-4.09 60.596-10.333 152.884-13.67 203.063-1.399 20.102-13.776 35.36-28.523 35.36H750.209c-.04 0-.079-.005-.119-.005h-86.948c.306 8.244 7.072 14.837 15.392 14.837h90.276c.04 0 .078.005.119.005H887c14.746 0 27.124-15.258 28.523-35.36 3.336-50.179 9.58-142.467 13.67-203.063.86-14.526-3.66-27.291-11.302-35.214z"/><path fill="#2D64AD" d="M293.285 154.441h232.559c7.188 0 13.015 6.746 13.015 15.067V355.72c0 8.321-5.827 15.067-13.015 15.067H293.285c-7.188 0-13.015-6.746-13.015-15.067V169.507c0-8.321 5.827-15.066 13.015-15.066z"/><path fill="#FFF" d="M296.515 175.479h226.099c6.988 0 12.654 5.934 12.654 13.255v165.775c0 7.32-5.665 13.255-12.654 13.255H296.515c-6.988 0-12.654-5.935-12.654-13.255V188.734c0-7.32 5.666-13.255 12.654-13.255zM327.783 165.254c0-.949-.971-1.719-2.17-1.719s-2.17.769-2.17 1.719c0 .949.972 1.719 2.17 1.719s2.17-.77 2.17-1.719zM316.788 165.254c0-.949-.972-1.719-2.17-1.719s-2.17.769-2.17 1.719c0 .949.972 1.719 2.17 1.719 1.199 0 2.17-.77 2.17-1.719zM305.794 165.254c0-.949-.972-1.719-2.17-1.719s-2.17.769-2.17 1.719c0 .949.971 1.719 2.17 1.719 1.198 0 2.17-.77 2.17-1.719zM468.411 169.034h47.742c1.879 0 3.402-1.231 3.402-2.75s-1.523-2.75-3.402-2.75h-47.742c-1.879 0-3.402 1.231-3.402 2.75s1.523 2.75 3.402 2.75z"/><path fill="#C5D0F0" d="m512.461 205.637-153.925-.23c-.925-.001-1.673-.936-1.671-2.087.002-1.151.753-2.083 1.677-2.082l153.925.229c.925.001 1.673.936 1.671 2.087-.002 1.152-.753 2.084-1.677 2.083zM467.757 230.377l-109.738-.164c-.659-.001-1.192-.935-1.19-2.086.002-1.151.537-2.083 1.197-2.083l109.738.164c.659.001 1.192.935 1.19 2.086-.002 1.151-.538 2.084-1.197 2.083zM420.806 217.517l-62.288-.093c-.925-.001-1.673-.936-1.671-2.087.002-1.151.753-2.083 1.677-2.082l62.288.093c.925.001 1.673.936 1.671 2.087-.002 1.151-.753 2.083-1.677 2.082zM450.004 217.56l-18.49-.028c-.924-.001-1.673-.936-1.671-2.087.002-1.151.753-2.083 1.677-2.082l18.49.028c.924.001 1.673.936 1.671 2.087-.001 1.152-.752 2.084-1.677 2.082zM512.374 264.072l-153.925-.23c-.925-.001-1.673-.936-1.671-2.087.002-1.151.753-2.083 1.677-2.082l153.925.229c.924.001 1.673.936 1.671 2.087-.002 1.153-.753 2.085-1.677 2.083zM467.67 288.812l-109.738-.164c-.659-.001-1.192-.935-1.19-2.086.002-1.151.537-2.083 1.197-2.082l109.738.164c.659.001 1.192.935 1.19 2.086-.002 1.151-.538 2.083-1.197 2.082zM420.719 275.952l-62.288-.093c-.925-.001-1.673-.936-1.671-2.087.002-1.151.753-2.083 1.677-2.082l62.288.093c.924.001 1.673.935 1.671 2.087-.002 1.152-.753 2.084-1.677 2.082zM449.917 275.996l-18.49-.028c-.924-.001-1.673-.936-1.671-2.087.002-1.151.753-2.083 1.677-2.082l18.49.027c.924.001 1.673.935 1.671 2.087-.001 1.152-.752 2.084-1.677 2.083zM512.287 322.508l-153.925-.229c-.925-.001-1.673-.936-1.671-2.087.002-1.151.752-2.083 1.677-2.082l153.925.229c.924.001 1.673.936 1.671 2.087-.002 1.151-.753 2.083-1.677 2.082zM467.583 347.248l-109.738-.164c-.659-.001-1.192-.935-1.19-2.086.002-1.151.537-2.083 1.197-2.082l109.738.164c.659.001 1.192.935 1.19 2.086-.002 1.15-.538 2.083-1.197 2.082zM420.632 334.388l-62.288-.093c-.925-.001-1.673-.936-1.671-2.087.002-1.151.753-2.083 1.677-2.082l62.288.093c.924.001 1.673.935 1.671 2.087-.002 1.151-.753 2.083-1.677 2.082zM449.83 334.431l-18.49-.028c-.924-.001-1.673-.936-1.671-2.087.002-1.151.753-2.083 1.677-2.082l18.49.028c.924.001 1.672.936 1.671 2.087-.002 1.152-.752 2.083-1.677 2.082zM321.633 232.898c-.563 0-1.13-.028-1.686-.084a.755.755 0 0 1 .151-1.503 15.48 15.48 0 0 0 3.163-.01.755.755 0 1 1 .16 1.502c-.589.064-1.191.095-1.788.095zm-4.86-.757a.778.778 0 0 1-.231-.036 16.538 16.538 0 0 1-3.182-1.406.755.755 0 1 1 .752-1.31c.916.526 1.889.956 2.892 1.277a.755.755 0 0 1-.231 1.475zm9.814-.03a.757.757 0 0 1-.236-1.473 15.064 15.064 0 0 0 2.883-1.295.755.755 0 1 1 .76 1.306 16.594 16.594 0 0 1-3.172 1.425.764.764 0 0 1-.235.037zm-15.543-3.256a.751.751 0 0 1-.503-.192 16.73 16.73 0 0 1-2.336-2.575.755.755 0 1 1 1.219-.894c.623.85 1.338 1.638 2.125 2.342a.756.756 0 0 1-.505 1.319zm21.25-.064a.755.755 0 0 1-.507-1.315 15.277 15.277 0 0 0 2.111-2.355.756.756 0 0 1 1.224.886c-.68.939-1.461 1.81-2.321 2.589a.758.758 0 0 1-.507.195zm-25.152-5.261a.756.756 0 0 1-.689-.445 16.564 16.564 0 0 1-1.087-3.304.755.755 0 1 1 1.477-.319c.223 1.031.555 2.041.988 3.002a.755.755 0 0 1-.689 1.066zm29.023-.089a.755.755 0 0 1-.691-1.062c.427-.964.753-1.976.969-3.009a.756.756 0 0 1 1.479.309 16.525 16.525 0 0 1-1.067 3.311.75.75 0 0 1-.69.451zm-30.418-6.364a.755.755 0 0 1-.755-.755v-.066c0-1.164.121-2.328.36-3.458a.755.755 0 1 1 1.478.312 15.241 15.241 0 0 0-.327 3.145v.066a.757.757 0 0 1-.756.756zm31.773-.098a.754.754 0 0 1-.755-.754 15.162 15.162 0 0 0-.334-3.144.756.756 0 0 1 1.478-.316c.241 1.129.365 2.292.367 3.457a.756.756 0 0 1-.754.757h-.002zm-30.405-6.426a.755.755 0 0 1-.689-1.063 16.663 16.663 0 0 1 1.74-3.011.755.755 0 1 1 1.222.888 15.153 15.153 0 0 0-1.583 2.738.755.755 0 0 1-.69.448zm29.024-.029a.756.756 0 0 1-.69-.447 15.14 15.14 0 0 0-1.587-2.734.755.755 0 1 1 1.22-.89c.685.938 1.272 1.95 1.746 3.007a.755.755 0 0 1-.689 1.064zm-25.142-5.313a.754.754 0 0 1-.506-1.316 16.66 16.66 0 0 1 2.81-2.047.754.754 0 1 1 .757 1.307 15.215 15.215 0 0 0-2.556 1.862.748.748 0 0 1-.505.194zm21.249-.02a.753.753 0 0 1-.505-.194 15.177 15.177 0 0 0-2.56-1.857.756.756 0 0 1 .755-1.309 16.679 16.679 0 0 1 2.814 2.042.756.756 0 0 1-.504 1.318zm-15.535-3.288a.756.756 0 0 1-.234-1.474 16.583 16.583 0 0 1 3.402-.723.756.756 0 0 1 .157 1.503c-1.05.11-2.09.331-3.091.657a.767.767 0 0 1-.234.037zm9.815-.01a.76.76 0 0 1-.233-.037 15.088 15.088 0 0 0-3.094-.651.755.755 0 1 1 .155-1.503c1.156.119 2.301.36 3.404.716a.754.754 0 0 1 .486.951.754.754 0 0 1-.718.524z"/><path fill="#52A1FA" d="M345.363 197.238c-9.591 4.634-17.273 11.988-24.015 20.037-3.714-2.391-7.558-4.53-11.787-5.96l-.341.383c3.758 3.527 9.147 8.391 13.023 11.885a1320.453 1320.453 0 0 0 23.499-25.999l-.379-.346z"/><path fill="#C5D0F0" d="M321.633 292.184c-.563 0-1.13-.028-1.686-.084a.755.755 0 0 1 .151-1.503 15.48 15.48 0 0 0 3.163-.01.755.755 0 1 1 .16 1.502c-.589.063-1.191.095-1.788.095zm-4.86-.758a.778.778 0 0 1-.231-.036 16.538 16.538 0 0 1-3.182-1.406.755.755 0 1 1 .752-1.31c.916.526 1.889.956 2.892 1.277a.755.755 0 0 1-.231 1.475zm9.814-.029a.757.757 0 0 1-.236-1.473 15.064 15.064 0 0 0 2.883-1.295.755.755 0 1 1 .76 1.306 16.594 16.594 0 0 1-3.172 1.425.795.795 0 0 1-.235.037zm-15.543-3.257a.751.751 0 0 1-.503-.192 16.73 16.73 0 0 1-2.336-2.575.755.755 0 1 1 1.219-.894c.623.85 1.338 1.638 2.125 2.342a.756.756 0 0 1-.505 1.319zm21.25-.064a.755.755 0 0 1-.507-1.315 15.277 15.277 0 0 0 2.111-2.355.756.756 0 0 1 1.224.886c-.68.939-1.461 1.81-2.321 2.589a.758.758 0 0 1-.507.195zm-25.152-5.261a.756.756 0 0 1-.689-.445 16.543 16.543 0 0 1-1.087-3.304.755.755 0 1 1 1.477-.319c.223 1.031.555 2.041.988 3.002a.755.755 0 0 1-.689 1.066zm29.023-.089a.755.755 0 0 1-.691-1.062c.427-.964.753-1.976.969-3.009a.756.756 0 0 1 1.479.309 16.525 16.525 0 0 1-1.067 3.311.75.75 0 0 1-.69.451zm-30.418-6.364a.755.755 0 0 1-.755-.755v-.065c0-1.165.121-2.328.36-3.458a.755.755 0 1 1 1.478.312 15.241 15.241 0 0 0-.327 3.145v.065a.757.757 0 0 1-.756.756zm31.773-.098a.754.754 0 0 1-.755-.754 15.162 15.162 0 0 0-.334-3.144.756.756 0 0 1 1.478-.316c.241 1.129.365 2.292.367 3.457a.756.756 0 0 1-.754.757h-.002zm-30.405-6.426a.755.755 0 0 1-.689-1.063 16.663 16.663 0 0 1 1.74-3.011.756.756 0 0 1 1.222.888 15.153 15.153 0 0 0-1.583 2.738.755.755 0 0 1-.69.448zm29.024-.029a.756.756 0 0 1-.69-.447 15.14 15.14 0 0 0-1.587-2.734.755.755 0 1 1 1.22-.89c.685.938 1.272 1.95 1.746 3.007a.755.755 0 0 1-.689 1.064zm-25.142-5.313a.756.756 0 0 1-.506-1.317 16.716 16.716 0 0 1 2.81-2.047.754.754 0 1 1 .757 1.307 15.215 15.215 0 0 0-2.556 1.862.744.744 0 0 1-.505.195zm21.249-.02a.757.757 0 0 1-.505-.193 15.177 15.177 0 0 0-2.56-1.857.756.756 0 0 1 .755-1.309 16.679 16.679 0 0 1 2.814 2.042.756.756 0 0 1-.504 1.317zm-15.535-3.288a.756.756 0 0 1-.234-1.474 16.583 16.583 0 0 1 3.402-.723.756.756 0 0 1 .157 1.503c-1.05.11-2.09.331-3.091.657a.767.767 0 0 1-.234.037zm9.815-.01a.76.76 0 0 1-.233-.037 15.088 15.088 0 0 0-3.094-.651.755.755 0 1 1 .155-1.503c1.156.119 2.301.36 3.404.716a.754.754 0 0 1 .486.951.754.754 0 0 1-.718.524z"/><path fill="#52A1FA" d="M345.363 256.523c-9.591 4.634-17.273 11.988-24.015 20.037-3.714-2.391-7.558-4.53-11.787-5.96l-.341.383c3.758 3.527 9.147 8.391 13.023 11.885a1320.453 1320.453 0 0 0 23.499-25.999l-.379-.346z"/><path fill="#C5D0F0" d="M321.633 351.469c-.563 0-1.13-.028-1.686-.084a.755.755 0 0 1 .151-1.503 15.48 15.48 0 0 0 3.163-.01.755.755 0 1 1 .16 1.502c-.589.063-1.191.095-1.788.095zm-4.86-.758a.778.778 0 0 1-.231-.036 16.538 16.538 0 0 1-3.182-1.406.755.755 0 1 1 .752-1.31c.916.526 1.889.956 2.892 1.278a.755.755 0 0 1-.231 1.474zm9.814-.029a.757.757 0 0 1-.236-1.473 15.064 15.064 0 0 0 2.883-1.295.755.755 0 1 1 .76 1.306 16.594 16.594 0 0 1-3.172 1.425.764.764 0 0 1-.235.037zm-15.543-3.257a.751.751 0 0 1-.503-.192 16.73 16.73 0 0 1-2.336-2.575.755.755 0 1 1 1.219-.893c.623.85 1.338 1.638 2.125 2.342a.756.756 0 0 1-.505 1.318zm21.25-.064a.755.755 0 0 1-.507-1.315 15.277 15.277 0 0 0 2.111-2.355.756.756 0 0 1 1.224.886c-.68.939-1.461 1.81-2.321 2.589a.753.753 0 0 1-.507.195zm-25.152-5.26a.756.756 0 0 1-.689-.445 16.564 16.564 0 0 1-1.087-3.304.755.755 0 1 1 1.477-.319c.223 1.031.555 2.041.988 3.002a.755.755 0 0 1-.689 1.066zm29.023-.089a.755.755 0 0 1-.691-1.062c.427-.964.753-1.976.969-3.009a.756.756 0 0 1 1.479.309 16.525 16.525 0 0 1-1.067 3.311.752.752 0 0 1-.69.451zm-30.418-6.364a.755.755 0 0 1-.755-.755v-.065c0-1.164.121-2.328.36-3.458a.756.756 0 0 1 1.478.312 15.241 15.241 0 0 0-.327 3.145v.065a.757.757 0 0 1-.756.756zm31.773-.098a.754.754 0 0 1-.755-.754 15.162 15.162 0 0 0-.334-3.144.756.756 0 0 1 1.478-.316c.241 1.129.365 2.292.367 3.457a.756.756 0 0 1-.754.757h-.002zm-30.405-6.427a.755.755 0 0 1-.689-1.063 16.663 16.663 0 0 1 1.74-3.011.756.756 0 0 1 1.222.888 15.153 15.153 0 0 0-1.583 2.738.755.755 0 0 1-.69.448zm29.024-.029a.756.756 0 0 1-.69-.447c-.43-.961-.964-1.88-1.587-2.733a.756.756 0 0 1 1.22-.891c.685.938 1.272 1.95 1.746 3.007a.755.755 0 0 1-.689 1.064zm-25.142-5.313a.756.756 0 0 1-.506-1.317 16.716 16.716 0 0 1 2.81-2.047.754.754 0 1 1 .757 1.307 15.271 15.271 0 0 0-2.556 1.862.744.744 0 0 1-.505.195zm21.249-.02a.753.753 0 0 1-.505-.194 15.177 15.177 0 0 0-2.56-1.857.756.756 0 0 1 .755-1.309 16.679 16.679 0 0 1 2.814 2.042.756.756 0 0 1-.504 1.318zm-15.535-3.288a.756.756 0 0 1-.234-1.474 16.583 16.583 0 0 1 3.402-.723.756.756 0 0 1 .157 1.503c-1.05.11-2.09.331-3.091.657a.767.767 0 0 1-.234.037zm9.815-.01a.76.76 0 0 1-.233-.037 15.088 15.088 0 0 0-3.094-.651.756.756 0 0 1 .155-1.503c1.156.119 2.301.36 3.404.716a.754.754 0 0 1 .486.951.754.754 0 0 1-.718.524z"/><path fill="#52A1FA" d="M345.363 315.808c-9.591 4.634-17.273 11.988-24.015 20.037-3.714-2.391-7.558-4.53-11.787-5.96l-.341.383c3.758 3.527 9.147 8.391 13.023 11.885a1320.453 1320.453 0 0 0 23.499-25.999l-.379-.346z"/><path fill="#C8CBE3" d="M1142.688 840.739H152.986a2.146 2.146 0 0 1-2.146-2.145v-.646c0-1.185.961-2.146 2.146-2.146h989.703c1.185 0 2.146.961 2.146 2.146v.646a2.147 2.147 0 0 1-2.147 2.145zM704.529 865.666H463.865a2.146 2.146 0 0 1-2.146-2.146v-.646c0-1.185.961-2.146 2.146-2.146h240.664c1.185 0 2.146.96 2.146 2.146v.646a2.147 2.147 0 0 1-2.146 2.146zM1211.015 840.739h-43.808a2.145 2.145 0 0 1-2.145-2.145v-.647c0-1.185.96-2.146 2.145-2.146h43.808c1.185 0 2.146.961 2.146 2.146v.647a2.147 2.147 0 0 1-2.146 2.145zM435.522 865.666h-43.808a2.145 2.145 0 0 1-2.145-2.146v-.646c0-1.185.961-2.146 2.145-2.146h43.808c1.185 0 2.146.96 2.146 2.146v.646a2.146 2.146 0 0 1-2.146 2.146z"/><path fill="#2D64AD" d="M1064.119 555.623c5.399 20.296 34.158 25.685 40.934 45.919 3.368 11.914-4.545 23.602-9.571 34.88-7.358 20.63-14.452 43.897-11.448 65.924 2.083 9.999 7.753 19.275 7.995 29.473-9.247-.37-19.941-2.385-30.011-6.032-.15-.234-.298-.48-.44-.72-5.533-9.468-8.174-21.241-4.214-33.935 3.604-11.559 11.809-23.274 11.462-34.836-.189-6.327-3.195-11.435-5.986-16.402-2.877-5.132-5.284-10.322-5.539-16.779-.436-10.774 3.494-23.428-1.127-32.747-2.827-5.682-8.658-8.547-13.668-12.066-2.806-1.963-5.382-4.227-7.027-7.278-1.404-2.603-2.168-5.584-2.588-8.682-.829-6.112-.449-12.599-1.172-18.746-.727-6.239-2.927-11.783-6.209-16.61-7.172-10.539-18.39-17.179-28.326-24.924-8.986-7.012-17.787-15.564-20.46-27.532a23.78 23.78 0 0 1-.245-1.233c1.667-1.52 3.746-2.763 6.259-3.644 21.407-4.873 29.417 23.923 45.292 32.19 19.542 7.437 37.81 5.164 35.677 32.475-.375 7.123-1.535 14.426.412 21.305z"/><path fill="#477EC7" d="M997.185 502.062c9.936 7.745 21.154 14.385 28.326 24.924 3.282 4.828 5.482 10.371 6.209 16.61.723 6.147.343 12.634 1.172 18.746.42 3.099 1.184 6.079 2.588 8.682 1.645 3.051 4.222 5.314 7.027 7.278 5.009 3.519 10.841 6.384 13.668 12.066 4.621 9.319.691 21.973 1.127 32.747.255 6.458 2.662 11.647 5.539 16.779 2.792 4.967 5.798 10.075 5.986 16.402.347 11.563-7.858 23.278-11.462 34.836-3.961 12.694-1.32 24.466 4.214 33.935.142.24.29.486.44.72a42.196 42.196 0 0 1-1.526-.568c-23.101-8.79-42.315-26.275-32.188-52.299 7.693-12.143 15.089-21.702 1.077-32.398-20.375-20.755-50.649-33.311-35.612-67.322 5.704-15.311 20.842-37.315 8.9-52.311-5.754-5.064-14.002-6.37-19.914-11.222-11.313-7.683-16.185-26.048-7.119-35.548.258-.284.539-.558.844-.822.07.414.154.827.245 1.233 2.672 11.968 11.473 20.52 20.459 27.532z"/><path fill="#83B0EB" d="M997.185 502.062c9.936 7.745 21.154 14.385 28.326 24.924 3.282 4.828 5.482 10.371 6.209 16.61.723 6.147.343 12.634 1.172 18.746.42 3.099 1.184 6.079 2.588 8.682 1.645 3.051 4.222 5.314 7.027 7.278 5.009 3.519 10.841 6.384 13.668 12.066 4.621 9.319.691 21.973 1.127 32.747.255 6.458 2.662 11.647 5.539 16.779 2.792 4.967 5.798 10.075 5.986 16.402.347 11.563-7.858 23.278-11.462 34.836-3.961 12.694-1.32 24.466 4.214 33.935.142.24.29.486.44.72a42.196 42.196 0 0 1-1.526-.568 48.771 48.771 0 0 1-3.389-7.269c-1.75-4.768-2.737-9.974-2.565-15.475.185-5.855 1.83-11.743 4.258-17.65 2.484-6.023 5.562-11.973 7.472-18.078 2.195-6.98 2.019-13.235-.446-18.988-2.417-5.628-6.156-10.412-8.087-16.346-1.619-4.997-1.522-10.622-1.101-16.27.448-5.899 1.269-11.944.575-17.574-.836-6.842-4.588-11.272-9.844-14.848-5.088-3.456-10.637-6.49-13.293-12.3-2.351-5.145-2.52-11.363-2.715-17.374-.214-6.635-.618-13.103-3.027-18.855-2.575-6.12-6.765-11.166-11.485-15.554-14.194-13.218-37.31-23.158-41.208-44.518.258-.284.539-.558.844-.822.07.414.154.827.245 1.233 2.671 11.967 11.472 20.519 20.458 27.531z"/><path fill="#477EC7" d="M1078.7 663.711c8.581 20.282 0 35.222 0 35.222 2.341-4.429 5.15-8.651 7.801-12.859 2.608-4.139 5.139-8.373 6.998-12.925 1.892-4.629 2.738-9.386 3.072-14.351.322-4.803.403-9.669 1.717-14.344 1.026-3.678 2.864-7.068 5.065-10.172 4.554-6.447 10.535-11.708 15.261-18.012 2.388-3.169 4.414-6.604 5.638-10.393 1.482-4.567 1.807-9.407 1.992-14.172.187-4.756.217-9.543 1.018-14.248a42.44 42.44 0 0 1 3.751-11.554c3.574-7.326 9.044-13.616 15.384-18.681 15.514-12.411 35.495-16.582 54.683-19.5 1.134-.17 2.268-.341 3.412-.504-3.605-10.753-22.136-11.537-32.191-8.751-6.877 1.907-12.27 7.223-18.77 10.153-32.932 14.876-59.468 14.135-56.449 58.875.342 5.007 1.057 10.181-.53 14.942-8.149 19.575-34.854 21.088-17.852 61.274z"/><path fill="#2D64AD" d="M1132.797 670.103c-5.593-20.722-1.282-30.597 10.754-40.746 5.969-5.045 14.119-9.463 14.786-17.253-.414-16.772-26.906-25.594-.929-46.982 14.654-12.077 52.672-12.578 47.415-36.705-.026-.112-.053-.233-.087-.344-18.271 2.665-37.198 5.901-52.836 16.234-6.866 4.537-13.007 10.331-17.457 17.289-2.175 3.396-3.924 7.075-5.11 10.938-1.316 4.301-1.781 8.751-1.99 13.235-.215 4.743-.195 9.512-.869 14.226-.59 4.148-1.813 8.123-3.858 11.793-3.696 6.63-9.283 11.904-14.229 17.58-2.509 2.893-4.917 5.931-6.765 9.304-2.104 3.867-3.184 8.026-3.634 12.393-.487 4.775-.414 9.599-1.273 14.331-.82 4.575-2.568 8.914-4.717 13.02-3.864 7.414-9.015 14.103-12.84 21.538-.002-.001 64.276 9.561 53.639-29.851z"/><path fill="#035875" d="m1078.7 698.933.456 1.02c3.825-7.435 8.977-14.123 12.84-21.538 2.149-4.105 3.897-8.445 4.717-13.02.859-4.732.786-9.557 1.273-14.331.45-4.367 1.529-8.526 3.634-12.393 1.849-3.373 4.256-6.411 6.765-9.304 4.946-5.677 10.532-10.95 14.229-17.58 2.045-3.67 3.267-7.646 3.858-11.793.675-4.713.654-9.483.869-14.226.21-4.483.674-8.933 1.99-13.235 1.186-3.863 2.935-7.542 5.11-10.938 4.45-6.958 10.592-12.752 17.457-17.289 15.638-10.334 34.565-13.57 52.836-16.234a9.554 9.554 0 0 0-.245-.855c-1.144.163-2.278.333-3.412.504-19.188 2.918-39.169 7.089-54.683 19.5-6.34 5.065-11.809 11.355-15.384 18.681a42.474 42.474 0 0 0-3.751 11.554c-.801 4.706-.831 9.492-1.018 14.248-.185 4.765-.511 9.604-1.992 14.172-1.224 3.788-3.25 7.224-5.638 10.393-4.727 6.304-10.708 11.565-15.261 18.012-2.201 3.105-4.038 6.495-5.065 10.172-1.314 4.676-1.394 9.541-1.717 14.344-.333 4.965-1.18 9.723-3.072 14.351-1.859 4.553-4.39 8.787-6.998 12.925-2.648 4.209-5.457 8.432-7.798 12.86z"/><path fill="#83B0EB" d="m1078.7 698.933.456 1.02c3.825-7.435 8.977-14.123 12.84-21.538 2.149-4.105 3.897-8.445 4.717-13.02.859-4.732.786-9.557 1.273-14.331.45-4.367 1.529-8.526 3.634-12.393 1.849-3.373 4.256-6.411 6.765-9.304 4.946-5.677 10.532-10.95 14.229-17.58 2.045-3.67 3.267-7.646 3.858-11.793.675-4.713.654-9.483.869-14.226.21-4.483.674-8.933 1.99-13.235 1.186-3.863 2.935-7.542 5.11-10.938 4.45-6.958 10.592-12.752 17.457-17.289 15.638-10.334 34.565-13.57 52.836-16.234a9.554 9.554 0 0 0-.245-.855c-1.144.163-2.278.333-3.412.504-19.188 2.918-39.169 7.089-54.683 19.5-6.34 5.065-11.809 11.355-15.384 18.681a42.474 42.474 0 0 0-3.751 11.554c-.801 4.706-.831 9.492-1.018 14.248-.185 4.765-.511 9.604-1.992 14.172-1.224 3.788-3.25 7.224-5.638 10.393-4.727 6.304-10.708 11.565-15.261 18.012-2.201 3.105-4.038 6.495-5.065 10.172-1.314 4.676-1.394 9.541-1.717 14.344-.333 4.965-1.18 9.723-3.072 14.351-1.859 4.553-4.39 8.787-6.998 12.925-2.648 4.209-5.457 8.432-7.798 12.86z"/><path fill="#D95265" d="m1123.235 714.624-1.242 15.854-8.268 105.324h-72.814l-9.131-105.324-1.368-15.854z"/><path fill="#D95265" d="M1121.418 714.629h-89.186c-5.985 0-10.836-3.935-10.836-8.789 0-4.854 4.851-8.789 10.836-8.789h89.186c5.985 0 10.837 3.935 10.837 8.789 0 4.853-4.852 8.789-10.837 8.789z"/><path fill="#E6E7E8" d="m1030.412 714.624 1.86 21.525c42.452-5.502 73.813 47.447 81.453 99.653 1.87-21.963 9.51-121.178 9.51-121.178h-92.823z"/><path fill="#52A1FA" d="M364.468 829.805h-101.58s-.482-1.927-1.071-5.12c-.678-3.55-1.48-8.67-1.891-14.45-.517-7.1-.446-15.217 1.177-22.621 1.213-5.637 3.354-10.864 6.815-14.932 9.99-11.703 23.744-24.494 31.826-36.322 4.103-5.958 6.743-11.667 6.743-16.876 0-.41 0-.821-.036-1.231-.464-5.958-4.157-12.523-9.384-19.356-5.905-7.725-13.736-15.771-21.015-23.584-2.854-3.068-5.62-6.083-8.135-9.045-1.891-2.212-3.39-4.781-4.549-7.582-1.16-2.747-1.98-5.709-2.569-8.777a67.794 67.794 0 0 1-1.034-8.76c-.892-16.109 3.122-32.004 3.122-32.004h101.58s1.891 7.51 2.801 17.429c.589 6.583.749 14.218-.375 21.461-1.07 6.886-3.318 13.398-7.44 18.232-13.165 15.449-32.914 32.789-37.57 47.275-.517 1.606-.839 3.176-.963 4.71-.036.41-.036.821-.036 1.231 0 1.802.321 3.675.91 5.584 2.141 7.047 7.903 14.754 14.789 22.603a310.481 310.481 0 0 0 5.334 5.923c3.246 3.514 6.582 7.011 9.794 10.472 2.712 2.926 5.334 5.798 7.742 8.617 1.909 2.248 3.426 4.835 4.585 7.671 2.444 5.869 3.443 12.738 3.657 19.445.465 15.414-3.227 30.007-3.227 30.007z"/><path fill="#438FE6" d="M367.696 799.799c-.213-6.708-1.213-13.576-3.657-19.445-1.159-2.836-2.675-5.423-4.585-7.671-2.408-2.819-5.03-5.691-7.741-8.617-3.211-3.461-6.548-6.958-9.794-10.472-1.82-1.98-3.622-3.96-5.335-5.923-6.886-7.849-12.648-15.556-14.79-22.603-.588-1.909-.909-3.782-.909-5.584 0-.41 0-.821.036-1.231.124-1.534.446-3.104.963-4.71 4.656-14.486 24.405-31.826 37.569-47.275 4.122-4.835 6.37-11.346 7.44-18.232 1.124-7.243.963-14.878.374-21.461-.909-9.919-2.801-17.429-2.801-17.429H262.888s-.307 1.218-.732 3.313h78.129c9.771 0 17.989 7.405 18.906 17.133l.028.297c.588 6.583.748 14.218-.376 21.461-1.07 6.886-3.318 13.398-7.439 18.232-13.166 15.449-32.915 32.789-37.571 47.275-.517 1.606-.839 3.175-.963 4.71-.035.41-.035.821-.035 1.231 0 1.802.32 3.675.909 5.584 2.14 7.047 7.903 14.754 14.79 22.603a310.481 310.481 0 0 0 5.334 5.923c3.247 3.515 6.582 7.011 9.794 10.472 2.711 2.926 5.335 5.798 7.743 8.617 1.909 2.248 3.425 4.835 4.585 7.671 2.444 5.869 3.443 12.738 3.656 19.445.331 10.971-1.444 21.52-2.496 26.693h7.318c-.001-.001 3.692-14.594 3.228-30.007z"/><path fill="#BFDDFF" d="M346.574 797.139c-22.577-3.176-28.063-16.688-28.694-29.192 0 0-1.281-42.772-.842-57.022.373-12.11 21.255-27.386 32.852-40.878 1.47-1.712 2.639-3.687 3.557-5.833 1.402-3.276-1.861-6.627-5.233-5.415-10.57 3.799-29.912 8.737-43.016.231-11.098-7.2-21.028-8.955-27.318-9.181-3.927-.141-6.931 3.398-6.205 7.232.928 4.901 2.668 9.481 5.663 12.967 11.597 13.492 33.29 28.848 34.215 40.928 0 0 1.755 42.768.673 56.972-.75 9.841-3.162 19.12-30.979 24.758-13.389 2.715-15.606 7.781-16.137 14.933a110.371 110.371 0 0 0 1.776 12.907c.47 2.367 2.559 4.071 4.989 4.071h83.647c2.426 0 4.517-1.698 4.987-4.06.546-2.747 1.605-6.67 1.635-11.197.052-8.137-6.957-11.009-15.57-12.221z"/><path fill="#A7A9AC" d="M265.689 625.948c-1.54 6.031-1.033 11.369 1.133 11.922 2.166.553 5.17-3.888 6.71-9.919 1.54-6.031 1.033-11.369-1.133-11.922-2.166-.554-5.17 3.888-6.71 9.919zM279.816 764.338c-4.077 4.704-6.013 9.704-4.324 11.168 1.689 1.464 6.364-1.162 10.441-5.866 4.077-4.704 6.013-9.703 4.324-11.168-1.689-1.464-6.363 1.162-10.441 5.866zM268.184 778.966c-.969 1.118-1.278 2.437-.691 2.946.587.509 1.849.016 2.818-1.103.969-1.118 1.278-2.437.691-2.946-.587-.508-1.848-.015-2.818 1.103z"/><path fill="#2C3773" d="M366.701 835.802H259.259a2.762 2.762 0 0 1-2.762-2.761v-1.621a2.762 2.762 0 0 1 2.762-2.762h107.442a2.762 2.762 0 0 1 2.762 2.762v1.621a2.762 2.762 0 0 1-2.762 2.761zM366.701 610.293H259.259a2.762 2.762 0 0 1-2.762-2.762v-1.621a2.762 2.762 0 0 1 2.762-2.762h107.442a2.762 2.762 0 0 1 2.762 2.762v1.621a2.763 2.763 0 0 1-2.762 2.762z"/></svg>