<svg width="332" height="116" viewBox="0 0 332 116" fill="none" xmlns="http://www.w3.org/2000/svg">
<rect width="332" height="116" fill="#1E1E1E"/>
<rect width="1440" height="3674" transform="translate(-537 -2677)" fill="white"/>
<ellipse cx="133" cy="114" rx="150" ry="100" fill="#F3F728"/>
<circle cx="22" cy="-6" r="100" fill="#FF0000"/>
<circle cx="273" cy="-6" r="100" fill="#00FF94"/>
<path d="M372.5 133C372.5 188.228 327.728 233 272.5 233C217.272 233 172.5 188.228 172.5 133C172.5 77.7715 217.272 33 272.5 33C327.728 33 372.5 77.7715 372.5 133Z" fill="#C463FF"/>
<circle cx="165" cy="28" r="50" fill="#571CFF"/>
<path d="M66.179 56.852C66.5977 56.852 67.0163 56.9043 67.435 57.009L67.906 57.48C68.0107 60.62 68.1677 63.9693 68.377 67.528C68.5863 70.982 68.691 74.4883 68.691 78.047C68.691 81.3963 68.534 84.8503 68.22 88.409C67.906 91.9677 67.278 95.317 66.336 98.457C65.394 101.597 64.0333 104.371 62.254 106.778C60.5793 109.185 58.2767 110.965 55.346 112.116C50.636 114 45.612 114.942 40.274 114.942C35.0407 115.047 29.755 115.204 24.417 115.413C22.6377 115.308 20.806 114.837 18.922 114C17.038 113.267 15.2063 112.325 13.427 111.174C11.7523 110.023 10.1823 108.767 8.717 107.406C7.35633 105.941 6.25733 104.475 5.42 103.01C4.89667 102.068 4.42567 100.969 4.007 99.713C3.58833 98.3523 3.222 96.9393 2.908 95.474C2.69867 93.904 2.48933 92.334 2.28 90.764C2.07067 89.194 1.91367 87.781 1.809 86.525C1.28567 80.7683 0.971667 76.006 0.867 72.238C0.762334 68.47 0.71 65.5917 0.71 63.603C0.71 57.2183 0.814667 50.886 1.024 44.606C1.23333 38.2213 1.338 31.889 1.338 25.609C1.652 24.8763 1.75667 24.196 1.652 23.568C1.54733 22.8353 1.75667 22.1027 2.28 21.37C2.17533 21.2653 2.123 21.0037 2.123 20.585C2.33233 19.8523 2.594 19.015 2.908 18.073C3.32667 17.131 4.53033 15.404 6.519 12.892C7.56567 11.5313 8.874 10.2753 10.444 9.12399C12.014 7.868 13.6363 6.82133 15.311 5.984C17.0903 5.14666 18.8173 4.46633 20.492 3.94299C22.1667 3.41966 23.6843 3.158 25.045 3.158C30.383 3.158 35.6687 3.47199 40.902 4.09999C46.1353 4.728 51.264 5.72233 56.288 7.08299C58.8 8.23433 60.7363 9.69966 62.097 11.479C63.5623 13.1537 64.6613 15.0377 65.394 17.131C66.1267 19.2243 66.5977 21.4747 66.807 23.882C67.0163 26.2893 67.121 28.6967 67.121 31.104V38.797C66.493 39.425 65.2893 39.739 63.51 39.739H60.213C58.957 39.739 58.0673 39.7913 57.544 39.896C57.0207 39.896 56.3927 39.896 55.66 39.896C54.1947 39.896 52.7293 39.8437 51.264 39.739C49.7987 39.6343 48.3333 39.4773 46.868 39.268C46.24 38.4307 45.8737 37.4887 45.769 36.442C45.769 35.2907 45.5597 34.2963 45.141 33.459C44.827 31.575 43.8327 29.9527 42.158 28.592C40.4833 27.1267 38.6517 26.394 36.663 26.394C34.5697 26.394 32.6857 26.8127 31.011 27.65C29.3363 28.3827 27.7663 30.162 26.301 32.988C24.8357 35.814 24.103 37.9597 24.103 39.425C24.103 41.8323 24.3123 44.2397 24.731 46.647C25.2543 49.0543 25.516 51.4617 25.516 53.869C25.202 53.869 25.045 54.0783 25.045 54.497C25.1497 55.3343 25.202 56.1193 25.202 56.852C25.3067 57.48 25.359 58.2127 25.359 59.05C25.359 61.7713 25.1497 64.545 24.731 67.371C24.3123 70.197 24.103 72.9183 24.103 75.535C24.103 77.0003 24.26 78.6227 24.574 80.402C24.9927 82.0767 25.6207 83.6467 26.458 85.112C27.2953 86.4727 28.4467 87.624 29.912 88.566C31.482 89.508 33.4183 89.979 35.721 89.979C38.3377 89.979 40.3787 89.7173 41.844 89.194C43.3093 88.566 44.356 87.781 44.984 86.839C45.612 85.897 45.9783 84.9027 46.083 83.856C46.1877 82.7047 46.24 81.6057 46.24 80.559C46.24 79.303 46.1353 78.4657 45.926 78.047C45.7167 77.5237 45.141 77.1573 44.199 76.948H34.308L33.523 76.006C33.7323 73.5987 33.8893 71.5577 33.994 69.883C34.2033 68.2083 34.308 66.4813 34.308 64.702C34.308 63.6553 34.2557 62.6087 34.151 61.562C34.151 60.4107 34.0987 59.1023 33.994 57.637C36.6107 57.323 41.0067 57.166 47.182 57.166C47.81 57.166 48.3857 57.166 48.909 57.166C49.537 57.166 50.1127 57.2707 50.636 57.48C52.6247 57.2707 54.561 57.1137 56.445 57.009C58.4337 56.9043 61.2597 56.852 64.923 56.852C65.3417 56.852 65.7603 56.852 66.179 56.852ZM65.08 92.177C65.1847 90.921 65.2893 90.136 65.394 89.822C66.2313 88.6707 66.7023 87.31 66.807 85.74C67.0163 84.17 67.121 82.5477 67.121 80.873C66.9117 81.0823 66.807 81.2393 66.807 81.344C66.9117 79.8787 66.964 78.361 66.964 76.791C67.0687 75.221 67.121 73.651 67.121 72.081C67.121 71.2437 67.0687 70.1447 66.964 68.784C66.964 67.3187 66.8593 65.9057 66.65 64.545C66.5453 63.0797 66.336 61.876 66.022 60.934C65.8127 59.8873 65.551 59.364 65.237 59.364C64.5043 59.4687 64.138 59.5733 64.138 59.678L60.527 59.835C59.0617 59.9397 57.4917 60.0443 55.817 60.149C54.247 60.2537 52.7293 60.3583 51.264 60.463C50.2173 60.463 49.5893 60.4107 49.38 60.306L49.537 59.835C48.6997 59.6257 47.182 59.4687 44.984 59.364C42.8907 59.2593 40.1693 59.1547 36.82 59.05V66.743C36.82 67.8943 36.7677 68.941 36.663 69.883C36.663 70.825 36.5583 72.238 36.349 74.122H40.117C41.373 74.122 42.5767 74.122 43.728 74.122C44.984 74.0173 46.0307 73.965 46.868 73.965C48.438 73.965 49.223 74.1743 49.223 74.593C49.223 74.907 48.9613 75.221 48.438 75.535V78.989C48.438 80.7683 48.3857 82.7047 48.281 84.798C48.1763 86.8913 47.81 88.3043 47.182 89.037C46.3447 89.979 45.298 90.7117 44.042 91.235C42.786 91.7583 41.4253 92.177 39.96 92.491C38.5993 92.805 37.2387 93.0667 35.878 93.276C34.5173 93.4853 33.366 93.747 32.424 94.061L32.581 93.119C29.8597 92.491 27.714 91.3397 26.144 89.665C24.574 87.8857 23.3703 85.8447 22.533 83.542C21.6957 81.2393 21.1723 78.832 20.963 76.32C20.7537 73.7033 20.649 71.2437 20.649 68.941C20.649 65.487 20.7537 61.9807 20.963 58.422C21.277 54.8633 21.434 51.2523 21.434 47.589C21.434 45.391 21.3293 43.193 21.12 40.995C21.0153 38.6923 20.7013 36.3373 20.178 33.93C20.492 33.0927 21.12 32.36 22.062 31.732C23.004 31.104 23.475 30.319 23.475 29.377C23.161 29.5863 22.6377 29.848 21.905 30.162C21.1723 30.476 20.649 30.7377 20.335 30.947C20.335 30.633 20.7537 30.2143 21.591 29.691C22.533 29.063 23.632 28.435 24.888 27.807C26.144 27.179 27.3477 26.6557 28.499 26.237C29.755 25.8183 30.697 25.609 31.325 25.609H32.11C32.8427 25.1903 33.523 24.9287 34.151 24.824C34.8837 24.7193 35.6687 24.667 36.506 24.667C37.448 24.667 38.3377 24.7193 39.175 24.824C40.117 24.9287 41.0067 24.981 41.844 24.981C40.6927 24.1437 39.4367 23.6203 38.076 23.411C36.7153 23.2017 35.3023 22.9923 33.837 22.783C32.4763 22.8877 31.2203 23.2017 30.069 23.725C28.9177 24.2483 27.7663 24.667 26.615 24.981C27.6617 23.8297 28.813 23.0447 30.069 22.626C31.325 22.2073 32.6857 21.998 34.151 21.998C35.9303 21.998 37.6573 22.312 39.332 22.94C41.1113 23.568 42.6813 24.4577 44.042 25.609C45.4027 26.7603 46.5017 28.121 47.339 29.691C48.1763 31.261 48.595 32.988 48.595 34.872C49.223 34.872 49.537 35.0813 49.537 35.5C49.537 35.9187 50.008 36.128 50.95 36.128C51.7873 36.128 52.991 36.0757 54.561 35.971C56.131 35.8663 58.1197 35.7093 60.527 35.5L60.998 36.128C61.1027 36.128 61.155 36.1803 61.155 36.285C61.2597 36.285 61.4167 36.285 61.626 36.285C62.254 36.285 63.51 36.128 65.394 35.814C65.2893 34.3487 65.1847 32.517 65.08 30.319C65.08 28.0163 64.8707 25.7137 64.452 23.411C64.138 21.0037 63.4577 18.701 62.411 16.503C61.469 14.305 60.0037 12.4733 58.015 11.008C56.131 9.64733 54.0377 8.60066 51.735 7.86799C49.4323 7.03066 47.025 6.40266 44.513 5.984C42.001 5.46066 39.4367 5.14666 36.82 5.042C34.2033 4.83266 31.7437 4.72799 29.441 4.72799C24.9403 4.72799 20.8583 5.356 17.195 6.612C13.5317 7.76333 10.1823 10.0137 7.147 13.363C5.577 15.875 4.53033 18.5963 4.007 21.527C3.48367 24.4577 3.222 27.493 3.222 30.633C3.222 33.6683 3.32667 36.756 3.536 39.896C3.85 42.9313 4.007 45.862 4.007 48.688H3.536C3.32667 50.7813 3.16967 52.927 3.065 55.125C2.96033 57.2183 2.908 59.3117 2.908 61.405C2.908 62.4517 2.908 63.4983 2.908 64.545C3.01267 65.487 3.065 66.4813 3.065 67.528H3.379L4.007 76.006L3.693 75.849C4.21633 78.1517 4.478 80.088 4.478 81.658C4.478 82.6 4.42567 83.1233 4.321 83.228C4.21633 83.0187 4.11167 82.8093 4.007 82.6C3.90233 82.286 3.85 82.0243 3.85 81.815V81.658C3.536 82.914 3.379 84.2747 3.379 85.74C3.379 86.8913 3.43133 88.0427 3.536 89.194C3.74533 90.3453 4.11167 91.3397 4.635 92.177V91.706C4.635 91.4967 4.73967 91.2873 4.949 91.078C5.15833 92.2293 5.47233 93.6947 5.891 95.474C6.30967 97.2533 6.62367 98.7187 6.833 99.87L5.891 98.3C6.205 99.4513 6.57133 100.498 6.99 101.44C7.40867 102.382 8.03667 103.219 8.874 103.952C8.45533 103.533 8.246 103.115 8.246 102.696C8.246 102.487 8.29833 102.33 8.403 102.225C9.55433 104.109 10.8627 105.679 12.328 106.935C13.7933 108.086 15.2063 109.081 16.567 109.918C17.9277 110.651 19.1313 111.174 20.178 111.488C21.2247 111.802 21.9573 111.959 22.376 111.959C23.5273 111.959 24.4693 111.959 25.202 111.959C26.0393 111.854 26.8243 111.645 27.557 111.331L27.086 110.86C27.1907 110.755 27.3477 110.703 27.557 110.703C28.6037 110.703 29.7027 110.808 30.854 111.017C32.11 111.122 33.3137 111.174 34.465 111.174C37.291 111.174 40.0647 111.069 42.786 110.86C45.612 110.651 48.124 110.284 50.322 109.761C52.1013 109.761 53.6713 109.395 55.032 108.662C56.3927 107.825 57.8057 107.04 59.271 106.307L59.428 106.464L61.626 103.638C62.4633 102.801 63.0913 101.702 63.51 100.341C64.0333 98.8757 64.3997 97.4627 64.609 96.102C64.8183 94.6367 64.9753 93.3283 65.08 92.177ZM134.256 100.184C134.779 103.324 135.564 106.098 136.611 108.505C136.82 109.447 137.082 110.337 137.396 111.174C137.71 112.011 138.024 112.901 138.338 113.843C138.128 114.471 137.919 114.785 137.71 114.785C137.291 114.785 136.454 114.733 135.198 114.628C133.942 114.523 131.377 114.366 127.505 114.157C125.202 114.052 123.213 114 121.539 114C119.864 114 118.503 113.843 117.457 113.529C116.829 111.854 116.148 109.97 115.416 107.877C114.788 105.784 114.107 103.69 113.375 101.597C112.747 99.399 112.066 97.3057 111.334 95.317C110.706 93.2237 110.078 91.392 109.45 89.822L108.822 89.194C107.566 89.2987 106.257 89.351 104.897 89.351C103.641 89.2463 102.437 89.4557 101.286 89.979C102.332 90.293 103.327 90.5023 104.269 90.607C105.315 90.607 106.362 90.7117 107.409 90.921C106.99 91.0257 106.571 91.078 106.153 91.078C105.943 91.078 105.839 91.1303 105.839 91.235C105.211 91.235 104.53 91.1827 103.798 91.078C103.17 90.8687 102.542 90.764 101.914 90.764C100.448 90.764 99.5063 91.235 99.0877 92.177C98.7737 93.6423 98.4073 95.317 97.9887 97.201C97.57 99.085 97.099 101.021 96.5757 103.01C96.157 104.894 95.7383 106.778 95.3197 108.662C94.901 110.546 94.5347 112.168 94.2207 113.529C93.6973 114.052 93.017 114.314 92.1797 114.314C91.6563 114.314 91.0807 114.209 90.4527 114C89.8247 113.895 89.249 113.843 88.7257 113.843C88.0977 113.843 87.7313 113.895 87.6267 114L87.3127 113.686C84.696 113.791 82.027 113.843 79.3057 113.843C76.5843 113.738 73.9677 113.843 71.4557 114.157C71.351 113.948 71.194 113.843 70.9847 113.843C70.7753 113.843 70.6707 113.738 70.6707 113.529C70.6707 113.32 70.6707 113.267 70.6707 113.372C70.7753 113.477 70.9323 113.215 71.1417 112.587L71.7697 111.645C71.4557 111.331 71.2987 111.069 71.2987 110.86C71.2987 110.546 71.4557 110.232 71.7697 109.918C72.0837 109.604 72.293 109.238 72.3977 108.819C73.235 103.795 74.177 98.4047 75.2237 92.648C76.375 86.8913 77.317 81.501 78.0497 76.477C77.7357 76.477 77.317 77.6283 76.7937 79.931C76.2703 82.129 75.6947 84.798 75.0667 87.938C74.4387 91.078 73.7583 94.375 73.0257 97.829C72.3977 101.178 71.7697 104.004 71.1417 106.307C72.921 97.0963 74.648 87.5193 76.3227 77.576C77.9973 67.528 79.986 57.8987 82.2887 48.688C82.2887 49.4207 82.2363 49.944 82.1317 50.258V52.142C83.597 46.176 85.01 40.3147 86.3707 34.558C87.836 28.8013 89.1443 22.94 90.2957 16.974C90.0863 17.1833 89.9293 17.4973 89.8247 17.916C89.72 18.23 89.563 18.544 89.3537 18.858C89.4583 17.7067 89.7723 16.3983 90.2957 14.933C90.819 13.363 91.447 11.8453 92.1797 10.38C92.9123 8.91466 93.6973 7.55399 94.5347 6.29799C95.4767 5.042 96.4187 4.1 97.3607 3.47199H100.03C104.321 3.47199 107.356 3.36733 109.136 3.158C111.02 2.94866 112.59 2.844 113.846 2.844C115.102 7.868 116.305 12.7873 117.457 17.602C118.608 22.312 119.602 27.179 120.44 32.203C120.44 33.2497 120.754 34.1393 121.382 34.872C122.01 35.5 122.324 36.2327 122.324 37.07C122.219 37.1747 122.167 37.2793 122.167 37.384C122.167 37.4887 122.114 37.5933 122.01 37.698C122.01 37.8027 122.01 37.9597 122.01 38.169C122.952 41.4137 123.684 44.763 124.208 48.217C124.731 51.5663 125.568 54.811 126.72 57.951C127.243 61.091 127.871 64.3357 128.604 67.685C129.441 70.9297 130.017 74.122 130.331 77.262C131.168 78.9367 131.587 80.8207 131.587 82.914C131.587 84.9027 131.901 86.7867 132.529 88.566C133.052 88.7753 133.314 89.0893 133.314 89.508C133.314 89.9267 133.366 90.3453 133.471 90.764C133.052 90.764 132.843 90.9733 132.843 91.392C133.366 94.0087 133.837 96.9393 134.256 100.184ZM129.546 111.017C130.802 111.017 132.162 110.965 133.628 110.86H134.884L134.099 106.15C133.575 102.905 132.843 99.713 131.901 96.573C131.063 93.433 130.174 90.5023 129.232 87.781C128.394 85.0597 127.662 82.6523 127.034 80.559C126.406 78.4657 126.092 76.8433 126.092 75.692V75.221C126.092 74.4883 125.987 73.651 125.778 72.709C125.568 71.767 125.254 70.511 124.836 68.941C124.417 67.2663 123.841 65.2253 123.109 62.818C122.376 60.306 121.539 57.0613 120.597 53.084C120.492 52.8747 120.44 52.7177 120.44 52.613C120.44 52.4037 120.387 52.1943 120.283 51.985C120.492 51.985 121.905 55.8053 124.522 63.446C124.731 63.76 124.94 64.1263 125.15 64.545C125.464 64.859 125.621 65.2253 125.621 65.644V66.115H125.307C125.516 66.6383 125.621 67.1093 125.621 67.528C125.725 67.9467 125.882 68.3653 126.092 68.784C126.196 68.784 126.353 68.6793 126.563 68.47C126.353 68.2607 126.249 68.1037 126.249 67.999C126.249 67.7897 126.353 67.6327 126.563 67.528C126.772 67.4233 126.877 67.2663 126.877 67.057C126.039 64.0217 125.359 60.8293 124.836 57.48C124.312 54.026 123.58 50.886 122.638 48.06V47.118C122.638 44.7107 122.062 42.3557 120.911 40.053C119.864 37.6457 119.236 35.343 119.027 33.145V33.773C119.027 33.8777 119.131 34.3487 119.341 35.186C119.027 35.814 118.87 36.3373 118.87 36.756C118.87 37.5933 119.027 38.3783 119.341 39.111C119.655 39.8437 119.812 40.5763 119.812 41.309C119.812 41.623 119.707 41.78 119.498 41.78L119.341 41.309C119.341 41.0997 119.288 40.995 119.184 40.995L118.87 42.094C118.66 38.7447 117.98 34.6627 116.829 29.848C115.677 24.9287 114.578 19.643 113.532 13.991L113.689 14.148L112.904 8.33899C112.904 7.18766 112.433 6.612 111.491 6.612C111.177 6.612 110.81 6.66433 110.392 6.769C110.078 6.769 109.711 6.769 109.293 6.769C108.769 6.769 108.403 6.66433 108.194 6.45499C108.508 6.14099 108.665 5.93166 108.665 5.827C108.037 5.827 106.728 5.827 104.74 5.827C102.856 5.827 100.239 5.87933 96.8897 5.984C96.5757 8.496 96.157 10.7463 95.6337 12.735C95.1103 14.619 94.4823 16.66 93.7497 18.858C93.017 21.056 92.4413 23.254 92.0227 25.452C91.604 27.65 91.1853 29.848 90.7667 32.046C90.348 34.244 89.877 36.3897 89.3537 38.483C88.8303 40.5763 88.0977 42.6173 87.1557 44.606H87.6267C87.4173 46.0713 87.208 47.6413 86.9987 49.316C86.7893 50.886 86.266 52.2467 85.4287 53.398C85.638 54.4447 85.7427 55.0727 85.7427 55.282C85.7427 55.596 85.5857 56.3287 85.2717 57.48C84.9577 58.5267 84.5913 59.7303 84.1727 61.091C83.8587 62.4517 83.4923 63.76 83.0737 65.016C82.7597 66.1673 82.5503 67.0047 82.4457 67.528C82.1317 68.9933 81.8177 70.5633 81.5037 72.238C81.1897 73.808 80.771 75.1163 80.2477 76.163C80.2477 76.3723 80.2477 76.5817 80.2477 76.791C80.3523 77.0003 80.4047 77.1573 80.4047 77.262C80.4047 77.4713 80.457 77.576 80.5617 77.576C80.5617 78.4133 80.4047 79.2507 80.0907 80.088C79.7767 80.8207 79.6197 81.5533 79.6197 82.286V82.757C80.0383 82.2337 80.2477 81.7103 80.2477 81.187C80.2477 80.559 80.5617 80.1403 81.1897 79.931C81.085 82.5477 80.7187 85.2167 80.0907 87.938C79.5673 90.6593 78.9393 93.433 78.2067 96.259C77.474 98.9803 76.7413 101.702 76.0087 104.423C75.276 107.04 74.648 109.604 74.1247 112.116L74.7527 112.43C77.788 111.907 80.7187 111.436 83.5447 111.017C86.4753 110.494 89.3537 109.918 92.1797 109.29C92.9123 108.139 93.5403 106.673 94.0637 104.894C94.587 103.115 95.058 101.283 95.4767 99.399C95.8953 97.515 96.2617 95.6833 96.5757 93.904C96.9943 92.02 97.4653 90.45 97.9887 89.194L97.2037 87.938C98.983 86.8913 101.129 86.4203 103.641 86.525C106.153 86.6297 108.508 86.5773 110.706 86.368C110.915 86.5773 111.229 86.839 111.648 87.153C112.171 87.3623 112.433 87.7287 112.433 88.252L112.119 88.88C112.747 90.3453 113.322 92.02 113.846 93.904C114.369 95.788 114.892 97.7243 115.416 99.713C115.939 101.702 116.515 103.586 117.143 105.365C117.771 107.144 118.503 108.662 119.341 109.918H118.713V111.174C118.922 111.069 119.131 111.017 119.341 111.017C119.655 110.912 119.916 110.755 120.126 110.546C120.544 110.86 122.585 111.017 126.249 111.017C127.295 111.017 128.394 111.017 129.546 111.017ZM104.426 36.285C104.949 36.285 105.368 37.1223 105.682 38.797C107.356 45.8097 108.455 51.7757 108.979 56.695C109.502 61.6143 110.235 65.644 111.177 68.784L110.706 69.098C110.392 69.098 110.078 69.1503 109.764 69.255C109.45 69.255 109.136 69.255 108.822 69.255C107.67 69.255 106.362 69.2027 104.897 69.098C103.431 68.9933 102.123 68.941 100.972 68.941H98.9307C98.512 68.941 98.3027 68.5747 98.3027 67.842C98.3027 67.3187 98.355 67.0047 98.4597 66.9C98.669 66.6907 98.7737 66.4813 98.7737 66.272V65.644C98.7737 65.33 98.826 65.1207 98.9307 65.016L99.0877 65.173C99.297 64.3357 99.454 62.4517 99.5587 59.521C99.768 56.5903 100.448 52.77 101.6 48.06C102.228 45.4433 102.542 43.5593 102.542 42.408V41.623C102.542 41.0997 102.908 40.4717 103.641 39.739C103.536 39.6343 103.484 39.3203 103.484 38.797C103.484 38.3783 103.536 37.855 103.641 37.227C103.85 36.599 104.112 36.285 104.426 36.285ZM107.095 48.217C106.676 45.705 105.996 43.664 105.054 42.094V41.309C105.054 40.7857 104.897 40.4193 104.583 40.21C104.373 40.7333 104.059 41.2567 103.641 41.78C103.327 42.3033 103.17 42.9837 103.17 43.821V45.077C103.17 45.705 103.013 47.0657 102.699 49.159C102.489 51.1477 102.175 53.2933 101.757 55.596C101.443 57.8987 101.129 60.0967 100.815 62.19C100.501 64.1787 100.291 65.487 100.187 66.115L99.8727 65.801L99.5587 66.429L99.8727 66.272L100.501 67.999H109.45L110.078 67.528C109.554 66.586 109.188 65.0683 108.979 62.975C108.769 60.777 108.508 58.422 108.194 55.91C107.984 53.2933 107.618 50.729 107.095 48.217ZM79.4627 65.016C78.9393 68.6793 78.259 72.3427 77.4217 76.006L78.2067 75.849C79.044 72.2903 79.7767 68.627 80.4047 64.859C81.0327 60.9863 81.6083 57.323 82.1317 53.869C80.9803 57.5323 80.0907 61.248 79.4627 65.016ZM70.9847 106.935C70.9847 107.144 70.9323 107.354 70.8277 107.563C70.9323 107.354 70.9847 107.144 70.9847 106.935C70.9847 106.726 71.037 106.516 71.1417 106.307C71.037 106.516 70.9847 106.726 70.9847 106.935ZM171.401 2.52999C171.506 1.902 171.663 1.32633 171.872 0.802998C172.186 1.22167 172.395 1.79733 172.5 2.52999C172.605 3.15799 172.919 3.68132 173.442 4.09999H175.64C175.64 4.83266 175.274 5.25133 174.541 5.356C173.808 5.46066 173.442 5.87933 173.442 6.612V7.08299C173.023 9.38566 172.762 11.6883 172.657 13.991C172.552 16.2937 172.5 18.6487 172.5 21.056C172.5 23.882 172.552 26.8127 172.657 29.848C172.762 32.7787 172.814 35.7617 172.814 38.797C172.814 42.565 172.657 46.2283 172.343 49.787C172.448 50.6243 172.5 51.4617 172.5 52.299C172.5 53.1363 172.5 53.9737 172.5 54.811V59.678C172.5 64.702 172.343 68.941 172.029 72.395C171.82 75.7443 171.715 78.3087 171.715 80.088C171.924 85.426 172.134 90.7117 172.343 95.945C172.552 101.178 172.971 106.464 173.599 111.802L174.698 114C174.698 114.419 174.436 114.68 173.913 114.785C173.494 114.89 173.18 114.942 172.971 114.942C171.82 114.942 170.511 114.733 169.046 114.314C167.685 114 165.383 113.843 162.138 113.843H156.486C155.335 113.843 154.393 113.843 153.66 113.843C153.032 113.738 152.613 113.686 152.404 113.686H152.09L151.462 114C151.148 114.209 150.363 114.523 149.107 114.942C147.956 115.361 147.275 115.57 147.066 115.57C146.857 115.57 146.752 115.518 146.752 115.413V115.256C146.229 115.256 145.915 115.047 145.81 114.628C145.705 114.209 145.548 114 145.339 114L144.711 114.314C145.025 104.789 145.444 95.7357 145.967 87.153C146.49 78.4657 146.752 69.6737 146.752 60.777C146.752 57.637 146.7 54.5493 146.595 51.514C146.49 48.374 146.333 45.1293 146.124 41.78C146.229 39.582 146.281 37.384 146.281 35.186C146.281 32.988 146.647 30.8423 147.38 28.749L146.752 28.592L146.909 27.65C146.909 27.7547 146.961 27.8593 147.066 27.964C147.066 27.336 147.118 26.7603 147.223 26.237C147.432 25.609 147.537 24.6147 147.537 23.254C147.537 21.7887 147.485 20.585 147.38 19.643C147.38 18.701 147.38 17.9683 147.38 17.445C147.38 16.189 147.432 14.933 147.537 13.677C147.746 12.3163 147.851 11.008 147.851 9.75199C147.851 8.60066 147.694 7.44933 147.38 6.29799H146.909C146.909 5.56533 147.275 4.93733 148.008 4.414C148.845 3.89066 149.212 3.629 149.107 3.629H149.735H151.305C151.41 3.629 151.567 3.629 151.776 3.629C152.09 3.629 152.456 3.57666 152.875 3.47199L152.718 4.09999C154.079 4.51866 155.963 4.72799 158.37 4.72799C160.463 4.72799 162.504 4.62333 164.493 4.414C166.586 4.1 168.627 3.94299 170.616 3.94299C171.139 3.52433 171.401 3.05333 171.401 2.52999ZM169.046 20.585C169.151 20.585 169.255 20.6373 169.36 20.742V20.428C169.36 20.2187 169.255 20.0617 169.046 19.957C168.837 19.7477 168.732 19.5383 168.732 19.329L169.046 19.015L169.203 19.172V11.008C169.203 10.694 169.151 10.3277 169.046 9.90899C169.046 9.49033 168.994 9.01932 168.889 8.49599C166.796 8.07732 164.755 7.76333 162.766 7.55399C160.777 7.23999 158.736 7.08299 156.643 7.08299H153.817C152.875 7.08299 152.404 7.55399 152.404 8.49599C152.404 8.70533 152.404 9.01933 152.404 9.438C152.509 9.85666 152.613 10.3277 152.718 10.851L153.189 12.264C153.189 12.264 152.823 12.0023 152.09 11.479C152.09 11.793 152.09 12.1593 152.09 12.578C152.195 12.892 152.247 13.2583 152.247 13.677C152.247 14.4097 152.038 14.933 151.619 15.247L151.462 14.933C151.462 15.1423 151.41 15.404 151.305 15.718C151.305 16.032 151.305 16.2937 151.305 16.503C151.305 16.9217 151.567 17.3927 152.09 17.916C152.09 20.742 151.776 22.155 151.148 22.155C150.939 23.9343 150.729 26.4987 150.52 29.848C150.415 33.1973 150.311 36.756 150.206 40.524C150.206 44.292 150.154 48.0077 150.049 51.671C150.049 55.3343 150.049 58.3697 150.049 60.777C150.049 63.4983 150.101 66.2197 150.206 68.941C150.415 71.6623 150.625 74.2267 150.834 76.634C151.043 78.9367 151.2 80.9253 151.305 82.6C151.514 84.17 151.619 85.1643 151.619 85.583V85.74L151.462 85.426V86.682C151.567 87.7287 151.671 88.9323 151.776 90.293C151.881 91.549 151.933 92.8573 151.933 94.218C152.038 95.474 152.09 96.73 152.09 97.986C152.195 99.1373 152.247 100.132 152.247 100.969C152.247 101.911 152.142 102.853 151.933 103.795C151.828 104.737 151.776 105.679 151.776 106.621C151.776 108.086 151.985 109.185 152.404 109.918C157.114 109.813 160.463 109.761 162.452 109.761C164.441 109.761 165.435 109.342 165.435 108.505C165.958 109.133 166.325 109.447 166.534 109.447C166.743 109.342 167.005 109.447 167.319 109.761C167.528 108.61 167.633 107.458 167.633 106.307C167.738 105.156 167.79 104.004 167.79 102.853V97.044L167.319 97.201V96.416C167.424 96.416 167.476 95.8927 167.476 94.846V87.624C167.476 85.8447 167.476 83.9083 167.476 81.815C167.581 79.7217 167.738 77.3667 167.947 74.75C167.947 73.9127 167.79 72.4473 167.476 70.354C167.476 69.726 167.633 69.098 167.947 68.47C168.052 68.47 168.156 68.5223 168.261 68.627C168.47 67.999 168.575 67.6327 168.575 67.528C168.575 66.6907 168.366 65.5917 167.947 64.231H168.104C168.209 64.231 168.261 63.9693 168.261 63.446C168.261 62.9227 168.209 62.0853 168.104 60.934C167.999 59.7827 167.842 58.1603 167.633 56.067C167.633 55.125 167.685 54.6017 167.79 54.497C167.999 54.7063 168.104 54.8633 168.104 54.968L168.418 55.125C168.418 54.3923 168.47 53.241 168.575 51.671C168.68 49.9963 168.732 48.1647 168.732 46.176C168.837 44.0827 168.941 41.8847 169.046 39.582C169.151 37.2793 169.203 35.029 169.203 32.831V25.295C169.203 24.4577 169.203 23.6727 169.203 22.94C169.203 22.1027 169.151 21.3177 169.046 20.585ZM216.255 82.129L216.098 79.931L209.19 66.115C208.876 66.743 208.719 67.5803 208.719 68.627V70.354C208.719 70.7727 208.719 71.5577 208.719 72.709C208.824 73.7557 208.928 74.8547 209.033 76.006C209.138 77.1573 209.19 78.2563 209.19 79.303C209.295 80.245 209.347 80.873 209.347 81.187V90.136C209.347 91.078 209.295 91.706 209.19 92.02C209.295 92.1247 209.347 92.334 209.347 92.648C209.347 93.59 209.19 94.7937 208.876 96.259C208.562 97.7243 208.405 98.8757 208.405 99.713C208.405 101.074 208.562 103.324 208.876 106.464C208.562 107.72 208.405 108.557 208.405 108.976C208.405 109.604 208.457 110.075 208.562 110.389C208.771 110.598 208.876 111.017 208.876 111.645V112.901C208.876 112.901 208.771 113.424 208.562 114.471L208.091 113.529C207.463 114.157 206.887 114.471 206.364 114.471C206.05 114.471 205.788 114.366 205.579 114.157C205.474 113.948 205.317 113.843 205.108 113.843C204.375 113.843 203.329 114.052 201.968 114.471C198.933 114.052 196.578 113.895 194.903 114C193.228 114.209 191.815 114.105 190.664 113.686C190.141 113.791 189.617 113.843 189.094 113.843C188.571 113.738 188.047 113.791 187.524 114L185.64 114.785L184.541 114C184.541 114.105 184.384 114.157 184.07 114.157C183.861 114.157 183.756 114.052 183.756 113.843C184.07 112.901 184.227 111.593 184.227 109.918C184.227 108.453 184.122 106.987 183.913 105.522C183.808 103.952 183.756 102.539 183.756 101.283C183.756 100.446 183.808 99.6607 183.913 98.928C184.018 98.1953 184.07 97.4103 184.07 96.573C184.07 94.4797 183.861 92.962 183.442 92.02C183.442 92.2293 183.442 90.8687 183.442 87.938C183.547 84.9027 183.599 81.0823 183.599 76.477C183.704 71.8717 183.756 66.8477 183.756 61.405C183.861 55.8577 183.913 50.729 183.913 46.019C184.018 41.2043 184.07 37.1747 184.07 33.93C184.175 30.5807 184.227 28.8013 184.227 28.592C184.122 28.3827 184.07 27.8593 184.07 27.022V25.452C184.07 22.94 184.175 20.428 184.384 17.916C184.593 15.2993 184.698 12.735 184.698 10.223V6.14099C184.698 4.67566 185.012 3.73366 185.64 3.31499C186.373 2.89633 187.262 2.68699 188.309 2.68699C188.937 2.68699 189.67 2.79166 190.507 3.001C191.344 3.10566 192.182 3.158 193.019 3.158C194.484 3.158 196.002 2.94866 197.572 2.52999C199.142 2.00666 200.764 1.74499 202.439 1.74499C203.381 1.74499 204.323 2.26833 205.265 3.31499C206.312 4.36166 207.254 5.56533 208.091 6.92599C208.928 8.28666 209.609 9.595 210.132 10.851C210.76 12.0023 211.126 12.7873 211.231 13.206C211.65 14.3573 212.382 15.6657 213.429 17.131C214.58 18.5963 215.627 20.0617 216.569 21.527C216.883 21.9457 217.197 22.7307 217.511 23.882C217.825 25.0333 218.191 26.237 218.61 27.493C219.029 28.749 219.395 29.9003 219.709 30.947C220.023 31.9937 220.337 32.674 220.651 32.988C220.965 34.1393 221.593 35.186 222.535 36.128C223.477 37.07 223.948 38.169 223.948 39.425L224.576 40.053C224.471 40.053 224.367 40.1053 224.262 40.21C225.099 41.0473 225.675 41.8847 225.989 42.722C226.408 43.4547 226.983 44.2397 227.716 45.077C228.03 44.9723 228.187 44.763 228.187 44.449C228.187 44.2397 228.135 44.0303 228.03 43.821C227.925 43.507 227.873 43.2453 227.873 43.036C227.873 42.722 227.925 42.5127 228.03 42.408L228.344 42.722C228.344 41.78 228.292 41.0473 228.187 40.524C228.187 40.0007 228.135 39.3727 228.03 38.64C228.03 37.8027 227.925 36.756 227.716 35.5C227.507 34.1393 227.245 32.203 226.931 29.691L227.245 30.162C227.245 30.2667 227.193 29.22 227.088 27.022C227.088 24.7193 227.036 22.2073 226.931 19.486C226.931 16.7647 226.879 14.305 226.774 12.107C226.774 9.909 226.774 8.86233 226.774 8.967C226.774 8.86233 226.669 8.39133 226.46 7.55399C226.879 7.03066 226.983 6.19333 226.774 5.042C226.669 3.89066 226.931 2.94866 227.559 2.216C228.082 2.32066 228.553 2.42533 228.972 2.52999C229.495 2.52999 230.019 2.52999 230.542 2.52999C231.798 2.52999 232.949 2.47766 233.996 2.373C235.147 2.26833 236.299 2.216 237.45 2.216C238.706 2.11133 240.067 2.00666 241.532 1.90199C243.102 1.79733 244.934 1.74499 247.027 1.74499C247.236 1.74499 247.446 1.79733 247.655 1.90199C247.864 1.90199 248.021 1.90199 248.126 1.90199L248.283 1.74499C248.911 1.74499 250.01 2.00666 251.58 2.52999L251.423 3.001C251.318 3.001 251.161 3.158 250.952 3.47199C250.743 3.68133 250.638 3.83833 250.638 3.94299C250.638 4.257 250.743 4.51866 250.952 4.72799C251.266 4.93733 251.423 5.14666 251.423 5.356C251.423 5.46066 251.371 5.56533 251.266 5.66999C251.475 7.76333 251.632 9.85666 251.737 11.95C251.842 14.0433 251.894 16.1367 251.894 18.23C251.894 22.94 251.737 27.5453 251.423 32.046C251.214 36.5467 251.109 41.152 251.109 45.862C251.109 51.828 251.161 57.6893 251.266 63.446C251.371 69.098 251.423 74.907 251.423 80.873C251.423 83.9083 251.371 86.8913 251.266 89.822C251.266 92.648 251.161 95.5787 250.952 98.614C251.161 101.649 251.266 104.528 251.266 107.249C251.371 109.97 251.528 111.645 251.737 112.273C251.737 112.273 251.685 112.325 251.58 112.43C251.58 112.43 251.423 112.482 251.109 112.587C250.9 112.692 250.481 112.901 249.853 113.215C249.225 113.424 248.283 113.738 247.027 114.157H244.986C243.625 114.157 242.317 114.105 241.061 114C239.805 114 238.497 114 237.136 114C236.194 114 235.252 114 234.31 114C233.368 114.105 232.478 114.209 231.641 114.314L230.856 115.099C230.856 114.89 230.751 114.733 230.542 114.628C230.437 114.523 230.333 114.366 230.228 114.157C228.553 112.482 227.297 111.122 226.46 110.075C225.727 109.028 225.047 107.772 224.419 106.307C223.896 104.737 223.268 102.696 222.535 100.184C221.907 97.672 220.913 94.218 219.552 89.822L217.982 85.426C217.982 85.5307 217.93 85.583 217.825 85.583C217.406 85.583 216.883 84.4317 216.255 82.129ZM248.283 111.331H249.068L248.911 107.877H249.225C249.12 107.563 249.068 106.778 249.068 105.522V103.167C249.068 100.76 249.12 98.3523 249.225 95.945C249.33 93.5377 249.382 91.1303 249.382 88.723C249.382 87.781 249.382 85.74 249.382 82.6C249.382 79.46 249.33 75.7443 249.225 71.453C249.225 67.057 249.225 62.3993 249.225 57.48C249.225 52.456 249.173 47.6937 249.068 43.193C249.068 38.6923 249.068 34.6627 249.068 31.104C249.068 27.5453 249.068 25.0333 249.068 23.568C249.068 21.37 249.016 19.172 248.911 16.974C248.911 14.6713 248.859 12.421 248.754 10.223L247.969 8.81L248.754 8.49599V7.86799C248.754 6.92599 248.545 6.03633 248.126 5.199C247.917 5.199 247.655 5.25133 247.341 5.356C247.027 5.356 246.608 5.40833 246.085 5.51299C245.457 5.40833 244.829 5.356 244.201 5.356C243.573 5.25133 242.945 5.199 242.317 5.199H238.863C237.398 5.199 235.932 5.25133 234.467 5.356C233.002 5.356 231.536 5.356 230.071 5.356C229.757 9.01933 229.548 12.735 229.443 16.503C229.338 20.271 229.286 24.039 229.286 27.807C229.286 30.8423 229.286 33.8777 229.286 36.913C229.391 39.8437 229.495 42.8267 229.6 45.862L228.658 47.118C228.449 47.118 228.03 46.804 227.402 46.176C226.774 45.548 226.146 44.8677 225.518 44.135C224.89 43.4023 224.262 42.722 223.634 42.094C223.111 41.466 222.797 41.152 222.692 41.152L220.965 38.169C219.814 35.4477 218.819 32.9357 217.982 30.633C217.145 28.2257 216.15 25.766 214.999 23.254C213.848 20.742 212.382 18.0207 210.603 15.09C208.824 12.1593 206.469 8.75766 203.538 4.88499C203.119 4.88499 202.701 4.88499 202.282 4.88499C201.968 4.78033 201.602 4.72799 201.183 4.72799C198.88 4.72799 196.682 4.98966 194.589 5.51299C192.496 6.03633 190.35 6.40266 188.152 6.612C187.629 23.4633 187.315 33.5113 187.21 36.756L186.739 37.384C186.739 38.2213 186.739 39.0587 186.739 39.896C186.844 40.6287 186.896 41.4137 186.896 42.251C186.896 45.2863 186.791 48.3217 186.582 51.357C186.477 54.3923 186.425 57.48 186.425 60.62C186.425 63.9693 186.425 66.7953 186.425 69.098C186.53 71.4007 186.687 72.7613 186.896 73.18C187.105 79.46 187.158 86.054 187.053 92.962C187.053 99.7653 187.315 106.045 187.838 111.802C188.989 112.011 190.245 112.168 191.606 112.273C193.071 112.378 194.589 112.43 196.159 112.43C199.299 112.43 202.282 112.116 205.108 111.488C205.108 111.174 205.003 110.912 204.794 110.703C204.689 110.494 204.637 110.284 204.637 110.075C204.742 109.761 204.899 109.604 205.108 109.604L205.893 105.051C206.312 102.644 206.521 100.236 206.521 97.829C206.521 95.4217 206.521 93.0143 206.521 90.607C206.521 86.9437 206.469 83.228 206.364 79.46C206.259 75.5873 206.207 71.139 206.207 66.115L205.893 65.644C205.998 65.016 206.05 64.3357 206.05 63.603C206.05 62.8703 206.102 62.19 206.207 61.562C206.416 60.8293 206.678 60.2537 206.992 59.835C207.306 59.3117 207.829 59.05 208.562 59.05C208.667 59.05 208.771 59.1023 208.876 59.207C208.981 59.207 209.085 59.207 209.19 59.207C209.399 60.8817 209.818 62.3993 210.446 63.76C211.179 65.016 211.911 66.272 212.644 67.528C213.481 68.784 214.266 70.0923 214.999 71.453C215.836 72.709 216.464 74.122 216.883 75.692C217.092 76.2153 217.354 76.634 217.668 76.948C217.982 77.1573 218.139 77.419 218.139 77.733C218.139 78.047 218.087 78.2563 217.982 78.361L218.767 80.402C219.29 80.716 219.447 81.1347 219.238 81.658C219.133 82.0767 219.343 82.3907 219.866 82.6C220.913 85.6353 221.855 88.252 222.692 90.45C223.529 92.648 224.367 94.7937 225.204 96.887C226.041 98.8757 226.931 101.021 227.873 103.324C228.815 105.522 229.862 108.139 231.013 111.174C232.478 111.174 233.891 111.279 235.252 111.488C236.613 111.593 238.026 111.645 239.491 111.645C240.956 111.645 242.317 111.488 243.573 111.174C243.887 111.488 244.41 111.645 245.143 111.645C245.666 111.645 246.19 111.593 246.713 111.488C247.236 111.383 247.76 111.331 248.283 111.331ZM219.081 88.723C219.29 89.1417 219.447 89.508 219.552 89.822L219.081 88.723ZM311.09 6.14099C314.754 7.18766 317.946 9.01933 320.667 11.636C324.645 14.5667 327.523 18.0207 329.302 21.998C331.082 25.9753 331.971 30.2143 331.971 34.715C331.971 35.5523 331.919 36.3373 331.814 37.07C331.814 37.698 331.762 38.4307 331.657 39.268C328.936 40.0007 326.11 40.4193 323.179 40.524C320.353 40.524 317.423 40.524 314.387 40.524C312.817 40.524 311.3 40.4717 309.834 40.367C308.474 40.1577 307.375 39.739 306.537 39.111C306.956 38.6923 307.165 38.1167 307.165 37.384C307.165 34.6627 306.066 32.517 303.868 30.947C301.67 29.377 299.368 28.592 296.96 28.592C296.123 28.592 295.181 28.6443 294.134 28.749C293.088 28.8537 292.355 29.1153 291.936 29.534L292.564 29.848C290.366 30.162 288.849 31.0517 288.011 32.517C287.174 33.9823 286.755 35.6047 286.755 37.384C286.755 40.21 287.54 42.251 289.11 43.507C290.785 44.763 292.721 45.6527 294.919 46.176C297.117 46.6993 299.368 47.118 301.67 47.432C304.078 47.6413 306.014 48.1647 307.479 49.002C310.619 50.886 313.55 52.7177 316.271 54.497C319.097 56.1717 321.557 58.1603 323.65 60.463C325.744 62.7657 327.366 65.5917 328.517 68.941C329.773 72.2903 330.401 76.477 330.401 81.501C330.401 87.781 329.093 93.4853 326.476 98.614C323.964 103.743 320.039 107.563 314.701 110.075C315.225 109.342 315.905 108.767 316.742 108.348C317.58 107.825 318.26 107.144 318.783 106.307H317.056C316.428 106.726 315.8 107.144 315.172 107.563C314.544 107.877 313.969 108.139 313.445 108.348L310.148 109.761C308.055 110.703 305.909 111.959 303.711 113.529H303.083C302.455 113.529 301.723 113.634 300.885 113.843C300.153 113.948 299.472 114 298.844 114C298.321 114 298.007 113.948 297.902 113.843C297.588 113.948 296.96 114 296.018 114H294.291C290.733 114 287.488 113.791 284.557 113.372C281.627 112.849 278.434 112.168 274.98 111.331C273.62 110.912 272.416 110.232 271.369 109.29C270.427 108.348 269.538 107.301 268.7 106.15C267.968 104.999 267.183 103.847 266.345 102.696C265.613 101.44 264.828 100.341 263.99 99.399C262.316 96.6777 261.112 93.747 260.379 90.607C259.751 87.467 259.333 84.2223 259.123 80.873L260.065 80.088C262.368 80.2973 264.618 80.4543 266.816 80.559C269.119 80.6637 271.369 80.716 273.567 80.716C275.033 80.716 276.498 80.6637 277.963 80.559C279.533 80.4543 281.051 80.2973 282.516 80.088C283.249 80.2973 283.772 80.6637 284.086 81.187C284.4 81.7103 284.61 82.3383 284.714 83.071C284.924 83.699 285.081 84.327 285.185 84.955C285.395 85.583 285.761 86.1063 286.284 86.525C288.482 89.665 291.361 91.235 294.919 91.235C298.059 91.235 300.624 90.2407 302.612 88.252C304.601 86.1587 305.595 83.4373 305.595 80.088C305.595 79.146 305.281 78.204 304.653 77.262C303.293 74.8547 301.513 73.0753 299.315 71.924C297.222 70.668 294.972 69.726 292.564 69.098C290.157 68.47 287.645 67.9467 285.028 67.528C282.516 67.1093 280.161 66.4813 277.963 65.644C275.242 64.5973 272.835 63.1843 270.741 61.405C268.753 59.521 267.078 57.4277 265.717 55.125C264.357 52.7177 263.362 50.2057 262.734 47.589C262.106 44.8677 261.792 42.094 261.792 39.268C261.792 34.872 262.316 30.7377 263.362 26.865C264.514 22.8877 266.398 19.2243 269.014 15.875C272.678 12.3163 277.335 9.54266 282.987 7.55399C288.639 5.46066 294.239 4.414 299.786 4.414C303.659 4.414 307.427 4.98966 311.09 6.14099ZM325.377 38.012C325.482 37.9073 325.639 37.855 325.848 37.855L327.418 37.07C327.314 35.9187 327.261 34.8197 327.261 33.773C327.366 32.6217 327.314 31.3133 327.104 29.848C326.581 26.708 325.377 23.9867 323.493 21.684C321.609 19.2767 319.411 17.2357 316.899 15.561C314.387 13.8863 311.666 12.4733 308.735 11.322C305.805 10.1707 302.979 9.17633 300.257 8.33899C299.42 8.12966 298.844 8.025 298.53 8.025H296.803C293.559 8.025 290.209 8.496 286.755 9.438C283.301 10.38 280.789 11.636 279.219 13.206C278.068 13.206 277.126 13.677 276.393 14.619C275.661 15.4563 275.085 15.875 274.666 15.875C274.457 15.875 274.352 15.7703 274.352 15.561C274.352 15.1423 274.771 14.776 275.608 14.462C276.55 14.0433 277.335 13.4153 277.963 12.578C277.126 12.7873 276.236 13.2583 275.294 13.991C274.457 14.7237 273.672 15.5087 272.939 16.346C272.207 17.1833 271.579 18.0207 271.055 18.858C270.637 19.5907 270.427 20.114 270.427 20.428C270.427 20.114 270.741 19.643 271.369 19.015C272.102 18.387 272.73 17.916 273.253 17.602L273.567 18.544C271.16 20.742 269.485 23.3063 268.543 26.237C267.601 29.063 266.764 31.4703 266.031 33.459C265.403 35.2383 265.037 36.4943 264.932 37.227C264.828 37.9597 264.775 39.3727 264.775 41.466C264.775 44.8153 265.613 48.0077 267.287 51.043C268.962 54.0783 271.265 56.7997 274.195 59.207C274.195 59.7303 274.405 60.2537 274.823 60.777C275.347 61.3003 275.87 61.6667 276.393 61.876C279.219 62.7133 282.098 63.446 285.028 64.074C287.959 64.5973 290.785 65.33 293.506 66.272C296.332 67.214 298.949 68.47 301.356 70.04C303.764 71.5053 305.805 73.5987 307.479 76.32C308.107 77.576 308.421 78.8843 308.421 80.245C308.421 81.815 308.055 83.385 307.322 84.955C306.59 86.4203 305.595 87.781 304.339 89.037C303.083 90.1883 301.618 91.1303 299.943 91.863C298.269 92.5957 296.489 92.962 294.605 92.962C292.721 92.962 291.151 92.7003 289.895 92.177C288.639 91.6537 287.54 90.9733 286.598 90.136C285.761 89.194 285.028 88.1997 284.4 87.153C283.772 86.1063 283.144 85.112 282.516 84.17C281.26 83.7513 279.638 83.542 277.649 83.542C275.556 83.542 273.515 83.699 271.526 84.013C269.642 84.327 267.706 84.484 265.717 84.484H264.304C263.676 84.484 263.258 84.4317 263.048 84.327C263.153 85.1643 263.31 86.211 263.519 87.467C263.729 88.723 263.938 89.9267 264.147 91.078C264.461 92.2293 264.775 93.2237 265.089 94.061C265.403 94.8983 265.665 95.317 265.874 95.317C266.502 97.201 267.549 99.0327 269.014 100.812C270.48 102.487 272.154 104.004 274.038 105.365C275.922 106.621 277.859 107.668 279.847 108.505C281.941 109.342 283.877 109.761 285.656 109.761C286.389 109.761 286.965 109.552 287.383 109.133C287.697 109.447 288.221 109.604 288.953 109.604H289.738C290.68 109.604 291.675 109.813 292.721 110.232C293.768 110.546 294.919 110.703 296.175 110.703C302.037 110.703 307.27 109.028 311.875 105.679C316.481 102.33 320.458 98.4047 323.807 93.904C324.749 91.8107 325.482 89.5603 326.005 87.153C326.633 84.641 326.947 82.0767 326.947 79.46C326.947 75.2733 326.319 71.8193 325.063 69.098C323.912 66.3767 322.29 64.074 320.196 62.19C318.208 60.306 315.853 58.736 313.131 57.48C310.41 56.224 307.584 54.968 304.653 53.712L289.424 47.275C287.436 46.333 286.18 44.8677 285.656 42.879C285.133 40.8903 284.871 39.0063 284.871 37.227C284.871 35.8663 285.028 34.4533 285.342 32.988C285.656 31.418 286.18 30.0573 286.912 28.906C287.75 27.65 288.849 26.6557 290.209 25.923C291.57 25.0857 293.297 24.667 295.39 24.667C297.379 24.667 299.158 25.0857 300.728 25.923C302.403 26.6557 303.868 27.65 305.124 28.906C306.38 30.0573 307.427 31.418 308.264 32.988C309.102 34.558 309.73 36.128 310.148 37.698C311.509 38.012 313.131 38.169 315.015 38.169C316.167 38.169 317.37 38.0643 318.626 37.855C319.882 37.541 321.034 37.384 322.08 37.384C322.604 37.384 323.127 37.4887 323.65 37.698C324.174 37.9073 324.697 38.012 325.22 38.012H325.377Z" fill="black"/>
</svg>
