<svg width="592" height="570" viewBox="0 0 592 570" fill="none" xmlns="http://www.w3.org/2000/svg">
<g clip-path="url(#clip0_34_73)">
<path d="M561.02 531.143C561.02 552.602 435.433 570 280.51 570C125.587 570 0 552.602 0 531.143C0 515.951 62.9519 502.79 154.697 496.405C192.529 493.765 235.276 492.286 280.51 492.286C299.105 492.286 317.275 492.536 334.848 493.013C463.765 496.522 561.02 512.257 561.02 531.143Z" fill="#3F3D56"/>
<path opacity="0.1" d="M244.315 539.081C303.785 539.081 351.995 533.657 351.995 526.965C351.995 520.273 303.785 514.848 244.315 514.848C184.845 514.848 136.636 520.273 136.636 526.965C136.636 533.657 184.845 539.081 244.315 539.081Z" fill="black"/>
<path d="M243.863 535.739C300.084 535.739 345.661 490.843 345.661 435.462C345.661 380.081 300.084 335.186 243.863 335.186C187.641 335.186 142.065 380.081 142.065 435.462C142.065 490.843 187.641 535.739 243.863 535.739Z" fill="#3F3D56"/>
<path d="M275.986 494.793H212.645V548.273H275.986V494.793Z" fill="#6C63FF"/>
<path d="M358.782 507.745L355.162 526.129L378.689 529.472L394.072 521.116L393.167 507.745H358.782Z" fill="#575A89"/>
<path d="M240.243 162.626C240.243 162.626 238.434 181.846 233.909 182.682C229.385 183.517 243.863 216.943 243.863 216.943H265.58L282.772 212.765L274.628 194.381C274.628 194.381 263.77 181.01 271.914 170.147C280.058 159.284 240.243 162.626 240.243 162.626Z" fill="#A0616A"/>
<path opacity="0.1" d="M240.243 162.626C240.243 162.626 238.434 181.846 233.909 182.682C229.385 183.517 243.863 216.943 243.863 216.943H265.58L282.772 212.765L274.628 194.381C274.628 194.381 263.77 181.01 271.914 170.147C280.058 159.284 240.243 162.626 240.243 162.626Z" fill="black"/>
<path d="M195 309.699C195 309.699 171.473 351.481 190.475 359.837C209.478 368.193 214.002 367.358 214.002 369.865C214.002 372.372 210.383 371.536 212.192 375.714C214.002 379.892 208.573 396.605 214.002 406.633C219.431 416.66 217.622 424.181 217.622 424.181C217.622 424.181 217.622 425.017 219.431 428.359C221.241 431.702 222.146 434.209 221.241 435.88C220.336 437.551 214.907 448.415 220.336 450.922C225.765 453.428 253.816 455.1 256.531 450.922C259.246 446.743 253.816 444.236 256.531 441.73C259.246 439.223 261.055 438.387 259.246 436.716C257.436 435.044 255.626 414.154 255.626 414.154C255.626 414.154 260.151 389.92 258.341 386.577C256.531 383.235 253.816 379.892 255.626 377.385C257.436 374.879 259.246 375.714 260.151 372.372C261.055 369.029 262.865 361.508 262.865 361.508L272.819 360.673L296.345 364.851C296.345 364.851 322.587 391.591 351.543 399.948C351.543 399.948 359.686 407.468 362.401 407.468C365.116 407.468 365.116 407.468 364.211 409.14C363.306 410.811 360.591 410.811 362.401 412.482C364.211 414.154 366.925 411.647 365.116 414.154C363.306 416.66 361.496 416.66 363.306 418.332C365.116 420.003 362.401 429.195 362.401 430.031C362.401 430.866 354.257 509.416 356.972 511.088C359.686 512.759 397.691 517.773 400.406 511.088C403.12 504.402 398.596 496.046 398.596 496.046C398.596 496.046 412.169 395.769 408.55 389.084C404.93 382.399 392.262 352.316 324.396 333.097C324.396 333.097 305.394 329.754 305.394 327.247C305.394 324.74 303.584 308.863 299.965 308.027C296.345 307.192 275.533 306.356 275.533 306.356L249.292 313.877L213.097 308.027L195 309.699Z" fill="#2F2E41"/>
<path d="M226.67 450.086L222.146 465.127C222.146 465.127 218.526 489.361 223.051 495.21C226.605 499.805 232.95 505.431 244.717 506.418C248.015 506.698 251.318 505.929 254.079 504.24C256.839 502.55 258.893 500.041 259.9 497.128C260.035 496.779 260.119 496.415 260.151 496.046C260.151 494.375 257.436 474.319 257.436 474.319L252.912 453.429L252.007 447.579L226.67 450.086Z" fill="#2F2E41"/>
<path d="M358.782 521.951C358.782 521.951 354.257 517.773 353.352 521.951C352.448 526.129 348.828 543.677 355.162 544.513C361.496 545.349 422.123 553.705 428.457 550.362C434.791 547.02 446.554 542.006 439.315 539.499C432.076 536.992 411.264 529.472 411.264 529.472C411.264 529.472 399.501 515.266 397.691 514.43C395.881 513.594 385.928 515.266 381.403 518.608C376.879 521.951 358.782 521.951 358.782 521.951Z" fill="#2F2E41"/>
<path d="M261.96 180.175C277.452 180.175 290.011 168.577 290.011 154.27C290.011 139.963 277.452 128.365 261.96 128.365C246.468 128.365 233.909 139.963 233.909 154.27C233.909 168.577 246.468 180.175 261.96 180.175Z" fill="#A0616A"/>
<path d="M259.246 212.765L248.387 201.901L236.351 180.175C236.351 180.175 227.575 177.668 225.765 181.846C223.956 186.024 191.38 199.395 191.38 199.395C191.38 199.395 199.524 269.588 195.905 276.273C192.285 282.958 185.951 309.699 191.38 312.206C196.81 314.713 222.146 312.206 230.29 315.548C238.434 318.891 261.96 318.891 268.294 314.713C274.629 310.534 276.438 307.192 282.772 309.699C288.165 311.833 300.771 238.869 304.4 217.126C304.706 215.3 304.452 213.431 303.667 211.731C302.882 210.031 301.598 208.568 299.959 207.508C291.84 202.249 277.217 193.185 274.629 194.381C271.009 196.052 259.246 212.765 259.246 212.765Z" fill="#575A89"/>
<path d="M298.155 209.422C300.28 209.913 302.191 210.992 303.633 212.515C305.074 214.038 305.976 215.932 306.218 217.942L313.538 278.78C313.538 278.78 295.441 314.713 286.392 290.479C277.343 266.246 298.155 209.422 298.155 209.422Z" fill="#575A89"/>
<path d="M296.345 284.63L316.253 279.616C316.253 279.616 319.872 303.014 323.492 303.014C327.111 303.014 310.823 316.384 302.679 314.713C294.536 313.041 282.772 307.192 281.867 303.014C280.963 298.835 290.011 281.287 290.011 281.287L296.345 284.63Z" fill="#575A89"/>
<path d="M240.785 165.445C242.692 161.561 242.361 157.03 243.938 153.022C244.782 150.876 246.153 148.939 247.942 147.362C249.731 145.786 251.891 144.613 254.252 143.935C256.613 143.257 259.112 143.092 261.554 143.454C263.996 143.815 266.314 144.693 268.327 146.019C270.356 147.354 272.389 149.231 274.865 148.976C277.532 148.701 279.91 145.954 282.361 146.961C285.079 148.077 284.345 152.574 287.097 153.613C288.546 154.159 290.259 153.318 291.094 152.095C291.825 150.811 292.224 149.388 292.258 147.937C292.638 144.373 292.981 140.601 291.307 137.371C290.603 136.276 289.99 135.133 289.472 133.953C289.179 132.851 289.062 131.715 289.123 130.582C289.108 126.392 288.777 122.023 286.494 118.403C283.96 114.386 279.278 111.817 274.393 110.696C269.507 109.575 264.389 109.747 259.374 110.139C251.082 110.788 242.435 112.177 235.902 116.937C235.014 117.536 234.25 118.278 233.646 119.126C233.073 120.134 232.668 121.217 232.444 122.336C231.032 127.648 228.914 132.778 226.14 137.61C224.805 139.658 223.714 141.834 222.886 144.099C222.194 146.4 222.24 149.023 223.69 151.002C224.871 152.612 226.759 153.471 228.241 154.788C229.711 156.092 230.398 158.602 232.026 159.59C233.447 160.452 235.149 159.843 236.598 160.758C238.459 161.931 238.593 164.505 240.785 165.445Z" fill="#2F2E41"/>
<path d="M263.77 225.299L266.485 220.285C266.485 220.285 306.299 231.149 314.443 241.176C314.443 241.176 334.35 229.478 345.208 231.149L356.067 232.82L322.587 260.396L280.058 257.054L263.77 225.299Z" fill="#F2F2F2"/>
<path d="M261.96 220.285L224.861 267.917L278.248 292.15C278.248 292.15 283.239 294.657 287.078 292.15L322.587 277.109L356.067 232.82L322.587 248.697C322.587 248.697 318.967 242.012 311.728 245.355L261.96 220.285Z" fill="#6C63FF"/>
<path d="M318.967 304.685L326.206 287.137C326.206 287.137 342.494 267.917 333.445 258.725C324.396 249.533 314.443 285.465 314.443 285.465L318.967 304.685Z" fill="#A0616A"/>
<path d="M235.445 301.885L251.241 290.059C251.241 290.059 275.772 280.979 272.939 268.835C270.105 256.692 241.973 283.163 241.973 283.163L235.445 301.885Z" fill="#A0616A"/>
<path opacity="0.1" d="M196.357 217.361H195.452C195.452 217.361 181.427 201.901 178.712 222.792C175.998 243.683 166.949 313.041 190.476 315.548C214.002 318.055 230.742 305.103 230.742 305.103C230.742 305.103 247.935 280.869 241.601 280.869C238.536 280.869 230.201 279.598 222.598 280.034C214.488 280.498 207.201 282.608 207.668 280.451C208.573 276.273 221.694 223.21 196.357 217.361Z" fill="black"/>
<path d="M195 201.066L191.38 199.395C191.38 199.395 176.902 201.901 174.188 222.792C171.473 243.683 162.424 313.041 185.951 315.548C209.478 318.055 241.148 312.206 241.148 312.206C241.148 312.206 247.482 280.451 241.148 280.451C234.814 280.451 202.239 284.63 203.144 280.451C204.049 276.273 220.336 206.915 195 201.066Z" fill="#575A89"/>
<path d="M305.847 295.076L315.825 280.952L322.134 304.268L305.847 310.953V295.076Z" fill="#575A89"/>
<path d="M592 140.579C591.65 150.581 589.012 158.599 584.087 164.631C579.161 170.664 573.309 173.681 566.531 173.681C561.01 173.681 556.171 170.729 552.015 164.825C547.856 158.92 545.778 149.838 545.778 137.578C545.778 134.868 545.848 132.287 545.988 129.835C546.127 127.383 546.302 125.06 546.512 122.866L550.18 91.0212H525.969C521.777 131.287 518.335 155.242 515.645 162.889C512.954 170.535 508.395 174.359 501.967 174.359C499.066 174.293 496.297 173.222 494.211 171.358C493.002 170.369 492.045 169.143 491.411 167.771C490.776 166.398 490.48 164.913 490.543 163.421C490.543 160.454 493.076 156.308 498.141 150.984C503.207 145.66 506.019 140.804 506.579 136.417L512.867 91.0212H502.701C499.835 91.037 497.014 91.684 494.473 92.9085C492.135 93.9005 490.1 95.4139 488.551 97.3125L484.044 103.507H480.376C483.799 93.6995 488.009 86.3272 493.006 81.3903C498.001 76.4539 503.748 73.9857 510.247 73.9857H590.323V91.0211H563.282C562.443 98.7645 561.797 106.508 561.343 114.251C560.888 121.994 560.66 129.77 560.662 137.578C560.662 142.87 561.989 147.161 564.644 150.451C567.299 153.742 570.618 155.388 574.602 155.388C577.047 155.388 579.614 154.468 582.305 152.629C583.583 151.801 584.652 150.728 585.438 149.484C586.225 148.239 586.712 146.852 586.864 145.418C587.074 143.999 587.231 142.886 587.336 142.079C587.441 141.273 587.493 140.773 587.493 140.578L592 140.579Z" fill="#6C63FF"/>
<path opacity="0.1" d="M592 140.579C591.65 150.581 589.012 158.599 584.087 164.631C579.161 170.664 573.309 173.681 566.531 173.681C561.01 173.681 556.171 170.729 552.015 164.825C547.856 158.92 545.778 149.838 545.778 137.578C545.778 134.868 545.848 132.287 545.988 129.835C546.127 127.383 546.302 125.06 546.512 122.866L550.18 91.0212H525.969C521.777 131.287 518.335 155.242 515.645 162.889C512.954 170.535 508.395 174.359 501.967 174.359C499.066 174.293 496.297 173.222 494.211 171.358C493.002 170.369 492.045 169.143 491.411 167.771C490.776 166.398 490.48 164.913 490.543 163.421C490.543 160.454 493.076 156.308 498.141 150.984C503.207 145.66 506.019 140.804 506.579 136.417L512.867 91.0212H502.701C499.835 91.037 497.014 91.684 494.473 92.9085C492.135 93.9005 490.1 95.4139 488.551 97.3125L484.044 103.507H480.376C483.799 93.6995 488.009 86.3272 493.006 81.3903C498.001 76.4539 503.748 73.9857 510.247 73.9857H590.323V91.0211H563.282C562.443 98.7645 561.797 106.508 561.343 114.251C560.888 121.994 560.66 129.77 560.662 137.578C560.662 142.87 561.989 147.161 564.644 150.451C567.299 153.742 570.618 155.388 574.602 155.388C577.047 155.388 579.614 154.468 582.305 152.629C583.583 151.801 584.652 150.728 585.438 149.484C586.225 148.239 586.712 146.852 586.864 145.418C587.074 143.999 587.231 142.886 587.336 142.079C587.441 141.273 587.493 140.773 587.493 140.578L592 140.579Z" fill="black"/>
<path d="M592 137.554C591.65 147.557 589.012 155.575 584.087 161.607C579.161 167.64 573.309 170.657 566.531 170.657C561.01 170.657 556.171 167.705 552.015 161.801C547.856 155.896 545.778 146.814 545.778 134.554C545.778 131.844 545.848 129.263 545.988 126.811C546.127 124.359 546.302 122.036 546.512 119.842L550.18 87.997H525.969C521.777 128.262 518.335 152.218 515.645 159.865C512.954 167.511 508.395 171.335 501.967 171.335C499.066 171.269 496.297 170.198 494.211 168.334C493.002 167.345 492.045 166.119 491.411 164.747C490.776 163.374 490.48 161.888 490.543 160.397C490.543 157.43 493.076 153.284 498.141 147.96C503.207 142.636 506.019 137.78 506.579 133.392L512.867 87.997H502.701C499.835 88.0128 497.014 88.6598 494.473 89.8844C492.135 90.8763 490.1 92.3897 488.551 94.2884L484.044 100.483H480.376C483.799 90.6753 488.009 83.3031 493.006 78.3662C498.001 73.4298 503.748 70.9616 510.247 70.9616H590.323V87.997H563.282C562.443 95.7404 561.797 103.484 561.343 111.227C560.888 118.97 560.66 126.746 560.662 134.554C560.662 139.846 561.989 144.137 564.644 147.427C567.299 150.718 570.618 152.364 574.602 152.364C577.047 152.364 579.614 151.444 582.305 149.605C583.583 148.777 584.652 147.704 585.438 146.46C586.225 145.215 586.712 143.828 586.864 142.394C587.074 140.975 587.231 139.862 587.336 139.055C587.441 138.249 587.493 137.748 587.493 137.554H592Z" fill="#6C63FF"/>
</g>
<defs>
<clipPath id="clip0_34_73">
<rect width="592" height="570" fill="white"/>
</clipPath>
</defs>
</svg>
